<?xml version="1.0" encoding="utf-8"?>
<!-- Generator: Adobe Illustrator 17.0.0, SVG Export Plug-In . SVG Version: 6.00 Build 0)  -->
<!DOCTYPE svg PUBLIC "-//W3C//DTD SVG 1.1//EN" "http://www.w3.org/Graphics/SVG/1.1/DTD/svg11.dtd">
<svg version="1.1" id="Слой_1" xmlns="http://www.w3.org/2000/svg" xmlns:xlink="http://www.w3.org/1999/xlink" x="0px" y="0px"
	 width="549px" height="679px" viewBox="0 0 549 679" enable-background="new 0 0 549 679" xml:space="preserve">
<g>
	<polygon fill="#009EE0" points="329.301,298.312 356.789,297.294 352.717,322.747 333.373,323.256 	"/>
</g>
<g>
	<path fill="#4B5974" d="M18.78,141.524l105.373-29.525c1.886-44.746,7.452-80.297,25.961-83.484
		c9.379,2.251,14.196,9.979,16.799,20.362c2.973-19.811,6.826-38.218,24.435-34.616c17.547,20.154,22.857,56.627,23.925,98.756
		l103.847,28.507H18.78z"/>
</g>
<g>
	<path fill="#FCC2AE" d="M104.3,155.778c-7.479,6.253-7.672,16.555-3.055,29.525c4.276,7.501,9.269,12.134,16.29,8.654
		l-12.217,42.76c-5.36,11.878,0.253,23.756,20.362,35.634l9.163,3.054l0.509,41.742l46.833,22.398l2.036,11.708l10.69,2.036
		l3.563-15.781l30.034-17.306l-1.527-64.65l6.618-9.672l-7.127-51.923c5.09,4.83,10.182,3.999,15.272-4.582
		c5.936-15.099,5.624-27.076-4.582-34.106l-58.032-12.727L104.3,155.778z"/>
</g>
<g>
	<polygon fill="#FEFCE9" points="139.504,278.737 143.091,321.373 135.918,317.388 135.918,276.346 	"/>
</g>
<g opacity="0.2078">
	<path d="M113.341,210.354l41.856-12.976c2.271,4.53,14.052,0.227,34.321-9.626l35.159-3.767
		c3.588,20.459,6.629,41.194,7.952,62.783l-5.441,8.371l-0.837,28.043c-30.275-0.996-60.551,1.932-90.826,10.882l-0.419-17.16
		c-23.104-9.938-35.64-21.639-32.229-35.996L113.341,210.354z"/>
</g>
<g>
	<path fill="#4B5974" d="M50.341,326.819l44.287-13.744l-1.527-5.6l41.742-21.889v36.143c11.326,51.16,31.537,94.705,61.595,129.807
		c19.746-27.531,30.731-72.59,33.089-134.898l-1.528-36.142l46.324,16.289l-0.509,10.181l21.889,8.145
		c-15.135,51.873-21.937,102.357-12.726,150.169c-10.919,68.269-16.092,138.628-11.199,213.293l-211.256-1.018
		c0.186-38.12-1.799-75.547-12.726-109.955c8.653,1.931,15.781,2.452,24.434-1.018v-72.286
		c-1.157-90.99-3.563-108.428-7.635-123.699L50.341,326.819z"/>
</g>
<g>
	<polygon fill="#FFFFFF" points="72.23,679 72.23,494.696 179.639,494.296 179.13,679 	"/>
</g>
<g>
	<path fill="#FCC2AE" d="M179.639,497.351l30.544-14.763c15.461-4.515,8.519,13.386-11.709,22.398l59.559,11.199
		c6.968,7.98,3.292,10.64-3.563,11.709l-45.815-4.073l48.869,15.272c7.313,6.781,5.925,9.605-1.527,9.672l-48.36-7.127
		l41.233,19.853c7.06,7.48,4.478,10.945-4.581,11.708l-44.287-16.798l33.088,21.889c7.635,9.617,2.361,10.626-6.618,9.163
		L179.13,562L179.639,497.351z"/>
</g>
<g>
	<path fill="#FFFEE8" d="M49.832,326.31c16.553,43.113,23.054,84.79,20.87,125.226l1.528,42.76V567.6
		c-11.199,1.814-22.398,2.136-33.597-1.527C21.37,509.248,8.844,450.316,16.744,382.305c1.383-18.931,3.599-37.308,9.163-53.45
		L49.832,326.31z"/>
</g>
<g>
	<path fill="#FFFEE8" d="M134.334,317.147c9.971,47.37,27.167,92.839,62.613,134.898c21.17-33.062,31.223-78.83,33.598-133.371
		l-31.562,18.325l-4.072,18.326l-8.654-0.509l-4.072-16.29L134.334,317.147z"/>
</g>
<g>
	<path fill="#FFFEE8" d="M296.721,314.602c-17.454,47.903-20.245,97.533-14.762,148.133l9.163-37.161l37.161,102.32
		c-7.685,56.615,49.341,48.85,54.468,18.326c13.894-52.592,25.58-109.052,34.107-171.042l-55.996-7.636
		c-6.787,28.167-13.575,56.336-20.362,84.503c-16.811-41.559-29.152-87.591-39.197-135.916L296.721,314.602z"/>
</g>
<g>
	<path fill="#FCC2AE" d="M318.102,334.963c-2.796-3.766,8.643-4.868,27.488-4.58c3.227,6.444,8.133,11.211,16.799,12.216
		l13.235,0.509l63.123-13.234l59.05-0.51c2.089,5.286-1.563,7.703-10.181,7.635c-29.843,8.375-58.404,17.686-72.286,37.67
		l-55.486-7.636l-11.199-15.271L318.102,334.963z"/>
</g>
<g>
	<path fill="#FCDC1A" d="M364.934,228.063h39.197c-1.911,17.838-8.374,34.917-18.326,51.414
		C376.99,266.055,369.71,249.562,364.934,228.063z"/>
</g>
<g>
	<polygon fill="#F26791" points="417.876,268.278 480.998,267.26 450.964,283.041 	"/>
</g>
<g>
	<path fill="#FFFFFF" d="M135.861,212.792l-3.563,16.798c20.871,3.893,41.742,2.22,62.613-2.036
		c7.891-7.91,14.41-16.165,16.799-25.452C187.056,202.517,161.856,205.665,135.861,212.792z"/>
</g>
<g>
	<path fill="#028171" d="M134.843,285.586l-40.215,20.871c0.221,24.308,14.329,52.473,38.688,83.484l11.199-1.528l-6.618,7.127
		c14.205,25.304,29.068,50.317,56.505,69.74c21.419-10.096,35.468-41.078,48.36-75.339l-6.109-6.109l8.145,0.509
		c16.325-23.536,26.065-53,29.016-88.574l-45.815-15.271v37.16l2.546,1.527c-3.388,59.23-14.968,102.081-33.089,131.844
		c-28.311-31.81-50.918-72.397-61.595-131.335L134.843,285.586z"/>
</g>
<g>
	<path fill="#FEFCE9" d="M135.52,291.886l-37.057,18.33c5.16,28.127,15.68,52.68,30.283,74.511
		c-17.773-23.826-30.735-49.258-35.862-77.3l42.237-21.916L135.52,291.886z"/>
</g>
<g>
	<polygon fill="#00D49A" points="124.68,97.523 213.893,86.02 214.734,111.83 124.68,111.83 	"/>
</g>
<g>
	<path d="M354.515,143.534v5.374c0,0.851,0.691,1.542,1.542,1.542h0.032c0.851,0,1.542-0.691,1.542-1.542v-5.374
		c0-0.851-0.691-1.542-1.542-1.542h-0.032C355.206,141.992,354.515,142.683,354.515,143.534z"/>
</g>
<g>
	<path d="M354.515,162.741v5.374c0,0.851,0.691,1.542,1.543,1.542h0.031c0.851,0,1.542-0.691,1.542-1.542v-5.374
		c0-0.851-0.691-1.542-1.542-1.542h-0.031C355.206,161.199,354.515,161.89,354.515,162.741z"/>
</g>
<g>
	<path d="M343.783,157.383h5.373c0.852,0,1.543-0.691,1.543-1.543v-0.031c0-0.851-0.691-1.542-1.543-1.542h-5.373
		c-0.852,0-1.543,0.691-1.543,1.542v0.031C342.24,156.692,342.931,157.383,343.783,157.383z"/>
</g>
<g>
	<path d="M362.99,157.383h5.373c0.852,0,1.543-0.691,1.543-1.543v-0.031c0-0.851-0.691-1.543-1.543-1.543h-5.373
		c-0.852,0-1.543,0.692-1.543,1.543v0.031C361.447,156.692,362.138,157.383,362.99,157.383z"/>
</g>
<g>
	<path d="M346.281,148.236l3.799,3.8c0.602,0.602,1.58,0.602,2.182,0l0.022-0.023c0.602-0.602,0.602-1.579,0-2.181l-3.8-3.8
		c-0.602-0.602-1.579-0.602-2.181,0l-0.022,0.022C345.679,146.656,345.679,147.634,346.281,148.236z"/>
</g>
<g>
	<path d="M359.862,161.817l3.8,3.8c0.602,0.602,1.579,0.602,2.181,0l0.022-0.022c0.602-0.602,0.602-1.58,0-2.182l-3.799-3.8
		c-0.602-0.602-1.58-0.602-2.182,0l-0.022,0.023C359.26,160.238,359.26,161.215,359.862,161.817z"/>
</g>
<g>
	<path d="M348.484,165.617l3.8-3.8c0.602-0.602,0.602-1.579,0-2.181l-0.022-0.022c-0.602-0.602-1.579-0.602-2.181,0l-3.8,3.8
		c-0.602,0.602-0.602,1.579,0,2.181l0.022,0.022C346.905,166.219,347.882,166.219,348.484,165.617z"/>
</g>
<g>
	<path d="M362.066,152.036l3.799-3.8c0.602-0.602,0.602-1.58,0-2.182l-0.022-0.022c-0.602-0.602-1.579-0.602-2.181,0l-3.8,3.8
		c-0.602,0.602-0.602,1.579,0,2.181l0.022,0.023C360.486,152.638,361.464,152.638,362.066,152.036z"/>
</g>
<g>
	<path d="M456.187,200.116v3.917c0,0.62,0.504,1.124,1.125,1.124h0.022c0.621,0,1.125-0.504,1.125-1.124v-3.917
		c0-0.621-0.504-1.124-1.125-1.124h-0.022C456.691,198.992,456.187,199.495,456.187,200.116z"/>
</g>
<g>
	<path d="M456.187,214.116v3.917c0,0.621,0.504,1.124,1.125,1.124h0.023c0.62,0,1.124-0.503,1.124-1.124v-3.917
		c0-0.621-0.504-1.124-1.124-1.124h-0.023C456.691,212.992,456.187,213.495,456.187,214.116z"/>
</g>
<g>
	<path d="M448.364,210.21h3.917c0.621,0,1.125-0.503,1.125-1.124v-0.023c0-0.62-0.504-1.124-1.125-1.124h-3.917
		c-0.62,0-1.124,0.504-1.124,1.124v0.023C447.24,209.707,447.744,210.21,448.364,210.21z"/>
</g>
<g>
	<path d="M462.365,210.21h3.917c0.62,0,1.124-0.504,1.124-1.124v-0.023c0-0.621-0.504-1.124-1.124-1.124h-3.917
		c-0.621,0-1.125,0.503-1.125,1.124v0.023C461.24,209.706,461.744,210.21,462.365,210.21z"/>
</g>
<g>
	<path d="M450.185,203.543l2.77,2.77c0.439,0.438,1.151,0.438,1.59,0l0.016-0.017c0.439-0.438,0.439-1.151,0-1.59l-2.77-2.769
		c-0.438-0.439-1.151-0.439-1.59,0l-0.016,0.016C449.746,202.392,449.746,203.104,450.185,203.543z"/>
</g>
<g>
	<path d="M460.085,213.442l2.77,2.77c0.438,0.439,1.151,0.439,1.59,0l0.016-0.016c0.439-0.439,0.439-1.151,0-1.59l-2.77-2.77
		c-0.439-0.439-1.151-0.439-1.59,0l-0.016,0.016C459.646,212.291,459.646,213.004,460.085,213.442z"/>
</g>
<g>
	<path d="M451.791,216.212l2.77-2.769c0.439-0.439,0.439-1.152,0-1.591l-0.016-0.016c-0.439-0.438-1.151-0.438-1.59,0l-2.77,2.77
		c-0.439,0.439-0.439,1.151,0,1.59l0.016,0.016C450.64,216.651,451.353,216.651,451.791,216.212z"/>
</g>
<g>
	<path d="M461.691,206.313l2.77-2.77c0.439-0.439,0.439-1.151,0-1.59l-0.016-0.016c-0.439-0.439-1.152-0.439-1.59,0l-2.77,2.769
		c-0.439,0.439-0.439,1.152,0,1.59l0.016,0.017C460.54,206.751,461.252,206.751,461.691,206.313z"/>
</g>
<g>
	<path d="M342.684,233.367v4.791c0,0.759,0.616,1.375,1.375,1.375h0.028c0.759,0,1.375-0.616,1.375-1.375v-4.791
		c0-0.759-0.616-1.375-1.375-1.375h-0.028C343.3,231.992,342.684,232.608,342.684,233.367z"/>
</g>
<g>
	<path d="M342.684,250.491v4.791c0,0.759,0.616,1.375,1.375,1.375h0.028c0.759,0,1.375-0.616,1.375-1.375v-4.791
		c0-0.759-0.616-1.375-1.375-1.375h-0.028C343.3,249.116,342.684,249.732,342.684,250.491z"/>
</g>
<g>
	<path d="M333.115,245.714h4.791c0.759,0,1.376-0.616,1.376-1.375v-0.028c0-0.759-0.617-1.376-1.376-1.376h-4.791
		c-0.759,0-1.375,0.617-1.375,1.376v0.028C331.74,245.098,332.356,245.714,333.115,245.714z"/>
</g>
<g>
	<path d="M350.24,245.714h4.791c0.759,0,1.375-0.616,1.375-1.376v-0.027c0-0.759-0.616-1.376-1.375-1.376h-4.791
		c-0.759,0-1.376,0.617-1.376,1.376v0.027C348.864,245.098,349.481,245.714,350.24,245.714z"/>
</g>
<g>
	<path d="M335.342,237.559l3.388,3.387c0.537,0.537,1.408,0.537,1.945,0l0.02-0.019c0.537-0.537,0.537-1.409,0-1.945l-3.388-3.388
		c-0.537-0.537-1.408-0.537-1.945,0l-0.02,0.02C334.806,236.15,334.806,237.022,335.342,237.559z"/>
</g>
<g>
	<path d="M347.451,249.667l3.388,3.388c0.537,0.537,1.408,0.537,1.945,0l0.02-0.02c0.536-0.537,0.536-1.408,0-1.945l-3.388-3.387
		c-0.537-0.537-1.408-0.537-1.945,0l-0.02,0.019C346.914,248.259,346.914,249.13,347.451,249.667z"/>
</g>
<g>
	<path d="M337.307,253.055l3.388-3.388c0.537-0.536,0.537-1.408,0-1.945l-0.02-0.019c-0.537-0.537-1.408-0.537-1.945,0l-3.387,3.388
		c-0.537,0.536-0.537,1.408,0,1.944l0.019,0.02C335.899,253.592,336.77,253.592,337.307,253.055z"/>
</g>
<g>
	<path d="M349.416,240.946l3.388-3.387c0.536-0.537,0.536-1.409,0-1.945l-0.02-0.02c-0.537-0.537-1.408-0.537-1.945,0l-3.388,3.388
		c-0.537,0.536-0.537,1.408,0,1.945l0.02,0.019C348.008,241.483,348.879,241.483,349.416,240.946z"/>
</g>
<g>
	<path fill="#E76C89" d="M459.562,160.566c0.008-0.009,0.016-0.016,0.026-0.024c-0.672-0.859-1.215-1.842-1.591-2.93
		c-1.828-5.286,0.977-11.06,6.259-12.889c4.464-1.546,9.28,0.218,11.765,3.993c1.186-1.798,2.951-3.234,5.141-3.993
		c5.284-1.828,11.055,0.976,12.882,6.261c1.343,3.887,0.185,8.041-2.64,10.681c-4.145,4.719-9.774,10.038-15.588,13.739
		C469.436,171.967,464.057,166.158,459.562,160.566z"/>
</g>
<g>
	<path fill="#A10026" d="M475.899,177.676l-1.014-0.545c-7.073-3.811-12.722-10.198-16.853-15.336l-1.102-1.372l0.133-0.134
		c-0.367-0.646-0.675-1.327-0.92-2.037c-2.18-6.301,1.172-13.202,7.471-15.383c1.278-0.443,2.608-0.667,3.951-0.667
		c3.206,0,6.223,1.255,8.455,3.443c1.264-1.239,2.787-2.183,4.5-2.776c1.279-0.442,2.608-0.667,3.951-0.667
		c5.151,0,9.743,3.271,11.426,8.14c1.545,4.472,0.335,9.439-3.081,12.687c-2.931,3.329-8.845,9.508-15.947,14.03L475.899,177.676z
		 M462.237,160.744c3.55,4.296,8.103,9.182,13.503,12.365c4.67-3.138,9.786-7.724,14.191-12.739l0.134-0.139
		c2.342-2.188,3.176-5.567,2.126-8.607c-1.138-3.289-4.239-5.499-7.719-5.499c-0.905,0-1.803,0.151-2.668,0.451
		c-1.714,0.594-3.148,1.707-4.146,3.22l-1.639,2.484l-1.637-2.486c-1.512-2.297-4.06-3.668-6.816-3.668
		c-0.905,0-1.803,0.152-2.668,0.451c-4.255,1.474-6.52,6.136-5.047,10.394c0.298,0.86,0.729,1.655,1.282,2.363L462.237,160.744z"/>
</g>
<g>
	<path fill="#E76C89" d="M340.539,90.069c0.004-0.004,0.007-0.008,0.016-0.012c-0.392-0.5-0.71-1.073-0.929-1.707
		c-1.065-3.079,0.569-6.442,3.647-7.507c2.602-0.901,5.406,0.127,6.855,2.326c0.691-1.048,1.719-1.884,2.995-2.326
		c3.078-1.064,6.441,0.568,7.506,3.647c0.782,2.264,0.109,4.682-1.537,6.219c-2.416,2.75-5.697,5.847-9.083,8.003
		C346.292,96.71,343.157,93.328,340.539,90.069z"/>
</g>
<g>
	<path fill="#A10026" d="M350.057,100.036l-0.59-0.318c-4.13-2.225-7.417-5.943-9.819-8.934l-0.643-0.8l0.076-0.076
		c-0.214-0.376-0.394-0.772-0.536-1.185c-1.27-3.67,0.684-7.69,4.354-8.96c0.745-0.258,1.52-0.389,2.303-0.389
		c1.867,0,3.624,0.731,4.925,2.006c0.736-0.722,1.624-1.271,2.622-1.617c0.745-0.258,1.52-0.388,2.302-0.388
		c3.001,0,5.677,1.905,6.658,4.742c0.9,2.605,0.196,5.498-1.794,7.387c-1.706,1.938-5.15,5.536-9.292,8.172L350.057,100.036z
		 M342.083,90.154c1.961,2.372,4.698,5.338,7.882,7.22c2.723-1.83,5.704-4.501,8.268-7.42l0.079-0.081
		c1.363-1.273,1.849-3.24,1.237-5.01c-0.663-1.916-2.47-3.203-4.498-3.203c-0.527,0-1.05,0.088-1.554,0.263
		c-0.999,0.346-1.834,0.994-2.415,1.875l-0.954,1.447l-0.955-1.448c-1.173-1.779-3.489-2.581-5.526-1.875
		c-2.479,0.858-3.798,3.573-2.941,6.053c0.172,0.499,0.424,0.961,0.749,1.376L342.083,90.154z"/>
</g>
<g>
	<path fill="#E76C89" d="M312.725,205.661c0.005-0.005,0.009-0.011,0.021-0.016c-0.506-0.645-0.916-1.384-1.198-2.202
		c-1.373-3.972,0.734-8.31,4.702-9.684c3.355-1.163,6.971,0.164,8.839,3c0.891-1.352,2.216-2.43,3.862-3
		c3.968-1.373,8.305,0.732,9.678,4.705c1.008,2.92,0.14,6.04-1.982,8.022c-3.115,3.548-7.346,7.543-11.711,10.325
		C320.143,214.228,316.101,209.865,312.725,205.661z"/>
</g>
<g>
	<path fill="#A10026" d="M324.999,218.519l-0.762-0.411c-5.323-2.869-9.562-7.666-12.661-11.524l-0.828-1.031l0.099-0.099
		c-0.277-0.486-0.508-0.998-0.692-1.531c-1.636-4.734,0.882-9.919,5.614-11.558c0.961-0.333,1.96-0.502,2.97-0.502
		c2.407,0,4.673,0.943,6.351,2.587c0.949-0.931,2.093-1.64,3.38-2.085c0.961-0.332,1.959-0.501,2.969-0.501
		c3.871,0,7.321,2.458,8.585,6.118c1.16,3.361,0.251,7.092-2.314,9.529c-2.198,2.499-6.637,7.138-11.98,10.543L324.999,218.519z
		 M314.787,205.856c2.524,3.046,6.027,6.825,10.093,9.229c3.513-2.362,7.355-5.809,10.66-9.572l0.102-0.105
		c1.757-1.641,2.383-4.178,1.594-6.463c-0.854-2.471-3.184-4.131-5.798-4.131c-0.68,0-1.354,0.114-2.004,0.339
		c-1.288,0.446-2.364,1.282-3.113,2.418l-1.231,1.869l-1.231-1.869c-1.137-1.727-3.051-2.757-5.12-2.757
		c-0.68,0-1.355,0.114-2.005,0.339c-3.197,1.107-4.897,4.61-3.792,7.809c0.223,0.646,0.547,1.242,0.964,1.773L314.787,205.856z"/>
</g>
<g>
	<path d="M139.735,398.806c-0.615-1.088-1.227-2.177-1.838-3.266l3.989-4.296c1.023,0.326,1.909,1.066,2.388,2.118
		c0.899,1.976,0.024,4.311-1.952,5.209C141.478,398.955,140.57,399.016,139.735,398.806z"/>
</g>
<g>
	<circle cx="154.447" cy="394.991" r="3.934"/>
</g>
<g>
	<path d="M158.768,406.023c-0.898-1.976-0.024-4.312,1.952-5.21c0.587-0.267,1.206-0.377,1.809-0.349
		c1.045,2.017,2.108,4.001,3.191,5.957c-0.396,0.66-0.989,1.211-1.742,1.553C162.002,408.873,159.667,407.999,158.768,406.023z"/>
</g>
<g>
	<path d="M165.929,416.146c-0.899-1.976-0.025-4.311,1.951-5.21c0.108-0.049,0.217-0.093,0.327-0.131
		c1.301,2.237,2.627,4.436,3.978,6.598c-0.301,0.279-0.652,0.516-1.046,0.695C169.163,418.996,166.827,418.122,165.929,416.146z"/>
</g>
<g>
	<circle cx="162.597" cy="424.867" r="3.934"/>
</g>
<g>
	<path d="M173.458,426.496c-0.812-1.782-0.179-3.857,1.404-4.906c1.446,2.21,2.917,4.38,4.414,6.514
		c-0.189,0.13-0.392,0.246-0.608,0.344C176.692,429.347,174.357,428.472,173.458,426.496z"/>
</g>
<g>
	<path d="M181.36,435.899c-0.641-1.41-0.38-3.003,0.541-4.126c1.511,2.071,3.046,4.107,4.602,6.108
		C184.542,438.73,182.248,437.853,181.36,435.899z"/>
</g>
<g>
	<circle cx="170.012" cy="434.27" r="3.934"/>
</g>
<g>
	<path d="M188.521,446.023c-0.715-1.57-0.31-3.367,0.878-4.49c1.654,2.047,3.33,4.057,5.029,6.033
		c-0.214,0.157-0.447,0.294-0.698,0.408C191.754,448.873,189.419,447.999,188.521,446.023z"/>
</g>
<g>
	<circle cx="177.172" cy="444.393" r="3.934"/>
</g>
<g>
	<circle cx="154.2" cy="414.25" r="3.934"/>
</g>
<g>
	<path d="M145.313,408.489c-0.816-1.382-1.622-2.765-2.421-4.151c0.17-1.303,0.989-2.492,2.272-3.075
		c1.976-0.899,4.311-0.025,5.21,1.951c0.899,1.976,0.024,4.312-1.952,5.21C147.398,408.89,146.278,408.88,145.313,408.489z"/>
</g>
<g>
	<path d="M180.799,454.336c0.187-1.281,1-2.444,2.265-3.019c1.976-0.899,4.311-0.025,5.21,1.951c0.898,1.976,0.024,4.311-1.952,5.21
		c-0.176,0.08-0.353,0.146-0.533,0.198C184.073,457.252,182.411,455.804,180.799,454.336z"/>
</g>
<g>
	<circle cx="200.497" cy="454.897" r="3.934"/>
</g>
<g>
	<path d="M189.611,461.736c0.361-0.421,0.817-0.772,1.355-1.017c1.976-0.898,4.311-0.024,5.21,1.952
		c0.225,0.496,0.339,1.014,0.352,1.526c-0.701,0.384-1.409,0.746-2.126,1.083C192.76,464.119,191.164,462.937,189.611,461.736z"/>
</g>
<g>
	<path d="M130.292,287.948l0.038-0.019l4.513-2.343l0.075,2.544l0.003,0.088c-0.158,0.101-0.325,0.193-0.5,0.272
		C133.01,289.132,131.416,288.87,130.292,287.948z"/>
</g>
<g>
	<path d="M109.141,298.926l0.105-0.055l3.969-2.06c-0.389,0.77-1.033,1.419-1.879,1.803
		C110.623,298.938,109.863,299.032,109.141,298.926z"/>
</g>
<g>
	<path d="M121.443,296.662c-0.764-1.677-0.249-3.614,1.134-4.711l0.446-0.23l0.894-0.463c1.848-0.544,3.866,0.343,4.687,2.146
		c0.899,1.976,0.025,4.311-1.952,5.21C124.676,299.512,122.341,298.638,121.443,296.662z"/>
</g>
<g>
	<path d="M99.213,307.012c-0.425-0.934-0.454-1.948-0.157-2.853l0.031-0.016l4.856-2.52c1.041,0.318,1.945,1.064,2.431,2.131
		c0.899,1.976,0.025,4.311-1.951,5.21C102.447,309.863,100.112,308.988,99.213,307.012z"/>
</g>
<g>
	<path d="M94.815,310.853c1.521-0.029,2.988,0.833,3.658,2.304c0.898,1.976,0.024,4.311-1.952,5.21
		c-0.23,0.105-0.465,0.185-0.701,0.243C95.343,315.985,95.007,313.399,94.815,310.853z"/>
</g>
<g>
	<circle cx="117.236" cy="305.383" r="3.934"/>
</g>
<g>
	<path d="M129.459,307.012c-0.899-1.976-0.024-4.311,1.952-5.21c1.328-0.603,2.82-0.406,3.927,0.389l0.184,6.156l0.003,0.087
		c-0.256,0.208-0.542,0.388-0.856,0.53C132.693,309.863,130.358,308.988,129.459,307.012z"/>
</g>
<g>
	<circle cx="125.138" cy="314.786" r="3.934"/>
</g>
<g>
	<circle cx="110.209" cy="314.786" r="3.934"/>
</g>
<g>
	<circle cx="102.053" cy="324.909" r="3.934"/>
</g>
<g>
	<circle cx="132.299" cy="324.909" r="3.934"/>
</g>
<g>
	<circle cx="117.369" cy="324.909" r="3.934"/>
</g>
<g>
	<circle cx="110.448" cy="335.413" r="3.934"/>
</g>
<g>
	<path d="M102.756,340.888c1.416,0.078,2.743,0.921,3.371,2.299c0.624,1.373,0.392,2.919-0.47,4.037
		C104.62,345.091,103.652,342.979,102.756,340.888z"/>
</g>
<g>
	<circle cx="124.89" cy="335.413" r="3.934"/>
</g>
<g>
	<path d="M137.113,337.042c-0.786-1.726-0.217-3.727,1.258-4.805c0.523,2.381,1.067,4.731,1.63,7.049
		C138.772,339.065,137.668,338.264,137.113,337.042z"/>
</g>
<g>
	<circle cx="132.792" cy="344.816" r="3.934"/>
</g>
<g>
	<circle cx="117.863" cy="344.816" r="3.934"/>
</g>
<g>
	<path d="M107.813,351.491c0.085-0.046,0.173-0.09,0.264-0.132c1.976-0.899,4.312-0.025,5.21,1.951
		c0.856,1.882,0.104,4.09-1.676,5.072C110.27,356.064,109.003,353.767,107.813,351.491z"/>
</g>
<g>
	<circle cx="139.953" cy="354.939" r="3.934"/>
</g>
<g>
	<circle cx="125.024" cy="354.939" r="3.934"/>
</g>
<g>
	<path d="M114.22,362.764c0.366-0.438,0.833-0.803,1.387-1.055c1.976-0.899,4.311-0.024,5.209,1.952
		c0.899,1.976,0.025,4.311-1.951,5.21c-0.207,0.094-0.417,0.169-0.629,0.224C116.84,366.97,115.501,364.859,114.22,362.764z"/>
</g>
<g>
	<circle cx="133.04" cy="365.29" r="3.934"/>
</g>
<g>
	<path d="M124.786,378.611c-1.183-1.645-2.334-3.282-3.454-4.911c0.289-1.106,1.056-2.078,2.177-2.588
		c1.976-0.899,4.311-0.025,5.21,1.951c0.898,1.976,0.024,4.312-1.952,5.21C126.124,378.566,125.443,378.671,124.786,378.611z"/>
</g>
<g>
	<path d="M132.384,388.75c-1.317-1.691-2.603-3.373-3.858-5.047c0.312-1.056,1.063-1.976,2.143-2.468
		c1.976-0.898,4.311-0.024,5.21,1.952c0.899,1.976,0.024,4.311-1.952,5.21C133.425,388.625,132.901,388.739,132.384,388.75z"/>
</g>
<g>
	<path d="M143.213,366.919c-0.899-1.976-0.025-4.311,1.951-5.21c0.358-0.162,0.728-0.267,1.099-0.318
		c0.807,2.475,1.638,4.91,2.494,7.308c-0.108,0.062-0.22,0.12-0.335,0.172C146.446,369.769,144.111,368.895,143.213,366.919z"/>
</g>
<g>
	<path d="M151.115,376.322c-0.313-0.686-0.411-1.415-0.324-2.113c0.447,1.17,0.9,2.332,1.358,3.484
		C151.72,377.329,151.363,376.868,151.115,376.322z"/>
</g>
<g>
	<circle cx="139.953" cy="374.699" r="3.934"/>
</g>
<g>
	<circle cx="146.867" cy="384.823" r="3.934"/>
</g>
<g>
	<circle cx="224.536" cy="394.991" r="3.934"/>
</g>
<g>
	<path d="M216.117,408.294c0.75-2.439,1.473-4.928,2.17-7.468c0.825,0.381,1.522,1.048,1.927,1.938
		c0.899,1.976,0.025,4.312-1.951,5.21C217.566,408.291,216.825,408.388,216.117,408.294z"/>
</g>
<g>
	<path d="M235.396,396.62c-0.898-1.976-0.024-4.311,1.952-5.21c1.582-0.719,3.394-0.302,4.515,0.908
		c-0.84,2.213-1.687,4.412-2.541,6.592C237.707,399.052,236.105,398.179,235.396,396.62z"/>
</g>
<g>
	<circle cx="231.951" cy="404.393" r="3.934"/>
</g>
<g>
	<circle cx="223.794" cy="414.517" r="3.934"/>
</g>
<g>
	<circle cx="216.881" cy="424.867" r="3.934"/>
</g>
<g>
	<path d="M205.481,436.07c0.865-1.832,1.711-3.704,2.536-5.615c1.808-0.456,3.743,0.429,4.543,2.186
		c0.899,1.976,0.025,4.311-1.951,5.21C208.689,438.723,206.433,437.925,205.481,436.07z"/>
</g>
<g>
	<path d="M229.694,421.286c0.047-0.021,0.095-0.042,0.143-0.062c-0.754,1.606-1.518,3.188-2.292,4.743
		C227.006,424.12,227.892,422.106,229.694,421.286z"/>
</g>
<g>
	<path d="M220.716,435.899c-0.899-1.976-0.025-4.311,1.951-5.21c0.839-0.381,1.744-0.443,2.576-0.236
		c-1.209,2.282-2.442,4.493-3.703,6.626C221.204,436.749,220.922,436.353,220.716,435.899z"/>
</g>
<g>
	<path d="M212.559,446.023c-0.899-1.976-0.024-4.312,1.952-5.21c1.483-0.674,3.168-0.35,4.297,0.689
		c-1.448,2.241-2.934,4.376-4.461,6.393C213.583,447.505,212.941,446.864,212.559,446.023z"/>
</g>
<g>
	<path d="M205.15,456.526c-0.898-1.976-0.024-4.311,1.952-5.209c1.392-0.633,2.963-0.386,4.084,0.507
		c-1.753,2.044-3.561,3.934-5.429,5.651C205.516,457.196,205.31,456.879,205.15,456.526z"/>
</g>
<g>
	<path d="M243.299,286.538c-0.155-0.34-0.258-0.692-0.31-1.045l6.615,2.205l0.038,0.013c-0.32,0.316-0.7,0.582-1.133,0.779
		C246.533,289.389,244.198,288.514,243.299,286.538z"/>
</g>
<g>
	<path d="M228.37,286.538c-0.898-1.976-0.024-4.311,1.952-5.209c0.025-0.011,0.05-0.022,0.076-0.033l4.873,1.625l0.091,0.029
		c0.061,0.107,0.118,0.217,0.17,0.33c0.899,1.976,0.024,4.311-1.952,5.21C231.604,289.389,229.269,288.514,228.37,286.538z"/>
</g>
<g>
	<circle cx="254.041" cy="295.033" r="3.934"/>
</g>
<g>
	<circle cx="239.112" cy="295.033" r="3.934"/>
</g>
<g>
	<path d="M227.998,307.487l0.001-0.121l-0.001-4.083c0.395-0.628,0.972-1.151,1.697-1.481c1.976-0.898,4.311-0.024,5.209,1.952
		c0.899,1.976,0.025,4.311-1.951,5.21C231.143,309.788,229.031,309.123,227.998,307.487z"/>
</g>
<g>
	<circle cx="247.128" cy="305.383" r="3.934"/>
</g>
<g>
	<circle cx="239.226" cy="314.786" r="3.934"/>
</g>
<g>
	<path d="M227.999,316.052v-2.597c0.318,0.885,0.299,1.823,0,2.658V316.052z"/>
</g>
<g>
	<circle cx="246.387" cy="324.909" r="3.934"/>
</g>
<g>
	<path d="M229.932,328.535c0.181-2.445,0.347-4.919,0.499-7.423c1.826-0.495,3.798,0.391,4.607,2.168
		c0.899,1.976,0.024,4.311-1.952,5.21C232.047,328.963,230.908,328.945,229.932,328.535z"/>
</g>
<g>
	<circle cx="260.882" cy="305.383" r="3.934"/>
</g>
<g>
	<path d="M272.967,304.213c-0.059,0.547-0.124,1.087-0.19,1.628C272.712,305.282,272.769,304.726,272.967,304.213z"/>
</g>
<g>
	<path d="M265.203,316.415c-0.899-1.976-0.025-4.311,1.952-5.21c1.684-0.766,3.63-0.243,4.724,1.153
		c-0.293,1.929-0.609,3.836-0.947,5.724c-0.163,0.107-0.337,0.202-0.519,0.285C268.437,319.265,266.102,318.391,265.203,316.415z"/>
</g>
<g>
	<path d="M264.708,296.395c-0.548-1.203-0.438-2.539,0.178-3.603l7.243,2.414l0.066,0.022c-0.158,1.32-0.98,2.529-2.277,3.119
		C267.942,299.245,265.607,298.371,264.708,296.395z"/>
</g>
<g>
	<circle cx="254.041" cy="314.792" r="3.934"/>
</g>
<g>
	<circle cx="260.955" cy="324.916" r="3.934"/>
</g>
<g>
	<circle cx="238.978" cy="335.413" r="3.934"/>
</g>
<g>
	<circle cx="254.782" cy="335.413" r="3.934"/>
</g>
<g>
	<circle cx="246.88" cy="344.816" r="3.934"/>
</g>
<g>
	<path d="M228.37,346.445c-0.023-0.05-0.045-0.101-0.066-0.151c0.135-1.22,0.265-2.449,0.392-3.686
		c0.392-0.58,0.943-1.062,1.626-1.373c1.976-0.898,4.311-0.024,5.21,1.952c0.899,1.976,0.024,4.311-1.952,5.21
		C231.604,349.295,229.269,348.421,228.37,346.445z"/>
</g>
<g>
	<path d="M227.452,353.494c0.515,1.298,0.288,2.726-0.497,3.788C227.126,356.028,227.291,354.765,227.452,353.494z"/>
</g>
<g>
	<circle cx="254.041" cy="354.939" r="3.934"/>
</g>
<g>
	<circle cx="239.112" cy="354.939" r="3.934"/>
</g>
<g>
	<circle cx="231.324" cy="365.29" r="3.934"/>
</g>
<g>
	<circle cx="247.128" cy="365.29" r="3.934"/>
</g>
<g>
	<circle cx="239.226" cy="374.692" r="3.934"/>
</g>
<g>
	<path d="M223.47,378.539c0.493-2.536,0.965-5.115,1.414-7.735c1.271,0.193,2.422,1.004,2.994,2.259
		c0.898,1.976,0.024,4.312-1.952,5.21C225.126,378.637,224.268,378.711,223.47,378.539z"/>
</g>
<g>
	<path d="M244.798,384.341l-2.297-0.143c0.202-1.258,1.01-2.396,2.256-2.963c0.755-0.343,1.563-0.427,2.324-0.29
		C246.334,382.091,245.573,383.223,244.798,384.341z"/>
</g>
<g>
	<circle cx="231.457" cy="384.816" r="3.934"/>
</g>
<g>
	<path d="M264.955,337.042c-0.899-1.976-0.025-4.311,1.951-5.21c0.38-0.173,0.774-0.28,1.169-0.326
		c-0.594,2.387-1.227,4.739-1.899,7.056C265.664,338.179,265.238,337.666,264.955,337.042z"/>
</g>
<g>
	<path d="M257.301,346.895c-0.899-1.976-0.024-4.311,1.952-5.21c1.976-0.898,4.311-0.024,5.21,1.952
		c0.032,0.072,0.063,0.145,0.091,0.217c-0.521,1.608-1.06,3.197-1.62,4.769c-0.135,0.082-0.276,0.157-0.423,0.224
		C260.535,349.745,258.2,348.871,257.301,346.895z"/>
</g>
<g>
	<path d="M252.412,371.118c0.213-0.097,0.431-0.173,0.65-0.23c-0.903,1.669-1.835,3.312-2.794,4.929
		C249.718,373.965,250.604,371.941,252.412,371.118z"/>
</g>
<g>
	<path fill="#FEFCE9" d="M162.407,155.538c-3.815,26.427-6.105,40.486,1.256,37.67l23.021-4.604
		c-20.613,11.658-32.27,13.865-33.066,4.604c-0.452-10.405-0.002-21.112,2.93-32.647L162.407,155.538z"/>
</g>
<g>
	<path fill="#FEFCE9" d="M124.761,168.363l1.196,16.337l-15.54,54.988c-5.586,10.006,2.416,21.521,25.103,34.666
		c-19.076-4.929-31.899-13.682-31.877-30.283l17.134-58.973l-0.399-17.93L124.761,168.363z"/>
</g>
<g>
	<path fill="#FEFCE9" d="M132.332,225.343c-10.569,4.011-16.885,15.247-4.781,18.329l19.126,1.594
		c-15.81-2.743-25.718-6.472-15.54-13.547L132.332,225.343z"/>
</g>
<g>
	<path fill="#FEFCE9" d="M107.229,158.003c-9.758,6.589-0.036,34.586,4.782,32.275c3.224,0.949,5.797-0.717,7.969-3.984
		l-1.196,6.375c-5.221,1.73-10.257,4.673-17.93-9.563C98.246,169.146,97.753,157.684,107.229,158.003z"/>
</g>
<g>
	<polygon fill="#80C8D7" points="20.365,141.267 124.363,110.984 144.286,112.18 65.391,141.267 	"/>
</g>
<g>
	<polygon fill="#00FFB9" points="140.7,112.578 141.098,94.647 124.761,95.843 125.16,110.984 	"/>
</g>
<g>
	<path fill="#80C8D7" d="M140.301,95.444c-2.686-61.904,7.064-70.182,21.517-58.175c-19.886-24.048-33.504,4.475-37.455,59.371
		L140.301,95.444z"/>
</g>
<g>
	<path fill="#80C8D7" d="M166.6,67.153c-0.822-52.831,19.406-75.684,40.245-27.494c-17.606-32.138-30.315-33.836-33.87,27.096
		C173.278,71.545,165.645,71.788,166.6,67.153z"/>
</g>
<g>
	<path fill="#80C8D7" d="M93.681,312.208L48.257,327.35c21.884,46.078,24.126,85.908,21.915,124.319
		c4.21-31.102,5.774-64.973-14.742-121.929l39.447-12.75L93.681,312.208z"/>
</g>
<g>
	<path fill="#FFFFFF" d="M51.047,330.537l-21.119,3.586c-17.775,76.785-12.757,152.983,10.36,228.717
		C18.241,493.367,1.736,421.187,25.545,329.342l23.509-2.789L51.047,330.537z"/>
</g>
<g>
	<path fill="#FCF29A" d="M54.633,569.216c8.82,37.204,11.663,72.913,11.954,107.983l-5.579-0.797
		c1.833-32.779-1.25-68.207-13.149-108.382L54.633,569.216z"/>
</g>
<g>
	<path d="M206.048,491.866c-0.196,0-0.387-0.077-0.53-0.22l-3.586-3.586c-0.293-0.293-0.293-0.768,0-1.061s0.768-0.293,1.061,0
		l3.252,3.252c2.639-0.959,4.202-2.137,4.648-3.504c0.36-1.104-0.002-2.438-1.076-3.966c-0.238-0.34-0.156-0.808,0.183-1.045
		c0.339-0.241,0.806-0.156,1.045,0.182c1.36,1.937,1.789,3.718,1.274,5.295c-0.633,1.941-2.606,3.45-6.03,4.612
		C206.21,491.854,206.129,491.866,206.048,491.866z"/>
</g>
<g>
	<path d="M256.273,527.937c-0.1,0-0.201-0.02-0.298-0.063c-0.38-0.165-0.554-0.606-0.389-0.986c0.854-1.966,0.863-3.558,0.027-4.732
		c-1.219-1.71-4.323-2.571-8.339-2.307c-1.288,1.481-1.129,3.784-0.757,6.064c0.067,0.409-0.21,0.795-0.619,0.861
		c-0.414,0.069-0.794-0.21-0.861-0.619c-0.432-2.646-0.608-5.614,1.364-7.567c0.126-0.125,0.293-0.201,0.47-0.215
		c4.756-0.36,8.385,0.695,9.963,2.912c0.799,1.122,1.47,3.109,0.127,6.2C256.838,527.768,256.562,527.937,256.273,527.937z"/>
</g>
<g>
	<path d="M256.636,548.528c-0.1,0-0.201-0.02-0.298-0.063c-0.38-0.165-0.554-0.606-0.389-0.986c0.713-1.641,0.725-2.964,0.034-3.934
		c-1.014-1.424-3.605-2.14-6.977-1.927c-1.038,1.234-0.902,3.152-0.592,5.055c0.067,0.409-0.21,0.795-0.619,0.861
		c-0.41,0.066-0.795-0.211-0.861-0.619c-0.374-2.287-0.523-4.854,1.196-6.558c0.126-0.125,0.293-0.201,0.47-0.215
		c4.098-0.309,7.233,0.607,8.604,2.532c0.699,0.981,1.288,2.715,0.12,5.401C257.202,548.359,256.926,548.528,256.636,548.528z"/>
</g>
<g>
	<path d="M246.197,572.044c-0.145,0-0.291-0.042-0.419-0.129c-0.343-0.231-0.434-0.698-0.202-1.041
		c1.002-1.482,1.256-2.782,0.755-3.861c-0.735-1.586-3.156-2.763-6.504-3.174c-1.247,1.022-1.465,2.934-1.509,4.86
		c-0.01,0.415-0.363,0.758-0.767,0.733c-0.414-0.01-0.742-0.353-0.733-0.767c0.053-2.317,0.376-4.869,2.379-6.228
		c0.147-0.1,0.327-0.143,0.501-0.125c4.085,0.441,6.999,1.924,7.994,4.067c0.507,1.094,0.768,2.906-0.873,5.333
		C246.675,571.929,246.438,572.044,246.197,572.044z"/>
</g>
<g>
	<path d="M229.86,587.834c-0.185,0-0.371-0.068-0.516-0.205c-0.301-0.285-0.314-0.76-0.029-1.061c1.23-1.3,1.692-2.54,1.374-3.688
		c-0.468-1.684-2.664-3.24-5.9-4.19c-1.397,0.805-1.924,2.655-2.281,4.549c-0.077,0.407-0.47,0.676-0.875,0.599
		c-0.407-0.077-0.675-0.469-0.598-0.876c0.429-2.277,1.164-4.741,3.362-5.755c0.162-0.074,0.344-0.089,0.515-0.042
		c3.958,1.101,6.591,3.038,7.224,5.315c0.323,1.161,0.284,2.992-1.73,5.119C230.257,587.756,230.059,587.834,229.86,587.834z"/>
</g>
<g>
	<path fill="#E76C89" d="M101.4,654.826l-3.042-3.041l-3.065,3.066l3.041,3.041L101.4,654.826z M101.456,661.066l-3.088-3.089
		l-3.122,3.122l-3.101-3.1l-3.101,3.101l-3.148-3.148l3.148-3.149l3.101,3.101l3.066-3.065l-3.101-3.101l3.147-3.147l3.1,3.101
		l3.103-3.102l3.088,3.088l3.122-3.122l3.148,3.148l-3.148,3.148l-3.09-3.089l-3.065,3.066l3.089,3.089L101.456,661.066z"/>
</g>
<g>
	<path fill="#E76C89" d="M119.963,654.826l-3.042-3.041l-3.064,3.066l3.04,3.041L119.963,654.826z M120.019,661.066l-3.088-3.089
		l-3.122,3.122l-3.1-3.1l-3.102,3.101l-3.148-3.148l3.148-3.149l3.102,3.101l3.065-3.065l-3.1-3.101l3.146-3.147l3.101,3.101
		l3.102-3.102l3.087,3.088l3.123-3.122l3.148,3.148l-3.148,3.148l-3.089-3.089l-3.066,3.066l3.089,3.089L120.019,661.066z"/>
</g>
<g>
	<path fill="#E76C89" d="M138.526,654.826l-3.041-3.041l-3.066,3.066l3.041,3.041L138.526,654.826z M138.583,661.066l-3.089-3.089
		l-3.122,3.122l-3.1-3.1l-3.101,3.101l-3.149-3.148l3.149-3.149l3.101,3.101l3.065-3.065l-3.101-3.101l3.147-3.147l3.101,3.101
		l3.102-3.102l3.088,3.088l3.122-3.122l3.149,3.148l-3.149,3.148l-3.089-3.089l-3.065,3.066l3.088,3.089L138.583,661.066z"/>
</g>
<g>
	<path fill="#E76C89" d="M156.95,654.826l-3.04-3.041l-3.065,3.066l3.04,3.041L156.95,654.826z M157.007,661.066l-3.089-3.089
		l-3.122,3.122l-3.1-3.1l-3.102,3.101l-3.147-3.148l3.147-3.149l3.102,3.101l3.065-3.065l-3.101-3.101l3.148-3.147l3.101,3.101
		l3.102-3.102l3.088,3.088l3.122-3.122l3.148,3.148l-3.148,3.148l-3.09-3.089l-3.065,3.066l3.089,3.089L157.007,661.066z"/>
</g>
<g>
	<path fill="#E76C89" d="M172.462,657.892l3.065-3.066l-3.041-3.041l-3.065,3.066L172.462,657.892z M163.171,661.1l-3.148-3.148
		l3.148-3.149l3.101,3.101l3.065-3.065l-3.1-3.101l3.148-3.147l3.1,3.101l3.102-3.102l2.919,2.919v0.456l-2.864,2.864l3.089,3.089
		l-3.147,3.148l-3.088-3.089l-3.123,3.122l-3.101-3.1L163.171,661.1z"/>
</g>
<g>
	<path fill="#E76C89" d="M79.795,657.892l3.065-3.066l-3.041-3.042l-3.065,3.066L79.795,657.892z M76.706,661.099l-3.1-3.101
		l-0.816,0.817v-1.727l0.816,0.816l3.066-3.066l-3.101-3.101l3.147-3.147l3.1,3.101l3.103-3.102l3.088,3.088l3.122-3.122
		l3.148,3.149l-3.148,3.148l-3.089-3.089l-3.065,3.065l3.089,3.089l-3.148,3.148l-3.089-3.089L76.706,661.099z"/>
</g>
<g>
	<circle fill="#BF0000" cx="460.565" cy="254.332" r="8.572"/>
</g>
<g>
	<polygon points="114.832,170.335 114.832,165.038 108.78,165.038 108.78,159.259 103.413,159.259 103.413,153.609 97.566,153.609 
		97.566,142.442 244.755,142.442 244.755,153.609 238.915,153.609 238.915,159.259 233.549,159.259 233.549,165.038 
		227.567,165.038 227.567,170.335 187.957,170.335 187.957,165.038 181.903,165.038 181.903,159.259 176.538,159.259 
		176.538,153.609 165.791,153.609 165.791,159.259 160.426,159.259 160.426,165.038 154.441,165.038 154.441,170.335 	"/>
</g>
<g>
	<path fill="#FFFFFF" d="M125.079,158.667v-5.479h-5.523v5.479H125.079z M119.51,164.339v-5.565h-5.626v-5.586h-5.587v-5.672h5.672
		v5.587h5.523v-5.587h5.671v5.587h5.588v5.564h5.626v5.672h-5.673v-5.565h-5.523v5.565H119.51z"/>
</g>
<g>
	<path fill="#FFFFFF" d="M199.024,158.667v-5.479h-5.523v5.479H199.024z M193.455,164.339v-5.565h-5.627v-5.586h-5.587v-5.672h5.673
		v5.587h5.523v-5.587h5.671v5.587h5.588v5.564h5.625v5.672h-5.672v-5.565h-5.523v5.565H193.455z"/>
</g>
<g>
	<path d="M323.428,143.13H17.25c-0.842,0-1.524-0.682-1.524-1.524s0.682-1.524,1.524-1.524h306.178c0.842,0,1.524,0.682,1.524,1.524
		S324.27,143.13,323.428,143.13z"/>
</g>
<g>
	<path d="M17.365,142.81c-0.67,0-1.284-0.445-1.469-1.123c-0.222-0.812,0.257-1.65,1.069-1.872l106.856-29.179
		c0.809-0.224,1.649,0.256,1.872,1.069c0.222,0.812-0.257,1.65-1.069,1.872L17.767,142.756
		C17.633,142.792,17.498,142.81,17.365,142.81z"/>
</g>
<g>
	<path d="M322.912,142.81c-0.133,0-0.268-0.018-0.402-0.054l-106.855-29.179c-0.812-0.222-1.291-1.06-1.069-1.872
		c0.222-0.812,1.062-1.29,1.872-1.069l106.855,29.179c0.812,0.222,1.291,1.06,1.069,1.872
		C324.197,142.365,323.582,142.81,322.912,142.81z"/>
</g>
<g>
	<path d="M214.913,113.235c-0.011,0-0.023,0-0.035,0c-0.842-0.019-1.508-0.716-1.489-1.558c1.396-61.907-15.54-96.616-27.78-96.942
		c-0.053-0.001-0.106-0.002-0.158-0.002c-7.373,0-16.322,13.704-17.513,52.47c-0.026,0.841-0.726,1.5-1.57,1.477
		c-0.841-0.026-1.502-0.729-1.477-1.57c1.068-34.754,8.735-55.425,20.528-55.425c0.09,0,0.179,0.001,0.271,0.004
		c8.051,0.214,16.017,10.268,21.855,27.582c6.362,18.869,9.52,44.607,8.891,72.476C216.417,112.576,215.739,113.235,214.913,113.235
		z"/>
</g>
<g>
	<path d="M124.224,112.841c-0.008,0-0.017,0-0.025,0c-0.841-0.014-1.513-0.707-1.5-1.548c0.407-25.598,3.283-46.989,8.318-61.859
		c4.521-13.353,10.787-21.239,17.643-22.206c8.064-1.142,15.358,6.929,19.999,22.134c0.246,0.805-0.208,1.657-1.013,1.902
		c-0.803,0.246-1.657-0.208-1.902-1.013c-4.096-13.421-10.333-20.904-16.657-20.006c-11.001,1.552-22.484,27.229-23.339,81.096
		C125.734,112.175,125.054,112.841,124.224,112.841z"/>
</g>
<g>
	<path d="M215.391,113.953h-91.682c-0.842,0-1.524-0.682-1.524-1.524s0.682-1.524,1.524-1.524h91.682
		c0.842,0,1.524,0.682,1.524,1.524S216.233,113.953,215.391,113.953z"/>
</g>
<g>
	<path d="M125.564,98.528c-0.763,0-1.422-0.572-1.512-1.348c-0.097-0.836,0.502-1.593,1.338-1.689l87.574-10.16
		c0.836-0.105,1.592,0.501,1.689,1.338s-0.502,1.593-1.338,1.689l-87.574,10.16C125.682,98.525,125.623,98.528,125.564,98.528z"/>
</g>
<g>
	<path d="M158.34,200.831c-1.858,0-3.278-0.374-4.355-1.097c-1.042-0.701-2.26-2.101-2.184-4.805
		c-0.783-8.753-0.044-18.702,2.258-30.409c0.163-0.825,0.96-1.362,1.79-1.201c0.826,0.162,1.364,0.963,1.201,1.789
		c-2.254,11.462-2.975,21.157-2.205,29.641c0.006,0.066,0.008,0.132,0.005,0.199c-0.06,1.48,0.448,1.997,0.834,2.257
		c4.28,2.879,22.491-5.36,29.642-8.615c2.891-2.751,2.802-5.406-0.276-8.836c-0.562-0.626-0.51-1.59,0.116-2.152
		c0.627-0.562,1.59-0.509,2.152,0.116c4.247,4.733,4.211,9.325-0.104,13.28c-0.118,0.108-0.252,0.197-0.398,0.264
		C172.402,197.821,163.612,200.831,158.34,200.831z"/>
</g>
<g>
	<path d="M134.393,214.786c-0.671,0-1.286-0.447-1.47-1.125c-0.221-0.812,0.259-1.649,1.072-1.87
		c23.658-6.421,48.724-10.081,76.631-11.189c0.827-0.027,1.55,0.622,1.583,1.462c0.033,0.841-0.622,1.55-1.462,1.583
		c-27.675,1.099-52.52,4.725-75.955,11.085C134.66,214.769,134.526,214.786,134.393,214.786z"/>
</g>
<g>
	<path d="M153.337,233.401c-7.987,0-15.84-0.345-23.488-0.798c-0.84-0.05-1.481-0.771-1.432-1.611s0.782-1.468,1.611-1.432
		c20.44,1.21,42.362,1.647,64.171-3.305c0.817-0.182,1.638,0.328,1.824,1.149s-0.328,1.637-1.149,1.824
		C180.904,232.4,166.929,233.401,153.337,233.401z"/>
</g>
<g>
	<path d="M184.514,237.618c-0.485,0-0.961-0.23-1.257-0.66c-0.477-0.693-0.302-1.642,0.391-2.12
		c17.819-12.271,27.625-28.31,29.979-49.036c0.095-0.836,0.85-1.443,1.686-1.342c0.836,0.095,1.438,0.85,1.342,1.686
		c-2.425,21.353-12.948,38.58-31.278,51.203C185.114,237.531,184.812,237.618,184.514,237.618z"/>
</g>
<g>
	<path d="M131.61,232.05c-0.122,0-0.247-0.015-0.371-0.046c-0.816-0.204-1.313-1.032-1.109-1.848l4.456-17.82
		c0.204-0.816,1.031-1.313,1.848-1.109c0.816,0.204,1.313,1.032,1.109,1.848l-4.456,17.82
		C132.914,231.587,132.293,232.05,131.61,232.05z"/>
</g>
<g>
	<path d="M134.393,221.821c-0.398,0-0.733-0.31-0.759-0.713c-0.027-0.42,0.291-0.783,0.711-0.81l69.053-4.456
		c0.422-0.034,0.782,0.292,0.809,0.711c0.027,0.42-0.291,0.783-0.711,0.81l-69.053,4.456
		C134.426,221.82,134.41,221.821,134.393,221.821z"/>
</g>
<g>
	<path d="M175.045,279.941c-0.772,0-1.434-0.584-1.514-1.369c-0.085-0.837,0.524-1.585,1.361-1.671
		c20.95-2.142,42.6-6.229,57.046-30l-10.514-81.335c-0.108-0.834,0.481-1.599,1.316-1.707c0.838-0.115,1.599,0.481,1.707,1.316
		l10.582,81.862c0.044,0.339-0.027,0.684-0.203,0.977c-15.17,25.381-37.773,29.686-59.625,31.919
		C175.15,279.939,175.097,279.941,175.045,279.941z"/>
</g>
<g>
	<path d="M163.554,284.2c-0.342,0-0.682-0.012-1.019-0.037c-3.895-0.286-7.045-2.262-8.871-5.565
		c-0.408-0.736-0.141-1.664,0.596-2.071c0.734-0.409,1.663-0.142,2.071,0.596c1.681,3.04,4.423,3.853,6.427,4
		c4.624,0.337,10.209-2.359,13.302-6.415c0.511-0.669,1.467-0.797,2.136-0.288c0.669,0.511,0.798,1.467,0.288,2.136
		C174.975,281.16,168.965,284.2,163.554,284.2z"/>
</g>
<g>
	<path d="M147.091,281.881c-5.584,0-10.607-1.926-12.452-6.824c-0.296-0.788,0.102-1.667,0.889-1.963
		c0.787-0.295,1.667,0.101,1.963,0.889c2.023,5.372,10.384,5.847,17.599,3.539c0.802-0.256,1.66,0.186,1.916,0.987
		s-0.186,1.66-0.987,1.916C153.144,281.344,150.039,281.881,147.091,281.881z"/>
</g>
<g>
	<path d="M137.179,277.714c-0.138,0-0.277-0.019-0.417-0.058c-18.005-5.103-35.661-17.556-34.518-33.873
		c0.008-0.106,0.026-0.21,0.055-0.312l16.648-58.266v-16.493c0-0.842,0.682-1.524,1.524-1.524s1.524,0.682,1.524,1.524v16.706
		c0,0.142-0.02,0.283-0.059,0.418l-16.662,58.315c-0.896,14.536,15.559,25.821,32.318,30.571c0.81,0.229,1.28,1.072,1.051,1.882
		C138.454,277.276,137.843,277.714,137.179,277.714z"/>
</g>
<g>
	<path d="M233.187,198.78c-2.129,0-4.263-0.929-6.27-2.772c-0.62-0.569-0.661-1.533-0.091-2.153c0.568-0.619,1.533-0.66,2.153-0.091
		c2.478,2.275,4.852,2.569,7.26,0.895c6.691-4.653,10.957-22.111,7.481-30.624c-1.467-3.592-3.994-5.029-7.722-4.401
		c-0.834,0.141-1.617-0.418-1.757-1.248c-0.141-0.83,0.418-1.617,1.248-1.757c5.126-0.868,9.052,1.354,11.052,6.254
		c4.04,9.896-0.682,28.797-8.563,34.278C236.425,198.243,234.807,198.78,233.187,198.78z"/>
</g>
<g>
	<path d="M112.06,197.11c-1.62,0-3.237-0.538-4.792-1.619c-7.881-5.48-12.604-24.381-8.563-34.278c2-4.901,5.923-7.125,11.051-6.255
		c0.83,0.14,1.389,0.927,1.249,1.756c-0.14,0.83-0.927,1.388-1.756,1.249c-3.729-0.63-6.254,0.81-7.722,4.402
		c-3.475,8.512,0.791,25.971,7.481,30.624c2.408,1.673,4.782,1.381,7.259-0.895c0.621-0.57,1.584-0.529,2.153,0.091
		c0.57,0.62,0.529,1.584-0.091,2.153C116.323,196.181,114.189,197.11,112.06,197.11z"/>
</g>
<g>
	<path d="M236.399,189.336c-2.976,0-5.179-2.683-6.074-7.426c-1.369-7.261,0.575-18.612,6.851-20.604
		c0.802-0.255,1.658,0.189,1.914,0.992c0.254,0.802-0.189,1.659-0.992,1.914c-4.069,1.292-6.028,10.501-4.777,17.134
		c0.463,2.458,1.551,5.032,3.211,4.939c0.843-0.06,1.565,0.582,1.62,1.421c0.055,0.84-0.581,1.565-1.421,1.62
		C236.619,189.333,236.508,189.336,236.399,189.336z"/>
</g>
<g>
	<path d="M109.861,189.731c-0.018,0-0.036,0-0.054,0c-0.842-0.009-1.517-0.698-1.508-1.54c0.009-0.836,0.689-1.508,1.523-1.508
		c0.011,0,0.022,0,0.033,0c1.653,0,2.591-2.635,2.917-5.106c0.884-6.692-1.578-15.78-5.713-16.846
		c-0.815-0.21-1.306-1.041-1.095-1.856c0.21-0.815,1.042-1.308,1.856-1.095c6.376,1.644,8.942,12.871,7.974,20.196
		C115.143,186.908,112.982,189.73,109.861,189.731z"/>
</g>
<g>
	<path d="M237.416,183.044c-0.824,0-1.502-0.658-1.523-1.486c-0.169-6.8-1.265-8.628-1.591-9.023
		c-0.243,0.168-0.845,0.721-1.633,2.394c-0.358,0.762-1.267,1.089-2.028,0.73c-0.762-0.358-1.088-1.267-0.73-2.028
		c1.84-3.912,3.733-4.413,5.002-4.147c2.557,0.539,3.837,4.351,4.026,11.999c0.021,0.841-0.644,1.54-1.486,1.561
		C237.441,183.044,237.428,183.044,237.416,183.044z"/>
</g>
<g>
	<path d="M108.203,183.601c-0.013,0-0.025,0-0.038,0c-0.842-0.021-1.507-0.72-1.486-1.561c0.189-7.647,1.469-11.459,4.026-11.998
		c1.269-0.263,3.161,0.238,5,4.147c0.358,0.762,0.032,1.669-0.73,2.028c-0.764,0.357-1.67,0.031-2.028-0.73
		c-0.787-1.672-1.389-2.225-1.631-2.394c-0.326,0.396-1.421,2.225-1.59,9.021C109.705,182.943,109.027,183.601,108.203,183.601z"/>
</g>
<g>
	<path d="M157.227,247.642c-0.031,0-0.063-0.001-0.095-0.003l-27.199-1.665c-5.035,0.252-9.31-2.93-10.194-7.6
		c-0.915-4.823,2.038-11.261,13.067-14.866c0.8-0.259,1.66,0.175,1.922,0.975c0.261,0.8-0.175,1.661-0.975,1.922
		c-9.151,2.991-11.693,7.851-11.02,11.401c0.602,3.174,3.587,5.334,7.116,5.12c0.061-0.004,0.121-0.004,0.183,0l27.287,1.67
		c0.84,0.051,1.479,0.774,1.428,1.614C158.697,247.019,158.026,247.642,157.227,247.642z"/>
</g>
<g>
	<path d="M227.646,321.754c-0.842,0-1.524-0.682-1.524-1.524v-64.3c0-0.842,0.682-1.524,1.524-1.524s1.524,0.682,1.524,1.524v64.3
		C229.17,321.072,228.488,321.754,227.646,321.754z"/>
</g>
<g>
	<path d="M135.679,323.422c-0.842,0-1.524-0.682-1.524-1.524v-45.172c0-0.842,0.682-1.524,1.524-1.524s1.524,0.682,1.524,1.524
		v45.172C137.203,322.74,136.521,323.422,135.679,323.422z"/>
</g>
<g>
	<path d="M180.302,496.454H71.716c-0.842,0-1.524-0.683-1.524-1.524s0.682-1.524,1.524-1.524h108.586
		c0.842,0,1.524,0.683,1.524,1.524S181.144,496.454,180.302,496.454z"/>
</g>
<g>
	<path d="M196.537,491.045c-0.842,0-1.524-0.683-1.524-1.524v-36.367c-35.165-48.707-54.826-93.544-63.727-145.313
		c-0.143-0.83,0.414-1.618,1.244-1.76c0.831-0.143,1.618,0.414,1.76,1.244c8.843,51.43,28.421,95.978,63.482,144.443
		c0.188,0.26,0.289,0.573,0.289,0.894v36.86C198.061,490.362,197.379,491.045,196.537,491.045z"/>
</g>
<g>
	<path fill="#80C8D7" d="M144.728,428.556H86.11c-1.036,0-1.875-0.84-1.875-1.875s0.839-1.875,1.875-1.875h58.618
		c1.036,0,1.875,0.84,1.875,1.875S145.764,428.556,144.728,428.556z"/>
</g>
<g>
	<path d="M133.405,392.197c-0.464,0-0.91-0.213-1.202-0.588c-22.194-28.496-35.001-55.25-40.305-84.194
		c-0.122-0.665,0.208-1.331,0.812-1.635l41.767-21.102c0.75-0.379,1.667-0.079,2.047,0.673c0.379,0.751,0.078,1.667-0.673,2.047
		l-40.746,20.586c5.288,27.764,17.683,53.557,38.92,81.002l20.171-4.203c0.825-0.17,1.631,0.357,1.803,1.182
		c0.171,0.823-0.357,1.631-1.181,1.803l-21.103,4.396C133.613,392.187,133.508,392.197,133.405,392.197z"/>
</g>
<g>
	<path d="M195.217,466.936c-0.313,0-0.628-0.097-0.9-0.296c-23.641-17.345-42.879-40.902-57.18-70.02
		c-0.28-0.57-0.177-1.254,0.258-1.717l7.035-7.473c0.579-0.612,1.542-0.643,2.154-0.064c0.613,0.577,0.642,1.541,0.065,2.154
		l-6.31,6.702c14.033,28.234,32.796,51.097,55.78,67.96c0.679,0.498,0.825,1.451,0.327,2.13
		C196.148,466.72,195.686,466.936,195.217,466.936z"/>
</g>
<g>
	<path d="M246.172,386.124c-0.032,0-0.063-0.001-0.096-0.003l-21.515-1.346c-0.84-0.053-1.479-0.776-1.426-1.616
		c0.052-0.841,0.771-1.48,1.616-1.427l20.565,1.287c17.111-30.193,25.705-57.49,26.982-85.722l-43.263-14.571
		c-0.798-0.269-1.227-1.133-0.958-1.931s1.133-1.226,1.931-0.958l44.347,14.936c0.641,0.216,1.063,0.827,1.037,1.502
		c-1.125,29.403-9.99,57.708-27.897,89.079C247.222,385.832,246.716,386.124,246.172,386.124z"/>
</g>
<g>
	<path d="M196.767,468.743c-0.395,0-0.79-0.153-1.088-0.457c-0.589-0.601-0.58-1.565,0.021-2.155
		c20.349-19.967,35.664-45.27,45.529-75.214l-7.201-5.736c-0.658-0.524-0.767-1.483-0.242-2.142
		c0.524-0.659,1.483-0.769,2.142-0.243l8.029,6.396c0.497,0.396,0.696,1.059,0.5,1.662c-10.005,30.855-25.691,56.914-46.621,77.452
		C197.538,468.598,197.153,468.743,196.767,468.743z"/>
</g>
<g>
	<path d="M196.933,455.065c-0.262,0-0.528-0.07-0.769-0.217c-0.699-0.425-0.92-1.336-0.495-2.035
		c21.171-34.779,32.454-84.405,33.536-147.5c0.014-0.817,0.697-1.422,1.506-1.456c0.818,0.014,1.469,0.688,1.456,1.506
		c-1.092,63.626-12.52,113.754-33.968,148.99C197.921,454.813,197.433,455.065,196.933,455.065z"/>
</g>
<g>
	<path d="M185.986,354.786c-0.664,0-1.268-0.449-1.436-1.122l-3.344-13.376l-46.831-21.247c-0.745-0.338-1.075-1.216-0.737-1.96
		s1.218-1.075,1.96-0.737l47.482,21.542c0.412,0.187,0.715,0.551,0.825,0.989l3.519,14.07c0.198,0.794-0.284,1.598-1.078,1.796
		C186.226,354.771,186.105,354.786,185.986,354.786z"/>
</g>
<g>
	<path d="M195.22,353.905c-0.115,0-0.232-0.014-0.35-0.042c-0.795-0.192-1.283-0.993-1.09-1.788l3.517-14.509
		c0.094-0.387,0.34-0.72,0.683-0.924l30.335-18.025c0.702-0.417,1.611-0.187,2.03,0.517c0.417,0.703,0.186,1.612-0.517,2.029
		l-29.799,17.707l-3.37,13.902C196.494,353.45,195.888,353.905,195.22,353.905z"/>
</g>
<g>
	<path fill="#BF0000" d="M166.542,360.911c-2.864,14.952-1.576,23.291,10.702,16.552l9.558-7.278l7.849-0.142
		c11.151,9.526,20.911,15.83,22.116,2.283c0.191-3.472-0.06-6.945-1-10.416c2.041-10.416,3.015-19.727-6.276-18.406
		c-5.654,2.158-10.74,5.636-15.267,10.415l-7.849-0.998c-10.053-7.944-20.298-16.356-20.975-1.285L166.542,360.911z"/>
</g>
<g>
	<path d="M170.513,381.612c-2.184,0-3.985-0.839-5.21-2.426c-2.375-3.078-2.483-8.822-0.321-17.073
		c0.039-0.149,0.099-0.288,0.176-0.413c-0.078-0.122-0.138-0.256-0.176-0.401c-2.162-8.251-2.054-13.994,0.321-17.073
		c1.225-1.586,3.026-2.425,5.209-2.425c5.269,0,12.75,4.843,20.555,13.299c7.806-8.455,15.288-13.299,20.557-13.299
		c2.184,0,3.985,0.839,5.21,2.425c2.375,3.078,2.483,8.822,0.321,17.073c-0.039,0.146-0.098,0.286-0.177,0.413
		c0.078,0.121,0.139,0.256,0.177,0.401c2.162,8.25,2.054,13.994-0.322,17.072c-1.225,1.587-3.026,2.426-5.209,2.426
		c-5.269,0-12.75-4.843-20.556-13.299C183.263,376.769,175.782,381.612,170.513,381.612z M167.803,361.731
		c0,0.002,0.001,0.003,0.002,0.004c0.206,0.351,0.3,0.777,0.197,1.17c-2.492,9.509-1.205,13.079-0.215,14.36
		c0.636,0.824,1.539,1.225,2.761,1.225c4.293,0,11.36-4.802,18.444-12.531c0.273-0.299,0.654-0.476,1.058-0.493
		c0.377-0.019,0.735,0.104,1.023,0.337c0.281-0.205,0.643-0.332,0.978-0.313c0.407,0.015,0.818,0.167,1.093,0.468
		c7.083,7.73,14.151,12.532,18.444,12.532c1.221,0,2.125-0.4,2.76-1.225c0.989-1.282,2.276-4.852-0.215-14.36
		c-0.103-0.394-0.045-0.812,0.162-1.161c0.008-0.013,0.016-0.025,0.023-0.038c-0.217-0.345-0.296-0.775-0.185-1.2
		c2.492-9.508,1.204-13.078,0.215-14.36c-0.636-0.823-1.539-1.225-2.76-1.225c-4.293,0-11.36,4.803-18.444,12.533
		c-0.275,0.301-0.659,0.479-1.065,0.493c-0.377,0.016-0.73-0.106-1.016-0.337c-0.283,0.205-0.638,0.313-0.985,0.313
		c-0.404-0.018-0.812-0.17-1.085-0.469c-7.083-7.729-14.15-12.531-18.444-12.531c-1.222,0-2.125,0.4-2.761,1.225
		c-0.989,1.281-2.276,4.852,0.216,14.361c0.104,0.399,0.043,0.824-0.171,1.177C167.823,361.701,167.813,361.717,167.803,361.731z"/>
</g>
<g>
	<path fill="#BF0000" d="M187.909,352.412c4.263-1.866,8.939,0.907,10.444,6.192c1.504,5.286-0.731,11.084-4.994,12.95
		c-4.264,1.867-8.94-0.906-10.444-6.192C181.41,360.077,183.645,354.279,187.909,352.412z"/>
</g>
<g>
	<path d="M190.633,373.66c-4.152,0-7.842-3.168-9.184-7.882c-1.704-5.981,0.919-12.604,5.848-14.764
		c1.076-0.47,2.198-0.709,3.335-0.709c4.152,0,7.844,3.167,9.186,7.881c1.702,5.983-0.921,12.606-5.849,14.764
		C192.894,373.421,191.772,373.66,190.633,373.66z M190.633,353.354c-0.714,0-1.426,0.153-2.113,0.454
		c-3.584,1.569-5.441,6.565-4.139,11.137c0.964,3.39,3.477,5.668,6.252,5.668c0.715,0,1.427-0.153,2.115-0.455
		c3.583-1.568,5.44-6.564,4.14-11.137C195.923,355.631,193.409,353.354,190.633,353.354z"/>
</g>
<g>
	<path d="M191.371,446.75c-0.831,0-1.51-0.667-1.523-1.5l-1.142-71.442c-0.013-0.842,0.658-1.535,1.5-1.548
		c0.008-0.001,0.017-0.001,0.025-0.001c0.831,0,1.51,0.667,1.523,1.5l1.142,71.442c0.013,0.842-0.658,1.535-1.5,1.548
		C191.387,446.75,191.379,446.75,191.371,446.75z"/>
</g>
<g>
	<path d="M150.704,371.966c-0.255,0-0.515-0.064-0.752-0.2c-0.731-0.416-0.987-1.347-0.57-2.078l19.945-35.038
		c0.416-0.731,1.348-0.987,2.078-0.57c0.731,0.416,0.987,1.347,0.57,2.078l-19.945,35.038
		C151.749,371.688,151.234,371.966,150.704,371.966z"/>
</g>
<g>
	<path d="M226.237,361.59c-0.487,0-0.966-0.233-1.261-0.667l-18.289-26.86c-0.474-0.696-0.293-1.644,0.402-2.118
		c0.696-0.474,1.644-0.294,2.118,0.402l18.289,26.861c0.474,0.695,0.293,1.644-0.402,2.117
		C226.83,361.504,226.532,361.59,226.237,361.59z"/>
</g>
<g>
	<path d="M72.491,500.474c-0.83,0-1.51-0.667-1.523-1.5c-0.944-58.293-8.718-103.521-24.464-142.335
		c-0.316-0.78,0.059-1.669,0.839-1.985c0.779-0.316,1.668,0.06,1.985,0.839c15.892,39.175,23.737,84.751,24.687,143.433
		c0.014,0.842-0.658,1.534-1.499,1.548C72.508,500.473,72.5,500.474,72.491,500.474z"/>
</g>
<g>
	<path d="M56.648,570.217c-5.464,0-11.075-0.586-17.029-1.759c-0.525-0.104-0.957-0.474-1.139-0.977
		C16.197,505.86,12.436,448.146,13.204,410.583c0.891-43.598,7.805-73.663,11.014-81.393c0.207-0.499,0.663-0.85,1.197-0.925
		l24.452-3.412l43.89-13.679c0.801-0.25,1.658,0.198,1.909,1.001s-0.198,1.658-1.001,1.909L50.656,327.8
		c-0.08,0.024-0.161,0.043-0.243,0.054l-23.692,3.306c-3.151,8.486-9.623,38.167-10.468,79.484
		c-0.759,37.14,2.94,94.112,24.802,154.986c11.148,2.098,21.056,2.046,31.113-0.156c0.823-0.183,1.635,0.34,1.815,1.162
		s-0.34,1.635-1.163,1.814C67.447,569.629,62.122,570.217,56.648,570.217z"/>
</g>
<g>
	<path d="M70.581,461.486c-0.041,0-0.083-0.002-0.125-0.006c-0.839-0.067-1.464-0.803-1.396-1.642
		c3.789-46.733-3.092-90.716-20.454-130.725c-0.335-0.772,0.019-1.669,0.792-2.004c0.772-0.336,1.67,0.02,2.004,0.792
		c17.563,40.473,24.526,84.945,20.696,132.184C72.034,460.882,71.367,461.486,70.581,461.486z"/>
</g>
<g>
	<path d="M199.374,505.619c-0.567,0-1.112-0.318-1.375-0.864c-0.365-0.759-0.045-1.669,0.713-2.034
		c14.238-6.84,17.978-14.743,17.966-17.967c-0.002-0.74-0.177-1.702-0.993-2.087c-1.102-0.521-3.461-0.11-6.775,2.603
		c-0.095,0.077-0.198,0.143-0.308,0.195l-26.291,12.574c-0.76,0.363-1.669,0.043-2.033-0.718c-0.363-0.759-0.042-1.669,0.717-2.032
		l26.128-12.496c3.75-3.022,7.338-4.073,9.861-2.883c1.734,0.817,2.733,2.579,2.741,4.833c0.021,5.597-6.062,14.176-19.694,20.726
		C199.821,505.57,199.595,505.619,199.374,505.619z"/>
</g>
<g>
	<path d="M254.009,529.641c-0.315,0-0.638-0.006-0.97-0.02l-45.816-4.579c-0.837-0.084-1.448-0.831-1.365-1.668
		c0.083-0.838,0.826-1.443,1.668-1.365l45.724,4.573c4.783,0.198,7.909-1.302,8.062-3.891c0.145-2.465-2.48-5.322-6.619-5.646
		c-0.055-0.005-0.11-0.012-0.164-0.022l-63.441-12.003c-0.827-0.156-1.371-0.953-1.214-1.78s0.95-1.377,1.781-1.214l63.362,11.987
		c6.062,0.515,9.566,4.986,9.338,8.858C264.158,526.198,261.32,529.641,254.009,529.641z"/>
</g>
<g>
	<path d="M255.911,550.903c-0.913,0-1.896-0.047-2.948-0.141c-0.042-0.003-0.083-0.009-0.125-0.016l-46.296-8.002
		c-0.829-0.144-1.385-0.933-1.242-1.762c0.144-0.829,0.934-1.379,1.762-1.242l46.233,7.991c5.56,0.484,7.944-0.563,8.318-1.706
		c0.45-1.379-1.274-4.187-4.562-6.231l-56.379-15.945c-0.81-0.229-1.281-1.071-1.052-1.882c0.228-0.81,1.071-1.281,1.881-1.052
		l56.582,16.003c0.131,0.037,0.257,0.092,0.374,0.162c3.735,2.257,7.223,6.314,6.053,9.892
		C263.656,549.586,260.768,550.903,255.911,550.903z"/>
</g>
<g>
	<path d="M247.643,573.975c-1.033,0-2.174-0.116-3.429-0.377c-0.062-0.013-0.123-0.029-0.183-0.05l-45.151-15.43
		c-0.796-0.272-1.222-1.139-0.949-1.936c0.272-0.795,1.138-1.22,1.935-0.949l45.059,15.398c4.264,0.865,6.78-0.295,7.386-1.834
		c0.6-1.523-0.385-4.024-3.923-6.197l-46.204-20.535c-0.769-0.342-1.115-1.242-0.773-2.012c0.342-0.768,1.242-1.117,2.012-0.773
		l46.294,20.575c0.059,0.026,0.116,0.056,0.171,0.089c4.504,2.73,6.569,6.644,5.26,9.97
		C254.342,571.961,251.936,573.975,247.643,573.975z"/>
</g>
<g>
	<path d="M230.821,589.65c-1.29,0-2.757-0.195-4.411-0.642c-0.101-0.027-0.198-0.065-0.291-0.112l-46.296-23.432
		c-0.751-0.38-1.052-1.297-0.672-2.048s1.3-1.053,2.048-0.671l46.154,23.359c4.616,1.207,7.282,0.008,7.879-1.734
		c0.673-1.966-1.028-4.952-5.584-6.857c-0.083-0.034-0.161-0.076-0.236-0.124l-32.006-20.575c-0.708-0.455-0.913-1.398-0.458-2.106
		c0.454-0.708,1.397-0.914,2.106-0.458l31.896,20.505c6.473,2.757,8.257,7.42,7.166,10.604
		C237.361,587.562,235.039,589.65,230.821,589.65z"/>
</g>
<g>
	<path d="M272.394,678.855c-0.811,0-1.485-0.639-1.521-1.456c-4.736-105.188,3.824-197.902,26.17-283.443
		c0.213-0.814,1.042-1.302,1.86-1.09c0.814,0.213,1.302,1.046,1.089,1.859c-22.268,85.241-30.796,177.659-26.074,282.537
		c0.038,0.841-0.613,1.553-1.454,1.591C272.441,678.854,272.417,678.855,272.394,678.855z"/>
</g>
<g>
	<path d="M271.75,679h-72.013c-0.842,0-1.524-0.683-1.524-1.524s0.682-1.524,1.524-1.524h72.013c0.842,0,1.524,0.683,1.524,1.524
		S272.592,679,271.75,679z"/>
</g>
<g>
	<path d="M340.543,455.323c-0.619,0-1.201-0.38-1.429-0.994c-14.888-40.129-27.75-84.804-39.311-136.543l-28.353-10.007
		c-0.793-0.28-1.21-1.15-0.93-1.944s1.149-1.21,1.944-0.93l29.149,10.288c0.496,0.175,0.866,0.593,0.98,1.105
		c11.578,51.956,24.458,96.759,39.377,136.971c0.293,0.789-0.109,1.666-0.898,1.959
		C340.899,455.293,340.719,455.323,340.543,455.323z"/>
</g>
<g>
	<path d="M327.969,529.051c-0.625,0-1.212-0.388-1.435-1.011l-36.007-100.59c-0.283-0.793,0.129-1.665,0.921-1.948
		c0.793-0.284,1.665,0.128,1.949,0.921l36.007,100.59c0.283,0.793-0.129,1.665-0.921,1.948
		C328.313,529.021,328.139,529.051,327.969,529.051z"/>
</g>
<g>
	<path d="M352.995,570.9c-3.067,0-6.049-0.441-8.795-1.312c-10.243-3.246-20.13-13.51-17.165-32.581
		c6.439-64.681,20.208-121.906,32.607-170.46c0.208-0.815,1.038-1.307,1.854-1.1c0.815,0.208,1.308,1.038,1.1,1.854
		c-12.371,48.446-26.108,105.539-32.538,170.092c-2.277,14.661,3.357,25.58,15.063,29.289c11.472,3.638,27.511-1.034,34.57-15.124
		c15.491-57.16,27.579-116.658,35.929-176.842c0.116-0.834,0.881-1.413,1.719-1.301c0.833,0.116,1.416,0.886,1.3,1.719
		c-8.375,60.363-20.502,120.038-36.046,177.366c-0.026,0.096-0.061,0.188-0.105,0.277C376.409,565.062,364.146,570.9,352.995,570.9z
		"/>
</g>
<g>
	<path d="M417.351,376.47c-0.064,0-0.128-0.004-0.193-0.013l-56.868-7.191c-0.835-0.105-1.426-0.868-1.32-1.703
		c0.105-0.835,0.872-1.433,1.703-1.32l56.868,7.191c0.835,0.105,1.426,0.868,1.32,1.703
		C418.764,375.906,418.108,376.47,417.351,376.47z"/>
</g>
<g>
	<path d="M409.922,414.192c-0.064,0-0.128-0.004-0.193-0.013l-56.868-7.192c-0.835-0.105-1.426-0.868-1.32-1.703
		s0.874-1.433,1.703-1.32l56.868,7.192c0.835,0.105,1.426,0.868,1.32,1.703C411.335,413.629,410.678,414.192,409.922,414.192z"/>
</g>
<g>
	<path d="M358.943,368.392c-0.47,0-0.931-0.223-1.22-0.637l-10.898-15.669l-29.671-15.205c-0.342-0.175-0.603-0.476-0.727-0.839
		c-0.611-1.783-0.084-3.007,0.466-3.721c2.705-3.509,12.429-2.981,29.381-1.746c0.5,0.036,0.947,0.322,1.189,0.76
		c5.049,9.097,13.512,14.134,38.411,9.146l47.726-11.37c0.798-0.196,1.598,0.303,1.787,1.1c0.19,0.797-0.302,1.598-1.1,1.787
		l-47.778,11.382c-22.422,4.495-34.441,1.626-41.239-9.901c-10.973-0.799-24.209-1.704-26.026,0.655
		c-0.045,0.059-0.131,0.169-0.121,0.422l29.386,15.059c0.217,0.11,0.402,0.273,0.542,0.473l11.11,15.973
		c0.468,0.673,0.302,1.598-0.371,2.066C359.53,368.305,359.235,368.392,358.943,368.392z"/>
</g>
<g>
	<path d="M537.555,331.299H302.994v-9.334h234.561V331.299z M306.042,328.251h228.464v-3.239H306.042V328.251z"/>
</g>
<g>
	<path d="M414.842,375.88c-0.369,0-0.738-0.134-1.031-0.402c-0.619-0.57-0.66-1.534-0.09-2.153
		c15.724-17.1,40.37-29.848,69.396-35.896l2.555-0.52c5.53-1.119,10.307-2.085,10.831-3.407c0.091-0.229,0.158-0.964-1.173-2.847
		c-0.486-0.687-0.323-1.638,0.364-2.124c0.688-0.484,1.639-0.323,2.124,0.364c1.043,1.474,2.335,3.672,1.518,5.731
		c-1.134,2.857-5.37,3.714-13.06,5.271l-2.541,0.517c-28.404,5.918-52.474,18.339-67.771,34.974
		C415.663,375.714,415.253,375.88,414.842,375.88z"/>
</g>
<g>
	<path d="M422.273,349.589c-0.495,0-0.98-0.241-1.273-0.686c-0.463-0.702-0.27-1.647,0.434-2.111
		c17.256-11.381,32.209-15.292,53.767-18.525c0.829-0.119,1.608,0.449,1.732,1.281c0.125,0.833-0.448,1.608-1.281,1.733
		c-21.604,3.24-35.662,6.922-52.54,18.055C422.853,349.507,422.561,349.589,422.273,349.589z"/>
</g>
<g>
	<path d="M414.272,343.873c-0.587,0-1.146-0.341-1.396-0.912c-0.338-0.771,0.013-1.67,0.783-2.008
		c18.267-8.012,30.09-10.887,45.182-10.987c0.868-0.028,1.528,0.673,1.534,1.514c0.005,0.842-0.673,1.529-1.515,1.534
		c-14.627,0.097-26.136,2.905-43.977,10.73C414.684,343.832,414.476,343.873,414.272,343.873z"/>
</g>
<g>
	<path d="M429.131,355.304c-0.373,0-0.747-0.137-1.041-0.411c-9.815-9.175-18.557-14.231-25.983-15.029
		c-0.837-0.09-1.442-0.841-1.353-1.678c0.09-0.837,0.85-1.44,1.678-1.353c8.212,0.882,17.286,6.06,27.74,15.833
		c0.614,0.575,0.647,1.539,0.072,2.154C429.945,355.141,429.538,355.304,429.131,355.304z"/>
</g>
<g>
	<path d="M389.123,363.306c-0.163,0-0.329-0.026-0.493-0.082c-0.796-0.272-1.222-1.139-0.95-1.935
		c1.672-4.898,1.626-8.461-0.143-10.894c-3.263-4.488-12.455-4.921-20.109-4.809c-0.008,0.001-0.017,0.001-0.024,0.001
		c-0.831,0-1.51-0.667-1.523-1.501c-0.013-0.841,0.659-1.534,1.5-1.547c8.91-0.146,18.558,0.473,22.623,6.063
		c2.395,3.294,2.578,7.766,0.562,13.671C390.349,362.907,389.757,363.306,389.123,363.306z"/>
</g>
<g>
	<path d="M408.408,182.68h-46.875c-0.842,0-1.524-0.682-1.524-1.524s0.682-1.524,1.524-1.524h46.875
		c0.842,0,1.524,0.682,1.524,1.524S409.25,182.68,408.408,182.68z"/>
</g>
<g>
	<path d="M385.609,280.197c-0.265,0-0.534-0.069-0.778-0.215c-0.723-0.431-0.96-1.366-0.53-2.089
		c15.975-26.822,23.36-58.281,22.58-96.174c-0.017-0.841,0.651-1.538,1.493-1.555c0.859-0.011,1.538,0.651,1.555,1.492
		c0.792,38.48-6.733,70.469-23.008,97.796C386.634,279.931,386.128,280.197,385.609,280.197z"/>
</g>
<g>
	<path d="M384.083,280.198c-0.52,0-1.026-0.266-1.311-0.745c-16.274-27.328-23.801-59.317-23.009-97.796
		c0.017-0.842,0.689-1.534,1.555-1.492c0.842,0.017,1.51,0.713,1.492,1.555c-0.779,37.892,6.606,69.351,22.581,96.174
		c0.431,0.723,0.193,1.659-0.53,2.089C384.616,280.128,384.348,280.198,384.083,280.198z"/>
</g>
<g>
	<path d="M403.838,229.67h-37.734c-0.842,0-1.524-0.682-1.524-1.524s0.682-1.524,1.524-1.524h37.734
		c0.842,0,1.524,0.682,1.524,1.524S404.68,229.67,403.838,229.67z"/>
</g>
<g>
	<path d="M384.973,316.738c-0.842,0-1.524-0.682-1.524-1.524v-35.462c0-0.842,0.682-1.524,1.524-1.524s1.524,0.682,1.524,1.524
		v35.462C386.497,316.056,385.815,316.738,384.973,316.738z"/>
</g>
<g>
	<path d="M400.552,325.585c-0.238,0-0.479-0.056-0.705-0.174l-14.797-7.741l-15.914,6.653c-0.776,0.325-1.669-0.041-1.994-0.818
		c-0.324-0.777,0.042-1.669,0.818-1.994l16.574-6.929c0.417-0.174,0.892-0.154,1.294,0.056l15.432,8.073
		c0.746,0.39,1.034,1.311,0.644,2.057C401.632,325.287,401.102,325.585,400.552,325.585z"/>
</g>
<g>
	<path d="M450.143,285.236c-0.209,0-0.418-0.043-0.613-0.129l-54.459-23.93c-0.771-0.338-1.121-1.237-0.782-2.008
		c0.338-0.77,1.235-1.121,2.008-0.782l53.809,23.644l55.914-27.566c0.755-0.372,1.668-0.063,2.041,0.693
		c0.372,0.755,0.062,1.668-0.693,2.041l-56.551,27.88C450.605,285.184,450.374,285.236,450.143,285.236z"/>
</g>
<g>
	<path d="M506.14,257.104H396.971c-0.842,0-1.524-0.682-1.524-1.524s0.682-1.524,1.524-1.524H506.14
		c0.842,0,1.524,0.682,1.524,1.524S506.982,257.104,506.14,257.104z"/>
</g>
<g>
	<path d="M483.279,269.106h-69.733c-0.842,0-1.524-0.682-1.524-1.524s0.682-1.524,1.524-1.524h69.733
		c0.842,0,1.524,0.682,1.524,1.524S484.12,269.106,483.279,269.106z"/>
</g>
<g>
	<path d="M450.219,316.739c-0.842,0-1.524-0.682-1.524-1.524v-31.462c0-0.842,0.683-1.524,1.524-1.524s1.524,0.682,1.524,1.524
		v31.462C451.743,316.057,451.061,316.739,450.219,316.739z"/>
</g>
<g>
	<path d="M465.798,324.524c-0.226,0-0.455-0.05-0.671-0.157l-14.787-7.269l-15.921,7.161c-0.77,0.346-1.669,0.003-2.015-0.765
		s-0.003-1.669,0.765-2.015l16.574-7.455c0.415-0.188,0.892-0.178,1.297,0.022l15.431,7.585c0.756,0.371,1.067,1.285,0.696,2.04
		C466.902,324.211,466.361,324.524,465.798,324.524z"/>
</g>
<g>
	<path d="M332.132,323.228c-0.749,0-1.401-0.552-1.507-1.314l-5.203-37.372c-0.116-0.833,0.465-1.604,1.299-1.719
		c0.836-0.121,1.604,0.466,1.719,1.299l5.203,37.372c0.116,0.833-0.465,1.604-1.299,1.719
		C332.273,323.223,332.202,323.228,332.132,323.228z"/>
</g>
<g>
	<path d="M353.882,323.228c-0.07,0-0.141-0.005-0.212-0.015c-0.834-0.116-1.416-0.886-1.299-1.719l5.203-37.372
		c0.116-0.833,0.886-1.421,1.719-1.299c0.834,0.116,1.416,0.886,1.299,1.719l-5.203,37.372
		C355.283,322.676,354.631,323.228,353.882,323.228z"/>
</g>
<g>
	<path d="M358.689,285.682H327.81c-0.842,0-1.524-0.682-1.524-1.524s0.682-1.524,1.524-1.524h30.879
		c0.842,0,1.524,0.682,1.524,1.524S359.531,285.682,358.689,285.682z"/>
</g>
<g>
	<path d="M355.833,298.827h-26.881c-0.842,0-1.524-0.682-1.524-1.524s0.682-1.524,1.524-1.524h26.881
		c0.842,0,1.524,0.682,1.524,1.524S356.675,298.827,355.833,298.827z"/>
</g>
<g>
	<path d="M460.571,264.429c-3.213,0-6.159-1.473-8.084-4.04c-1.618-2.157-2.299-4.815-1.917-7.485
		c0.382-2.67,1.78-5.031,3.938-6.649c1.762-1.321,3.854-2.019,6.051-2.019c3.213,0,6.159,1.472,8.084,4.039
		c1.618,2.158,2.299,4.817,1.917,7.486c-0.381,2.67-1.779,5.031-3.938,6.648C464.861,263.73,462.768,264.429,460.571,264.429z
		 M460.559,247.283c-1.532,0-2.992,0.487-4.223,1.41c-1.507,1.13-2.483,2.778-2.75,4.642c-0.266,1.863,0.21,3.719,1.339,5.225
		c1.345,1.793,3.401,2.821,5.646,2.821c1.532,0,2.993-0.488,4.224-1.411c1.506-1.129,2.482-2.778,2.749-4.641
		c0.267-1.864-0.209-3.72-1.339-5.227C464.861,248.311,462.803,247.283,460.559,247.283z"/>
</g>
<g>
	<path d="M463.423,247.854c-0.001,0-0.003,0-0.004,0c-0.842-0.002-1.522-0.686-1.521-1.528c0.015-5.657,1.124-13.729,10.551-18.503
		c0.751-0.378,1.667-0.08,2.048,0.671s0.08,1.668-0.671,2.048c-6.204,3.141-8.859,7.863-8.879,15.791
		C464.945,247.175,464.263,247.854,463.423,247.854z"/>
</g>
<g>
	<circle fill="#FFFFFF" cx="369.405" cy="388.929" r="6.386"/>
</g>
<g>
	<path d="M369.408,396.451c-2.393,0-4.588-1.097-6.022-3.009c-1.206-1.607-1.713-3.588-1.429-5.577
		c0.284-1.989,1.326-3.748,2.934-4.954c1.313-0.984,2.872-1.505,4.508-1.505c2.393,0,4.588,1.097,6.023,3.009
		c1.206,1.608,1.713,3.589,1.428,5.578c-0.284,1.988-1.326,3.748-2.934,4.952C372.605,395.931,371.046,396.451,369.408,396.451z
		 M369.4,383.678c-1.142,0-2.229,0.363-3.146,1.05c-1.123,0.842-1.85,2.07-2.048,3.459c-0.199,1.389,0.156,2.771,0.998,3.893
		c1.001,1.335,2.534,2.101,4.205,2.101c1.142,0,2.23-0.363,3.147-1.051c1.122-0.842,1.85-2.069,2.048-3.458
		c0.199-1.388-0.155-2.771-0.997-3.894C372.605,384.443,371.072,383.678,369.4,383.678z"/>
</g>
<g>
	<path d="M61.9,678.973c-0.412,0-0.807-0.166-1.094-0.461c-0.287-0.295-0.442-0.693-0.43-1.104
		c1.301-42.776-4.067-74.037-12.529-107.814c-0.204-0.814,0.293-1.638,1.109-1.841c0.816-0.205,1.644,0.293,1.848,1.106
		c8.42,33.609,13.799,64.753,12.664,107.077l7.671-0.001c0.841,0,1.524,0.68,1.524,1.519s-0.682,1.518-1.524,1.519H61.9z"/>
</g>
<g>
	<path d="M282.511,465.592c-0.742,0-1.393-0.543-1.505-1.3c-6.41-42.974-1.919-113.744,14.983-150.602
		c0.351-0.764,1.254-1.099,2.021-0.75c0.765,0.351,1.101,1.255,0.75,2.021c-16.677,36.365-21.085,106.341-14.739,148.882
		c0.124,0.832-0.45,1.607-1.283,1.731C282.661,465.586,282.586,465.592,282.511,465.592z"/>
</g>
<g>
	<rect x="304.518" y="323.489" fill="#800000" width="231.512" height="6.287"/>
</g>
<g>
	<path d="M198.663,360.449c-0.728,0-1.372-0.523-1.5-1.266c-0.143-0.829,0.414-1.617,1.243-1.761l8.398-1.448
		c0.831-0.136,1.618,0.414,1.761,1.243s-0.414,1.617-1.243,1.761l-8.398,1.448C198.837,360.441,198.749,360.449,198.663,360.449z"/>
</g>
<g>
	<path d="M207.36,368.812c-0.082,0-0.165-0.007-0.248-0.021l-8.41-1.376c-0.831-0.136-1.394-0.919-1.258-1.75
		c0.136-0.83,0.921-1.395,1.75-1.258l8.41,1.376c0.831,0.136,1.394,0.919,1.258,1.75C208.74,368.28,208.093,368.812,207.36,368.812z
		"/>
</g>
<g>
	<path d="M182.315,360.448c-0.086,0-0.173-0.008-0.261-0.022l-8.398-1.448c-0.83-0.144-1.386-0.932-1.243-1.761
		c0.143-0.83,0.933-1.384,1.761-1.243l8.398,1.448c0.83,0.144,1.386,0.932,1.243,1.761
		C183.687,359.925,183.043,360.448,182.315,360.448z"/>
</g>
<g>
	<path d="M173.618,368.811c-0.733,0-1.38-0.531-1.502-1.278c-0.136-0.831,0.427-1.614,1.258-1.75l8.41-1.376
		c0.831-0.137,1.615,0.428,1.75,1.258c0.136,0.831-0.427,1.614-1.258,1.75l-8.41,1.376
		C173.783,368.804,173.7,368.811,173.618,368.811z"/>
</g>
<g>
	<circle fill="#FFFFFF" cx="199.272" cy="383.251" r="3.686"/>
</g>
<g>
	<path d="M199.269,387.688c-2.003,0-3.764-1.353-4.281-3.29c-0.633-2.361,0.774-4.798,3.136-5.432
		c0.376-0.101,0.763-0.151,1.149-0.151c2.003,0,3.765,1.353,4.284,3.288c0.632,2.363-0.775,4.8-3.137,5.433
		C200.043,387.636,199.656,387.688,199.269,387.688z M199.273,380.314c-0.255,0-0.511,0.034-0.761,0.101
		c-1.563,0.419-2.494,2.032-2.075,3.595c0.408,1.53,2.046,2.491,3.595,2.076c1.563-0.418,2.494-2.031,2.076-3.596
		C201.764,381.21,200.598,380.314,199.273,380.314z"/>
</g>
<g>
	<circle fill="#FFFFFF" cx="199.273" cy="406.158" r="3.686"/>
</g>
<g>
	<path d="M199.271,410.594c-2.003,0-3.764-1.353-4.282-3.289c-0.633-2.361,0.774-4.798,3.136-5.432
		c0.377-0.101,0.764-0.151,1.15-0.151c2.002,0,3.764,1.352,4.283,3.287c0.631,2.364-0.775,4.801-3.137,5.434
		C200.045,410.543,199.657,410.594,199.271,410.594z M199.275,403.222c-0.256,0-0.512,0.033-0.762,0.101
		c-1.563,0.419-2.494,2.032-2.075,3.595c0.409,1.53,2.051,2.491,3.596,2.076c1.563-0.418,2.493-2.031,2.075-3.597
		C201.765,404.116,200.6,403.222,199.275,403.222z"/>
</g>
<g>
	<circle fill="#FFFFFF" cx="199.274" cy="430.209" r="3.686"/>
</g>
<g>
	<path d="M199.271,434.646c-2.003,0-3.764-1.353-4.281-3.29c-0.633-2.361,0.774-4.798,3.136-5.432
		c0.376-0.101,0.763-0.151,1.149-0.151c2.003,0,3.765,1.353,4.284,3.288c0.632,2.363-0.775,4.8-3.137,5.433
		C200.045,434.594,199.658,434.646,199.271,434.646z M199.275,427.272c-0.255,0-0.511,0.034-0.761,0.101
		c-1.563,0.419-2.494,2.032-2.075,3.595c0.409,1.53,2.047,2.491,3.595,2.076c1.563-0.418,2.494-2.031,2.076-3.596
		C201.766,428.168,200.6,427.272,199.275,427.272z"/>
</g>
<g>
	<rect x="92.365" y="380.837" fill="#00D49A" width="8.725" height="42.729"/>
</g>
<g>
	<path d="M102.144,424.619H91.311v-44.836h10.833V424.619z M93.419,422.512h6.617v-40.621h-6.617V422.512z"/>
</g>
<g>
	<circle fill="#FFFFFF" cx="96.726" cy="380.68" r="4.302"/>
</g>
<g>
	<path d="M96.723,386.037c-2.355,0-4.466-1.578-5.133-3.839c-0.406-1.372-0.253-2.819,0.43-4.077
		c0.683-1.257,1.815-2.173,3.188-2.578c0.496-0.146,1.006-0.221,1.519-0.221c2.354,0,4.466,1.578,5.135,3.839
		c0.837,2.834-0.787,5.819-3.619,6.655C97.748,385.963,97.236,386.037,96.723,386.037z M96.727,377.431
		c-0.31,0-0.62,0.045-0.921,0.134c-0.832,0.246-1.519,0.802-1.933,1.563c-0.415,0.763-0.507,1.641-0.261,2.473
		c0.493,1.67,2.346,2.691,4.034,2.194c0.832-0.246,1.518-0.801,1.933-1.563s0.507-1.641,0.262-2.473
		C99.435,378.388,98.155,377.431,96.727,377.431z"/>
</g>
<g>
	<circle cx="96.726" cy="380.68" r="1.547"/>
</g>
<g>
	<rect x="101.173" y="391.204" fill="#009EE0" width="8.725" height="32.479"/>
</g>
<g>
	<path d="M110.952,424.736h-10.833v-34.587h10.833V424.736z M102.227,422.629h6.617v-30.372h-6.617V422.629z"/>
</g>
<g>
	<circle fill="#FFFFFF" cx="105.534" cy="391.04" r="4.302"/>
</g>
<g>
	<path d="M105.532,396.397c-2.355,0-4.466-1.578-5.134-3.839c-0.837-2.831,0.786-5.817,3.618-6.656
		c0.496-0.146,1.007-0.221,1.519-0.221c2.354,0,4.466,1.579,5.135,3.839c0.837,2.833-0.786,5.818-3.618,6.656
		C106.556,396.323,106.045,396.397,105.532,396.397z M105.535,387.79c-0.31,0-0.62,0.045-0.921,0.134
		c-1.718,0.509-2.702,2.319-2.194,4.037c0.494,1.67,2.348,2.692,4.035,2.194c1.717-0.508,2.701-2.319,2.194-4.037
		C108.242,388.747,106.962,387.79,105.535,387.79z"/>
</g>
<g>
	<circle cx="105.534" cy="391.04" r="1.547"/>
</g>
<g>
	<rect x="110.018" y="400.042" fill="#E76C89" width="8.725" height="23.643"/>
</g>
<g>
	<path d="M119.797,424.738h-10.833v-25.75h10.833V424.738z M111.072,422.631h6.616v-21.535h-6.616V422.631z"/>
</g>
<g>
	<circle fill="#FFFFFF" cx="114.379" cy="399.88" r="4.302"/>
</g>
<g>
	<path d="M114.376,405.237c-2.355,0-4.466-1.578-5.133-3.839c-0.406-1.372-0.253-2.819,0.43-4.077
		c0.684-1.257,1.815-2.173,3.188-2.578c0.496-0.146,1.007-0.221,1.52-0.221c2.354,0,4.466,1.578,5.134,3.838
		c0.836,2.834-0.787,5.82-3.618,6.656C115.401,405.163,114.889,405.237,114.376,405.237z M114.381,396.631
		c-0.311,0-0.621,0.045-0.922,0.134c-0.832,0.246-1.518,0.802-1.933,1.563c-0.414,0.763-0.507,1.641-0.261,2.473
		c0.493,1.67,2.346,2.689,4.035,2.194c1.717-0.507,2.701-2.318,2.194-4.037C117.088,397.588,115.808,396.631,114.381,396.631z"/>
</g>
<g>
	<circle cx="114.379" cy="399.88" r="1.547"/>
</g>
<g>
	<rect x="118.686" y="388.375" fill="#FCDC1A" width="8.725" height="35.309"/>
</g>
<g>
	<path d="M128.466,424.737h-10.834v-37.416h10.834V424.737z M119.74,422.63h6.617v-33.201h-6.617V422.63z"/>
</g>
<g>
	<circle fill="#FFFFFF" cx="123.047" cy="387.853" r="4.302"/>
</g>
<g>
	<path d="M123.044,393.21c-2.355,0-4.466-1.578-5.133-3.839c-0.406-1.371-0.253-2.819,0.43-4.076
		c0.684-1.258,1.816-2.174,3.188-2.579c0.496-0.146,1.006-0.221,1.519-0.221c2.354,0,4.466,1.579,5.134,3.839
		c0.837,2.833-0.786,5.819-3.618,6.655C124.069,393.136,123.557,393.21,123.044,393.21z M123.049,384.604
		c-0.31,0-0.62,0.045-0.921,0.134c-0.832,0.246-1.519,0.802-1.933,1.564c-0.415,0.762-0.507,1.64-0.261,2.472
		c0.405,1.371,1.684,2.329,3.111,2.329c0.311,0,0.622-0.046,0.923-0.135c1.717-0.507,2.701-2.318,2.194-4.036
		C125.756,385.561,124.476,384.604,123.049,384.604z"/>
</g>
<g>
	<circle cx="123.047" cy="387.853" r="1.547"/>
</g>
<g>
	<rect x="127.301" y="403.965" fill="#BF0000" width="8.725" height="19.719"/>
</g>
<g>
	<path d="M137.08,424.737h-10.834v-21.826h10.834V424.737z M128.355,422.63h6.617v-17.611h-6.617V422.63z"/>
</g>
<g>
	<circle fill="#FFFFFF" cx="131.662" cy="403.791" r="4.302"/>
</g>
<g>
	<path d="M131.659,409.148c-2.355,0-4.466-1.578-5.133-3.839c-0.406-1.372-0.253-2.819,0.43-4.077
		c0.683-1.257,1.815-2.173,3.188-2.578c0.496-0.146,1.007-0.221,1.52-0.221c2.354,0,4.465,1.578,5.134,3.838
		c0.836,2.833-0.787,5.818-3.618,6.656C132.684,409.074,132.172,409.148,131.659,409.148z M131.664,400.541
		c-0.311,0-0.621,0.046-0.922,0.135c-0.832,0.246-1.519,0.802-1.933,1.563c-0.415,0.763-0.507,1.641-0.261,2.473
		c0.493,1.67,2.346,2.691,4.034,2.194c1.717-0.508,2.702-2.319,2.194-4.037C134.371,401.499,133.091,400.541,131.664,400.541z"/>
</g>
<g>
	<circle cx="131.662" cy="403.791" r="1.547"/>
</g>
<g>
	<path d="M146.053,426.231h-61.27c-1.036,0-1.875-0.84-1.875-1.875s0.839-1.875,1.875-1.875h61.27c1.036,0,1.875,0.84,1.875,1.875
		S147.089,426.231,146.053,426.231z"/>
</g>
<g>
	<path d="M429.647,136.889c-0.017,0-0.032,0-0.049-0.001c-5.711-0.274-18.672-3.938-22.753-11.167
		c-1.699-3.009-1.659-6.206,0.12-9.5c0.526-0.975,1.249-1.843,2.128-2.589c-0.163-0.175-0.319-0.351-0.468-0.529
		c-2.291-2.725-2.877-5.604-1.697-8.328c1.053-2.432,2.702-4.437,4.837-5.937c-2.537-2.328-4.206-5.133-4.896-8.272
		c-1.016-4.621,1.932-9,7.693-11.43c6.427-2.712,15.367-2.393,19.267,3.54c0.301,0.458,0.174,1.072-0.283,1.374
		c-0.458,0.301-1.072,0.174-1.373-0.284c-3.193-4.854-11.07-5.234-16.84-2.802c-3.78,1.594-7.48,4.842-6.527,9.177
		c0.638,2.902,2.256,5.493,4.738,7.623c1.636-0.844,3.488-1.441,5.522-1.766c7.424-1.185,15.574,1.574,20.271,6.868
		c0.224,0.253,0.304,0.603,0.212,0.928s-0.344,0.581-0.667,0.679c-7.156,2.163-16.81,0.941-23.478-2.969
		c-0.719-0.422-1.399-0.871-2.037-1.344c-2.067,1.326-3.645,3.155-4.62,5.404c-0.873,2.016-0.404,4.124,1.396,6.264
		c0.185,0.22,0.383,0.438,0.594,0.655c2.734-1.577,6.388-2.261,10.261-1.775c4.994,0.626,10.876,3.474,12.407,9.586
		c0.064,0.256,0.023,0.528-0.114,0.754c-0.137,0.227-0.358,0.389-0.616,0.45c-6.212,1.494-16.479-1.677-22.142-6.496
		c-0.763,0.62-1.382,1.344-1.823,2.161c-1.453,2.692-1.499,5.173-0.138,7.583c3.534,6.26,15.446,9.889,21.122,10.162
		c0.547,0.026,0.969,0.491,0.942,1.038C430.611,136.476,430.172,136.889,429.647,136.889z M412.3,113.876
		c4.923,3.871,13.434,6.612,18.867,5.886c-1.664-4.449-6.369-6.581-10.416-7.088C417.574,112.278,414.588,112.74,412.3,113.876z
		 M415.327,99.115c0.347,0.233,0.707,0.459,1.079,0.677c5.734,3.364,13.823,4.6,20.278,3.2c-4.368-4.022-11.104-6.026-17.307-5.038
		C417.914,98.188,416.558,98.58,415.327,99.115z"/>
</g>
<path d="M200.211,679V574.942c0-0.839-0.682-1.519-1.524-1.519s-1.524,0.68-1.524,1.519V679H200.211z"/>
<polygon fill="#CECDB9" points="198.36,679 197.965,572.664 179.639,564.036 179.639,679 "/>
<path d="M181.051,679V497.218c0-0.84-0.682-1.522-1.524-1.522s-1.524,0.681-1.524,1.522V679H181.051z"/>
<path d="M73.712,679V497.224c0-0.844-0.682-1.528-1.524-1.528s-1.524,0.684-1.524,1.528V679H73.712z"/>
</svg>
