<?xml version="1.0" encoding="utf-8"?>
<!-- Generator: Adobe Illustrator 21.0.0, SVG Export Plug-In . SVG Version: 6.00 Build 0)  -->
<svg version="1.1" id="Слой_1" xmlns="http://www.w3.org/2000/svg" xmlns:xlink="http://www.w3.org/1999/xlink" x="0px" y="0px"
	 viewBox="0 0 351 361" enable-background="new 0 0 351 361" xml:space="preserve">
<ellipse transform="matrix(0.9051 -0.4252 0.4252 0.9051 -62.0914 92.5415)" fill-rule="evenodd" clip-rule="evenodd" fill="#F1CB30" cx="176.3" cy="185.4" rx="173.3" ry="173.3"/>
<path fill-rule="evenodd" clip-rule="evenodd" fill="#FDFCE7" d="M148.3,356.9L148.3,356.9l23.4-99.8c3.7,8.2,9.1,15.4,18.9,20.2
	l7.7,18.6l11.5,0.3l10.2-22.7c14-10.3,25.8-22.3,32.6-37.4c-3.6,40-7.9,79.6-18.1,113.1C206.1,359.3,176.5,361.6,148.3,356.9z"/>
<path fill-rule="evenodd" clip-rule="evenodd" fill="#EEBDCD" d="M247.7,245.1v7.6h-5.5C244.2,250.2,246,247.7,247.7,245.1z"/>
<path fill-rule="evenodd" clip-rule="evenodd" fill="#EEBDCD" d="M168.5,270.5l3-12.8h0.3c2.1,4.5,4.7,8.7,8.3,12.4v0.5H168.5z"/>
<path fill-rule="evenodd" clip-rule="evenodd" fill="#EEBDCD" d="M231,264.5v5.9h-7C226.4,268.5,228.7,266.6,231,264.5z"/>
<path fill-rule="evenodd" clip-rule="evenodd" fill="#EEBDCD" d="M234.9,270.5v-9.6c1-1,2.1-2.1,3.1-3.2h9.8v12.8H234.9z"/>
<polygon fill-rule="evenodd" clip-rule="evenodd" fill="#EEBDCD" points="167.4,287.3 167.4,275.4 167.6,274.4 180.2,274.4 
	180.2,287.3 "/>
<path fill-rule="evenodd" clip-rule="evenodd" fill="#EEBDCD" d="M184.1,287.3v-12.8h1.4c1.5,1,3.2,2,5,2.9l4.1,9.9H184.1z"/>
<polygon fill-rule="evenodd" clip-rule="evenodd" fill="#EEBDCD" points="213.8,287.3 214.2,286.4 214.2,287.3 "/>
<polygon fill-rule="evenodd" clip-rule="evenodd" fill="#EEBDCD" points="218.1,287.3 218.1,277.5 219.5,274.4 231,274.4 231,287.3 
	"/>
<path fill-rule="evenodd" clip-rule="evenodd" fill="#EEBDCD" d="M234.9,287.3v-12.8h12.8v8.1c-0.2,1.6-0.4,3.2-0.6,4.7H234.9z"/>
<polygon fill-rule="evenodd" clip-rule="evenodd" fill="#EEBDCD" points="160.4,305 163.4,292.5 163.4,305 "/>
<rect x="167.4" y="292.2" fill-rule="evenodd" clip-rule="evenodd" fill="#EEBDCD" width="12.8" height="12.8"/>
<polygon fill-rule="evenodd" clip-rule="evenodd" fill="#EEBDCD" points="184.1,305 184.1,292.2 196.7,292.2 196.9,292.8 196.9,305 
	"/>
<polygon fill-rule="evenodd" clip-rule="evenodd" fill="#EEBDCD" points="201.3,305 201.3,296 209.7,296.2 211.5,292.2 214.2,292.2 
	214.2,305 "/>
<rect x="218.1" y="292.2" fill-rule="evenodd" clip-rule="evenodd" fill="#EEBDCD" width="12.8" height="12.8"/>
<path fill-rule="evenodd" clip-rule="evenodd" fill="#EEBDCD" d="M234.9,305v-12.8h11.5c-0.6,4.3-1.3,8.6-2,12.8H234.9z"/>
<polygon fill-rule="evenodd" clip-rule="evenodd" fill="#EEBDCD" points="156,323.9 159,311.1 163.4,311.1 163.4,323.9 "/>
<rect x="167.4" y="311.1" fill-rule="evenodd" clip-rule="evenodd" fill="#EEBDCD" width="12.8" height="12.8"/>
<rect x="184.1" y="311.1" fill-rule="evenodd" clip-rule="evenodd" fill="#EEBDCD" width="12.8" height="12.8"/>
<rect x="201.3" y="311.1" fill-rule="evenodd" clip-rule="evenodd" fill="#EEBDCD" width="12.8" height="12.8"/>
<rect x="218.1" y="311.1" fill-rule="evenodd" clip-rule="evenodd" fill="#EEBDCD" width="12.8" height="12.8"/>
<path fill-rule="evenodd" clip-rule="evenodd" fill="#EEBDCD" d="M234.9,323.9v-12.8h8.5c-0.8,4.3-1.6,8.6-2.5,12.8H234.9z"/>
<polygon fill-rule="evenodd" clip-rule="evenodd" fill="#EEBDCD" points="151.8,341.7 154.8,328.9 163.4,328.9 163.4,341.7 "/>
<rect x="167.4" y="328.9" fill-rule="evenodd" clip-rule="evenodd" fill="#EEBDCD" width="12.8" height="12.8"/>
<rect x="184.1" y="328.9" fill-rule="evenodd" clip-rule="evenodd" fill="#EEBDCD" width="12.8" height="12.8"/>
<rect x="201.3" y="328.9" fill-rule="evenodd" clip-rule="evenodd" fill="#EEBDCD" width="12.8" height="12.8"/>
<rect x="218.1" y="328.9" fill-rule="evenodd" clip-rule="evenodd" fill="#EEBDCD" width="12.8" height="12.8"/>
<path fill-rule="evenodd" clip-rule="evenodd" fill="#EEBDCD" d="M234.9,341.7v-12.8h4.9c-1,4.3-2,8.6-3.2,12.8H234.9z"/>
<polygon fill-rule="evenodd" clip-rule="evenodd" fill="#960000" points="238.4,311.5 212.4,306.1 211.3,296.4 234.1,284.3 
	240.2,290.1 "/>
<path fill-rule="evenodd" clip-rule="evenodd" fill="#4B5763" d="M253.8,170.6L272,198l34.4,31.6c-0.3,10.9-0.4,21.9-0.3,33.1
	c0.1,12.2,0.4,24.6,0.8,37.1v0.1c-15.3,17.6-34.5,32.3-56.9,42.9c-5.3,2.5-10.7,4.7-16.1,6.6C247.4,307.5,254.5,249.2,253.8,170.6z"
	/>
<path fill-rule="evenodd" clip-rule="evenodd" fill="#4B5763" d="M61.4,315.7L61.4,315.7l24-64.7l23.3-50.7
	c18.9,0.9,36.4-4.5,51.6-19.5c-0.3,9-0.5,17.9,1.9,24.2c1.7,9.6,6.8,16.5,15.8,20l-30.6,131.8l0,0
	C115.7,351.4,85.8,337.3,61.4,315.7z"/>
<polygon fill-rule="evenodd" clip-rule="evenodd" fill="#960000" points="167.3,318 170.6,294.8 175.2,291 196.6,298.9 195.7,306.4 
	"/>
<path fill-rule="evenodd" clip-rule="evenodd" fill="#DEB6A2" d="M93.8,320.3l6-32.1c-8.2-2.4-9.5-8.5-4.2-18.1
	c-17.7,4.3-17.5-12.2,2.3-20.9c-18.9,7.6-36.8-6.1-15.8-17.7c-14.3-5.5-15.2-13.3,0-22.3c10.2-4.5,20.5-8,30.7-4.7l31.2-11.6
	c9.4,1.2,17.9,3,16.7,12.1c-1.1,28.3-5.2,62.8-11.2,100.9C129.1,319.1,111.4,324.3,93.8,320.3z"/>
<path fill-rule="evenodd" clip-rule="evenodd" d="M54.7,152.1l115.3-37l3.4,13.1c3.3,39.1-14.5,59.5-42.9,70.5
	C89.7,204.4,65.9,186.9,54.7,152.1z"/>
<path fill-rule="evenodd" clip-rule="evenodd" fill="#DEB6A2" d="M208.7,294.6l-11.4-1.1l-6.9-16.6c-8.5-3.4-14.9-9.5-18.9-18.9
	l6.3-33.8c-15.1-7.6-20.5-22.6-16-45.2c8.9-15,14.2-34.2,10.9-63l88.2-18.9l1.7,9.7c2.3-3.7,5.2-4.3,8-2.3c8,12.6,1.7,32.9-6.9,38.4
	c1.1,10.6-3.7,12.3-9.2,13.2l-1.7,80.7c-9.2,15.6-20.4,27.1-32.6,36.6L208.7,294.6z"/>
<path opacity="0.2275" fill-rule="evenodd" clip-rule="evenodd" fill="#4B5763" d="M253,235l-74.4-9.9
	c-16.2-10.2-20.6-25.9-15.5-45.9l8.7-13.6l83.7-13.6L253,235z"/>
<path fill-rule="evenodd" clip-rule="evenodd" fill="#F5DED2" d="M178.9,160.3c-3.6-12.7-1.5-29,4.7-47.9l4.7-1.4
	c-6.6,29-12.6,57,7.9,49.3C189.9,162.7,183.8,164.7,178.9,160.3z"/>
<path fill-rule="evenodd" clip-rule="evenodd" fill="#FFFFFF" d="M175.2,178l67.4-11.6c-4,11.7-9.8,19.8-16.3,26.5l-33,3.3
	C183.1,192.7,178.9,185.5,175.2,178z"/>
<polygon fill-rule="evenodd" clip-rule="evenodd" fill="#666666" points="178.5,133.3 173.2,114.9 183.3,113.5 "/>
<path fill-rule="evenodd" clip-rule="evenodd" fill="#2D2D2D" d="M176.7,127.1l-5.1-11.9l6,0C178.7,119.4,178.1,123.3,176.7,127.1z"
	/>
<path fill-rule="evenodd" clip-rule="evenodd" fill="#4B5763" d="M53.6,151.5l-1.7-9.7l76.7-61.8l16,5.7L140,51.3
	c-4.3-36.5,10.5-32.1,29.8-18.3c1.9-23.1,8.1-30.5,16.6-29.2c22.8,8.9,42.8,40.8,62.4,75.6l57.2,7.4l-136.2,27.5L53.6,151.5z"/>
<path fill="none" stroke="#000000" stroke-width="0.417" stroke-linecap="round" stroke-miterlimit="10" d="M53.6,151.5l-1.7-9.7
	l76.7-61.8l16,5.7L140,51.3c-4.3-36.5,10.5-32.1,29.8-18.3c1.9-23.1,8.1-30.5,16.6-29.2c22.8,8.9,42.8,40.8,62.4,75.6l57.2,7.4
	l-136.2,27.5L53.6,151.5z"/>
<polygon fill-rule="evenodd" clip-rule="evenodd" fill="#727D86" points="54.3,151.5 53.4,141.3 127.3,80.3 134.8,83.1 69.6,147.3 
	"/>
<path fill-rule="evenodd" clip-rule="evenodd" fill="#727D86" d="M148.3,84.1l-3.3-1.4c-7.5-37-7.7-58.3,1.9-58.6
	c-7.3,3.2-5,23.4,3.7,54.9L185,67.8L148.3,84.1z"/>
<path fill-rule="evenodd" clip-rule="evenodd" fill="#3E4953" d="M168.3,50.6c-11-15.3-21.9-30-27.1-20.7
	c2.8-10.1,11.7-9.8,28.1,3.5L168.3,50.6z"/>
<path fill-rule="evenodd" clip-rule="evenodd" fill="#3E4953" d="M218.6,54.8c-18-29.7-35.7-57-45.1-39c2-8.9,5.8-15.6,21-8.6
	c15,12.1,26,27.5,36.7,43.2L218.6,54.8z"/>
<polygon fill-rule="evenodd" clip-rule="evenodd" fill="#3E4953" points="278.8,93.3 236.4,82.4 249.2,78.7 305.4,86.6 "/>
<polygon fill-rule="evenodd" clip-rule="evenodd" fill="#77D29A" points="161.8,101.1 145.2,85.1 230.5,49.6 248.8,79.4 "/>
<polygon fill-rule="evenodd" clip-rule="evenodd" fill="#76D099" points="161.3,101.3 145,85.5 200.8,64.1 163.1,83.6 166.9,99.4 
	"/>
<polygon fill-rule="evenodd" clip-rule="evenodd" fill="#4F8B68" points="237.6,81.2 219.6,55.3 230.7,49.9 248.5,78.7 "/>
<polyline fill="none" stroke="#000000" stroke-width="3.34" stroke-linecap="round" stroke-linejoin="round" stroke-miterlimit="10" points="
	172.4,114.8 309.4,86.8 248,79.3 "/>
<path fill="none" stroke="#000000" stroke-width="3.34" stroke-linecap="round" stroke-linejoin="round" stroke-miterlimit="10" d="
	M249.2,78.7c-47.4-77.8-80.8-108.8-80-25.4"/>
<path fill="none" stroke="#000000" stroke-width="3.34" stroke-linecap="round" stroke-linejoin="round" stroke-miterlimit="10" d="
	M169.9,32.8c-22.7-15.4-39.8-22.3-24.4,54.5"/>
<line fill="none" stroke="#000000" stroke-width="3.34" stroke-linecap="round" stroke-linejoin="round" stroke-miterlimit="10" x1="248.6" y1="78.7" x2="162.2" y2="101.3"/>
<line fill="none" stroke="#000000" stroke-width="3.34" stroke-linecap="round" stroke-linejoin="round" stroke-miterlimit="10" x1="230.6" y1="50.8" x2="144.5" y2="85.5"/>
<path fill="none" stroke="#000000" stroke-width="3.34" stroke-linecap="round" stroke-linejoin="round" stroke-miterlimit="10" d="
	M161,179.8c-5,48.2,21.7,57.4,73.8,35.3"/>
<path fill="none" stroke="#000000" stroke-width="3.34" stroke-linecap="round" stroke-linejoin="round" stroke-miterlimit="10" d="
	M182.9,114c-5.8,27.9-10,53.2,5.7,48.6l25-4.4c2.6-1.2,3.6-4,2.3-7.7"/>
<line fill="none" stroke="#000000" stroke-width="6.679" stroke-linecap="round" stroke-linejoin="round" stroke-miterlimit="10" x1="169.2" y1="115.7" x2="53.8" y2="152.4"/>
<line fill="none" stroke="#000000" stroke-width="6.679" stroke-linecap="round" stroke-linejoin="round" stroke-miterlimit="10" x1="53.8" y1="141.3" x2="126.4" y2="81.7"/>
<path fill="none" stroke="#000000" stroke-width="3.34" stroke-linecap="round" stroke-linejoin="round" stroke-miterlimit="10" d="
	M140.9,355.6c8.7-51.1,24.8-146.8,19.2-155.2c-10.6-17.3-46.1,9.6-38.7,26c9.6,14.1,25.4,3.4,35.9-11.1"/>
<path fill="none" stroke="#000000" stroke-width="3.34" stroke-linecap="round" stroke-miterlimit="10" d="M86.2,207.5
	c30.2-8.2,41.1,0.2,33.7,12.4c-6.2,7.2-19.9,8.2-34.1,10.6C72.2,231.8,62.2,215.2,86.2,207.5z"/>
<path fill="none" stroke="#000000" stroke-width="3.34" stroke-linecap="round" stroke-linejoin="round" stroke-miterlimit="10" d="
	M82.9,230.8c-17,9.1-8.9,21.6,3.8,20.3c28-4.6,39-11.8,32.5-21.7c-1.7-3.3-5.8-4.2-9.3-3.4"/>
<path fill="none" stroke="#000000" stroke-width="3.34" stroke-linecap="round" stroke-miterlimit="10" d="M112.7,245.3
	c12.4,0,11.1,12.5-4.1,20.1c-3.2,1.7-6.9,2.9-10.2,4.5C77.1,277.1,76.7,252.3,112.7,245.3z"/>
<path fill="none" stroke="#000000" stroke-width="3.34" stroke-linecap="round" stroke-linejoin="round" stroke-miterlimit="10" d="
	M96.4,271.3c-9.1,11.1,0.6,20.5,11.5,15.1c23.8-11.4,23.3-27.6,1.6-21.5"/>
<path fill="none" stroke="#000000" stroke-width="3.34" stroke-linecap="round" stroke-miterlimit="10" d="M132.4,207.4
	c9.8,1.1,13,8.4,11.3,16C128.5,233.8,116.6,219.3,132.4,207.4z"/>
<path fill="none" stroke="#000000" stroke-width="2.505" stroke-linecap="round" stroke-miterlimit="10" d="M101.6,208.2
	c22.7-2.7,15.5,14.6,0.9,13.3C101.4,220.3,96.5,215.1,101.6,208.2z"/>
<path fill="none" stroke="#000000" stroke-width="2.505" stroke-linecap="round" stroke-miterlimit="10" d="M104,230.9
	c18.1-4.5,13.8,11,1.9,11.3C104.9,241.2,100.5,237.3,104,230.9z"/>
<path fill="none" stroke="#000000" stroke-width="2.505" stroke-linecap="round" stroke-miterlimit="10" d="M110.4,269.6
	c13.9-8,14,5.1,4.2,8.3C113.6,277.4,109,275.4,110.4,269.6z"/>
<path fill="none" stroke="#000000" stroke-width="2.505" stroke-linecap="round" stroke-miterlimit="10" d="M105.4,251.2
	c14.5-7.7,14.2,6.4,4.1,9.2C108.5,259.8,103.8,257.4,105.4,251.2z"/>
<path fill="none" stroke="#000000" stroke-width="3.34" stroke-linecap="round" stroke-linejoin="round" stroke-miterlimit="10" d="
	M127.2,231.4c-10.3,10.9-4.8,32,11.5,42.9"/>
<path fill="none" stroke="#000000" stroke-width="1.67" stroke-linecap="round" stroke-linejoin="round" stroke-miterlimit="10" d="
	M97.9,204.7c3,1.8,3.6,6.1,0.3,8.8"/>
<path fill="none" stroke="#000000" stroke-width="1.67" stroke-linecap="round" stroke-linejoin="round" stroke-miterlimit="10" d="
	M103.9,233.3c2.5,1,3.5,4.3,1.3,6.8"/>
<path fill="none" stroke="#000000" stroke-width="1.67" stroke-linecap="round" stroke-linejoin="round" stroke-miterlimit="10" d="
	M105.5,252.7c2.7,0.3,4.6,3.1,3.1,6.1"/>
<path fill="none" stroke="#000000" stroke-width="1.67" stroke-linecap="round" stroke-linejoin="round" stroke-miterlimit="10" d="
	M111.2,270.6c2.7,0.3,4.6,3.1,3.1,6.1"/>
<path fill="none" stroke="#000000" stroke-width="1.67" stroke-linecap="round" stroke-linejoin="round" stroke-miterlimit="10" d="
	M142.2,216.7c-3.4,0.3-6.5-2.9-5.4-7"/>
<path fill="none" stroke="#000000" stroke-width="1.67" stroke-linecap="round" stroke-linejoin="round" stroke-miterlimit="10" d="
	M146.3,199.6c3.4-1.1,7.2,2,6.5,5.7"/>
<path fill="none" stroke="#000000" stroke-width="1.264" stroke-linecap="round" stroke-linejoin="round" stroke-miterlimit="10" d="
	M151.4,198.1c2.2,0.3,3.3,2.2,3.5,3.8"/>
<path fill="none" stroke="#000000" stroke-width="3.34" stroke-linecap="round" stroke-linejoin="round" stroke-miterlimit="10" d="
	M134.5,271.3l0.9,18.2c-3.7,5.5-11.5,5.4-13.6,2.5l-0.2-13.5"/>
<line fill="none" stroke="#000000" stroke-width="3.34" stroke-linecap="round" stroke-linejoin="round" stroke-miterlimit="10" x1="97.2" y1="281.9" x2="88" y2="330.7"/>
<path fill="none" stroke="#000000" stroke-width="3.34" stroke-linecap="round" stroke-linejoin="round" stroke-miterlimit="10" d="
	M93.4,320.8c20.5,3,39-2.9,55.8-15.8"/>
<path fill="none" stroke="#000000" stroke-width="3.34" stroke-linecap="round" stroke-linejoin="round" stroke-miterlimit="10" d="
	M112.8,347.1c11.2-2.3,21.8-7.5,31.8-15.2"/>
<path fill="none" stroke="#000000" stroke-width="3.34" stroke-linecap="round" stroke-linejoin="round" stroke-miterlimit="10" d="
	M121.9,291.4c1.2-4.4,9.5-7.9,13.3-2.8"/>
<path fill="none" stroke="#000000" stroke-width="3.34" stroke-linecap="round" stroke-linejoin="round" stroke-miterlimit="10" d="
	M254.1,137.7c1.7,85.6-3.7,158.2-19.5,211.5"/>
<line fill="none" stroke="#000000" stroke-width="3.34" stroke-linecap="round" stroke-linejoin="round" stroke-miterlimit="10" x1="178.8" y1="224.8" x2="148.2" y2="356.9"/>
<path fill="none" stroke="#000000" stroke-width="3.34" stroke-linecap="round" stroke-linejoin="round" stroke-miterlimit="10" d="
	M252.5,236.7c-9.1,16.6-20.2,28.7-33,36.9l-9.6,22"/>
<line fill="none" stroke="#000000" stroke-width="3.34" stroke-linecap="round" stroke-linejoin="round" stroke-miterlimit="10" x1="246.5" y1="295.2" x2="220.6" y2="272.9"/>
<line fill="none" stroke="#000000" stroke-width="3.34" stroke-linecap="round" stroke-linejoin="round" stroke-miterlimit="10" x1="210.7" y1="296.6" x2="233.7" y2="284.6"/>
<polyline fill="none" stroke="#000000" stroke-width="2.749" stroke-linecap="round" stroke-linejoin="round" stroke-miterlimit="10" points="
	213.3,306 238.7,311.5 240.5,291.3 "/>
<path fill="none" stroke="#000000" stroke-width="3.34" stroke-linecap="round" stroke-linejoin="round" stroke-miterlimit="10" d="
	M254.3,171c16.1,22.2,26.6,43.7,31.6,64.6l-36.3,38.1"/>
<path fill="none" stroke="#000000" stroke-width="3.34" stroke-linecap="round" stroke-linejoin="round" stroke-miterlimit="10" d="
	M260.7,263.6l27,28.8c-6.1,13.9-12.3,27.7-19.4,40.3"/>
<path fill-rule="evenodd" clip-rule="evenodd" fill="#4B5763" d="M306.1,301.2c6.8-8.4,13.2-17,18.9-26l-18.3-45.6
	C302.9,238.8,305.3,273.3,306.1,301.2z"/>
<polyline fill="none" stroke="#000000" stroke-width="3.34" stroke-linecap="round" stroke-linejoin="round" stroke-miterlimit="10" points="
	271.4,198.5 306.7,229.6 324.3,275.3 "/>
<line fill="none" stroke="#000000" stroke-width="3.34" stroke-linecap="round" stroke-linejoin="round" stroke-miterlimit="10" x1="155.2" y1="267.3" x2="163.6" y2="286.8"/>
<line fill="none" stroke="#000000" stroke-width="3.34" stroke-linecap="round" stroke-linejoin="round" stroke-miterlimit="10" x1="158" y1="276.6" x2="152.4" y2="283.6"/>
<path fill="none" stroke="#000000" stroke-width="3.34" stroke-linecap="round" stroke-linejoin="round" stroke-miterlimit="10" d="
	M192.9,226.4c3.2,12.7,12.6,15.4,25.6,12.1"/>
<line fill="none" stroke="#000000" stroke-width="3.34" stroke-linecap="round" stroke-linejoin="round" stroke-miterlimit="10" x1="172.4" y1="178" x2="245.9" y2="165.5"/>
<path fill="none" stroke="#000000" stroke-width="3.34" stroke-linecap="round" stroke-linejoin="round" stroke-miterlimit="10" d="
	M259.8,110.6c16.1-24.7,20.6,19.5,5.1,32.6c-1.4,10.3-5.5,14.1-9.8,12.1"/>
<path fill="none" stroke="#000000" stroke-width="3.34" stroke-linecap="round" stroke-linejoin="round" stroke-miterlimit="10" d="
	M258.5,139.3c0.3-13.8,3.4-23,9.8-27"/>
<path fill-rule="evenodd" clip-rule="evenodd" fill="#979797" d="M246.9,157.2L245,155c6-3.5,12.2-6.8,15.2-18.9
	c-0.1-6.3,0.8-13,4.5-18.4c6.6,4.6,6.6,10,0.3,16C260.5,146,254.8,154.5,246.9,157.2z"/>
<path fill="none" stroke="#000000" stroke-width="3.34" stroke-linecap="round" stroke-linejoin="round" stroke-miterlimit="10" d="
	M175.7,178.9c3.6,8.2,9.2,14.4,17.7,17.7l32.6-3.7c7.9-6.7,13.2-15.3,16.3-25.6"/>
<line fill="none" stroke="#000000" stroke-width="3.34" stroke-linecap="round" stroke-linejoin="round" stroke-miterlimit="10" x1="201.3" y1="206.4" x2="223.1" y2="204.1"/>
<line fill="none" stroke="#000000" stroke-width="1.67" stroke-linecap="round" stroke-linejoin="round" stroke-miterlimit="10" x1="180.3" y1="187.3" x2="237.1" y2="178.9"/>
<line fill="none" stroke="#000000" stroke-width="3.34" stroke-linecap="round" stroke-linejoin="round" stroke-miterlimit="10" x1="82.8" y1="247" x2="58.9" y2="310"/>
<ellipse transform="matrix(0.6878 -0.7259 0.7259 0.6878 -210.32 180.9719)" fill="none" stroke="#000000" stroke-width="2.505" stroke-linecap="round" stroke-miterlimit="10" cx="105.2" cy="335" rx="5.7" ry="5.7"/>
<path fill="none" stroke="#000000" stroke-width="3.34" stroke-linecap="round" stroke-linejoin="round" stroke-miterlimit="10" d="
	M198,295.2l-6.5-17.2c-7.7-5.2-15.4-9.3-20-20"/>
<line fill="none" stroke="#000000" stroke-width="3.34" stroke-linecap="round" stroke-linejoin="round" stroke-miterlimit="10" x1="191.5" y1="278" x2="161.3" y2="302.7"/>
<polyline fill="none" stroke="#000000" stroke-width="2.505" stroke-linecap="round" stroke-linejoin="round" stroke-miterlimit="10" points="
	175.2,291 196.6,298.9 195.7,306.4 167.3,318 170.6,294.8 "/>
<ellipse transform="matrix(0.6877 -0.7259 0.7259 0.6877 -156.1405 242.292)" fill-rule="evenodd" clip-rule="evenodd" fill="#960000" cx="203.6" cy="302.7" rx="9.3" ry="9.3"/>
<line fill="none" stroke="#000000" stroke-width="3.34" stroke-linecap="round" stroke-linejoin="round" stroke-miterlimit="10" x1="202.8" y1="312.4" x2="199.8" y2="357.7"/>
<path fill="none" stroke="#000000" stroke-width="1.67" stroke-linecap="round" stroke-linejoin="round" stroke-miterlimit="10" d="
	M177.6,115.1c1.1,4.3,0.5,8.2-0.9,11.9"/>
<ellipse transform="matrix(0.6877 -0.7259 0.7259 0.6877 -156.1405 242.292)" fill="none" stroke="#000000" stroke-width="2.505" stroke-linecap="round" stroke-miterlimit="10" cx="203.6" cy="302.7" rx="9.3" ry="9.3"/>
<line fill="none" stroke="#000000" stroke-width="2.505" stroke-linecap="round" stroke-linejoin="round" stroke-miterlimit="10" x1="212.4" y1="299.3" x2="221.2" y2="297.1"/>
<line fill="none" stroke="#000000" stroke-width="2.505" stroke-linecap="round" stroke-linejoin="round" stroke-miterlimit="10" x1="213" y1="302.3" x2="218.1" y2="302.4"/>
<line fill="none" stroke="#000000" stroke-width="2.505" stroke-linecap="round" stroke-linejoin="round" stroke-miterlimit="10" x1="194.2" y1="301.1" x2="185.6" y2="300.5"/>
<line fill="none" stroke="#000000" stroke-width="2.505" stroke-linecap="round" stroke-linejoin="round" stroke-miterlimit="10" x1="193.8" y1="304" x2="188.5" y2="304.8"/>
<path fill="none" stroke="#000000" stroke-width="2.505" stroke-linecap="round" stroke-linejoin="round" stroke-miterlimit="10" d="
	M264.4,117.5c6.3,1.1,7.5,12.1,0.1,15.6"/>
<path fill="none" stroke="#000000" stroke-width="2.505" stroke-linecap="round" stroke-linejoin="round" stroke-miterlimit="10" d="
	M264.7,131.6c-2.7,13.3-8.8,21.2-17.2,25.3"/>
<path fill="none" stroke="#000000" stroke-width="2.505" stroke-linecap="round" stroke-linejoin="round" stroke-miterlimit="10" d="
	M264.7,131.4c1.1-3.1-1.5-3.4-2.3-1.7c-2.7,13.3-8.8,21.2-17.2,25.3"/>
<path fill-rule="evenodd" clip-rule="evenodd" fill="#979797" d="M235.3,158.1c1-2.1,4.5-3.7,7.7-3.5c3.2,0.2,5,2,4,4.1
	c-1,2.1-4.5,3.7-7.7,3.5C236.1,162,234.3,160.2,235.3,158.1z"/>
<path fill="none" stroke="#000000" stroke-width="2.505" stroke-linecap="round" stroke-miterlimit="10" d="M235.3,158.1
	c1-2.1,4.5-3.7,7.7-3.5c3.2,0.2,5,2,4,4.1c-1,2.1-4.5,3.7-7.7,3.5C236.1,162,234.3,160.2,235.3,158.1z"/>
<ellipse transform="matrix(0.5263 -0.8503 0.8503 0.5263 -173.9326 331.6158)" fill-rule="evenodd" clip-rule="evenodd" fill="#FFFFFF" cx="210.7" cy="321.9" rx="3.6" ry="3.6"/>
<ellipse transform="matrix(0.5263 -0.8503 0.8503 0.5263 -173.9326 331.6158)" fill="none" stroke="#000000" stroke-width="1.67" stroke-linecap="round" stroke-miterlimit="10" cx="210.7" cy="321.9" rx="3.6" ry="3.6"/>
<ellipse transform="matrix(0.5264 -0.8503 0.8503 0.5264 -192.1237 341.7276)" fill-rule="evenodd" clip-rule="evenodd" fill="#FFFFFF" cx="210.7" cy="343.3" rx="3.6" ry="3.6"/>
<ellipse transform="matrix(0.5264 -0.8503 0.8503 0.5264 -192.1237 341.7276)" fill="none" stroke="#000000" stroke-width="1.67" stroke-linecap="round" stroke-miterlimit="10" cx="210.7" cy="343.3" rx="3.6" ry="3.6"/>
<path fill-rule="evenodd" clip-rule="evenodd" d="M171.6,113.1L171.6,113.1l96-19.3l2.1,10.7l-5.6,1.1l1.1,5.4l-5.1,1l1.1,5.5
	l-5.7,1.1l1,5.1l-37.8,7.6l-1-5.1l-5.8,1.2l-1.1-5.5l-5.1,1l-1.1-5.4l-10.3,2.1l1.1,5.4l-5.1,1l1.1,5.5l-5.7,1.1l1,5.1l-8.7,1.7l0,0
	C178.2,130.2,176.2,121.4,171.6,113.1z"/>
<path fill-rule="evenodd" clip-rule="evenodd" fill="#FFFFFF" d="M221.7,119.1l5.3-1.1l-1.1-5.2l-5.3,1.1L221.7,119.1z M222.7,124.6
	l-1.1-5.3l-5.4,1.1l-1.1-5.3l-5.3,1.1l-1.1-5.4l5.4-1.1l1.1,5.3l5.3-1.1l-1.1-5.3l5.4-1.1l1.1,5.3l5.3-1.1l1.1,5.3l5.4-1.1l1.1,5.4
	l-5.4,1.1l-1.1-5.3l-5.3,1.1l1.1,5.3L222.7,124.6z"/>
<path fill-rule="evenodd" clip-rule="evenodd" fill="#FFFFFF" d="M115.5,198.6l12.2-2.5c-4.1,1.2-8.3,2.1-12.6,2.5L115.5,198.6z
	 M87.1,195.2L87.1,195.2L85,184.7l-11,2.2l0,0c-5.1-4.6-9.4-10.6-12.6-18.2l19.9-4l4,19.6l19.4-3.9l-3.9-19.6l19.9-4l4,19.6
	l19.6-3.9l3,15.1v0c-5.9,3.6-12.4,6.5-19.1,8.4l0,0l-3.9-19.2l-19.4,3.9l3.7,18.4l0,0C101.2,199.2,93.8,198,87.1,195.2z"/>
<path fill="none" stroke="#000000" stroke-width="10.019" stroke-linecap="round" stroke-miterlimit="10" d="M59.4,168.6
	c-16.3-29.9-5.2-67.4,24.7-83.6c29.9-16.3,67.4-5.2,83.6,24.7c16.3,29.9,5.2,67.4-24.7,83.6C113.1,209.6,75.7,198.5,59.4,168.6z"/>
<line fill="none" stroke="#000000" stroke-width="3.34" stroke-linecap="round" stroke-linejoin="round" stroke-miterlimit="10" x1="306.7" y1="229.6" x2="303.4" y2="304.2"/>
</svg>
