<?xml version="1.0" encoding="utf-8"?>
<!-- Generator: Adobe Illustrator 21.0.0, SVG Export Plug-In . SVG Version: 6.00 Build 0)  -->
<svg version="1.2" baseProfile="tiny" id="Слой_1"
	 xmlns="http://www.w3.org/2000/svg" xmlns:xlink="http://www.w3.org/1999/xlink" x="0px" y="0px" viewBox="0 0 735 640"
	 overflow="auto" xml:space="preserve">
<g>
	<g>
		<rect x="211.2" y="381.2" fill="#FFFEE8" width="8.2" height="8.2"/>
		<rect x="143.3" y="397.5" fill="#FFFEE8" width="15" height="15"/>
		<rect x="315.9" y="534.7" fill="#FFFEE8" width="23.2" height="23.2"/>
		<path fill="#FFFEE8" d="M292.8,427.4h-31.3v-29.9h-38.1v21.7H165v63.9h-39.4v20.4H69.9v67.9H2V642h126.4v-17.5H200v7.8h8.2V624
			h-7.8v-24h70.7v-54.3h1.4v-16.3h38v-42.2h-17.7L292.8,427.4L292.8,427.4z M127,623H72.7v-48.8H127V623z M165,551h-24.4v-25.7H165
			V551z"/>
		<rect x="31.9" y="465.4" fill="#FFFEE8" width="31.3" height="31.3"/>
	</g>
	<g>
		<path fill="#D5D6D8" d="M412.5,164.5c1.2-3.9,3.8-6.8,9.4-7.7l-3.4-4.9c-6.5,1.6-10,5.1-12.1,9.6L412.5,164.5z"/>
	</g>
	<g>
		<path d="M412.5,165.7c-0.2,0-0.4,0-0.6-0.1l-6.1-3c-0.6-0.3-0.9-1-0.6-1.7c2.5-5.4,6.7-8.8,13-10.3c0.5-0.1,1,0.1,1.3,0.5l3.4,4.9
			c0.2,0.4,0.3,0.8,0.1,1.2c-0.2,0.4-0.5,0.7-1,0.8c-4.5,0.7-7.2,2.9-8.4,6.8c-0.1,0.4-0.4,0.6-0.7,0.8
			C412.8,165.7,412.7,165.7,412.5,165.7z M408.1,160.9l3.7,1.8c1.5-3.5,4.1-5.7,8-6.7l-1.8-2.6C413.3,154.6,410.2,157,408.1,160.9z"
			/>
	</g>
	<g>
		<path fill="#FCC2AE" d="M553.1,61.9c-14.7-8.7-20.3-14.9-13.8-17.8l10.7,3.3c-7.7-11.1-14.4-21.6-7.9-25.4
			c4.3,2.7,8.7,7.7,13.4,17.3c-2.4-10.8-5.6-22.5-0.6-24.1c4.9,2.4,7.9,10.3,9.4,22.8l7.9-19.1c5.2-5.7,6.8-1.9,6.6,6.6l-5.3,14.9
			l11.4-15.4c7.1-5,7.1-0.6,5.1,6.4L580.5,45c0,6.6-1.3,12.3-5.7,15.4L553.1,61.9z"/>
	</g>
	<g>
		<path fill="#4B5974" d="M535.3,101l19.7,0.9l-3.1-40.1l26.1-1.8c4.7,30.3,6.3,54.2-2.4,57.2c-7.2,0.7-14.1,0.7-20.8,0l-21.9-11.9
			L535.3,101z"/>
	</g>
	<g>
		<path fill="#494949" d="M556.5,117.6c20.4,2.3,27.5,10.1,14.6,25.9C569.2,134.4,564,125.8,556.5,117.6z"/>
	</g>
	<g>
		<path fill="#D5D6D8" d="M457.5,140c13.9-2.7,24.6-10.2,32.2-22.3c19.3,2.5,37.5-0.7,42.6-12.1c18.7,5.2,32.7,18.3,39.5,38.3
			c-12.4,23.1-43,38.3-77.4,49.5l-8.5-0.7c3.8-16.5,4.1-32.9-18-48.8L457.5,140z"/>
	</g>
	<g>
		<path fill="#F26B7B" d="M506.3,118.3c19.7,13.1,34.2,28.8,38.7,49.5l8.3-5.2c-11.6-26.5-26-36.7-40.7-45.3L506.3,118.3z"/>
	</g>
	<g>
		<path fill="#FCA61A" d="M322.5,153.9c12.4,2.4,24.7-4.3,33.9-23c3.7-6.7,6.5-13.6,9.5-19.4c5-12.1,14.3-21.7,33-24.2
			c3.5,6.9,7.3,13.6,13.6,18.4c-13.4,3.4-25,9-31.3,20.9c-5,11.9-10.6,23.6-18.2,34.2c-7.2,9.8-16.5,13.5-26.9,13.6L322.5,153.9z"/>
	</g>
	<g>
		<path fill="#C84D5B" d="M397.3,101.7l6.8-3.6l-5.1-4.7l-6.8,3.6L397.3,101.7z M402.5,106.6l-5.2-4.8l-6.9,3.6l-5.2-4.8l-6.9,3.6
			l-5.1-4.7c0.1-0.1,0.2-0.2,0.3-0.3l0,0l6.5-3.4l5.2,4.8L392,97l-5.2-4.8l7-3.7l5.2,4.8l2.4-1.3c1.1,2,2.3,3.9,3.6,5.7l-0.7,0.4
			l4.1,3.8l-0.1-0.1c0.3,0.4,0.7,0.7,1,1L402.5,106.6z"/>
	</g>
	<g>
		<path fill="#C84D5B" d="M382.6,118.3l6.8-3.6l-5.1-4.7l-6.8,3.6L382.6,118.3z M375.7,122.1l-5.2-4.8l-6.9,3.6l-1.6-1.4
			c1.1-2.4,2.2-4.8,3.3-7l5.2,4.7l6.8-3.6l-5.2-4.8l7-3.7l5.2,4.8l6.9-3.6l5.2,4.8l6.9-3.6l0.8,0.7l0,0c-2.6,0.9-5.1,2-7.4,3.3l0,0
			l-0.2-0.2l-6.8,3.6l0.7,0.7l0,0c-1.9,1.5-3.7,3.2-5.3,5.2l0,0l-2.4-2.2L375.7,122.1z"/>
	</g>
	<g>
		<path fill="#C84D5B" d="M366,134.9l6.8-3.6l-5.1-4.7l-6.8,3.6L366,134.9z M371.2,139.8L366,135l-6.9,3.6l-4.6-4.2
			c0.3-0.4,0.5-0.9,0.8-1.4l0,0l5.5-2.9l-2.7-2.5c0.8-1.6,1.6-3.3,2.4-4.9l0,0l2.1-1.1l5.2,4.8l6.9-3.6l5.2,4.8l1.1-0.6
			c-0.2,0.4-0.3,0.8-0.5,1.2l0,0l-0.6-0.5l-6.8,3.6l4.3,3.9c-0.3,0.6-0.5,1.1-0.8,1.7L371.2,139.8z"/>
	</g>
	<g>
		<path fill="#C84D5B" d="M365.9,111.5L365.9,111.5C365.9,111.5,365.9,111.5,365.9,111.5c1-2.4,2.1-4.7,3.5-6.9l3.5,3.2L365.9,111.5
			z"/>
	</g>
	<g>
		<path fill="#C84D5B" d="M331.1,154.1L331.1,154.1C331.1,154.1,331.2,154.1,331.1,154.1L331.1,154.1z M355.3,156.4l-5.2-4.8
			l-6.9,3.6l-4.3-3.9c2.1-1.1,4.1-2.6,6.1-4.4l5,4.6l6.8-3.6l-5.1-4.7l-6.5,3.4l0,0c1.6-1.5,3.2-3.3,4.7-5.2l1.8,1.7l6.9-3.6
			l5.2,4.8l6.9-3.6l2.7,2.5l0,0c-0.9,1.7-1.8,3.4-2.7,5.1l-1.8,0.9l-5.2-4.8l-6.8,3.6l5.2,4.8L355.3,156.4z"/>
	</g>
	<g>
		<path fill="#C84D5B" d="M346.2,168.7l6.8-3.6l-5.1-4.7l-6.8,3.6L346.2,168.7z M339.4,172.5l-5.2-4.8l-1.9,1l-3.8-5.6l0.5-0.2
			l5.2,4.8l6.8-3.6l-5.2-4.8l7-3.7l5.2,4.8l6.9-3.6l5.2,4.8l3.8-2c-0.3,0.4-0.5,0.8-0.8,1.2c-0.5,0.7-1.1,1.4-1.7,2.1l0,0l-1.3-1.2
			l-6.8,3.6l2.8,2.6l0,0c-2.1,1.6-4.4,2.9-6.7,3.9l0,0l-3.1-2.8L339.4,172.5z"/>
	</g>
	<g>
		<path fill="#FCC2AE" d="M459.7,111.6c19.4,5.6,38.9,10.6,61.9,2.9c13-7.4,22.3-17.5,2.5-49.5l-16.6-20.4l-48.2,29.9l-6.7,4.2v25.8
			L459.7,111.6z"/>
	</g>
	<g>
		<path fill="#FFFEE8" d="M526.6,65.1c0.8-10.3-2.7-17.9-12.9-21.6l-2.1,5.4L526.6,65.1z"/>
	</g>
	<g>
		<path fill="#FCA61A" d="M665,184.8l-21.9,34.9l5.5,25.4C659.7,228.9,668.3,208.3,665,184.8z"/>
	</g>
	<g>
		<path fill="#FFFEE8" d="M424.2,112.8c-30.8-13.9-41.8-53-0.8-87C460.3-1,500,6.5,517,30.3l-63.8,48.9l-0.6,26.2L424.2,112.8z"/>
	</g>
	<g>
		<path fill="#C84D5B" d="M474,99.8c17.7,3.3,42.4,0.4,41.5-13.3c-3.3-2-6.7-3-10.7-1.7C496.3,92.4,485.3,96.4,474,99.8z"/>
	</g>
	<g>
		<path d="M423.9,112.7c0.2-1.2,0.5-2.4,0.8-3.6c1-3-4-4.5-4.5-1.5c-0.3,0.9-0.7,1.8-1,2.7c-13.1-7.7-21.6-20.3-22.5-35
			c0.4-0.5,0.8-1,1.1-1.4c1.5-2,6.5-19.8,10.9-11.9c1,2-5,6.9,0.5,7.9c2.5,0.5,5.5-6.9,6.9-7.9c2.5-1.5,5.5,0,7.9-0.5
			c4-1,6.9-10.9,6.4-12.9c-0.5-1-2-3.5-2-4c0.5-2,3-3.5,4.5-3c1,0.5,2,1.5,2,2c-3.5,6-6.5,14.9,0.5,20.3c1.5,1,2,1.5,3.5,2
			c2-2.5,2.5-5,5-7.4c2-2,8.4-6.5,8.9-8.4c0.5-1-2-8.9,3-7.9c0.5,0.5,0.5,1,1,1.5c1.5,4-2,7.9-5,11.9c-3,3.5-9.4,7.4-9.4,11.4
			c0,1,0,1,0.5,1.5c2.5,1,4.5-7.9,7.9-4.5c-1,2-6,3.5-3,5.5c6.5-0.5,9.9-5.5,14.9-10.4c1.5-1.5,7.9-13.9,8.9-5c-1,1-3,1.5-4,2.5
			c-6,5-9.9,10.4-12.4,16.4c0.5,0.5,0.5,0.5,1,1c0.5,0.5,3.3-2.3,3.9-0.2l-7.2,5.5l-0.6,26.2l-15.1,4l0.1,0c-1.8-1.5-4-1.2-5.2,1.4
			l-8,2.1C424.1,112.8,424,112.7,423.9,112.7z"/>
	</g>
	<g>
		<path d="M432.2,31.7c0.5-1,1.5-1.5,2.5-1.5c5.5,0.5,4,6-1.5,8.4C430.7,38.6,431.2,34.1,432.2,31.7z"/>
	</g>
	<g>
		<path fill="#A69D8C" d="M493.2,193.8c43.6-15.4,75.5-34,83-59.2c2.9-8.2,0.1-13-7.8-14.8c6.2-0.9,11.1-2.8,11.7-7.6
			c11.6,8.2,16.1,18.7,7,33.4c-13.5,19.6-34.6,35.9-67.6,47.3L493.2,193.8z"/>
	</g>
	<g>
		<path fill="#F26B7B" d="M316.2,363.5c-21.3,3.8-40.9,10.5-51.7,31.9c-3.5,8.5-8.6,13.8-17.2,12.1c7.9,0.5,15.7,1.8,23.6-5.7
			c-7.4,10-16.9,17.1-29.3,20.4c4.4,2.7,9.1,4.6,15.3,1.9c-20.2,10.5-36.7,24.3-37.6,52.3c9.1-7.9,18.4-15.5,33.2-15.9
			c-20.4,8.6-36.4,23.1-41.5,52.3c35.1-2.9,64.5-16.5,86.1-44.7c0.3,9-5.2,16.9-13.4,24.2c17.7-6.6,32.9-15.6,49.1-40.8
			c-0.3,5.6-2.1,11.9-5.7,19.1c-5.2,11.4-5,18.4,1.3,23c-2-10.3,0.1-21.7,15.3-30c14.9-8.1,24.3-21.6,27.4-41.5
			c-13.2-3.6-18.1-10.6-21.4-18.2l-16.4-20.6C323.1,379,318.6,371.8,316.2,363.5z"/>
	</g>
	<g>
		<path fill="#FCDC1A" d="M315.5,365.4c-7.9,4.8-21.1,15.3-20.4,35.7c0,6.6-1.9,12.1-7,15.3c6-3.1,11.8-5.5,15.9-20.4
			c-1.6,14.1-1.7,28.9-30.6,38.9c26.3,9.5,55.2,6.8,58.7-13.4c0.7,2.6,4.2,13.2-7,21.1c11.7,1.7,28.6-4,44-19.1L315.5,365.4z"/>
	</g>
	<g>
		<path fill="#AF2C3B" d="M330.8,359.7c-5.5,0-10.5,0.7-13.7,3.2c1.8,10.1,5.8,18.1,15.3,20.4l16.6,20.8c4.1,10,9.2,18.5,20.4,17.9
			c3.2-4.1,4.9-8.5,4.8-13.4L330.8,359.7z"/>
	</g>
	<g>
		<polygon fill="#FCA61A" points="499.9,353.3 483.3,433.7 376.1,459.2 381.9,410.1 		"/>
	</g>
	<g>
		<polygon fill="#F4F2CD" points="385.1,406.9 382.1,452.4 485,429.9 484,433.9 377.4,458.7 383.8,408.3 		"/>
	</g>
	<g>
		<polygon fill="#FCA61A" points="399.3,241.6 317.5,248.6 279.5,352 328.9,352.1 		"/>
	</g>
	<g>
		<polygon fill="#F4F2CD" points="331.7,350.4 286.2,347.4 322.2,248.5 318,248.8 279.3,351.2 330.1,351.6 		"/>
	</g>
	<g>
		<path fill="#F4F2CD" d="M330.6,351.9c34.6-70.9,75.7-126,123.2-165.5c1.8,11.8,4.6,23.4,12.5,33.6l52.6-25.5
			c57.9-22.5,94.2-64.9,61.3-81.4l2.2-8.7c38.4-15.7,80.3-29.8,131.9-39.6c-19.8,70.1-53.7,135.3-102,195.4
			c-61.4,67.1-139,116.4-231.7,149.2C357.5,404.1,337,393.3,330.6,351.9z"/>
	</g>
	<g>
		<path fill="#F4F2CD" d="M643.8,219.2l6.8,12.4c7.7-13.9,12.1-27.2,14.4-39.2c0.3,20.8-5.1,37.6-16.4,50L643.8,219.2z"/>
	</g>
	<g>
		<path fill="#F26B7B" d="M602.5,95.8c0.8,33.3,27.1,65.2,69.8,75.6c18.4-33.7,33.9-68.6,41.2-107C675.3,72,638.1,81.9,602.5,95.8z"
			/>
	</g>
	<g>
		<path fill="#FCC2AE" d="M590.2,101.6c-1,37.1,40.8,75.9,74.4,82.2L672,172c-39.4-11.1-63.3-35.5-70.8-74.1L590.2,101.6z"/>
	</g>
	<g>
		<polygon fill="#F26B7B" points="645.3,178.5 654.8,166.3 668.5,171.5 661.2,184.1 		"/>
	</g>
	<g>
		<path fill="#FCC2AE" d="M545.1,193.9c9-7.6,19.8-19.7,21.8-10.9c-1.5,4.6-4.1,8.9-7.5,12.9l23.8-6.8c7,0.7,8.2,3.2,2.4,7.8
			l-16.2,6.5l19.2,1.2c5.3,3.3,6.3,6.3-1.9,9l-17.7,0.5l15.5,11.4c3.8,7.5-1.3,6.7-8.2,4.1l-12.9-7.3l11.9,14.1
			c3.1,8.9-1.1,8.2-7.8,4.1l-10.7-13.1c-5.9-1-11.2-3.7-14.5-11.9L545.1,193.9z"/>
	</g>
	<g>
		<path fill="#FFFFFF" d="M332.6,369.4c32.3-62.8,72.3-117.9,125-162l4.5,10.2c-51.7,36.2-95.8,94.6-128.2,156.3L332.6,369.4z"/>
	</g>
	<g>
		<path d="M330.4,354.9c-0.4,0-0.8-0.1-1.1-0.3c-1.3-0.6-1.8-2.1-1.2-3.4c31.4-65.2,73.1-121,123.8-166.1c1.1-0.9,2.7-0.8,3.6,0.2
			c0.9,1.1,0.8,2.7-0.2,3.6c-50.2,44.6-91.4,99.9-122.6,164.5C332.2,354.4,331.3,354.9,330.4,354.9z M582.5,107.1
			c-1,0-1.9-0.6-2.3-1.5c-0.6-1.3,0-2.8,1.3-3.4c41.3-18.3,86.3-31.6,133.6-39.7c1.4-0.2,2.7,0.7,2.9,2.1c0.2,1.4-0.7,2.7-2.1,2.9
			c-46.9,8-91.5,21.3-132.4,39.4C583.2,107,582.8,107.1,582.5,107.1z"/>
	</g>
	<g>
		<path fill="#D5D6D8" d="M420.6,155.9l11.5,43.9c3.1,11.8,14,19.2,24.4,16.5v0c10.4-2.7,16.3-14.5,13.2-26.3L458.2,146
			c-3.1-11.8-14-19.2-24.4-16.5l0,0C423.5,132.3,417.6,144.1,420.6,155.9z"/>
	</g>
	<g>
		<path d="M452.2,218.7C452.2,218.7,452.2,218.7,452.2,218.7c-10,0-19-7.6-21.9-18.5l-11.5-43.9c-1.6-6.2-1-12.5,1.7-17.9
			c2.7-5.5,7.3-9.3,12.8-10.7c0,0,0,0,0,0c1.6-0.4,3.2-0.6,4.8-0.6c10,0,19,7.6,21.9,18.5l11.5,43.9c1.6,6.2,1,12.5-1.7,17.9
			c-2.7,5.5-7.3,9.3-12.9,10.7C455.4,218.5,453.8,218.7,452.2,218.7z M434.3,131.4C434.3,131.4,434.3,131.4,434.3,131.4
			c-4.5,1.2-8.2,4.3-10.4,8.8c-2.3,4.6-2.8,10-1.4,15.2l11.5,43.9c2.4,9,10,15.6,18.2,15.6c0,0,0,0,0,0c1.3,0,2.6-0.2,3.9-0.5
			c4.5-1.2,8.2-4.3,10.4-8.8c2.3-4.6,2.8-10,1.4-15.2l-11.5-43.9c-2.4-9-10-15.6-18.2-15.6C436.9,130.9,435.6,131.1,434.3,131.4z"/>
	</g>
	<g>
		<path fill="#CECDB9" d="M360.4,396.5c104.4-42.7,208-105.1,285.5-218.5c9.7,6.7,7.8,4.3,19.3,7.3
			C598,300.6,497.8,367.3,380.8,409.2c-8.6,0.2-15.9-2.8-21.8-8.9L360.4,396.5z"/>
	</g>
	<g>
		<path fill="#D5D6D8" d="M404.7,166.6l5.8-4c-2.5,28.9,13.4,30.7,23.4,26.2c3.4,0.8,4.5,5.9,0.6,7
			C415.7,200.9,403.3,193.7,404.7,166.6z"/>
	</g>
	<g>
		<path d="M424.2,198.6c-6,0-10.8-1.9-14.3-5.5c-5-5.3-7.2-14.2-6.5-26.6c0-0.4,0.2-0.8,0.6-1l5.8-4c0.4-0.3,0.9-0.3,1.4,0
			c0.4,0.2,0.7,0.7,0.6,1.2c-0.9,10.6,0.7,18.5,4.6,22.8c2.9,3.2,6.6,3.9,9.2,3.9c2.6,0,5.3-0.6,7.8-1.8c0.3-0.1,0.5-0.1,0.8-0.1
			c2.3,0.5,4,2.7,4.1,5c0,2.1-1.3,3.8-3.4,4.4C431,198.1,427.4,198.6,424.2,198.6z M406,167.3c-0.5,11.3,1.4,19.4,5.8,24
			c4.7,4.9,12.3,6,22.4,3.2c1.3-0.4,1.6-1.2,1.6-1.9c0-0.9-0.6-2.1-1.7-2.5c-2.8,1.2-5.7,1.8-8.4,1.8c-4.4,0-8.3-1.6-11.1-4.7
			c-4.1-4.5-6-12-5.4-22.1L406,167.3z"/>
	</g>
	<g>
		<path d="M435.3,158.5c-5.2,0-10.5-0.9-14.9-2.8c-0.6-0.3-0.9-1-0.7-1.7c0.3-0.6,1-0.9,1.7-0.7c7.9,3.4,19.4,3.5,26.8,0.2
			c3.9-1.8,6.5-4.3,7.6-7.5c0.2-0.7,1-1,1.6-0.8c0.7,0.2,1,1,0.8,1.6c-1.3,3.9-4.4,7-9,9C445.3,157.6,440.3,158.5,435.3,158.5z"/>
	</g>
	<g>
		<path fill="#D5D6D8" d="M400.5,142.6l5.8-4c-2.5,28.9,13.4,30.7,23.4,26.2c3.4,0.8,4.5,5.9,0.6,7
			C411.5,176.9,399,169.7,400.5,142.6z"/>
	</g>
	<g>
		<path d="M420,174.6c-6,0-10.8-1.9-14.3-5.5c-5-5.3-7.2-14.2-6.5-26.6c0-0.4,0.2-0.8,0.6-1l5.8-4c0.4-0.3,0.9-0.3,1.4,0
			c0.4,0.2,0.7,0.7,0.6,1.2c-0.9,10.6,0.7,18.5,4.6,22.8c2.9,3.2,6.6,3.9,9.2,3.9c2.6,0,5.3-0.6,7.8-1.8c0.3-0.1,0.5-0.1,0.8-0.1
			c2.3,0.5,4,2.7,4.1,5c0,2.1-1.3,3.8-3.4,4.4C426.8,174,423.2,174.6,420,174.6z M401.7,143.3c-0.5,11.3,1.4,19.4,5.8,24
			c4.7,4.9,12.3,6,22.4,3.2c1.3-0.4,1.6-1.2,1.6-1.9c0-0.9-0.6-2.1-1.7-2.5c-2.8,1.2-5.7,1.8-8.4,1.8c-4.4,0-8.3-1.6-11.1-4.7
			c-4.1-4.5-6-12-5.4-22.1L401.7,143.3z"/>
	</g>
	<g>
		<path fill="#FCA61A" d="M432.8,121.9c-17.8-0.8-31.8,3.2-42,11.9c-8.6,6.7-15.5,16-20.4,28.4c-7,16.2-16,23.7-25.7,28.1l8.5,17.9
			c14.5-4.8,26.6-17,34.7-41c8.9-15.6,22.2-27.1,45.3-29.1c19.8,3,37.8,1.9,49.7-12.1l7-6.3l-28.9-8L432.8,121.9z"/>
	</g>
	<g>
		<path fill="#C84D5B" d="M405.6,143.9l6.8-3.6l-5.1-4.7l-6.8,3.6L405.6,143.9z M398.7,147.6l-5.2-4.8l-6.9,3.6l-4.6-4.2
			c0.5-0.6,1.1-1.3,1.6-1.9l0,0l4.6-2.4l5.2,4.8l6.8-3.6l-5.2-4.8l7-3.7l5.2,4.8l6.9-3.6l5.2,4.8l6.9-3.6l5.3,4.8l-1.2,0.6l0,0
			c-2.7,0.3-5.2,0.8-7.6,1.4l0,0l-3.4-3.1l-6.8,3.6l2.3,2.1l0,0c-2.5,1-4.9,2.2-7.1,3.6l0,0l-2.2-2L398.7,147.6z"/>
	</g>
	<g>
		<path fill="#C84D5B" d="M384,164.2l-5.2-4.8l-6.9,3.6l-1.3-1.2c1-2.5,2.1-4.9,3.2-7.1l5,4.6l6.8-3.6l-5.2-4.8l7-3.7l5.2,4.8
			l6.9-3.6l2.1,1.9l0,0c-1.9,1.6-3.7,3.3-5.3,5.2l0,0l-3.7-3.4l-6.8,3.6l5.1,4.7l2.4-1.2c-0.5,0.7-1,1.4-1.5,2.1l0,0l-0.8-0.7
			L384,164.2z"/>
	</g>
	<g>
		<path fill="#C84D5B" d="M374.3,177l6.8-3.6l-5.1-4.7l-6.8,3.6L374.3,177z M379.5,181.9l-5.2-4.8l-6.9,3.6l-5-4.6
			c0.2-0.2,0.3-0.5,0.5-0.7l0,0l6.1-3.2l-2.5-2.3c1-1.7,1.9-3.4,2.8-5.3l0,0l1.5-0.8l5.2,4.8l6.9-3.6l4.4,4l0,0
			c-0.2,0.5-0.4,1-0.6,1.6l-5.4,2.8l3.1,2.9l0,0c-0.6,1.4-1.2,2.7-1.8,3.9L379.5,181.9z"/>
	</g>
	<g>
		<path fill="#C84D5B" d="M378.2,147.3l2.9,2.7l-6.7,3.5C375.6,151.3,376.9,149.2,378.2,147.3z"/>
	</g>
	<g>
		<path fill="#C84D5B" d="M358.4,193.6l6.8-3.6l-5.1-4.7l-6.8,3.6L358.4,193.6z M363.6,198.5l-5.2-4.8l-6.9,3.6l-5.2-4.8l-0.3,0.2
			l-0.5-1.1l0.9,0.8l6.8-3.6l-2.2-2c2-1.3,4-2.8,5.9-4.6l3.2,2.9l6.9-3.6l5.2,4.8l6.9-3.6l1.5,1.4l0,0c-1.3,2.3-2.6,4.4-4,6.4l0,0
			l-4.3-4l-6.8,3.6l5.2,4.8L363.6,198.5z"/>
	</g>
	<g>
		<path fill="#C84D5B" d="M359.5,205.6l-3.3-3l-4.5,2.4l-2.9-6.1l2.2-1.2l5.2,4.8l6.9-3.6l2.9,2.6l0,0
			C363.9,203.1,361.8,204.5,359.5,205.6L359.5,205.6z"/>
	</g>
	<g>
		<path fill="#C84D5B" d="M439.9,125.6l-4.8-4.4l7.9-2.8l3.9,3.6L439.9,125.6z M426.1,132.8l-5.2-4.8l-6.9,3.6l-5.2-4.8l-6.9,3.6
			l-2.6-2.4c2.4-1.2,4.9-2.3,7.5-3.2l2,1.8l6.8-3.6l-0.4-0.3c0.6-0.1,1.2-0.2,1.8-0.3l-1.3,0.7l5.1,4.7l6.8-3.6l-2.7-2.5
			c2.5-0.1,5-0.1,7.6,0l-4.7,2.5l5.2,4.8L426.1,132.8z"/>
	</g>
	<g>
		<polygon fill="#C84D5B" points="477.8,120 472.6,115.3 465.7,118.9 460.5,114.1 453.6,117.7 451,115.4 458.9,112.5 460.5,114 
			463.6,112.4 472.1,114.8 472.5,115.1 472.9,115 482.4,117.6 		"/>
	</g>
	<g>
		<path fill="#C84D5B" d="M456.6,131.7l6.8-3.6l-5.1-4.7l-6.8,3.6L456.6,131.7z M461.8,136.6l-5.2-4.8l-6.9,3.6l-5.2-4.8l-6.9,3.6
			l-5.3-4.8l7-3.7l5.2,4.8l6.8-3.6l-5.2-4.8l7-3.7l5.2,4.8l6.9-3.6l5.2,4.8l6.9-3.6l5.3,4.8l-7,3.7l-5.2-4.8l-6.8,3.6l5.2,4.8
			L461.8,136.6z"/>
	</g>
	<g>
		<path fill="#C84D5B" d="M457.4,139.1l4-2.1l1.3,1.2C460.9,138.6,459.2,138.9,457.4,139.1L457.4,139.1z M442.7,139.3L442.7,139.3
			l6.6-3.5l3.9,3.6l0,0C449.9,139.6,446.3,139.5,442.7,139.3z"/>
	</g>
	<g>
		<path fill="#4B5974" d="M455.1,138.6c-6.1,31.8-1.7,58.4,11.5,80.5c24.7,4.9,49.4,6.7,74.1,0.5l4.6-27.1
			c-21,2.9-41.3,4.1-59.8-0.5C490.1,169.2,488.7,148.5,455.1,138.6z"/>
	</g>
	<g>
		<path fill="#E4E2C0" d="M361.3,398.2c5.8,5.2,10.8,9.6,28.1,3.2c130-52.4,220.8-125.3,270.5-217.5h4.5
			c-64,113.6-163.1,182.3-281.3,226.5C359.9,410.5,356.1,398.7,361.3,398.2z"/>
	</g>
	<g>
		<polygon fill="#FFFFFF" points="598.8,135.1 610.1,126.8 604.6,112.4 593.3,120.4 		"/>
	</g>
	<g>
		<path fill="#C84D5B" d="M653.5,166.6c23.9-32.2,44.5-64.6,60.6-100.2c-10.1,34.5-22.9,70.2-44,104.6
			C664.6,169.6,659,168.1,653.5,166.6z"/>
	</g>
	<g>
		<path fill="#FFFFFF" d="M611.3,125.8c30.9-25,65.4-43,101.5-58.7c-36.6,9.8-72.9,20.9-107.5,44.5L611.3,125.8z"/>
	</g>
	<g>
		<path d="M424.5,362.8l30.3-22.9l-22.7-30l-30.3,22.8L424.5,362.8z M393.9,386.9l-23.1-30.6l-30.6,23.1l-5.8-7.7
			c-3.2-7.4-4.6-14.7-3.2-21.6l10.4-20.6l6.3-4.7l23.1,30.6l30.3-22.8L378.1,302l31.1-23.5l23.1,30.6l30.6-23.1l23,30.5l30.9-23.3
			l23.5,31.1l-31.1,23.5l-23-30.5l-30.3,22.9l20.5,27.2l0.1,0.1c-11.4,6.4-23.2,12.2-35.4,17.8l0,0l-16.3-21.5L393.9,386.9z"/>
	</g>
	<g>
		<path fill="#FFFEE8" d="M422.6,100.1c4.4-11.6,42.6,6.6,38.2,18.3c-3.5,7.4-14.9,9.3-25.4,4.3
			C424.8,117.6,419.1,107.5,422.6,100.1z"/>
	</g>
	<g>
		<path d="M453.2,105.1c-0.9,0-1.7-0.7-1.7-1.7L451,78.8c0-0.5,0.2-1.1,0.7-1.4L515,29.7c0.8-0.6,1.8-0.4,2.4,0.3
			c0.6,0.8,0.4,1.8-0.3,2.4l-62.6,47.2l0.5,23.8C454.9,104.3,454.2,105.1,453.2,105.1C453.2,105.1,453.2,105.1,453.2,105.1z"/>
	</g>
	<g>
		<polygon points="471.9,83.7 470.3,81.5 467.9,83.4 466.1,81 464,82.7 462.3,80.4 459.9,82.2 456.5,77.7 515.6,33.1 519,37.6 
			516.6,39.4 518.3,41.7 516.2,43.3 517.9,45.6 515.5,47.4 517.1,49.5 501.2,61.5 499.6,59.4 497.2,61.2 495.5,58.9 493.3,60.5 
			491.6,58.3 487.3,61.5 489,63.8 486.8,65.4 488.6,67.7 486.2,69.5 487.8,71.7 		"/>
	</g>
	<g>
		<path fill="#FFFFFF" d="M472.5,75.9l-1.7-2.2l-2.2,1.7l1.7,2.2L472.5,75.9z M472,79.8l-1.7-2.2l-2.3,1.7l-1.7-2.2l-2.2,1.7
			l-1.7-2.3l2.3-1.7l1.7,2.2l2.2-1.7l-1.7-2.2l2.3-1.7l1.7,2.2l2.2-1.7l1.7,2.2l2.3-1.7l1.7,2.3l-2.3,1.7l-1.7-2.2l-2.2,1.7l1.7,2.2
			L472,79.8z"/>
	</g>
	<g>
		<path fill="#FFFFFF" d="M502.1,53.5l-1.7-2.2l-2.2,1.7l1.7,2.2L502.1,53.5z M501.6,57.5l-1.7-2.2l-2.3,1.7l-1.7-2.2l-2.2,1.7
			l-1.7-2.3l2.3-1.7l1.7,2.2l2.2-1.7l-1.7-2.2l2.3-1.7l1.7,2.2l2.2-1.7l1.7,2.2l2.3-1.7l1.7,2.3l-2.3,1.7l-1.7-2.2l-2.2,1.7l1.7,2.2
			L501.6,57.5z"/>
	</g>
	<g>
		<path d="M447.1,127.2c-4.1,0-8.5-1-12.5-3c-11.3-5.4-17.4-16.5-13.5-24.8c0.9-2.2,3.1-4.7,8.9-4.7c10.1,0,25.3,7.8,30.8,15.7
			c2.6,3.8,2.4,6.8,1.7,8.6l-0.1,0.1C459.9,124.1,454.2,127.2,447.1,127.2z M429.9,98.1c-3.1,0-5,0.9-5.7,2.6l-0.1,0.1
			c-3.1,6.6,2.2,15.7,11.9,20.3c3.6,1.7,7.4,2.6,11.1,2.6c5.7,0,10.2-2.3,12.1-6.1c0.5-1.5,0.1-3.3-1.3-5.4
			C453.1,105.4,438.7,98.1,429.9,98.1z"/>
	</g>
	<g>
		<path fill="#F26B7B" d="M428.1,108.3c1.8-4.8,23.9,6.3,22.1,11.1c-1.5,3-7.7,3-13.8-0.1C430.3,116.3,426.6,111.3,428.1,108.3z"/>
	</g>
	<g>
		<path d="M445.1,123c-2.8,0-6.1-0.9-9.3-2.5c-6.8-3.4-10.7-9-8.9-12.7c0.4-0.9,1.3-1.9,3.7-1.9c5.6,0,16.8,5.8,20,10.4
			c0.9,1.3,1.2,2.6,0.8,3.7l-0.1,0.1C450.4,121.9,448.2,123,445.1,123z M430.6,108.4c-0.7,0-1.2,0.1-1.3,0.3l-0.1,0.1
			c-1,2,1.9,6.4,7.8,9.3c2.8,1.4,5.7,2.2,8.1,2.2c2,0,3.4-0.5,3.9-1.4c0-0.2-0.1-0.7-0.5-1.3C445.9,113.9,435.3,108.4,430.6,108.4z"
			/>
	</g>
	<g>
		<path d="M424.2,114.5c-0.2,0-0.5,0-0.7-0.2c-15.6-7-26.1-20.4-28.1-35.7c-2.5-18.5,7.1-37.7,26.9-54.1c0,0,0.1,0,0.1-0.1
			c19-13.8,40.4-19.7,60-16.5c15.1,2.5,27.9,10,35.9,21.3c0.5,0.8,0.4,1.8-0.4,2.4c-0.8,0.5-1.8,0.4-2.4-0.4
			c-7.5-10.6-19.5-17.7-33.7-20c-18.8-3-39.2,2.6-57.5,15.9c-18.9,15.7-28,33.8-25.7,51c1.9,14.1,11.7,26.5,26.2,33.1
			c0.9,0.4,1.2,1.4,0.8,2.3C425.5,114.2,424.9,114.5,424.2,114.5z"/>
	</g>
	<g>
		<path d="M500.3,82.8c-1.3,0-2.4-0.2-3.3-0.8c-0.9-0.6-2.1-1.7-2.3-4c-0.1-0.9,0.6-1.8,1.5-1.9c0.9-0.1,1.8,0.6,1.9,1.5
			c0.1,1.1,0.5,1.3,0.7,1.4c2.1,1.2,8.9-1.5,12.1-2.8c4.5-2,5.1-3.4,5.1-4c0-1.2-1.9-4.6-18.4-10.9c-0.9-0.3-1.3-1.3-1-2.2
			c0.3-0.9,1.3-1.3,2.2-1c14.3,5.4,20.5,9.6,20.6,14c0.1,3.6-3.8,5.7-7.2,7.2C507.8,81.2,503.5,82.8,500.3,82.8z"/>
	</g>
	<g>
		<path fill="#FCA61A" d="M531.9,109.2l26.4,13.4c-5.8-7.3-13.1-13.7-25.3-17.4L531.9,109.2z"/>
	</g>
	<g>
		<path d="M499.9,120.6c-11.7,0-25.5-2.4-40.6-7.2c-0.9-0.3-1.4-1.2-1.1-2.1c0.3-0.9,1.2-1.4,2.1-1.1c34.1,10.9,61.9,8.9,70.9-5
			c7.5-11.7,0.6-30.9-19.2-52.7c-0.6-0.7-0.6-1.8,0.1-2.4c0.7-0.6,1.8-0.6,2.4,0.1c21.1,23.3,28.1,43.5,19.5,56.8
			C528.2,116,516.1,120.6,499.9,120.6z"/>
	</g>
	<g>
		<path d="M517.4,72.8c-0.2,0-0.5-0.1-0.7-0.2c-0.6-0.4-0.7-1.2-0.3-1.8c1-1.5,1.7-3.3,2-5.4c0.1-0.7,0.7-1.2,1.4-1.1
			c0.7,0.1,1.2,0.7,1.1,1.4c-0.3,2.4-1.1,4.6-2.4,6.4C518.2,72.6,517.8,72.8,517.4,72.8z"/>
	</g>
	<g>
		<path d="M506.9,105.8c-0.6,0-1.1-0.4-1.2-0.9c-0.2-0.7,0.2-1.4,0.9-1.6c9.8-2.8,16.6-7.5,17-11.8c0.3-3.4-3.6-6-6.9-7.6
			c-0.6-0.3-0.9-1.1-0.6-1.7c0.3-0.6,1.1-0.9,1.7-0.6c7.3,3.5,8.6,7.4,8.4,10.1c-0.5,5.4-7.7,10.8-18.8,14
			C507.1,105.8,507,105.8,506.9,105.8z"/>
	</g>
	<g>
		<path d="M507,196.5c-8.6,0-17-0.7-25.6-2.3c-0.9-0.2-1.5-1.1-1.4-2s1.1-1.5,2-1.4c20.2,3.8,39.9,2.3,63.3-1.2
			c0.9-0.1,1.8,0.5,1.9,1.4c0.1,0.9-0.5,1.8-1.4,1.9C531.9,195.2,519.2,196.5,507,196.5z"/>
	</g>
	<g>
		<path fill="#FCA61A" d="M457.8,139.3c10.9,4,18.3,9.6,22.9,16.3c6.6,8.8,9.2,18.6,6.9,29.5c5-4.3,8.1-11.3,2.9-30.1
			c-5.3-8.3-12.3-14.5-21.1-18.7L457.8,139.3z"/>
	</g>
	<g>
		<path d="M486.5,193c-0.1,0-0.2,0-0.4,0c-0.9-0.2-1.5-1.1-1.3-2c2.4-10.9,1.6-21-2.4-30.1c-7.9-11.1-16.5-17.5-26.3-19.6
			c-0.9-0.2-1.5-1.1-1.3-2c0.2-0.9,1.1-1.5,2-1.3c10.7,2.3,20.1,9.2,28.5,21.1c0.1,0.1,0.1,0.2,0.2,0.3c4.3,9.7,5.2,20.6,2.7,32.3
			C488,192.4,487.3,193,486.5,193z"/>
	</g>
	<g>
		<path d="M353.2,209.5c-0.5,0-1-0.3-1.2-0.9c-0.2-0.7,0.1-1.4,0.8-1.6c16.3-5.7,22.5-14.3,30.4-31.5c10.4-31.1,39.9-40.8,57.5-37.8
			c22.9,2.8,35.6-2.6,48.5-20.5c0.4-0.6,1.2-0.7,1.8-0.3c0.6,0.4,0.7,1.2,0.3,1.8c-13.4,18.6-27.2,24.5-51,21.6
			c-16.8-2.9-44.9,6.4-54.8,36.1c0,0,0,0.1-0.1,0.1c-8.2,17.9-14.8,26.9-31.9,32.9C353.5,209.4,353.4,209.5,353.2,209.5z"/>
	</g>
	<g>
		<path d="M344.9,191.3c-0.5,0-1-0.3-1.2-0.9c-0.2-0.7,0.1-1.4,0.8-1.6c10.4-3.6,19.1-13.9,27.3-32.5c13-25.9,32.1-36.9,61.8-35.8
			c0.7,0,1.3,0.6,1.2,1.3c0,0.7-0.6,1.2-1.3,1.2c-28.6-1-47,9.6-59.4,34.4c-8.5,19.2-17.7,30-28.8,33.8
			C345.1,191.3,345,191.3,344.9,191.3z"/>
	</g>
	<g>
		<path d="M346.8,194.5c-0.6,0-1.1-0.4-1.2-0.9c-0.2-0.7,0.2-1.4,0.9-1.6c2.3-0.7,4.4-1.6,6.6-3.1c0.6-0.4,1.4-0.2,1.8,0.4
			s0.2,1.4-0.4,1.8c-2.4,1.6-4.8,2.7-7.3,3.4C347,194.5,346.9,194.5,346.8,194.5z"/>
	</g>
	<g>
		<path d="M348.5,198.4c-0.6,0-1.1-0.4-1.2-0.9c-0.2-0.7,0.2-1.4,0.9-1.6c2.3-0.7,4.4-1.6,6.6-3.1c0.6-0.4,1.4-0.2,1.8,0.4
			s0.2,1.4-0.4,1.8c-2.4,1.6-4.8,2.7-7.3,3.4C348.7,198.4,348.6,198.4,348.5,198.4z"/>
	</g>
	<g>
		<path d="M350.2,202c-0.6,0-1.1-0.4-1.2-0.9c-0.2-0.7,0.2-1.4,0.9-1.6c2.3-0.7,4.4-1.6,6.6-3.1c0.6-0.4,1.4-0.2,1.8,0.4
			s0.2,1.4-0.4,1.8c-2.4,1.6-4.8,2.7-7.3,3.4C350.4,201.9,350.3,202,350.2,202z"/>
	</g>
	<g>
		<path d="M352,205.7c-0.6,0-1.1-0.4-1.2-0.9c-0.2-0.7,0.2-1.4,0.9-1.6c2.3-0.7,4.4-1.6,6.6-3.1c0.6-0.4,1.4-0.2,1.8,0.4
			s0.2,1.4-0.4,1.8c-2.4,1.6-4.8,2.7-7.3,3.4C352.3,205.7,352.2,205.7,352,205.7z"/>
	</g>
	<g>
		<path d="M336.2,175.8c-0.7,0-1.3-0.6-1.3-1.3c0-0.7,0.6-1.3,1.3-1.3c0,0,0,0,0,0c16.5,0,28.7-12,40.9-40
			c5.1-15.5,16.1-24.5,34.8-28.2c0.7-0.1,1.4,0.3,1.5,1c0.1,0.7-0.3,1.4-1,1.5c-17.6,3.6-28.1,12-32.9,26.6c0,0,0,0.1,0,0.1
			C366.8,163.3,353.9,175.8,336.2,175.8z"/>
	</g>
	<g>
		<path d="M326.5,156.5c-1.4,0-2.8-0.1-4.2-0.4c-0.7-0.1-1.2-0.8-1-1.5s0.8-1.2,1.5-1c14.9,2.7,27.8-10.1,40.7-40
			c5.1-15.5,16.1-24.5,34.8-28.2c0.7-0.1,1.4,0.3,1.5,1c0.1,0.7-0.3,1.4-1,1.5c-17.6,3.6-28.1,12-32.9,26.6c0,0,0,0.1,0,0.1
			C358,132.9,345.5,156.5,326.5,156.5z"/>
	</g>
	<g>
		<path d="M328.7,160.5c-1,0-1.9-0.1-2.9-0.2c-0.7-0.1-1.2-0.7-1.1-1.4c0.1-0.7,0.7-1.2,1.4-1.1c2.4,0.3,4.7,0.2,7.3-0.3
			c0.7-0.1,1.4,0.3,1.5,1c0.1,0.7-0.3,1.4-1,1.5C332.1,160.3,330.4,160.5,328.7,160.5z"/>
	</g>
	<g>
		<path d="M329.9,164.5c-0.5,0-1,0-1.4,0c-0.7,0-1.2-0.6-1.2-1.3c0-0.7,0.7-1.2,1.3-1.2c2.4,0.1,4.7-0.1,7.3-0.8
			c0.7-0.2,1.4,0.2,1.6,0.9s-0.2,1.4-0.9,1.6C334.2,164.2,332.1,164.5,329.9,164.5z"/>
	</g>
	<g>
		<path d="M332.4,168.3c-0.5,0-1,0-1.4,0c-0.7,0-1.2-0.6-1.2-1.3c0-0.7,0.6-1.2,1.3-1.2c2.4,0.1,4.7-0.1,7.3-0.8
			c0.7-0.2,1.4,0.2,1.6,0.9s-0.2,1.4-0.9,1.6C336.7,168,334.5,168.3,332.4,168.3z"/>
	</g>
	<g>
		<path d="M335.3,172.2c-0.5,0-1,0-1.4,0c-0.7,0-1.2-0.6-1.2-1.3c0-0.7,0.6-1.2,1.3-1.2c2.4,0.1,4.7-0.1,7.3-0.8
			c0.7-0.2,1.4,0.2,1.6,0.9c0.2,0.7-0.2,1.4-0.9,1.6C339.6,171.9,337.5,172.2,335.3,172.2z"/>
	</g>
	<g>
		<path d="M492.9,195.5c-0.7,0-1.4-0.5-1.6-1.2c-0.3-0.9,0.2-1.8,1.1-2.1c54.8-16.3,83.7-46.3,83.4-61.7c-0.1-4.9-3-8.1-8.7-9.6
			c-0.9-0.2-1.4-1.2-1.2-2.1c0.2-0.9,1.2-1.4,2.1-1.2c7.2,1.9,11.2,6.5,11.3,12.9c0.1,9.4-8.1,21.6-22.5,33.4
			c-11.4,9.3-31.6,22.3-63.3,31.7C493.2,195.5,493,195.5,492.9,195.5z"/>
	</g>
	<g>
		<path d="M571.3,146c-0.8,0-1.5-0.5-1.7-1.3c-3.9-16-15.8-28.6-35.2-37.5c-0.9-0.4-1.2-1.4-0.8-2.3c0.4-0.9,1.4-1.2,2.3-0.8
			c20.5,9.3,33,22.7,37.1,39.8c0.2,0.9-0.3,1.8-1.3,2.1C571.5,145.9,571.4,146,571.3,146z"/>
	</g>
	<g>
		<path d="M546.5,169.2c-0.7,0-1.4-0.5-1.6-1.2c-5.7-18.3-18.4-33.8-38.9-47.4c-0.8-0.5-1-1.6-0.5-2.4c0.5-0.8,1.6-1,2.4-0.5
			c21.1,14,34.3,30.1,40.2,49.2c0.3,0.9-0.2,1.9-1.1,2.1C546.8,169.2,546.6,169.2,546.5,169.2z"/>
	</g>
	<g>
		<path d="M559.9,104.3C559.8,104.3,559.8,104.3,559.9,104.3l-24.9-0.6c-0.9,0-1.7-0.8-1.7-1.7c0-0.9,0.8-1.7,1.7-1.7l24.9,0.6
			c0.9,0,1.7,0.8,1.7,1.7C561.5,103.6,560.8,104.3,559.9,104.3z"/>
	</g>
	<g>
		<path d="M568.9,120.7c-1.7,0-3.5-0.2-5.1-0.3c-2.6-0.2-5.1-0.5-7.4-0.1c-0.9,0.1-1.8-0.5-1.9-1.4c-0.1-0.9,0.5-1.8,1.4-1.9
			c2.6-0.4,5.4-0.1,8.1,0.1c4.9,0.4,9.5,0.9,12.4-2.4c5.3-5.8,5.2-23.2-0.3-53.2c-0.2-0.9,0.4-1.8,1.4-2c0.9-0.2,1.8,0.4,2,1.4
			c5.9,31.9,5.8,49.2-0.5,56.1C576.3,120,572.6,120.7,568.9,120.7z"/>
	</g>
	<g>
		<path d="M555.4,102.5c-0.9,0-1.6-0.7-1.7-1.5l-3.9-37.8c-0.1-0.9,0.6-1.8,1.5-1.9c0.9-0.1,1.8,0.6,1.9,1.5l3.9,37.8
			c0.1,0.9-0.6,1.8-1.5,1.9C555.5,102.5,555.5,102.5,555.4,102.5z"/>
	</g>
	<g>
		<path d="M551.4,63.9c-0.9,0-1.6-0.7-1.7-1.6c-0.1-0.9,0.6-1.8,1.6-1.8l26.1-1.9c0.9-0.1,1.8,0.6,1.8,1.6c0.1,0.9-0.6,1.8-1.6,1.8
			l-26.1,1.9C551.5,63.9,551.5,63.9,551.4,63.9z"/>
	</g>
	<g>
		<path d="M540.9,222c-0.1,0-0.2,0-0.3,0c-0.9-0.1-1.6-1-1.4-1.9l4-27.1c0.1-0.9,1-1.6,1.9-1.4c0.9,0.1,1.6,1,1.4,1.9l-4,27.1
			C542.5,221.4,541.7,222,540.9,222z"/>
	</g>
	<g>
		<path d="M382.5,412c-1,0-2-0.6-2.4-1.7c-0.5-1.3,0.2-2.8,1.5-3.3c172.9-62.3,284.2-177.4,330.8-342.2c0.4-1.4,1.8-2.1,3.2-1.8
			c1.4,0.4,2.1,1.8,1.8,3.2c-23.9,84.3-64.5,156.3-120.9,213.9c-55,56.3-126.7,100.6-213.1,131.7C383.1,412,382.8,412,382.5,412z"/>
	</g>
	<g>
		<path d="M672.1,173.2c-0.1,0-0.2,0-0.3,0c-36.2-5.4-70.4-42.1-71.6-76.9c0-0.9,0.7-1.7,1.6-1.8c0.9,0,1.7,0.7,1.8,1.6
			c1.2,33.4,34,68.5,68.7,73.7c0.9,0.1,1.6,1,1.4,1.9C673.7,172.6,673,173.2,672.1,173.2z"/>
	</g>
	<g>
		<path d="M665.8,186c-0.1,0-0.2,0-0.3,0c-36.3-5.4-76.1-47.9-77.4-82.6c0-0.9,0.7-1.7,1.6-1.8c0.9,0,1.7,0.7,1.8,1.6
			c0.6,15.8,9.6,34.1,24.8,50.2c14.9,15.8,33.5,26.8,49.7,29.2c0.9,0.1,1.6,1,1.4,1.9C667.3,185.4,666.6,186,665.8,186z"/>
	</g>
	<g>
		<path d="M374.9,463.1c-0.6,0-1.2-0.2-1.7-0.6c-0.6-0.6-0.9-1.4-0.8-2.2l5.7-49.1c0.2-1.4,1.4-2.4,2.8-2.2c1.4,0.2,2.4,1.4,2.2,2.8
			l-5.3,45.5l102-24.3l16.3-78.8c0.3-1.4,1.6-2.3,3-2c1.4,0.3,2.3,1.6,2,3l-16.6,80.4c-0.2,1-0.9,1.7-1.9,2L375.4,463
			C375.2,463,375,463.1,374.9,463.1z"/>
	</g>
	<g>
		<path d="M327.7,354.6C327.7,354.6,327.7,354.6,327.7,354.6l-49.5-0.1c-0.8,0-1.6-0.4-2.1-1.1s-0.6-1.6-0.3-2.3l38-103.4
			c0.3-0.9,1.2-1.6,2.2-1.7l81.8-7c1.4-0.1,2.6,0.9,2.8,2.3s-0.9,2.6-2.3,2.8L318,251l-36.2,98.5l45.8,0.1c1.4,0,2.5,1.1,2.5,2.6
			C330.2,353.5,329.1,354.6,327.7,354.6z"/>
	</g>
	<g>
		<path d="M380,411.2c-7.1,0-15.4-3.3-23.6-9.3c-0.8-0.6-0.9-1.6-0.4-2.4c0.6-0.8,1.6-0.9,2.4-0.4c7.8,5.8,15.6,8.8,22.1,8.6
			c1,0,1.7,0.7,1.8,1.7c0,0.9-0.7,1.7-1.7,1.8C380.4,411.2,380.2,411.2,380,411.2z M338,380.3c-0.6,0-1.2-0.3-1.5-0.9
			c-5.6-9.6-8.1-19.4-7.4-28.2c0.1-0.9,0.9-1.6,1.8-1.6s1.6,0.9,1.6,1.8c-0.7,8.1,1.7,17.2,6.9,26.2c0.5,0.8,0.2,1.9-0.6,2.3
			C338.6,380.2,338.3,380.3,338,380.3z"/>
	</g>
	<g>
		<path d="M520.9,194.9c-0.7,0-1.3-0.4-1.6-1.1c-0.3-0.9,0.1-1.9,1-2.2c39.2-15,69.5-40.7,70.5-59.8c0.4-7.1-3.4-12.7-11.4-16.8
			c-0.8-0.4-1.2-1.5-0.7-2.3s1.5-1.2,2.3-0.7c9.1,4.7,13.7,11.6,13.2,20c-1.1,20.4-32.4,47.4-72.7,62.8
			C521.4,194.9,521.2,194.9,520.9,194.9z"/>
	</g>
	<g>
		<path d="M553,63.1c-0.3,0-0.7-0.1-0.9-0.3l-11.9-7.9c0,0-0.1,0-0.1-0.1c-4.7-3.5-6.6-7.5-4.7-10.2c2.5-3.5,9.8-1.8,19.1,4.5
			c0.8,0.5,1,1.6,0.4,2.4c-0.5,0.8-1.6,1-2.4,0.4c-9.2-6.3-13.9-6.1-14.4-5.4c-0.3,0.5,0.3,2.7,4,5.4L554,60c0.8,0.5,1,1.6,0.5,2.4
			C554.1,62.8,553.6,63.1,553,63.1z"/>
	</g>
	<g>
		<path d="M557.7,45.2c-0.8,0-1.4-0.5-1.6-1.3l-5.4-20.8c0-0.1,0-0.1,0-0.2c-0.6-4.7,0.9-8.3,3.7-8.9c1.6-0.3,5.7,0,8.8,10.5
			l3.7,13.7c0.2,0.9-0.3,1.8-1.2,2.1c-0.9,0.2-1.8-0.3-2.1-1.2l-3.7-13.7c-1.9-6.5-4.2-8.2-4.8-8.1c-0.5,0.1-1.4,1.7-1,5l5.3,20.7
			c0.2,0.9-0.3,1.8-1.2,2.1C558,45.1,557.8,45.2,557.7,45.2z"/>
	</g>
	<g>
		<path d="M573.8,42.3c-0.2,0-0.3,0-0.5-0.1c-0.9-0.3-1.4-1.2-1.1-2.1l4.9-15.3c1.1-3.5,0.6-5.6-0.2-6.4c-0.3-0.3-0.7-0.4-1.2-0.3
			c-1,0.3-2.4,1.7-3.1,4.7c0,0,0,0.1,0,0.1l-5.1,15.5c-0.3,0.9-1.3,1.4-2.2,1.1c-0.9-0.3-1.4-1.3-1.1-2.2l5.1-15.4
			c0.9-3.8,3-6.4,5.5-7.1c1.7-0.5,3.3,0,4.5,1.2c1.9,2,2.3,5.6,1,9.8l-4.9,15.3C575.2,41.9,574.5,42.3,573.8,42.3z"/>
	</g>
	<g>
		<path d="M572.2,62.7c-0.7,0-1.4-0.5-1.6-1.2c-0.3-0.9,0.2-1.9,1.1-2.1c4.9-1.6,7.4-6.4,7.4-14.3c0-0.3,0.1-0.7,0.3-0.9l8.9-13.2
			c2-3,2.1-5.2,1.6-6.1c-0.2-0.4-0.6-0.6-1-0.6c-1,0-2.8,0.9-4.3,3.6c0,0-0.1,0.1-0.1,0.1l-9.2,13.3c-0.5,0.8-1.6,1-2.4,0.4
			c-0.8-0.5-1-1.6-0.4-2.4l9.2-13.3c1.9-3.4,4.6-5.3,7.3-5.3c1.7,0,3.2,0.9,4,2.4c1.3,2.4,0.6,5.9-1.8,9.6l-8.6,12.8
			c-0.2,9.1-3.5,15-9.8,17C572.6,62.6,572.4,62.7,572.2,62.7z"/>
	</g>
	<g>
		<path d="M551.7,50.8c-0.6,0-1.1-0.3-1.5-0.8l-11-18.4c0-0.1-0.1-0.1-0.1-0.2c-1.9-4.4-1.5-8.2,1-9.6c1.4-0.8,5.5-1.6,11.3,7.5
			l7.4,12.1c0.5,0.8,0.2,1.8-0.6,2.3c-0.8,0.5-1.8,0.2-2.3-0.6l-7.4-12.1c-4-6.1-6.5-6.6-6.9-6.4c-0.4,0.2-0.9,2,0.4,5.1l11,18.3
			c0.5,0.8,0.2,1.9-0.6,2.3C552.3,50.7,552,50.8,551.7,50.8z"/>
	</g>
	<g>
		<path d="M556.9,199.1c-0.5,0-0.9-0.2-1.3-0.6c-0.6-0.7-0.6-1.8,0.2-2.4c9.8-8.6,10.7-13.8,10-14.7c-0.5-0.6-3.3-0.5-7.4,2.8
			l-12,10.9c-0.7,0.6-1.8,0.6-2.4-0.1c-0.6-0.7-0.6-1.8,0.1-2.4l12.1-10.9c0,0,0,0,0.1-0.1c5.1-4.1,9.9-5.1,12.1-2.4
			c2.4,2.9,1,9.5-10.3,19.4C557.7,199,557.3,199.1,556.9,199.1z"/>
	</g>
	<g>
		<path d="M568.9,215.7c-0.9,0-1.7-0.7-1.7-1.7c0-0.9,0.7-1.7,1.7-1.7l13.9-0.2c6.3-0.3,8.8-2.1,8.8-3.2c0-0.8-1.4-2.3-4.5-2.8
			l-21,0.1c0,0,0,0,0,0c-0.9,0-1.7-0.8-1.7-1.7c0-0.9,0.8-1.7,1.7-1.7l21.1-0.1c0.1,0,0.2,0,0.3,0c4.6,0.7,7.7,3.3,7.5,6.4
			c-0.1,1.4-1.2,6-12.1,6.4L568.9,215.7C568.9,215.7,568.9,215.7,568.9,215.7z"/>
	</g>
	<g>
		<path d="M582.5,233.6c-2,0-4.4-0.8-6.8-2.3l-14-8.8c-0.8-0.5-1-1.6-0.5-2.3c0.5-0.8,1.5-1,2.3-0.5l14,8.8c3.2,2,5.5,2,6.4,1.5
			c0.4-0.3,0.7-0.6,0.6-1.1c0-1.1-1.1-2.9-3.9-4.4c0,0-0.1,0-0.1-0.1l-14.1-9.1c-0.8-0.5-1-1.6-0.5-2.4c0.5-0.8,1.6-1,2.4-0.5l14,9
			c3.5,1.9,5.6,4.6,5.7,7.3c0,1.8-0.8,3.3-2.4,4.2C584.7,233.3,583.6,233.6,582.5,233.6z"/>
	</g>
	<g>
		<path d="M573.6,245.1c-2.5,0-5.2-1.5-7.8-4.4l-10.7-11.9c-9.1-2.5-14.1-7.4-14.5-14.1c-0.1-0.9,0.7-1.7,1.6-1.8
			c0.9-0.1,1.7,0.7,1.8,1.6c0.3,5.3,4.5,9.1,12.5,11.1c0.3,0.1,0.6,0.3,0.8,0.5l11,12.3c2.5,2.8,4.7,3.4,5.8,3.2
			c0.5-0.1,0.8-0.4,0.9-0.9c0.3-1-0.2-3-2.5-5.3c0,0-0.1-0.1-0.1-0.1l-11-12.6c-0.6-0.7-0.5-1.8,0.2-2.4c0.7-0.6,1.8-0.5,2.4,0.2
			l11,12.6c2.8,2.8,4.1,6,3.4,8.6c-0.5,1.7-1.7,2.9-3.4,3.3C574.5,245,574.1,245.1,573.6,245.1z"/>
	</g>
	<g>
		<path d="M564.1,206.4c-0.7,0-1.4-0.5-1.6-1.2c-0.3-0.9,0.2-1.9,1.1-2.1l15.3-4.8c7.4-2.5,9.3-5.1,9.1-6.1c-0.2-0.7-2.1-1.7-6-1.1
			l-23.2,6.9c-0.9,0.3-1.8-0.2-2.1-1.1c-0.3-0.9,0.2-1.8,1.1-2.1l23.3-7c0.1,0,0.1,0,0.2,0c5.2-0.8,9.2,0.6,9.9,3.7
			c0.4,1.8,0.2,6.2-11.3,10.1l-15.3,4.8C564.5,206.4,564.3,206.4,564.1,206.4z"/>
	</g>
	<g>
		<path d="M648.6,246.8c-0.1,0-0.2,0-0.3,0c-0.7-0.1-1.2-0.6-1.3-1.3l-5.5-25.3c-0.2-0.9,0.4-1.8,1.3-2c0.9-0.2,1.8,0.4,2,1.3
			l4.6,21.4c11.9-18.5,16.5-37.2,13.9-55.8c-0.1-0.9,0.5-1.8,1.4-1.9c0.9-0.1,1.8,0.5,1.9,1.4c2.9,20.5-2.7,41.2-16.7,61.5
			C649.6,246.5,649.1,246.8,648.6,246.8z"/>
	</g>
	<g>
		<path fill="#CB0018" d="M210.9,514.5c-0.5,0-0.9-0.2-1.3-0.6c-0.4-0.4-0.5-0.9-0.4-1.4c3.8-22.2,14.1-37.8,32.1-48.4
			c-8.4,2.8-14.8,8.3-21,13.6c-0.5,0.4-1.2,0.5-1.8,0.2c-0.6-0.3-1-0.9-1-1.6c0.8-26,15.1-40,30.9-49.5c-2.8-0.5-5.4-1.8-7.8-3.2
			c-0.6-0.4-0.9-1-0.8-1.7s0.6-1.2,1.3-1.4c8.2-2.2,15.3-6.1,21.5-11.9c-3.7,1.1-7.4,1.1-11,0.9c-1.5,0.1-3,0-4.6-0.3
			c-0.9-0.2-1.5-1-1.4-1.9c0.1-0.9,0.9-1.5,1.8-1.5c0.7,0,1.3,0.1,2,0.1c0.7,0,1.4,0.1,2.1,0.1c4.9-0.5,8.5-4.1,11.5-11.3
			c0,0,0-0.1,0.1-0.1c11.3-22.6,32.1-29.1,52.9-32.8c0.9-0.2,1.8,0.5,2,1.4c0.2,0.9-0.5,1.8-1.4,2c-19.9,3.5-39.8,9.7-50.4,30.9
			c-1.8,4.2-3.8,7.5-6.2,9.7c3.3-0.6,6.6-2.1,9.9-5.2c0.6-0.6,1.6-0.6,2.3,0c0.7,0.6,0.8,1.6,0.2,2.3c-7.1,9.5-15.9,16.2-26.2,19.8
			c3.2,1.3,6.3,1.6,10.2-0.1c0.8-0.4,1.8,0,2.2,0.8s0.1,1.8-0.8,2.2c-17.7,9.2-34.2,21.3-36.5,46.9c8-6.7,17.3-13.4,31.2-13.8
			c0.8,0,1.5,0.5,1.7,1.3c0.2,0.8-0.2,1.6-1,1.9c-22.6,9.6-35.4,25.1-40.1,48.8c35.7-3.5,62.7-17.8,82.7-43.8
			c0.4-0.6,1.2-0.8,1.9-0.6s1.2,0.9,1.2,1.6c0.2,6.6-2.5,13.1-8,19.6c14.8-6.6,27.3-16.3,40.6-37c0.4-0.6,1.2-0.9,2-0.7
			c0.7,0.2,1.2,0.9,1.2,1.7c-0.3,6-2.3,12.6-5.9,19.8c-3.6,7.9-4.5,13.2-2.5,17.1c-0.4-11.2,5.2-20,16.8-26.4
			c14.9-8.1,23.6-21.3,26.6-40.2c0.1-0.9,1-1.6,1.9-1.4c0.9,0.1,1.6,1,1.4,1.9c-3.1,19.8-12.6,34.2-28.3,42.7
			c-12.1,6.6-16.8,15.8-14.5,28.2c0.1,0.7-0.2,1.4-0.8,1.8c-0.6,0.4-1.3,0.4-1.9-0.1c-8.8-6.4-5.6-16.8-1.8-25.1
			c2-3.9,3.4-7.6,4.3-11c-14.5,20.3-28.4,28.6-45.6,35c-0.8,0.3-1.6,0-2.1-0.7s-0.3-1.6,0.3-2.1c6.8-6,10.8-11.7,12.2-17.4
			c-20.6,24.4-48,37.8-83.7,40.8C211,514.5,210.9,514.5,210.9,514.5z"/>
	</g>
	<g>
		<path fill="#CB0018" d="M329.4,444.6c-1.5,0-3-0.1-4.5-0.3c-0.7-0.1-1.2-0.6-1.4-1.3c-0.2-0.7,0.1-1.4,0.7-1.8
			c5.7-4,7.2-8.8,7.3-12.6c-1.9,3.4-4.7,6.3-8.5,8.5c-11.6,6.7-30.8,6.5-50.2-0.5c-0.7-0.2-1.1-0.9-1.1-1.6c0-0.7,0.5-1.4,1.1-1.6
			c19.3-6.7,25.3-15.3,27.6-24.7c-3.4,5.1-7.2,7-10.9,8.9l-0.7,0.4c-0.8,0.4-1.8,0.1-2.3-0.7s-0.2-1.8,0.6-2.3
			c4.2-2.7,6.2-7.2,6.2-13.9c-0.5-15.7,6.6-28.2,21.2-37.2c0.8-0.5,1.8-0.2,2.3,0.6c0.5,0.8,0.2,1.8-0.6,2.3
			c-13.5,8.3-20.1,19.8-19.6,34.2c0,3.2-0.4,6-1.3,8.4c2.5-2.7,4.8-6.8,6.8-13.9c0.2-0.9,1.1-1.4,2-1.2c0.9,0.2,1.5,1,1.4,1.9
			c-0.1,0.7-0.2,1.4-0.2,2.2c-1.3,12.5-2.9,26.6-27,36.5c16.7,5.1,33.1,4.9,42.8-0.8c5.1-3,8.2-7.3,9.1-12.8
			c0.1-0.8,0.8-1.4,1.6-1.4c0.8,0,1.5,0.5,1.7,1.3l0.1,0.4c2.2,8,0.7,14.6-4.4,19.7c10-0.1,24.3-5,38.5-18.9c0.7-0.7,1.7-0.6,2.4,0
			c0.7,0.7,0.6,1.7,0,2.4C357.4,437.3,342.2,444.6,329.4,444.6z"/>
	</g>
	<g>
		<path d="M552.7,165.4c-0.7,0-1.4-0.5-1.6-1.2c-5.1-17-17.3-31.7-37.3-44.9c-0.8-0.5-1-1.6-0.5-2.4c0.5-0.8,1.6-1,2.4-0.5
			c20.7,13.7,33.3,29,38.6,46.8c0.3,0.9-0.2,1.8-1.1,2.1C553,165.4,552.8,165.4,552.7,165.4z"/>
	</g>
	<g>
		<path d="M526.3,67.9c-0.2,0-0.3,0-0.5-0.1c-0.9-0.3-1.4-1.2-1.2-2.1c2.4-8.2-2.1-17.2-9.7-19.6c-0.9-0.3-1.4-1.2-1.1-2.1
			c0.3-0.9,1.2-1.4,2.1-1.1c9.4,3,14.9,13.8,12,23.8C527.7,67.4,527.1,67.9,526.3,67.9z"/>
	</g>
	<g>
		<path d="M715,67.9c-0.7,0-1.4-0.3-1.9-0.8c-1-1-0.9-2.6,0.1-3.6l14.5-13.6c1-1,2.6-0.9,3.6,0.1c1,1,0.9,2.6-0.1,3.6l-14.5,13.6
			C716.2,67.7,715.6,67.9,715,67.9z"/>
	</g>
	<g>
		<path d="M332.4,385.7c-0.2,0-0.4,0-0.6-0.1c-8.2-3.1-13.7-10.7-16.5-22.5c-0.1-0.6,0.1-1.3,0.6-1.7c3.4-2.7,10.4-3.8,14.2-4.2
			c0.9-0.1,1.8,0.6,1.9,1.5c0.1,0.9-0.6,1.8-1.5,1.9c-5,0.5-9.2,1.6-11.5,2.9c2.5,9.7,7,16,13.5,18.7c2.1-1,2.6-2.3,3.3-3.9
			c0.2-0.4,0.3-0.8,0.5-1.2c0.4-0.8,1.4-1.2,2.3-0.8c0.8,0.4,1.2,1.4,0.8,2.3c-0.2,0.3-0.3,0.7-0.4,1c-0.8,1.9-1.9,4.5-5.8,6
			C332.9,385.7,332.6,385.7,332.4,385.7z"/>
	</g>
	<g>
		<path d="M369.9,424.1c-0.1,0-0.2,0-0.3,0c-8.9-1.4-16.2-7.2-21.7-17.5c-0.2-0.5-0.3-1,0-1.5c1.7-3.8,4.4-4.7,6.3-5.4
			c0.4-0.1,0.7-0.3,1-0.4c0.9-0.4,1.9,0,2.2,0.9c0.4,0.9,0,1.9-0.9,2.2c-0.4,0.2-0.8,0.3-1.2,0.5c-1.5,0.6-2.9,1-4,2.9
			c4.7,8.5,10.5,13.4,17.8,14.8c1.7-2.2,2.8-5.3,3.5-9.3c0.1-0.9,1-1.6,2-1.4c0.9,0.1,1.6,1,1.4,2c-0.8,5.1-2.4,8.9-4.9,11.7
			C370.8,423.9,370.4,424.1,369.9,424.1z"/>
	</g>
	<g>
		<polygon fill="#FCA61A" points="316.4,417.3 339.3,378.1 457.7,293.5 357.1,400.6 		"/>
	</g>
	<g>
		<polygon fill="#F4F2CD" points="342.9,375.6 331.9,399.1 440.1,306.8 322,410.9 		"/>
	</g>
	<g>
		<polygon fill="#9E6200" points="320.7,416 357.4,401.2 448.8,302.7 		"/>
	</g>
	<g>
		<path d="M316.5,420c-0.5,0-0.9-0.2-1.3-0.6c-0.6-0.7-0.6-1.8,0.1-2.4l140.8-124.7c0.7-0.6,1.8-0.6,2.4,0.1
			c0.6,0.7,0.6,1.8-0.1,2.4L317.6,419.5C317.3,419.8,316.9,420,316.5,420z"/>
	</g>
	<g>
		<path d="M315.5,420.5c-0.4,0-0.9-0.1-1.3-0.4c-1.2-0.7-1.6-2.3-0.9-3.5l22.7-38.5c0.2-0.3,0.4-0.6,0.7-0.8l123-89.3
			c1.1-0.8,2.7-0.6,3.6,0.6s0.6,2.7-0.6,3.6l-122.5,89l-22.5,38.1C317.2,420.1,316.3,420.5,315.5,420.5z"/>
	</g>
	<g>
		<path d="M316,421.3c-1,0-1.9-0.6-2.4-1.6c-0.5-1.3,0.1-2.8,1.4-3.3l40.8-17.1l103.1-110c1-1,2.6-1.1,3.6-0.1c1,1,1.1,2.6,0.1,3.6
			L359.1,403.1c-0.2,0.3-0.5,0.5-0.9,0.6L317,421.1C316.7,421.2,316.3,421.3,316,421.3z"/>
	</g>
	<g>
		<path d="M504.9,225.1c-12.6,0-25.5-1.2-38.5-3.5c-0.4-0.1-0.8-0.3-1.1-0.7c-15.7-22.5-16.3-57.7-12.1-81c0.2-0.9,1.1-1.5,2-1.4
			c0.9,0.2,1.5,1.1,1.4,2c-4,22.4-3.5,56.2,11.1,77.8c24.1,4.2,47.7,4.4,70.2,0.5c0.9-0.2,1.8,0.5,2,1.4c0.2,0.9-0.5,1.8-1.4,2
			C527.5,224.2,516.3,225.1,504.9,225.1z"/>
	</g>
	<g>
		
			<ellipse transform="matrix(0.9832 -0.1824 0.1824 0.9832 -25.2035 98.0597)" fill="#A69D8C" cx="520.5" cy="186" rx="5.1" ry="3.3"/>
	</g>
	<g>
		<path d="M519.7,190.4c-2.7,0-4.8-1.3-5.2-3.3c-0.2-1.2,0.3-2.4,1.3-3.5c1-0.9,2.3-1.6,3.9-1.9c0.5-0.1,1.1-0.1,1.6-0.1
			c2.7,0,4.8,1.3,5.2,3.2c0.4,2.4-1.8,4.7-5.2,5.3C520.7,190.4,520.2,190.4,519.7,190.4z M521.3,183.6c-0.4,0-0.8,0-1.2,0.1
			c-1.1,0.2-2.2,0.7-2.9,1.4c-0.3,0.3-0.9,1-0.8,1.7c0.2,1,1.6,1.7,3.3,1.7c0.4,0,0.8,0,1.2-0.1c2.4-0.4,3.9-2,3.7-3.1
			C524.4,184.3,523,183.6,521.3,183.6z"/>
	</g>
	<g>
		
			<ellipse transform="matrix(0.9544 -0.2986 0.2986 0.9544 -27.2672 170.3125)" fill="#A69D8C" cx="543.7" cy="174.4" rx="5.1" ry="3.3"/>
	</g>
	<g>
		<path d="M542.5,178.9c-2.3,0-4.1-1-4.6-2.7c-0.4-1.2,0-2.4,0.9-3.6c0.9-1,2.1-1.9,3.6-2.3c0.8-0.3,1.7-0.4,2.5-0.4
			c2.3,0,4.1,1,4.6,2.7c0.7,2.3-1.3,4.9-4.5,5.9C544.2,178.8,543.4,178.9,542.5,178.9z M545,171.8c-0.6,0-1.3,0.1-1.9,0.3
			c-1.1,0.3-2.1,1-2.7,1.7c-0.3,0.4-0.8,1.1-0.6,1.8c0.3,0.8,1.3,1.3,2.7,1.3c0.6,0,1.3-0.1,1.9-0.3c2.3-0.7,3.6-2.4,3.3-3.5
			C547.5,172.4,546.4,171.8,545,171.8z"/>
	</g>
	<g>
		
			<ellipse transform="matrix(0.8653 -0.5012 0.5012 0.8653 -3.1539 304.6865)" fill="#A69D8C" cx="565.4" cy="158.2" rx="5.1" ry="3.3"/>
	</g>
	<g>
		<path d="M563.7,163c-1.6,0-2.9-0.6-3.6-1.8c-0.6-1.1-0.6-2.4,0.1-3.7c0.6-1.2,1.7-2.3,3-3.1c1.2-0.7,2.6-1.1,3.8-1.1
			c1.6,0,2.9,0.6,3.6,1.8c1.2,2.1-0.2,5-3.1,6.8C566.3,162.6,564.9,163,563.7,163z M567.1,155.3c-0.9,0-1.9,0.3-2.9,0.8
			c-1,0.6-1.8,1.4-2.3,2.3c-0.2,0.4-0.5,1.2-0.1,1.9c0.3,0.5,1,0.8,1.9,0.8c0.9,0,1.9-0.3,2.9-0.8c2.1-1.2,3-3.2,2.4-4.1
			C568.7,155.6,568,155.3,567.1,155.3z"/>
	</g>
	<g>
		
			<ellipse transform="matrix(0.8653 -0.5012 0.5012 0.8653 9.2799 309.3884)" fill="#A69D8C" cx="580.4" cy="137.4" rx="5.1" ry="3.3"/>
	</g>
	<g>
		<path d="M578.6,142.2c-1.6,0-2.9-0.6-3.6-1.8c-0.6-1.1-0.6-2.4,0.1-3.7c0.6-1.2,1.7-2.3,3-3.1c1.2-0.7,2.6-1.1,3.8-1.1
			c1.6,0,2.9,0.6,3.6,1.8c0.6,1.1,0.6,2.4-0.1,3.7c-0.6,1.2-1.7,2.3-3,3.1C581.2,141.8,579.9,142.2,578.6,142.2z M582,134.5
			c-0.9,0-1.9,0.3-2.9,0.8c-1,0.6-1.8,1.4-2.3,2.3c-0.2,0.4-0.5,1.2-0.1,1.9c0.3,0.5,1,0.8,1.9,0.8c0.9,0,1.9-0.3,2.9-0.8
			c1-0.6,1.8-1.4,2.3-2.3c0.2-0.4,0.5-1.2,0.1-1.9C583.6,134.8,582.9,134.5,582,134.5z"/>
	</g>
	<g>
		
			<ellipse transform="matrix(0.8653 -0.5012 0.5012 0.8653 17.9186 306.6208)" fill="#A69D8C" cx="579.5" cy="120" rx="5.1" ry="3.3"/>
	</g>
	<g>
		<path d="M577.8,124.8c-1.6,0-2.9-0.6-3.6-1.8c-0.6-1.1-0.6-2.4,0.1-3.7c0.6-1.2,1.7-2.3,3-3.1c1.2-0.7,2.6-1.1,3.8-1.1
			c1.6,0,2.9,0.6,3.6,1.8c1.2,2.1-0.2,5-3.1,6.8C580.4,124.4,579,124.8,577.8,124.8z M581.2,117.1c-0.9,0-1.9,0.3-2.9,0.8
			c-1,0.6-1.8,1.4-2.3,2.3c-0.2,0.4-0.5,1.2-0.1,1.9c0.3,0.5,1,0.8,1.9,0.8c0.9,0,1.9-0.3,2.9-0.8c2.1-1.2,3-3.2,2.4-4.1
			C582.8,117.3,582.1,117.1,581.2,117.1z"/>
	</g>
	<g>
		<path d="M485.7,102.9c-4.4,0-9.1-0.5-13.8-1.5c-0.7-0.2-1.1-0.8-1-1.5c0.2-0.7,0.8-1.1,1.5-1c19.4,4.4,36.5-1.6,41.5-7.5
			c0.7-0.9,1.5-2.1,1-3.1c-0.7-1.5-3.7-2.6-8.2-2.9c-0.7,0-1.2-0.7-1.2-1.4c0-0.7,0.7-1.2,1.4-1.2c5.8,0.4,9.2,1.9,10.4,4.4
			c0.8,1.7,0.3,3.8-1.4,5.8C511.8,97.9,500.1,102.9,485.7,102.9z"/>
	</g>
	<g>
		<path fill="#FFFEE8" d="M511.6,80.4c2.2,5.5-14.9,16.4-30.1,19.9l-6.3-1.2C488.8,94.8,502.4,90.5,511.6,80.4z"/>
	</g>
	<g>
		<path d="M473.4,101.2c-0.5,0-1-0.3-1.2-0.9c-0.2-0.7,0.1-1.4,0.8-1.6c15.5-5.1,31.1-11.4,39.7-23.1c0.4-0.6,1.2-0.7,1.8-0.3
			c0.6,0.4,0.7,1.2,0.3,1.8c-9,12.3-25,18.8-41,24C473.7,101.1,473.5,101.2,473.4,101.2z"/>
	</g>
	<g>
		<path d="M556.4,47.3c-0.3,0-0.7-0.1-0.9-0.4c-0.5-0.5-0.4-1.3,0.1-1.8c6.8-6.2,13.9-7.2,21.2-2.9c0.6,0.4,0.8,1.1,0.5,1.7
			c-0.4,0.6-1.1,0.8-1.7,0.5c-6.3-3.7-12.3-2.8-18.2,2.6C557,47.2,556.7,47.3,556.4,47.3z"/>
	</g>
	<g>
		<path d="M488.6,186.4c-0.3,0-0.7-0.1-0.9-0.4c-0.5-0.5-0.5-1.3,0-1.8c3.9-3.8,5.7-11.3,4.4-18.9c-1.1-6.8-5.7-19.4-23.6-27.7
			c-0.6-0.3-0.9-1.1-0.6-1.7c0.3-0.6,1.1-0.9,1.7-0.6c18.9,8.8,23.8,22.3,25,29.6c1.4,8.4-0.6,16.7-5.1,21.1
			C489.3,186.3,488.9,186.4,488.6,186.4z"/>
	</g>
	<g>
		<path d="M558.2,123.9c-0.2,0-0.4,0-0.6-0.1l-26.4-13.4c-0.6-0.3-0.9-1.1-0.6-1.7c0.3-0.6,1.1-0.9,1.7-0.6l26.4,13.4
			c0.6,0.3,0.9,1.1,0.6,1.7C559.2,123.7,558.7,123.9,558.2,123.9z"/>
	</g>
	<g>
		<polygon fill="#FCA61A" points="224.4,231.5 227,240 221.5,247 230.5,247.1 235.4,254.5 238.3,246.1 246.8,243.6 239.7,238.3 
			240,229.4 232.7,234.6 		"/>
	</g>
	<g>
		<path d="M235.4,256.3c-0.6,0-1.1-0.3-1.5-0.8l-4.5-6.6l-8-0.1c-0.7,0-1.3-0.4-1.6-1c-0.3-0.6-0.2-1.3,0.2-1.9l4.9-6.3l-2.4-7.6
			c-0.2-0.6,0-1.3,0.5-1.8c0.5-0.5,1.2-0.6,1.8-0.4l7.5,2.7l6.5-4.6c0.5-0.4,1.3-0.4,1.9-0.1c0.6,0.3,1,0.9,0.9,1.6l-0.3,8l6.4,4.8
			c0.5,0.4,0.8,1.1,0.7,1.7c-0.1,0.7-0.6,1.2-1.3,1.4l-7.7,2.2l-2.5,7.6c-0.2,0.6-0.8,1.1-1.4,1.2
			C235.6,256.3,235.5,256.3,235.4,256.3z M225.1,245.3l5.3,0.1c0.6,0,1.1,0.3,1.4,0.8l3,4.4l1.7-5.1c0.2-0.6,0.6-1,1.2-1.1l5.1-1.5
			l-4.3-3.2c-0.5-0.3-0.7-0.9-0.7-1.5l0.2-5.3l-4.4,3.1c-0.5,0.3-1.1,0.4-1.6,0.2l-5-1.8l1.6,5.1c0.2,0.6,0.1,1.2-0.3,1.6
			L225.1,245.3z"/>
	</g>
	<g>
		<polygon fill="#F26B7B" points="269.2,78.6 267.9,84.1 262.5,86.2 267.4,89.2 267.8,94.9 272.1,91.2 277.6,92.6 275.4,87.4 
			278.5,82.5 272.8,83 		"/>
	</g>
	<g>
		<path d="M267.8,96c-0.1,0-0.3,0-0.4-0.1c-0.4-0.2-0.7-0.5-0.7-1l-0.3-5.1l-4.4-2.7c-0.4-0.2-0.6-0.6-0.5-1.1c0-0.4,0.3-0.8,0.7-1
			l4.8-1.9l1.2-5c0.1-0.4,0.4-0.7,0.9-0.8c0.4-0.1,0.9,0.1,1.1,0.4l3.2,4l5.1-0.4c0.4,0,0.8,0.2,1.1,0.5c0.2,0.4,0.2,0.8,0,1.2
			l-2.8,4.3l1.9,4.6c0.1,0.2,0.2,0.4,0.2,0.6c0,0.6-0.5,1.1-1.1,1.1c0,0,0,0,0,0c-0.1,0-0.2,0-0.3,0l-5-1.3l-3.9,3.3
			C268.3,95.9,268,96,267.8,96z M265.1,86.4l2.9,1.8c0.3,0.2,0.5,0.5,0.5,0.9l0.2,3.4l2.6-2.2c0.3-0.2,0.7-0.3,1-0.2l3.3,0.9
			l-1.3-3.2c-0.1-0.3-0.1-0.7,0.1-1.1l1.9-2.9l-3.4,0.3c-0.4,0-0.7-0.1-1-0.4l-2.2-2.7l-0.8,3.3c-0.1,0.4-0.3,0.7-0.7,0.8
			L265.1,86.4z"/>
	</g>
	<g>
		<polygon fill="#F4F2CD" points="631.9,31.8 634.1,38.8 629.5,44.5 636.9,44.6 641,50.7 643.3,43.7 650.3,41.7 644.5,37.4 
			644.7,30 638.8,34.3 		"/>
	</g>
	<g>
		<path d="M641,52.1c-0.5,0-0.9-0.2-1.2-0.6l-3.7-5.4l-6.6-0.1c-0.6,0-1.1-0.3-1.3-0.8c-0.2-0.5-0.2-1.1,0.2-1.5l4-5.2l-2-6.3
			c-0.2-0.5,0-1.1,0.4-1.5c0.4-0.4,1-0.5,1.5-0.3l6.2,2.3l5.3-3.8c0.5-0.3,1-0.4,1.5-0.1c0.5,0.3,0.8,0.8,0.8,1.3l-0.2,6.6l5.3,3.9
			c0.4,0.3,0.7,0.9,0.6,1.4c-0.1,0.5-0.5,1-1,1.1l-6.3,1.8l-2.1,6.2c-0.2,0.5-0.6,0.9-1.2,1C641.1,52.1,641,52.1,641,52.1z
			 M632.5,43.1l4.4,0c0.5,0,0.9,0.2,1.2,0.6l2.4,3.6l1.4-4.2c0.2-0.5,0.5-0.8,1-0.9l4.2-1.2l-3.5-2.6c-0.4-0.3-0.6-0.7-0.6-1.2
			l0.2-4.4l-3.6,2.5c-0.4,0.3-0.9,0.3-1.3,0.2l-4.1-1.5l1.3,4.2c0.1,0.5,0.1,1-0.2,1.3L632.5,43.1z"/>
	</g>
	<g>
		<polygon fill="#F26B7B" points="596.1,364.8 598.3,371.8 593.8,377.5 601.1,377.6 605.2,383.7 607.6,376.8 614.6,374.7 
			608.7,370.4 609,363.1 603,367.3 		"/>
	</g>
	<g>
		<path d="M605.2,385.1c-0.5,0-0.9-0.2-1.2-0.6l-3.7-5.4l-6.6-0.1c-0.6,0-1.1-0.3-1.3-0.8c-0.2-0.5-0.2-1.1,0.2-1.5l4-5.2l-2-6.3
			c-0.2-0.5,0-1.1,0.4-1.5c0.4-0.4,1-0.5,1.5-0.3l6.2,2.3l5.4-3.8c0.5-0.3,1-0.4,1.5-0.1c0.5,0.3,0.8,0.8,0.8,1.3l-0.2,6.6l5.3,3.9
			c0.4,0.3,0.7,0.9,0.6,1.4c-0.1,0.5-0.5,1-1,1.1l-6.3,1.8l-2.1,6.2c-0.2,0.5-0.6,0.9-1.2,1C605.3,385.1,605.3,385.1,605.2,385.1z
			 M596.8,376.1l4.4,0c0.5,0,0.9,0.2,1.2,0.6l2.4,3.6l1.4-4.2c0.2-0.5,0.5-0.8,1-0.9l4.2-1.2l-3.5-2.6c-0.4-0.3-0.6-0.7-0.6-1.2
			l0.2-4.4l-3.6,2.5c-0.4,0.3-0.9,0.3-1.3,0.2l-4.1-1.5l1.3,4.2c0.1,0.5,0.1,1-0.2,1.3L596.8,376.1z"/>
	</g>
	<g>
		<polygon fill="#00B4FF" points="690.6,182.6 692.1,187.3 689,191.2 694,191.2 696.7,195.3 698.3,190.6 703.1,189.3 699.1,186.3 
			699.3,181.4 695.2,184.3 		"/>
	</g>
	<g>
		<path d="M696.7,196.3c-0.3,0-0.6-0.2-0.8-0.4l-2.5-3.7l-4.4,0c-0.4,0-0.7-0.2-0.9-0.6s-0.1-0.7,0.1-1l2.7-3.5l-1.3-4.2
			c-0.1-0.4,0-0.7,0.3-1c0.3-0.3,0.7-0.3,1-0.2l4.2,1.5l3.6-2.6c0.3-0.2,0.7-0.2,1-0.1c0.3,0.2,0.5,0.5,0.5,0.9l-0.2,4.4l3.6,2.6
			c0.3,0.2,0.4,0.6,0.4,1c-0.1,0.4-0.3,0.7-0.7,0.8l-4.3,1.2l-1.4,4.2c-0.1,0.4-0.4,0.6-0.8,0.7
			C696.8,196.3,696.8,196.3,696.7,196.3z M691,190.2l3,0c0.3,0,0.6,0.2,0.8,0.4l1.7,2.5l0.9-2.8c0.1-0.3,0.3-0.5,0.7-0.6l2.8-0.8
			l-2.4-1.8c-0.3-0.2-0.4-0.5-0.4-0.8l0.1-3l-2.4,1.7c-0.3,0.2-0.6,0.2-0.9,0.1l-2.8-1l0.9,2.8c0.1,0.3,0,0.6-0.2,0.9L691,190.2z"/>
	</g>
	<g>
		<path d="M608.5,23.4c-0.6,0-1.2-0.4-1.4-1c-2.1-6-5.5-9.7-10.5-11.8c-0.7-0.3-1.1-1.2-0.8-1.9c0.3-0.7,1.2-1.1,1.9-0.8
			c5.7,2.4,9.7,6.8,12.1,13.5c0.3,0.8-0.1,1.6-0.9,1.9C608.8,23.3,608.7,23.4,608.5,23.4z"/>
	</g>
	<g>
		<path d="M614.8,18.1c-0.6,0-1.2-0.4-1.4-1c-2.1-6-5.5-9.7-10.5-11.8c-0.7-0.3-1.1-1.2-0.8-1.9c0.3-0.7,1.2-1.1,1.9-0.8
			c5.7,2.4,9.7,6.8,12.1,13.5c0.3,0.8-0.1,1.6-0.9,1.9C615.2,18.1,615,18.1,614.8,18.1z"/>
	</g>
	<g>
		<path d="M437.9,198.5c-1.5,0-3.2-0.5-4.8-1.5c-0.6-0.4-0.8-1.2-0.4-1.8c0.4-0.6,1.2-0.8,1.8-0.4c2,1.3,4.3,1.4,5.5,0.4
			c1-0.9,1-2.8-0.1-5.1c-2.3-3.9-4.7-4.5-5.9-4c-0.8,0.4-1,1.4-0.6,2.4c0.3,0.6,0,1.4-0.7,1.7c-0.6,0.3-1.4,0-1.7-0.7
			c-1-2.3-0.2-4.7,1.8-5.7c2.4-1.2,6.2-0.1,9.2,5.1c0,0,0,0.1,0,0.1c2.3,4.9,0.4,7.4-0.5,8.2C440.6,198.1,439.3,198.5,437.9,198.5z"
			/>
	</g>
	<g>
		<path d="M433.5,175.1c-1.6,0-3.2-0.5-4.8-1.6c-0.6-0.4-0.7-1.2-0.3-1.8c0.4-0.6,1.2-0.7,1.8-0.3c1.9,1.3,4.1,1.5,5.3,0.6
			c1.2-1,1.2-3.2,0.1-5.9c-2.1-3.9-4.4-5-5.7-4.4c-0.9,0.4-1.2,1.6-0.7,2.9c0.3,0.7-0.1,1.4-0.7,1.6c-0.7,0.3-1.4-0.1-1.6-0.7
			c-1-2.6-0.1-5.2,2-6.1c2.3-1,6-0.2,9,5.6c0,0,0,0.1,0,0.1c2.4,5.5,0.3,8.1-0.7,9C436.1,174.7,434.9,175.1,433.5,175.1z"/>
	</g>
	<g>
		<path d="M512.4,123.8c-0.5,0-0.9-0.3-1.2-0.7c-0.3-0.6,0-1.4,0.6-1.7l4.6-2.1c0.6-0.3,1.4,0,1.7,0.6s0,1.4-0.6,1.7l-4.6,2.1
			C512.8,123.8,512.6,123.8,512.4,123.8z"/>
	</g>
	<g>
		<path d="M516.5,127.1c-0.5,0-0.9-0.3-1.2-0.7c-0.3-0.6,0-1.4,0.6-1.7l4.6-2.1c0.6-0.3,1.4,0,1.7,0.6s0,1.4-0.6,1.7L517,127
			C516.9,127,516.7,127.1,516.5,127.1z"/>
	</g>
	<g>
		<path d="M520.4,130.6c-0.5,0-0.9-0.3-1.2-0.7c-0.3-0.6,0-1.4,0.6-1.7l4.6-2.1c0.6-0.3,1.4,0,1.7,0.6s0,1.4-0.6,1.7l-4.6,2.1
			C520.7,130.5,520.5,130.6,520.4,130.6z"/>
	</g>
	<g>
		<path d="M524.4,133.8c-0.5,0-0.9-0.3-1.2-0.7c-0.3-0.6,0-1.4,0.6-1.7l4.6-2.1c0.6-0.3,1.4,0,1.7,0.6s0,1.4-0.6,1.7l-4.6,2.1
			C524.8,133.8,524.6,133.8,524.4,133.8z"/>
	</g>
	<g>
		<path d="M528.3,137.3c-0.5,0-0.9-0.3-1.2-0.7c-0.3-0.6,0-1.4,0.6-1.7l4.6-2.1c0.6-0.3,1.4,0,1.7,0.6s0,1.4-0.6,1.7l-4.6,2.1
			C528.7,137.3,528.5,137.3,528.3,137.3z"/>
	</g>
	<g>
		<path d="M532,141.4c-0.5,0-0.9-0.3-1.2-0.7c-0.3-0.6,0-1.4,0.6-1.7l4.6-2.1c0.6-0.3,1.4,0,1.7,0.6s0,1.4-0.6,1.7l-4.6,2.1
			C532.3,141.4,532.1,141.4,532,141.4z"/>
	</g>
	<g>
		<path d="M534.9,145.5c-0.5,0-0.9-0.3-1.2-0.7c-0.3-0.6,0-1.4,0.6-1.7l4.6-2.1c0.6-0.3,1.4,0,1.7,0.6s0,1.4-0.6,1.7l-4.6,2.1
			C535.2,145.4,535,145.5,534.9,145.5z"/>
	</g>
	<g>
		<path d="M538.7,149.9c-0.5,0-0.9-0.3-1.2-0.7c-0.3-0.6,0-1.4,0.6-1.7l4.6-2.1c0.6-0.3,1.4,0,1.7,0.6s0,1.4-0.6,1.7l-4.6,2.1
			C539.1,149.9,538.9,149.9,538.7,149.9z"/>
	</g>
	<g>
		<path d="M541.4,154.5c-0.5,0-0.9-0.3-1.2-0.7c-0.3-0.6,0-1.4,0.6-1.7l4.6-2.1c0.6-0.3,1.4,0,1.7,0.6s0,1.4-0.6,1.7l-4.6,2.1
			C541.8,154.5,541.6,154.5,541.4,154.5z"/>
	</g>
	<g>
		<path d="M543.6,159.6c-0.5,0-0.9-0.3-1.2-0.7c-0.3-0.6,0-1.4,0.6-1.7l4.6-2.1c0.6-0.3,1.4,0,1.7,0.6s0,1.4-0.6,1.7l-4.6,2.1
			C543.9,159.5,543.8,159.6,543.6,159.6z"/>
	</g>
	<g>
		<path d="M545.5,164.2c-0.5,0-0.9-0.3-1.2-0.7c-0.3-0.6,0-1.4,0.6-1.7l4.6-2.1c0.6-0.3,1.4,0,1.7,0.6s0,1.4-0.6,1.7l-4.6,2.1
			C545.9,164.2,545.7,164.2,545.5,164.2z"/>
	</g>
	<g>
		<path d="M336.2,380.6c-0.2,0-0.3,0-0.5-0.1c-7.3-2.9-12.3-9.6-15-20.1c-0.2-0.7,0.2-1.4,0.9-1.5c0.7-0.2,1.4,0.2,1.5,0.9
			c2.5,9.8,6.8,15.8,13.4,18.3c0.7,0.3,1,1,0.7,1.7C337.2,380.3,336.7,380.6,336.2,380.6z"/>
	</g>
	<g>
		<path d="M373,418.3c0,0-0.1,0-0.1,0c-7.8-0.7-14.6-5.7-20.1-15c-0.4-0.6-0.2-1.4,0.4-1.7c0.6-0.4,1.4-0.2,1.7,0.4
			c5.1,8.7,11.1,13.1,18.1,13.7c0.7,0.1,1.2,0.7,1.2,1.4C374.2,417.8,373.6,418.3,373,418.3z"/>
	</g>
	<g>
		<path d="M289.9,353.5c-0.2,0-0.4,0-0.5-0.1c-0.6-0.3-0.9-1-0.6-1.7l5.7-12.8c0.2-0.5,0.6-0.7,1.1-0.8l33.8-0.6
			c0.4,0,0.8,0.2,1.1,0.5c0.2,0.3,0.3,0.8,0.2,1.2l-3.8,11.5c-0.2,0.7-0.9,1-1.6,0.8c-0.7-0.2-1-0.9-0.8-1.6l3.3-9.8l-31.2,0.6
			l-5.4,12C290.8,353.2,290.4,353.5,289.9,353.5z"/>
	</g>
	<g>
		<path d="M375.6,452.6c-0.5,0-1-0.3-1.2-0.9c-0.2-0.7,0.1-1.4,0.8-1.6l12.5-4.1l3.8-31l-10.1,2.2c-0.7,0.2-1.4-0.3-1.5-1
			c-0.2-0.7,0.3-1.4,1-1.5l11.8-2.6c0.4-0.1,0.8,0,1.1,0.3c0.3,0.3,0.5,0.7,0.4,1.1l-4.1,33.6c-0.1,0.5-0.4,0.9-0.9,1.1l-13.3,4.4
			C375.9,452.5,375.7,452.6,375.6,452.6z"/>
	</g>
	<image width="82" height="63" xlink:href="91AF96E3.png"  transform="matrix(1 0 0 1 454 57)">
	</image>
</g>
</svg>
