<?xml version="1.0" encoding="utf-8"?>
<!-- Generator: Adobe Illustrator 21.0.0, SVG Export Plug-In . SVG Version: 6.00 Build 0)  -->
<svg version="1.1" id="Слой_1" xmlns="http://www.w3.org/2000/svg" xmlns:xlink="http://www.w3.org/1999/xlink" x="0px" y="0px"
	 viewBox="0 0 540 680" style="enable-background:new 0 0 540 680;" xml:space="preserve">
<style type="text/css">
	.st0{fill:#009EE0;}
	.st1{fill:#4B5974;}
	.st2{fill:#FCC2AE;}
	.st3{fill:#FEFCE9;}
	.st4{opacity:0.2078;}
	.st5{fill:#FFFFFF;}
	.st6{fill:#FFFEE8;}
	.st7{fill:#FCDC1A;}
	.st8{fill:#F26791;}
	.st9{fill:#028171;}
	.st10{fill:#00D49A;}
	.st11{fill:#E76C89;}
	.st12{fill:#A10026;}
	.st13{fill:#80C8D7;}
	.st14{fill:#00FFB9;}
	.st15{fill:#FCF29A;}
	.st16{fill:#BF0000;}
	.st17{fill:#800000;}
	.st18{fill:#CECDB9;}
</style>
<g>
	<polygon class="st0" points="324,299.1 351.5,298.1 347.4,323.5 328.1,324 	"/>
</g>
<g>
	<path class="st1" d="M16.6,141.2L122,111.7c1.9-44.7,7.5-80.3,26-83.5c9.4,2.3,14.2,10,16.8,20.4c3-19.8,6.8-38.2,24.4-34.6
		c17.5,20.2,22.9,56.6,23.9,98.8l103.8,28.5H16.6z"/>
</g>
<g>
	<path class="st2" d="M99,156.6c-7.5,6.3-7.7,16.6-3.1,29.5c4.3,7.5,9.3,12.1,16.3,8.7L100,237.5c-5.4,11.9,0.3,23.8,20.4,35.6
		l9.2,3.1l0.5,41.7l46.8,22.4l2,11.7l10.7,2l3.6-15.8l30-17.3l-1.5-64.6l6.6-9.7l-7.1-51.9c5.1,4.8,10.2,4,15.3-4.6
		c5.9-15.1,5.6-27.1-4.6-34.1l-58-12.7L99,156.6z"/>
</g>
<g>
	<polygon class="st3" points="134.2,279.5 137.8,322.2 130.6,318.2 130.6,277.1 	"/>
</g>
<g class="st4">
	<path d="M108,211.1l41.9-13c2.3,4.5,14.1,0.2,34.3-9.6l35.2-3.8c3.6,20.5,6.6,41.2,8,62.8l-5.4,8.4l-0.8,28
		c-30.3-1-60.6,1.9-90.8,10.9l-0.4-17.2c-23.1-9.9-35.6-21.6-32.2-36L108,211.1z"/>
</g>
<g>
	<path class="st1" d="M45,327.6l44.3-13.7l-1.5-5.6l41.7-21.9v36.1c11.3,51.2,31.5,94.7,61.6,129.8c19.7-27.5,30.7-72.6,33.1-134.9
		l-1.5-36.1l46.3,16.3l-0.5,10.2l21.9,8.1c-15.1,51.9-21.9,102.4-12.7,150.2c-10.9,68.3-16.1,138.6-11.2,213.3l-211.3-1
		c0.2-38.1-1.8-75.5-12.7-110c8.7,1.9,15.8,2.5,24.4-1v-72.3c-1.2-91-3.6-108.4-7.6-123.7L45,327.6z"/>
</g>
<g>
	<polygon class="st5" points="66.9,679.8 66.9,495.5 174.3,495.1 173.8,679.8 	"/>
</g>
<g>
	<path class="st2" d="M174.3,498.1l30.5-14.8c15.5-4.5,8.5,13.4-11.7,22.4l59.6,11.2c7,8,3.3,10.6-3.6,11.7l-45.8-4.1l48.9,15.3
		c7.3,6.8,5.9,9.6-1.5,9.7l-48.4-7.1l41.2,19.9c7.1,7.5,4.5,10.9-4.6,11.7l-44.3-16.8l33.1,21.9c7.6,9.6,2.4,10.6-6.6,9.2
		l-47.3-25.5L174.3,498.1z"/>
</g>
<g>
	<path class="st6" d="M44.5,327.1c16.6,43.1,23.1,84.8,20.9,125.2l1.5,42.8v73.3c-11.2,1.8-22.4,2.1-33.6-1.5
		C16.1,510,3.5,451.1,11.4,383.1c1.4-18.9,3.6-37.3,9.2-53.5L44.5,327.1z"/>
</g>
<g>
	<path class="st6" d="M129,317.9c10,47.4,27.2,92.8,62.6,134.9c21.2-33.1,31.2-78.8,33.6-133.4l-31.6,18.3l-4.1,18.3l-8.7-0.5
		l-4.1-16.3L129,317.9z"/>
</g>
<g>
	<path class="st6" d="M291.4,315.4c-17.5,47.9-20.2,97.5-14.8,148.1l9.2-37.2L323,528.7c-7.7,56.6,49.3,48.8,54.5,18.3
		c13.9-52.6,25.6-109.1,34.1-171l-56-7.6c-6.8,28.2-13.6,56.3-20.4,84.5c-16.8-41.6-29.2-87.6-39.2-135.9L291.4,315.4z"/>
</g>
<g>
	<path class="st2" d="M312.8,335.7c-2.8-3.8,8.6-4.9,27.5-4.6c3.2,6.4,8.1,11.2,16.8,12.2l13.2,0.5l63.1-13.2l59-0.5
		c2.1,5.3-1.6,7.7-10.2,7.6c-29.8,8.4-58.4,17.7-72.3,37.7l-55.5-7.6l-11.2-15.3L312.8,335.7z"/>
</g>
<g>
	<path class="st7" d="M359.6,225h39.2c-1.9,17.8-8.4,34.9-18.3,51.4C371.7,263,364.4,246.5,359.6,225z"/>
</g>
<g>
	<polygon class="st8" points="415.7,264.1 478.8,263.1 448.8,278.9 	"/>
</g>
<g>
	<path class="st5" d="M130.5,213.6l-3.6,16.8c20.9,3.9,41.7,2.2,62.6-2c7.9-7.9,14.4-16.2,16.8-25.5
		C181.7,203.3,156.5,206.4,130.5,213.6z"/>
</g>
<g>
	<path class="st9" d="M129.5,286.4l-40.2,20.9c0.2,24.3,14.3,52.5,38.7,83.5l11.2-1.5l-6.6,7.1c14.2,25.3,29.1,50.3,56.5,69.7
		c21.4-10.1,35.5-41.1,48.4-75.3l-6.1-6.1l8.1,0.5c16.3-23.5,26.1-53,29-88.6l-45.8-15.3v37.2l2.5,1.5
		c-3.4,59.2-15,102.1-33.1,131.8c-28.3-31.8-50.9-72.4-61.6-131.3L129.5,286.4z"/>
</g>
<g>
	<path class="st3" d="M130.2,292.7L93.2,311c5.2,28.1,15.7,52.7,30.3,74.5c-17.8-23.8-30.7-49.3-35.9-77.3l42.2-21.9L130.2,292.7z"
		/>
</g>
<g>
	<polygon class="st10" points="122.5,97.2 211.7,85.7 212.6,111.5 122.5,111.5 	"/>
</g>
<g>
	<path d="M352.3,139.4v5.4c0,0.9,0.7,1.5,1.5,1.5h0c0.9,0,1.5-0.7,1.5-1.5v-5.4c0-0.9-0.7-1.5-1.5-1.5h0
		C353,137.8,352.3,138.5,352.3,139.4z"/>
</g>
<g>
	<path d="M352.3,158.6v5.4c0,0.9,0.7,1.5,1.5,1.5h0c0.9,0,1.5-0.7,1.5-1.5v-5.4c0-0.9-0.7-1.5-1.5-1.5h0
		C353,157,352.3,157.7,352.3,158.6z"/>
</g>
<g>
	<path d="M341.6,157.1h5.4c0.9,0,1.5-0.7,1.5-1.5v0c0-0.9-0.7-1.5-1.5-1.5h-5.4c-0.9,0-1.5,0.7-1.5,1.5v0
		C340.1,156.4,340.8,157.1,341.6,157.1z"/>
</g>
<g>
	<path d="M360.8,153.2h5.4c0.9,0,1.5-0.7,1.5-1.5v0c0-0.9-0.7-1.5-1.5-1.5h-5.4c-0.9,0-1.5,0.7-1.5,1.5v0
		C359.3,152.5,360,153.2,360.8,153.2z"/>
</g>
<g>
	<path d="M344.1,147.9l3.8,3.8c0.6,0.6,1.6,0.6,2.2,0l0,0c0.6-0.6,0.6-1.6,0-2.2l-3.8-3.8c-0.6-0.6-1.6-0.6-2.2,0l0,0
		C343.5,146.3,343.5,147.3,344.1,147.9z"/>
</g>
<g>
	<path d="M357.7,157.6l3.8,3.8c0.6,0.6,1.6,0.6,2.2,0l0,0c0.6-0.6,0.6-1.6,0-2.2l-3.8-3.8c-0.6-0.6-1.6-0.6-2.2,0l0,0
		C357.1,156.1,357.1,157,357.7,157.6z"/>
</g>
<g>
	<path d="M346.3,165.3l3.8-3.8c0.6-0.6,0.6-1.6,0-2.2l0,0c-0.6-0.6-1.6-0.6-2.2,0l-3.8,3.8c-0.6,0.6-0.6,1.6,0,2.2l0,0
		C344.7,165.9,345.7,165.9,346.3,165.3z"/>
</g>
<g>
	<path d="M359.9,147.9l3.8-3.8c0.6-0.6,0.6-1.6,0-2.2l0,0c-0.6-0.6-1.6-0.6-2.2,0l-3.8,3.8c-0.6,0.6-0.6,1.6,0,2.2l0,0
		C358.3,148.5,359.3,148.5,359.9,147.9z"/>
</g>
<g>
	<path d="M454,195.9v3.9c0,0.6,0.5,1.1,1.1,1.1h0c0.6,0,1.1-0.5,1.1-1.1v-3.9c0-0.6-0.5-1.1-1.1-1.1h0
		C454.5,194.8,454,195.3,454,195.9z"/>
</g>
<g>
	<path d="M454,209.9v3.9c0,0.6,0.5,1.1,1.1,1.1h0c0.6,0,1.1-0.5,1.1-1.1v-3.9c0-0.6-0.5-1.1-1.1-1.1h0
		C454.5,208.8,454,209.3,454,209.9z"/>
</g>
<g>
	<path d="M446.2,206h3.9c0.6,0,1.1-0.5,1.1-1.1v0c0-0.6-0.5-1.1-1.1-1.1h-3.9c-0.6,0-1.1,0.5-1.1,1.1v0
		C445.1,205.5,445.6,206,446.2,206z"/>
</g>
<g>
	<path d="M460.2,206h3.9c0.6,0,1.1-0.5,1.1-1.1v0c0-0.6-0.5-1.1-1.1-1.1h-3.9c-0.6,0-1.1,0.5-1.1,1.1v0
		C459.1,205.5,459.6,206,460.2,206z"/>
</g>
<g>
	<path d="M448,199.4l2.8,2.8c0.4,0.4,1.2,0.4,1.6,0l0,0c0.4-0.4,0.4-1.2,0-1.6l-2.8-2.8c-0.4-0.4-1.2-0.4-1.6,0l0,0
		C447.6,198.2,447.6,198.9,448,199.4z"/>
</g>
<g>
	<path d="M457.9,209.3l2.8,2.8c0.4,0.4,1.2,0.4,1.6,0l0,0c0.4-0.4,0.4-1.2,0-1.6l-2.8-2.8c-0.4-0.4-1.2-0.4-1.6,0l0,0
		C457.5,208.1,457.5,208.8,457.9,209.3z"/>
</g>
<g>
	<path d="M449.6,212l2.8-2.8c0.4-0.4,0.4-1.2,0-1.6l0,0c-0.4-0.4-1.2-0.4-1.6,0l-2.8,2.8c-0.4,0.4-0.4,1.2,0,1.6l0,0
		C448.5,212.5,449.2,212.5,449.6,212z"/>
</g>
<g>
	<path d="M459.5,202.1l2.8-2.8c0.4-0.4,0.4-1.2,0-1.6l0,0c-0.4-0.4-1.2-0.4-1.6,0l-2.8,2.8c-0.4,0.4-0.4,1.2,0,1.6l0,0
		C458.4,202.6,459.1,202.6,459.5,202.1z"/>
</g>
<g>
	<path d="M337.4,234.1v4.8c0,0.8,0.6,1.4,1.4,1.4h0c0.8,0,1.4-0.6,1.4-1.4v-4.8c0-0.8-0.6-1.4-1.4-1.4h0
		C338,232.8,337.4,233.4,337.4,234.1z"/>
</g>
<g>
	<path d="M337.4,251.3v4.8c0,0.8,0.6,1.4,1.4,1.4h0c0.8,0,1.4-0.6,1.4-1.4v-4.8c0-0.8-0.6-1.4-1.4-1.4h0
		C338,249.9,337.4,250.5,337.4,251.3z"/>
</g>
<g>
	<path d="M327.8,246.5h4.8c0.8,0,1.4-0.6,1.4-1.4v0c0-0.8-0.6-1.4-1.4-1.4h-4.8c-0.8,0-1.4,0.6-1.4,1.4v0
		C326.4,245.9,327,246.5,327.8,246.5z"/>
</g>
<g>
	<path d="M344.9,246.5h4.8c0.8,0,1.4-0.6,1.4-1.4v0c0-0.8-0.6-1.4-1.4-1.4h-4.8c-0.8,0-1.4,0.6-1.4,1.4v0
		C343.6,245.9,344.2,246.5,344.9,246.5z"/>
</g>
<g>
	<path d="M330,238.3l3.4,3.4c0.5,0.5,1.4,0.5,1.9,0l0,0c0.5-0.5,0.5-1.4,0-1.9l-3.4-3.4c-0.5-0.5-1.4-0.5-1.9,0l0,0
		C329.5,236.9,329.5,237.8,330,238.3z"/>
</g>
<g>
	<path d="M342.1,250.4l3.4,3.4c0.5,0.5,1.4,0.5,1.9,0l0,0c0.5-0.5,0.5-1.4,0-1.9l-3.4-3.4c-0.5-0.5-1.4-0.5-1.9,0l0,0
		C341.6,249,341.6,249.9,342.1,250.4z"/>
</g>
<g>
	<path d="M332,253.8l3.4-3.4c0.5-0.5,0.5-1.4,0-1.9l0,0c-0.5-0.5-1.4-0.5-1.9,0l-3.4,3.4c-0.5,0.5-0.5,1.4,0,1.9l0,0
		C330.6,254.4,331.5,254.4,332,253.8z"/>
</g>
<g>
	<path d="M344.1,241.7l3.4-3.4c0.5-0.5,0.5-1.4,0-1.9l0,0c-0.5-0.5-1.4-0.5-1.9,0l-3.4,3.4c-0.5,0.5-0.5,1.4,0,1.9l0,0
		C342.7,242.3,343.6,242.3,344.1,241.7z"/>
</g>
<g>
	<path class="st11" d="M457.4,156.4C457.4,156.4,457.4,156.4,457.4,156.4c-0.6-0.9-1.2-1.9-1.6-3c-1.8-5.3,1-11.1,6.3-12.9
		c4.5-1.5,9.3,0.2,11.8,4c1.2-1.8,3-3.2,5.1-4c5.3-1.8,11.1,1,12.9,6.3c1.3,3.9,0.2,8-2.6,10.7c-4.1,4.7-9.8,10-15.6,13.7
		C467.3,167.8,461.9,162,457.4,156.4z"/>
</g>
<g>
	<path class="st12" d="M473.7,173.5l-1-0.5c-7.1-3.8-12.7-10.2-16.9-15.3l-1.1-1.4l0.1-0.1c-0.4-0.6-0.7-1.3-0.9-2
		c-2.2-6.3,1.2-13.2,7.5-15.4c1.3-0.4,2.6-0.7,4-0.7c3.2,0,6.2,1.3,8.5,3.4c1.3-1.2,2.8-2.2,4.5-2.8c1.3-0.4,2.6-0.7,4-0.7
		c5.2,0,9.7,3.3,11.4,8.1c1.5,4.5,0.3,9.4-3.1,12.7c-2.9,3.3-8.8,9.5-15.9,14L473.7,173.5z M460.1,156.6c3.5,4.3,8.1,9.2,13.5,12.4
		c4.7-3.1,9.8-7.7,14.2-12.7l0.1-0.1c2.3-2.2,3.2-5.6,2.1-8.6c-1.1-3.3-4.2-5.5-7.7-5.5c-0.9,0-1.8,0.2-2.7,0.5
		c-1.7,0.6-3.1,1.7-4.1,3.2l-1.6,2.5l-1.6-2.5c-1.5-2.3-4.1-3.7-6.8-3.7c-0.9,0-1.8,0.2-2.7,0.5c-4.3,1.5-6.5,6.1-5,10.4
		c0.3,0.9,0.7,1.7,1.3,2.4L460.1,156.6z"/>
</g>
<g>
	<path class="st11" d="M338.4,89.8C338.4,89.8,338.4,89.8,338.4,89.8c-0.4-0.5-0.7-1.1-0.9-1.7c-1.1-3.1,0.6-6.4,3.6-7.5
		c2.6-0.9,5.4,0.1,6.9,2.3c0.7-1,1.7-1.9,3-2.3c3.1-1.1,6.4,0.6,7.5,3.6c0.8,2.3,0.1,4.7-1.5,6.2c-2.4,2.8-5.7,5.8-9.1,8
		C344.1,96.4,341,93,338.4,89.8z"/>
</g>
<g>
	<path class="st12" d="M347.9,99.7l-0.6-0.3c-4.1-2.2-7.4-5.9-9.8-8.9l-0.6-0.8l0.1-0.1c-0.2-0.4-0.4-0.8-0.5-1.2
		c-1.3-3.7,0.7-7.7,4.4-9c0.7-0.3,1.5-0.4,2.3-0.4c1.9,0,3.6,0.7,4.9,2c0.7-0.7,1.6-1.3,2.6-1.6c0.7-0.3,1.5-0.4,2.3-0.4
		c3,0,5.7,1.9,6.7,4.7c0.9,2.6,0.2,5.5-1.8,7.4c-1.7,1.9-5.1,5.5-9.3,8.2L347.9,99.7z M339.9,89.8c2,2.4,4.7,5.3,7.9,7.2
		c2.7-1.8,5.7-4.5,8.3-7.4l0.1-0.1c1.4-1.3,1.8-3.2,1.2-5c-0.7-1.9-2.5-3.2-4.5-3.2c-0.5,0-1,0.1-1.6,0.3c-1,0.3-1.8,1-2.4,1.9
		l-1,1.4l-1-1.4c-1.2-1.8-3.5-2.6-5.5-1.9c-2.5,0.9-3.8,3.6-2.9,6.1c0.2,0.5,0.4,1,0.7,1.4L339.9,89.8z"/>
</g>
<g>
	<path class="st11" d="M307.4,206.4C307.4,206.4,307.4,206.4,307.4,206.4c-0.5-0.7-0.9-1.4-1.2-2.2c-1.4-4,0.7-8.3,4.7-9.7
		c3.4-1.2,7,0.2,8.8,3c0.9-1.4,2.2-2.4,3.9-3c4-1.4,8.3,0.7,9.7,4.7c1,2.9,0.1,6-2,8c-3.1,3.5-7.3,7.5-11.7,10.3
		C314.8,215,310.8,210.6,307.4,206.4z"/>
</g>
<g>
	<path class="st12" d="M319.7,219.3l-0.8-0.4c-5.3-2.9-9.6-7.7-12.7-11.5l-0.8-1l0.1-0.1c-0.3-0.5-0.5-1-0.7-1.5
		c-1.6-4.7,0.9-9.9,5.6-11.6c1-0.3,2-0.5,3-0.5c2.4,0,4.7,0.9,6.4,2.6c0.9-0.9,2.1-1.6,3.4-2.1c1-0.3,2-0.5,3-0.5
		c3.9,0,7.3,2.5,8.6,6.1c1.2,3.4,0.3,7.1-2.3,9.5c-2.2,2.5-6.6,7.1-12,10.5L319.7,219.3z M309.5,206.6c2.5,3,6,6.8,10.1,9.2
		c3.5-2.4,7.4-5.8,10.7-9.6l0.1-0.1c1.8-1.6,2.4-4.2,1.6-6.5c-0.9-2.5-3.2-4.1-5.8-4.1c-0.7,0-1.4,0.1-2,0.3
		c-1.3,0.4-2.4,1.3-3.1,2.4l-1.2,1.9l-1.2-1.9c-1.1-1.7-3.1-2.8-5.1-2.8c-0.7,0-1.4,0.1-2,0.3c-3.2,1.1-4.9,4.6-3.8,7.8
		c0.2,0.6,0.5,1.2,1,1.8L309.5,206.6z"/>
</g>
<g>
	<path d="M134.4,399.6c-0.6-1.1-1.2-2.2-1.8-3.3l4-4.3c1,0.3,1.9,1.1,2.4,2.1c0.9,2,0,4.3-2,5.2
		C136.2,399.7,135.3,399.8,134.4,399.6z"/>
</g>
<g>
	<circle cx="149.1" cy="395.8" r="3.9"/>
</g>
<g>
	<path d="M153.5,406.8c-0.9-2,0-4.3,2-5.2c0.6-0.3,1.2-0.4,1.8-0.3c1,2,2.1,4,3.2,6c-0.4,0.7-1,1.2-1.7,1.6
		C156.7,409.7,154.4,408.8,153.5,406.8z"/>
</g>
<g>
	<path d="M160.6,416.9c-0.9-2,0-4.3,2-5.2c0.1,0,0.2-0.1,0.3-0.1c1.3,2.2,2.6,4.4,4,6.6c-0.3,0.3-0.7,0.5-1,0.7
		C163.9,419.8,161.5,418.9,160.6,416.9z"/>
</g>
<g>
	<circle cx="157.3" cy="425.6" r="3.9"/>
</g>
<g>
	<path d="M168.1,427.3c-0.8-1.8-0.2-3.9,1.4-4.9c1.4,2.2,2.9,4.4,4.4,6.5c-0.2,0.1-0.4,0.2-0.6,0.3
		C171.4,430.1,169,429.3,168.1,427.3z"/>
</g>
<g>
	<path d="M176,436.7c-0.6-1.4-0.4-3,0.5-4.1c1.5,2.1,3,4.1,4.6,6.1C179.2,439.5,176.9,438.6,176,436.7z"/>
</g>
<g>
	<circle cx="164.7" cy="435.1" r="3.9"/>
</g>
<g>
	<path d="M183.2,446.8c-0.7-1.6-0.3-3.4,0.9-4.5c1.7,2,3.3,4.1,5,6c-0.2,0.2-0.4,0.3-0.7,0.4C186.4,449.7,184.1,448.8,183.2,446.8z"
		/>
</g>
<g>
	<circle cx="171.9" cy="445.2" r="3.9"/>
</g>
<g>
	<circle cx="148.9" cy="415" r="3.9"/>
</g>
<g>
	<path d="M140,409.3c-0.8-1.4-1.6-2.8-2.4-4.2c0.2-1.3,1-2.5,2.3-3.1c2-0.9,4.3,0,5.2,2c0.9,2,0,4.3-2,5.2
		C142.1,409.7,141,409.7,140,409.3z"/>
</g>
<g>
	<path d="M175.5,455.1c0.2-1.3,1-2.4,2.3-3c2-0.9,4.3,0,5.2,2c0.9,2,0,4.3-2,5.2c-0.2,0.1-0.4,0.1-0.5,0.2
		C178.8,458,177.1,456.6,175.5,455.1z"/>
</g>
<g>
	<circle cx="195.2" cy="455.7" r="3.9"/>
</g>
<g>
	<path d="M184.3,462.5c0.4-0.4,0.8-0.8,1.4-1c2-0.9,4.3,0,5.2,2c0.2,0.5,0.3,1,0.4,1.5c-0.7,0.4-1.4,0.7-2.1,1.1
		C187.4,464.9,185.9,463.7,184.3,462.5z"/>
</g>
<g>
	<path d="M125,288.7L125,288.7l4.6-2.4l0.1,2.5l0,0.1c-0.2,0.1-0.3,0.2-0.5,0.3C127.7,289.9,126.1,289.7,125,288.7z"/>
</g>
<g>
	<path d="M103.8,299.7l0.1-0.1l4-2.1c-0.4,0.8-1,1.4-1.9,1.8C105.3,299.7,104.6,299.8,103.8,299.7z"/>
</g>
<g>
	<path d="M116.1,297.4c-0.8-1.7-0.2-3.6,1.1-4.7l0.4-0.2l0.9-0.5c1.8-0.5,3.9,0.3,4.7,2.1c0.9,2,0,4.3-2,5.2
		C119.4,300.3,117,299.4,116.1,297.4z"/>
</g>
<g>
	<path d="M93.9,307.8c-0.4-0.9-0.5-1.9-0.2-2.9l0,0l4.9-2.5c1,0.3,1.9,1.1,2.4,2.1c0.9,2,0,4.3-2,5.2
		C97.1,310.6,94.8,309.8,93.9,307.8z"/>
</g>
<g>
	<path d="M89.5,311.6c1.5,0,3,0.8,3.7,2.3c0.9,2,0,4.3-2,5.2c-0.2,0.1-0.5,0.2-0.7,0.2C90,316.8,89.7,314.2,89.5,311.6z"/>
</g>
<g>
	<circle cx="111.9" cy="306.2" r="3.9"/>
</g>
<g>
	<path d="M124.1,307.8c-0.9-2,0-4.3,2-5.2c1.3-0.6,2.8-0.4,3.9,0.4l0.2,6.2l0,0.1c-0.3,0.2-0.5,0.4-0.9,0.5
		C127.4,310.6,125,309.8,124.1,307.8z"/>
</g>
<g>
	<circle cx="119.8" cy="315.6" r="3.9"/>
</g>
<g>
	<circle cx="104.9" cy="315.6" r="3.9"/>
</g>
<g>
	<circle cx="96.7" cy="325.7" r="3.9"/>
</g>
<g>
	<circle cx="127" cy="325.7" r="3.9"/>
</g>
<g>
	<circle cx="112.1" cy="325.7" r="3.9"/>
</g>
<g>
	<circle cx="105.1" cy="336.2" r="3.9"/>
</g>
<g>
	<path d="M97.4,341.7c1.4,0.1,2.7,0.9,3.4,2.3c0.6,1.4,0.4,2.9-0.5,4C99.3,345.9,98.3,343.8,97.4,341.7z"/>
</g>
<g>
	<circle cx="119.6" cy="336.2" r="3.9"/>
</g>
<g>
	<path d="M131.8,337.8c-0.8-1.7-0.2-3.7,1.3-4.8c0.5,2.4,1.1,4.7,1.6,7C133.5,339.8,132.4,339,131.8,337.8z"/>
</g>
<g>
	<circle cx="127.5" cy="345.6" r="3.9"/>
</g>
<g>
	<circle cx="112.6" cy="345.6" r="3.9"/>
</g>
<g>
	<path d="M102.5,352.3c0.1,0,0.2-0.1,0.3-0.1c2-0.9,4.3,0,5.2,2c0.9,1.9,0.1,4.1-1.7,5.1C105,356.8,103.7,354.5,102.5,352.3z"/>
</g>
<g>
	<circle cx="134.6" cy="355.7" r="3.9"/>
</g>
<g>
	<circle cx="119.7" cy="355.7" r="3.9"/>
</g>
<g>
	<path d="M108.9,363.5c0.4-0.4,0.8-0.8,1.4-1.1c2-0.9,4.3,0,5.2,2c0.9,2,0,4.3-2,5.2c-0.2,0.1-0.4,0.2-0.6,0.2
		C111.5,367.8,110.2,365.6,108.9,363.5z"/>
</g>
<g>
	<circle cx="127.7" cy="366.1" r="3.9"/>
</g>
<g>
	<path d="M119.5,379.4c-1.2-1.6-2.3-3.3-3.5-4.9c0.3-1.1,1.1-2.1,2.2-2.6c2-0.9,4.3,0,5.2,2c0.9,2,0,4.3-2,5.2
		C120.8,379.3,120.1,379.5,119.5,379.4z"/>
</g>
<g>
	<path d="M127.1,389.5c-1.3-1.7-2.6-3.4-3.9-5c0.3-1.1,1.1-2,2.1-2.5c2-0.9,4.3,0,5.2,2c0.9,2,0,4.3-2,5.2
		C128.1,389.4,127.6,389.5,127.1,389.5z"/>
</g>
<g>
	<path d="M137.9,367.7c-0.9-2,0-4.3,2-5.2c0.4-0.2,0.7-0.3,1.1-0.3c0.8,2.5,1.6,4.9,2.5,7.3c-0.1,0.1-0.2,0.1-0.3,0.2
		C141.1,370.6,138.8,369.7,137.9,367.7z"/>
</g>
<g>
	<path d="M145.8,377.1c-0.3-0.7-0.4-1.4-0.3-2.1c0.4,1.2,0.9,2.3,1.4,3.5C146.4,378.1,146.1,377.7,145.8,377.1z"/>
</g>
<g>
	<circle cx="134.6" cy="375.5" r="3.9"/>
</g>
<g>
	<circle cx="141.6" cy="385.6" r="3.9"/>
</g>
<g>
	<circle cx="219.2" cy="395.8" r="3.9"/>
</g>
<g>
	<path d="M210.8,409.1c0.8-2.4,1.5-4.9,2.2-7.5c0.8,0.4,1.5,1,1.9,1.9c0.9,2,0,4.3-2,5.2C212.3,409.1,211.5,409.2,210.8,409.1z"/>
</g>
<g>
	<path d="M230.1,397.4c-0.9-2,0-4.3,2-5.2c1.6-0.7,3.4-0.3,4.5,0.9c-0.8,2.2-1.7,4.4-2.5,6.6C232.4,399.8,230.8,399,230.1,397.4z"/>
</g>
<g>
	<circle cx="226.6" cy="405.2" r="3.9"/>
</g>
<g>
	<circle cx="218.5" cy="415.3" r="3.9"/>
</g>
<g>
	<circle cx="211.6" cy="425.6" r="3.9"/>
</g>
<g>
	<path d="M200.2,436.9c0.9-1.8,1.7-3.7,2.5-5.6c1.8-0.5,3.7,0.4,4.5,2.2c0.9,2,0,4.3-2,5.2C203.4,439.5,201.1,438.7,200.2,436.9z"/>
</g>
<g>
	<path d="M224.4,422.1c0,0,0.1,0,0.1-0.1c-0.8,1.6-1.5,3.2-2.3,4.7C221.7,424.9,222.6,422.9,224.4,422.1z"/>
</g>
<g>
	<path d="M215.4,436.7c-0.9-2,0-4.3,2-5.2c0.8-0.4,1.7-0.4,2.6-0.2c-1.2,2.3-2.4,4.5-3.7,6.6C215.9,437.5,215.6,437.1,215.4,436.7z"
		/>
</g>
<g>
	<path d="M207.2,446.8c-0.9-2,0-4.3,2-5.2c1.5-0.7,3.2-0.4,4.3,0.7c-1.4,2.2-2.9,4.4-4.5,6.4C208.3,448.3,207.6,447.6,207.2,446.8z"
		/>
</g>
<g>
	<path d="M199.8,457.3c-0.9-2,0-4.3,2-5.2c1.4-0.6,3-0.4,4.1,0.5c-1.8,2-3.6,3.9-5.4,5.7C200.2,458,200,457.7,199.8,457.3z"/>
</g>
<g>
	<path d="M238,287.3c-0.2-0.3-0.3-0.7-0.3-1l6.6,2.2l0,0c-0.3,0.3-0.7,0.6-1.1,0.8C241.2,290.2,238.9,289.3,238,287.3z"/>
</g>
<g>
	<path d="M223.1,287.3c-0.9-2,0-4.3,2-5.2c0,0,0.1,0,0.1,0l4.9,1.6l0.1,0c0.1,0.1,0.1,0.2,0.2,0.3c0.9,2,0,4.3-2,5.2
		C226.3,290.2,224,289.3,223.1,287.3z"/>
</g>
<g>
	<circle cx="248.7" cy="295.8" r="3.9"/>
</g>
<g>
	<circle cx="233.8" cy="295.8" r="3.9"/>
</g>
<g>
	<path d="M222.7,308.3l0-0.1l0-4.1c0.4-0.6,1-1.2,1.7-1.5c2-0.9,4.3,0,5.2,2c0.9,2,0,4.3-2,5.2C225.8,310.6,223.7,309.9,222.7,308.3
		z"/>
</g>
<g>
	<circle cx="241.8" cy="306.2" r="3.9"/>
</g>
<g>
	<circle cx="233.9" cy="315.6" r="3.9"/>
</g>
<g>
	<path d="M222.7,316.8v-2.6C223,315.1,223,316.1,222.7,316.8L222.7,316.8z"/>
</g>
<g>
	<circle cx="241.1" cy="325.7" r="3.9"/>
</g>
<g>
	<path d="M224.6,329.3c0.2-2.4,0.3-4.9,0.5-7.4c1.8-0.5,3.8,0.4,4.6,2.2c0.9,2,0,4.3-2,5.2C226.7,329.7,225.6,329.7,224.6,329.3z"/>
</g>
<g>
	<circle cx="255.6" cy="306.2" r="3.9"/>
</g>
<g>
	<path d="M267.7,305c-0.1,0.5-0.1,1.1-0.2,1.6C267.4,306.1,267.5,305.5,267.7,305z"/>
</g>
<g>
	<path d="M259.9,317.2c-0.9-2,0-4.3,2-5.2c1.7-0.8,3.6-0.2,4.7,1.2c-0.3,1.9-0.6,3.8-0.9,5.7c-0.2,0.1-0.3,0.2-0.5,0.3
		C263.1,320,260.8,319.2,259.9,317.2z"/>
</g>
<g>
	<path d="M259.4,297.2c-0.5-1.2-0.4-2.5,0.2-3.6l7.2,2.4l0.1,0c-0.2,1.3-1,2.5-2.3,3.1C262.6,300,260.3,299.2,259.4,297.2z"/>
</g>
<g>
	<circle cx="248.7" cy="315.6" r="3.9"/>
</g>
<g>
	<circle cx="255.6" cy="325.7" r="3.9"/>
</g>
<g>
	<circle cx="233.7" cy="336.2" r="3.9"/>
</g>
<g>
	<circle cx="249.5" cy="336.2" r="3.9"/>
</g>
<g>
	<circle cx="241.6" cy="345.6" r="3.9"/>
</g>
<g>
	<path d="M223.1,347.2c0,0,0-0.1-0.1-0.2c0.1-1.2,0.3-2.4,0.4-3.7c0.4-0.6,0.9-1.1,1.6-1.4c2-0.9,4.3,0,5.2,2c0.9,2,0,4.3-2,5.2
		C226.3,350.1,224,349.2,223.1,347.2z"/>
</g>
<g>
	<path d="M222.1,354.3c0.5,1.3,0.3,2.7-0.5,3.8C221.8,356.8,222,355.5,222.1,354.3z"/>
</g>
<g>
	<circle cx="248.7" cy="355.7" r="3.9"/>
</g>
<g>
	<circle cx="233.8" cy="355.7" r="3.9"/>
</g>
<g>
	<circle cx="226" cy="366.1" r="3.9"/>
</g>
<g>
	<circle cx="241.8" cy="366.1" r="3.9"/>
</g>
<g>
	<circle cx="233.9" cy="375.5" r="3.9"/>
</g>
<g>
	<path d="M218.2,379.3c0.5-2.5,1-5.1,1.4-7.7c1.3,0.2,2.4,1,3,2.3c0.9,2,0,4.3-2,5.2C219.8,379.4,219,379.5,218.2,379.3z"/>
</g>
<g>
	<path d="M239.5,385.1l-2.3-0.1c0.2-1.3,1-2.4,2.3-3c0.8-0.3,1.6-0.4,2.3-0.3C241,382.9,240.3,384,239.5,385.1z"/>
</g>
<g>
	<circle cx="226.1" cy="385.6" r="3.9"/>
</g>
<g>
	<path d="M259.6,337.8c-0.9-2,0-4.3,2-5.2c0.4-0.2,0.8-0.3,1.2-0.3c-0.6,2.4-1.2,4.7-1.9,7.1C260.4,339,259.9,338.4,259.6,337.8z"/>
</g>
<g>
	<path d="M252,347.7c-0.9-2,0-4.3,2-5.2c2-0.9,4.3,0,5.2,2c0,0.1,0.1,0.1,0.1,0.2c-0.5,1.6-1.1,3.2-1.6,4.8
		c-0.1,0.1-0.3,0.2-0.4,0.2C255.2,350.5,252.9,349.7,252,347.7z"/>
</g>
<g>
	<path d="M247.1,371.9c0.2-0.1,0.4-0.2,0.6-0.2c-0.9,1.7-1.8,3.3-2.8,4.9C244.4,374.7,245.3,372.7,247.1,371.9z"/>
</g>
<g>
	<path class="st3" d="M157.1,156.3c-3.8,26.4-6.1,40.5,1.3,37.7l23-4.6c-20.6,11.7-32.3,13.9-33.1,4.6c-0.5-10.4,0-21.1,2.9-32.6
		L157.1,156.3z"/>
</g>
<g>
	<path class="st3" d="M119.4,169.1l1.2,16.3l-15.5,55c-5.6,10,2.4,21.5,25.1,34.7c-19.1-4.9-31.9-13.7-31.9-30.3l17.1-59l-0.4-17.9
		L119.4,169.1z"/>
</g>
<g>
	<path class="st3" d="M127,226.1c-10.6,4-16.9,15.2-4.8,18.3l19.1,1.6c-15.8-2.7-25.7-6.5-15.5-13.5L127,226.1z"/>
</g>
<g>
	<path class="st3" d="M101.9,158.8c-9.8,6.6,0,34.6,4.8,32.3c3.2,0.9,5.8-0.7,8-4l-1.2,6.4c-5.2,1.7-10.3,4.7-17.9-9.6
		C92.9,169.9,92.4,158.5,101.9,158.8z"/>
</g>
<g>
	<polygon class="st13" points="18.2,141 122.2,110.7 142.1,111.9 63.2,141 	"/>
</g>
<g>
	<polygon class="st14" points="138.5,112.3 138.9,94.3 122.6,95.5 123,110.7 	"/>
</g>
<g>
	<path class="st13" d="M138.1,95.1c-2.7-61.9,7.1-70.2,21.5-58.2c-19.9-24-33.5,4.5-37.5,59.4L138.1,95.1z"/>
</g>
<g>
	<path class="st13" d="M164.4,66.8c-0.8-52.8,19.4-75.7,40.2-27.5c-17.6-32.1-30.3-33.8-33.9,27.1C171.1,71.2,163.5,71.5,164.4,66.8
		z"/>
</g>
<g>
	<path class="st13" d="M88.4,313l-45.4,15.1c21.9,46.1,24.1,85.9,21.9,124.3c4.2-31.1,5.8-65-14.7-121.9l39.4-12.8L88.4,313z"/>
</g>
<g>
	<path class="st5" d="M45.7,331.3l-21.1,3.6C6.8,411.7,11.9,487.9,35,563.6C12.9,494.1-3.6,422,20.2,330.1l23.5-2.8L45.7,331.3z"/>
</g>
<g>
	<path class="st15" d="M49.3,570c8.8,37.2,11.7,72.9,12,108l-5.6-0.8c1.8-32.8-1.3-68.2-13.1-108.4L49.3,570z"/>
</g>
<g>
	<path d="M200.7,492.6c-0.2,0-0.4-0.1-0.5-0.2l-3.6-3.6c-0.3-0.3-0.3-0.8,0-1.1s0.8-0.3,1.1,0l3.3,3.3c2.6-1,4.2-2.1,4.6-3.5
		c0.4-1.1,0-2.4-1.1-4c-0.2-0.3-0.2-0.8,0.2-1c0.3-0.2,0.8-0.2,1,0.2c1.4,1.9,1.8,3.7,1.3,5.3c-0.6,1.9-2.6,3.5-6,4.6
		C200.9,492.6,200.8,492.6,200.7,492.6z"/>
</g>
<g>
	<path d="M251,528.7c-0.1,0-0.2,0-0.3-0.1c-0.4-0.2-0.6-0.6-0.4-1c0.9-2,0.9-3.6,0-4.7c-1.2-1.7-4.3-2.6-8.3-2.3
		c-1.3,1.5-1.1,3.8-0.8,6.1c0.1,0.4-0.2,0.8-0.6,0.9c-0.4,0.1-0.8-0.2-0.9-0.6c-0.4-2.6-0.6-5.6,1.4-7.6c0.1-0.1,0.3-0.2,0.5-0.2
		c4.8-0.4,8.4,0.7,10,2.9c0.8,1.1,1.5,3.1,0.1,6.2C251.5,528.6,251.2,528.7,251,528.7z"/>
</g>
<g>
	<path d="M251.3,549.3c-0.1,0-0.2,0-0.3-0.1c-0.4-0.2-0.6-0.6-0.4-1c0.7-1.6,0.7-3,0-3.9c-1-1.4-3.6-2.1-7-1.9
		c-1,1.2-0.9,3.2-0.6,5.1c0.1,0.4-0.2,0.8-0.6,0.9c-0.4,0.1-0.8-0.2-0.9-0.6c-0.4-2.3-0.5-4.9,1.2-6.6c0.1-0.1,0.3-0.2,0.5-0.2
		c4.1-0.3,7.2,0.6,8.6,2.5c0.7,1,1.3,2.7,0.1,5.4C251.9,549.1,251.6,549.3,251.3,549.3z"/>
</g>
<g>
	<path d="M240.9,572.8c-0.1,0-0.3,0-0.4-0.1c-0.3-0.2-0.4-0.7-0.2-1c1-1.5,1.3-2.8,0.8-3.9c-0.7-1.6-3.2-2.8-6.5-3.2
		c-1.2,1-1.5,2.9-1.5,4.9c0,0.4-0.4,0.8-0.8,0.7c-0.4,0-0.7-0.4-0.7-0.8c0.1-2.3,0.4-4.9,2.4-6.2c0.1-0.1,0.3-0.1,0.5-0.1
		c4.1,0.4,7,1.9,8,4.1c0.5,1.1,0.8,2.9-0.9,5.3C241.4,572.7,241.1,572.8,240.9,572.8z"/>
</g>
<g>
	<path d="M224.5,588.6c-0.2,0-0.4-0.1-0.5-0.2c-0.3-0.3-0.3-0.8,0-1.1c1.2-1.3,1.7-2.5,1.4-3.7c-0.5-1.7-2.7-3.2-5.9-4.2
		c-1.4,0.8-1.9,2.7-2.3,4.5c-0.1,0.4-0.5,0.7-0.9,0.6c-0.4-0.1-0.7-0.5-0.6-0.9c0.4-2.3,1.2-4.7,3.4-5.8c0.2-0.1,0.3-0.1,0.5,0
		c4,1.1,6.6,3,7.2,5.3c0.3,1.2,0.3,3-1.7,5.1C224.9,588.5,224.7,588.6,224.5,588.6z"/>
</g>
<g>
	<path class="st11" d="M96.1,651.8l-3-3l-3.1,3.1l3,3L96.1,651.8z M96.1,658l-3.1-3.1l-3.1,3.1l-3.1-3.1l-3.1,3.1l-3.1-3.1l3.1-3.1
		l3.1,3.1l3.1-3.1l-3.1-3.1l3.1-3.1l3.1,3.1l3.1-3.1l3.1,3.1l3.1-3.1l3.1,3.1l-3.1,3.1l-3.1-3.1l-3.1,3.1l3.1,3.1L96.1,658z"/>
</g>
<g>
	<path class="st11" d="M114.7,651.8l-3-3l-3.1,3.1l3,3L114.7,651.8z M114.7,658l-3.1-3.1l-3.1,3.1l-3.1-3.1l-3.1,3.1l-3.1-3.1
		l3.1-3.1l3.1,3.1l3.1-3.1l-3.1-3.1l3.1-3.1l3.1,3.1l3.1-3.1l3.1,3.1l3.1-3.1l3.1,3.1l-3.1,3.1l-3.1-3.1l-3.1,3.1l3.1,3.1L114.7,658
		z"/>
</g>
<g>
	<path class="st11" d="M133.2,651.8l-3-3l-3.1,3.1l3,3L133.2,651.8z M133.3,658l-3.1-3.1l-3.1,3.1l-3.1-3.1l-3.1,3.1l-3.1-3.1
		l3.1-3.1l3.1,3.1l3.1-3.1l-3.1-3.1l3.1-3.1l3.1,3.1l3.1-3.1l3.1,3.1l3.1-3.1l3.1,3.1l-3.1,3.1l-3.1-3.1l-3.1,3.1l3.1,3.1L133.3,658
		z"/>
</g>
<g>
	<path class="st11" d="M151.6,651.8l-3-3l-3.1,3.1l3,3L151.6,651.8z M151.7,658l-3.1-3.1l-3.1,3.1l-3.1-3.1l-3.1,3.1l-3.1-3.1
		l3.1-3.1l3.1,3.1l3.1-3.1l-3.1-3.1l3.1-3.1l3.1,3.1l3.1-3.1l3.1,3.1l3.1-3.1l3.1,3.1l-3.1,3.1l-3.1-3.1l-3.1,3.1l3.1,3.1L151.7,658
		z"/>
</g>
<g>
	<path class="st11" d="M167.1,654.8l3.1-3.1l-3-3l-3.1,3.1L167.1,654.8z M157.9,658l-3.1-3.1l3.1-3.1l3.1,3.1l3.1-3.1l-3.1-3.1
		l3.1-3.1l3.1,3.1l3.1-3.1l2.9,2.9v0.5l-2.9,2.9l3.1,3.1l-3.1,3.1l-3.1-3.1l-3.1,3.1l-3.1-3.1L157.9,658z"/>
</g>
<g>
	<path class="st11" d="M74.5,654.8l3.1-3.1l-3-3l-3.1,3.1L74.5,654.8z M71.4,658l-3.1-3.1l-0.8,0.8V654l0.8,0.8l3.1-3.1l-3.1-3.1
		l3.1-3.1l3.1,3.1l3.1-3.1l3.1,3.1l3.1-3.1l3.1,3.1l-3.1,3.1l-3.1-3.1l-3.1,3.1l3.1,3.1l-3.1,3.1l-3.1-3.1L71.4,658z"/>
</g>
<g>
	<circle class="st16" cx="458.4" cy="250.2" r="8.6"/>
</g>
<g>
	<polygon points="112.7,170 112.7,164.7 106.6,164.7 106.6,158.9 101.2,158.9 101.2,153.3 95.4,153.3 95.4,142.1 242.6,142.1 
		242.6,153.3 236.7,153.3 236.7,158.9 231.4,158.9 231.4,164.7 225.4,164.7 225.4,170 185.8,170 185.8,164.7 179.7,164.7 
		179.7,158.9 174.4,158.9 174.4,153.3 163.6,153.3 163.6,158.9 158.3,158.9 158.3,164.7 152.3,164.7 152.3,170 	"/>
</g>
<g>
	<path class="st5" d="M122.9,158.4v-5.5h-5.5v5.5H122.9z M117.3,164v-5.6h-5.6v-5.6h-5.6v-5.7h5.7v5.6h5.5v-5.6h5.7v5.6h5.6v5.6h5.6
		v5.7h-5.7v-5.6H123v5.6H117.3z"/>
</g>
<g>
	<path class="st5" d="M196.9,158.4v-5.5h-5.5v5.5H196.9z M191.3,164v-5.6h-5.6v-5.6h-5.6v-5.7h5.7v5.6h5.5v-5.6h5.7v5.6h5.6v5.6h5.6
		v5.7h-5.7v-5.6H197v5.6H191.3z"/>
</g>
<g>
	<path d="M321.3,142.8H15.1c-0.8,0-1.5-0.7-1.5-1.5s0.7-1.5,1.5-1.5h306.2c0.8,0,1.5,0.7,1.5,1.5S322.1,142.8,321.3,142.8z"/>
</g>
<g>
	<path d="M15.2,142.5c-0.7,0-1.3-0.4-1.5-1.1c-0.2-0.8,0.3-1.6,1.1-1.9l106.9-29.2c0.8-0.2,1.6,0.3,1.9,1.1c0.2,0.8-0.3,1.7-1.1,1.9
		L15.6,142.4C15.5,142.5,15.3,142.5,15.2,142.5z"/>
</g>
<g>
	<path d="M320.7,142.5c-0.1,0-0.3,0-0.4-0.1l-106.9-29.2c-0.8-0.2-1.3-1.1-1.1-1.9c0.2-0.8,1.1-1.3,1.9-1.1l106.9,29.2
		c0.8,0.2,1.3,1.1,1.1,1.9C322,142.1,321.4,142.5,320.7,142.5z"/>
</g>
<g>
	<path d="M212.7,112.9C212.7,112.9,212.7,112.9,212.7,112.9c-0.9,0-1.5-0.7-1.5-1.6c1.4-61.9-15.5-96.6-27.8-96.9
		c-0.1,0-0.1,0-0.2,0c-7.4,0-16.3,13.7-17.5,52.5c0,0.8-0.7,1.5-1.6,1.5c-0.8,0-1.5-0.7-1.5-1.6c1.1-34.8,8.7-55.4,20.5-55.4
		c0.1,0,0.2,0,0.3,0c8.1,0.2,16,10.3,21.9,27.6c6.4,18.9,9.5,44.6,8.9,72.5C214.2,112.3,213.6,112.9,212.7,112.9z"/>
</g>
<g>
	<path d="M122.1,112.5C122,112.5,122,112.5,122.1,112.5c-0.9,0-1.5-0.7-1.5-1.5c0.4-25.6,3.3-47,8.3-61.9
		c4.5-13.4,10.8-21.2,17.6-22.2c8.1-1.1,15.4,6.9,20,22.1c0.2,0.8-0.2,1.7-1,1.9c-0.8,0.2-1.7-0.2-1.9-1
		c-4.1-13.4-10.3-20.9-16.7-20c-11,1.6-22.5,27.2-23.3,81.1C123.6,111.9,122.9,112.5,122.1,112.5z"/>
</g>
<g>
	<path d="M213.2,113.6h-91.7c-0.8,0-1.5-0.7-1.5-1.5s0.7-1.5,1.5-1.5h91.7c0.8,0,1.5,0.7,1.5,1.5S214.1,113.6,213.2,113.6z"/>
</g>
<g>
	<path d="M123.4,98.2c-0.8,0-1.4-0.6-1.5-1.3c-0.1-0.8,0.5-1.6,1.3-1.7L210.8,85c0.8-0.1,1.6,0.5,1.7,1.3S212,88,211.1,88
		l-87.6,10.2C123.5,98.2,123.4,98.2,123.4,98.2z"/>
</g>
<g>
	<path d="M153,201.6c-1.9,0-3.3-0.4-4.4-1.1c-1-0.7-2.3-2.1-2.2-4.8c-0.8-8.8,0-18.7,2.3-30.4c0.2-0.8,1-1.4,1.8-1.2
		c0.8,0.2,1.4,1,1.2,1.8c-2.3,11.5-3,21.2-2.2,29.6c0,0.1,0,0.1,0,0.2c-0.1,1.5,0.4,2,0.8,2.3c4.3,2.9,22.5-5.4,29.6-8.6
		c2.9-2.8,2.8-5.4-0.3-8.8c-0.6-0.6-0.5-1.6,0.1-2.2c0.6-0.6,1.6-0.5,2.2,0.1c4.2,4.7,4.2,9.3-0.1,13.3c-0.1,0.1-0.3,0.2-0.4,0.3
		C167.1,198.6,158.3,201.6,153,201.6z"/>
</g>
<g>
	<path d="M129.1,215.6c-0.7,0-1.3-0.4-1.5-1.1c-0.2-0.8,0.3-1.6,1.1-1.9c23.7-6.4,48.7-10.1,76.6-11.2c0.8,0,1.6,0.6,1.6,1.5
		c0,0.8-0.6,1.6-1.5,1.6c-27.7,1.1-52.5,4.7-76,11.1C129.3,215.6,129.2,215.6,129.1,215.6z"/>
</g>
<g>
	<path d="M148,234.2c-8,0-15.8-0.3-23.5-0.8c-0.8-0.1-1.5-0.8-1.4-1.6s0.8-1.5,1.6-1.4c20.4,1.2,42.4,1.6,64.2-3.3
		c0.8-0.2,1.6,0.3,1.8,1.1s-0.3,1.6-1.1,1.8C175.6,233.2,161.6,234.2,148,234.2z"/>
</g>
<g>
	<path d="M179.2,238.4c-0.5,0-1-0.2-1.3-0.7c-0.5-0.7-0.3-1.6,0.4-2.1c17.8-12.3,27.6-28.3,30-49c0.1-0.8,0.9-1.4,1.7-1.3
		c0.8,0.1,1.4,0.9,1.3,1.7c-2.4,21.4-12.9,38.6-31.3,51.2C179.8,238.3,179.5,238.4,179.2,238.4z"/>
</g>
<g>
	<path d="M126.3,232.8c-0.1,0-0.2,0-0.4,0c-0.8-0.2-1.3-1-1.1-1.8l4.5-17.8c0.2-0.8,1-1.3,1.8-1.1c0.8,0.2,1.3,1,1.1,1.8l-4.5,17.8
		C127.6,232.4,127,232.8,126.3,232.8z"/>
</g>
<g>
	<path d="M129.1,222.6c-0.4,0-0.7-0.3-0.8-0.7c0-0.4,0.3-0.8,0.7-0.8l69.1-4.5c0.4,0,0.8,0.3,0.8,0.7c0,0.4-0.3,0.8-0.7,0.8
		L129.1,222.6C129.1,222.6,129.1,222.6,129.1,222.6z"/>
</g>
<g>
	<path d="M169.7,280.7c-0.8,0-1.4-0.6-1.5-1.4c-0.1-0.8,0.5-1.6,1.4-1.7c20.9-2.1,42.6-6.2,57-30l-10.5-81.3
		c-0.1-0.8,0.5-1.6,1.3-1.7c0.8-0.1,1.6,0.5,1.7,1.3l10.6,81.9c0,0.3,0,0.7-0.2,1c-15.2,25.4-37.8,29.7-59.6,31.9
		C169.8,280.7,169.8,280.7,169.7,280.7z"/>
</g>
<g>
	<path d="M158.2,285c-0.3,0-0.7,0-1,0c-3.9-0.3-7-2.3-8.9-5.6c-0.4-0.7-0.1-1.7,0.6-2.1c0.7-0.4,1.7-0.1,2.1,0.6
		c1.7,3,4.4,3.9,6.4,4c4.6,0.3,10.2-2.4,13.3-6.4c0.5-0.7,1.5-0.8,2.1-0.3c0.7,0.5,0.8,1.5,0.3,2.1C169.7,281.9,163.7,285,158.2,285
		z"/>
</g>
<g>
	<path d="M141.8,282.7c-5.6,0-10.6-1.9-12.5-6.8c-0.3-0.8,0.1-1.7,0.9-2c0.8-0.3,1.7,0.1,2,0.9c2,5.4,10.4,5.8,17.6,3.5
		c0.8-0.3,1.7,0.2,1.9,1s-0.2,1.7-1,1.9C147.8,282.1,144.7,282.7,141.8,282.7z"/>
</g>
<g>
	<path d="M131.9,278.5c-0.1,0-0.3,0-0.4-0.1c-18-5.1-35.7-17.6-34.5-33.9c0-0.1,0-0.2,0.1-0.3l16.6-58.3v-16.5
		c0-0.8,0.7-1.5,1.5-1.5s1.5,0.7,1.5,1.5v16.7c0,0.1,0,0.3-0.1,0.4L100,244.9c-0.9,14.5,15.6,25.8,32.3,30.6
		c0.8,0.2,1.3,1.1,1.1,1.9C133.1,278.1,132.5,278.5,131.9,278.5z"/>
</g>
<g>
	<path d="M227.9,199.6c-2.1,0-4.3-0.9-6.3-2.8c-0.6-0.6-0.7-1.5-0.1-2.2c0.6-0.6,1.5-0.7,2.2-0.1c2.5,2.3,4.9,2.6,7.3,0.9
		c6.7-4.7,11-22.1,7.5-30.6c-1.5-3.6-4-5-7.7-4.4c-0.8,0.1-1.6-0.4-1.8-1.2c-0.1-0.8,0.4-1.6,1.2-1.8c5.1-0.9,9.1,1.4,11.1,6.3
		c4,9.9-0.7,28.8-8.6,34.3C231.1,199,229.5,199.6,227.9,199.6z"/>
</g>
<g>
	<path d="M106.7,197.9c-1.6,0-3.2-0.5-4.8-1.6c-7.9-5.5-12.6-24.4-8.6-34.3c2-4.9,5.9-7.1,11.1-6.3c0.8,0.1,1.4,0.9,1.2,1.8
		c-0.1,0.8-0.9,1.4-1.8,1.2c-3.7-0.6-6.3,0.8-7.7,4.4c-3.5,8.5,0.8,26,7.5,30.6c2.4,1.7,4.8,1.4,7.3-0.9c0.6-0.6,1.6-0.5,2.2,0.1
		c0.6,0.6,0.5,1.6-0.1,2.2C111,197,108.9,197.9,106.7,197.9z"/>
</g>
<g>
	<path d="M231.1,190.1c-3,0-5.2-2.7-6.1-7.4c-1.4-7.3,0.6-18.6,6.9-20.6c0.8-0.3,1.7,0.2,1.9,1c0.3,0.8-0.2,1.7-1,1.9
		c-4.1,1.3-6,10.5-4.8,17.1c0.5,2.5,1.6,5,3.2,4.9c0.8-0.1,1.6,0.6,1.6,1.4c0.1,0.8-0.6,1.6-1.4,1.6
		C231.3,190.1,231.2,190.1,231.1,190.1z"/>
</g>
<g>
	<path d="M104.5,190.5C104.5,190.5,104.5,190.5,104.5,190.5c-0.9,0-1.6-0.7-1.6-1.5c0-0.8,0.7-1.5,1.5-1.5c0,0,0,0,0,0
		c1.7,0,2.6-2.6,2.9-5.1c0.9-6.7-1.6-15.8-5.7-16.8c-0.8-0.2-1.3-1-1.1-1.9c0.2-0.8,1-1.3,1.9-1.1c6.4,1.6,8.9,12.9,8,20.2
		C109.8,187.7,107.7,190.5,104.5,190.5z"/>
</g>
<g>
	<path d="M235.2,182.7c-0.8,0-1.5-0.7-1.5-1.5c-0.2-6.8-1.3-8.6-1.6-9c-0.2,0.2-0.8,0.7-1.6,2.4c-0.4,0.8-1.3,1.1-2,0.7
		c-0.8-0.4-1.1-1.3-0.7-2c1.8-3.9,3.7-4.4,5-4.1c2.6,0.5,3.8,4.4,4,12C236.8,182,236.1,182.7,235.2,182.7
		C235.3,182.7,235.3,182.7,235.2,182.7z"/>
</g>
<g>
	<path d="M106,183.3C106,183.3,106,183.3,106,183.3c-0.9,0-1.5-0.7-1.5-1.6c0.2-7.6,1.5-11.5,4-12c1.3-0.3,3.2,0.2,5,4.1
		c0.4,0.8,0,1.7-0.7,2c-0.8,0.4-1.7,0-2-0.7c-0.8-1.7-1.4-2.2-1.6-2.4c-0.3,0.4-1.4,2.2-1.6,9C107.5,182.6,106.9,183.3,106,183.3z"
		/>
</g>
<g>
	<path d="M151.9,248.4C151.9,248.4,151.9,248.4,151.9,248.4l-27.3-1.7c-5,0.3-9.3-2.9-10.2-7.6c-0.9-4.8,2-11.3,13.1-14.9
		c0.8-0.3,1.7,0.2,1.9,1c0.3,0.8-0.2,1.7-1,1.9c-9.2,3-11.7,7.9-11,11.4c0.6,3.2,3.6,5.3,7.1,5.1c0.1,0,0.1,0,0.2,0l27.3,1.7
		c0.8,0.1,1.5,0.8,1.4,1.6C153.4,247.8,152.7,248.4,151.9,248.4z"/>
</g>
<g>
	<path d="M222.3,322.5c-0.8,0-1.5-0.7-1.5-1.5v-64.3c0-0.8,0.7-1.5,1.5-1.5s1.5,0.7,1.5,1.5V321
		C223.9,321.9,223.2,322.5,222.3,322.5z"/>
</g>
<g>
	<path d="M130.4,324.2c-0.8,0-1.5-0.7-1.5-1.5v-45.2c0-0.8,0.7-1.5,1.5-1.5s1.5,0.7,1.5,1.5v45.2
		C131.9,323.5,131.2,324.2,130.4,324.2z"/>
</g>
<g>
	<path d="M175,497.2H66.4c-0.8,0-1.5-0.7-1.5-1.5s0.7-1.5,1.5-1.5H175c0.8,0,1.5,0.7,1.5,1.5S175.8,497.2,175,497.2z"/>
</g>
<g>
	<path d="M191.2,491.8c-0.8,0-1.5-0.7-1.5-1.5v-36.4c-35.2-48.7-54.8-93.5-63.7-145.3c-0.1-0.8,0.4-1.6,1.2-1.8
		c0.8-0.1,1.6,0.4,1.8,1.2c8.8,51.4,28.4,96,63.5,144.4c0.2,0.3,0.3,0.6,0.3,0.9v36.9C192.7,491.1,192.1,491.8,191.2,491.8z"/>
</g>
<g>
	<path class="st13" d="M139.4,429.3H80.8c-1,0-1.9-0.8-1.9-1.9s0.8-1.9,1.9-1.9h58.6c1,0,1.9,0.8,1.9,1.9S140.5,429.3,139.4,429.3z"
		/>
</g>
<g>
	<path d="M128.1,393c-0.5,0-0.9-0.2-1.2-0.6c-22.2-28.5-35-55.3-40.3-84.2c-0.1-0.7,0.2-1.3,0.8-1.6l41.8-21.1
		c0.8-0.4,1.7-0.1,2,0.7c0.4,0.8,0.1,1.7-0.7,2l-40.7,20.6c5.3,27.8,17.7,53.6,38.9,81l20.2-4.2c0.8-0.2,1.6,0.4,1.8,1.2
		c0.2,0.8-0.4,1.6-1.2,1.8l-21.1,4.4C128.3,393,128.2,393,128.1,393z"/>
</g>
<g>
	<path d="M189.9,467.7c-0.3,0-0.6-0.1-0.9-0.3c-23.6-17.3-42.9-40.9-57.2-70c-0.3-0.6-0.2-1.3,0.3-1.7l7-7.5
		c0.6-0.6,1.5-0.6,2.2-0.1c0.6,0.6,0.6,1.5,0.1,2.2L135,397c14,28.2,32.8,51.1,55.8,68c0.7,0.5,0.8,1.5,0.3,2.1
		C190.8,467.5,190.4,467.7,189.9,467.7z"/>
</g>
<g>
	<path d="M240.9,386.9C240.8,386.9,240.8,386.9,240.9,386.9l-21.6-1.3c-0.8-0.1-1.5-0.8-1.4-1.6c0.1-0.8,0.8-1.5,1.6-1.4l20.6,1.3
		c17.1-30.2,25.7-57.5,27-85.7l-43.3-14.6c-0.8-0.3-1.2-1.1-1-1.9s1.1-1.2,1.9-1l44.3,14.9c0.6,0.2,1.1,0.8,1,1.5
		c-1.1,29.4-10,57.7-27.9,89.1C241.9,386.6,241.4,386.9,240.9,386.9z"/>
</g>
<g>
	<path d="M191.5,469.5c-0.4,0-0.8-0.2-1.1-0.5c-0.6-0.6-0.6-1.6,0-2.2c20.3-20,35.7-45.3,45.5-75.2l-7.2-5.7
		c-0.7-0.5-0.8-1.5-0.2-2.1c0.5-0.7,1.5-0.8,2.1-0.2l8,6.4c0.5,0.4,0.7,1.1,0.5,1.7c-10,30.9-25.7,56.9-46.6,77.5
		C192.2,469.4,191.8,469.5,191.5,469.5z"/>
</g>
<g>
	<path d="M191.6,455.8c-0.3,0-0.5-0.1-0.8-0.2c-0.7-0.4-0.9-1.3-0.5-2c21.2-34.8,32.5-84.4,33.5-147.5c0-0.8,0.7-1.4,1.5-1.5
		c0.8,0,1.5,0.7,1.5,1.5c-1.1,63.6-12.5,113.8-34,149C192.6,455.6,192.1,455.8,191.6,455.8z"/>
</g>
<g>
	<path d="M180.7,355.6c-0.7,0-1.3-0.4-1.4-1.1l-3.3-13.4l-46.8-21.2c-0.7-0.3-1.1-1.2-0.7-2c0.3-0.7,1.2-1.1,2-0.7l47.5,21.5
		c0.4,0.2,0.7,0.6,0.8,1l3.5,14.1c0.2,0.8-0.3,1.6-1.1,1.8C180.9,355.6,180.8,355.6,180.7,355.6z"/>
</g>
<g>
	<path d="M189.9,354.7c-0.1,0-0.2,0-0.4,0c-0.8-0.2-1.3-1-1.1-1.8l3.5-14.5c0.1-0.4,0.3-0.7,0.7-0.9l30.3-18c0.7-0.4,1.6-0.2,2,0.5
		c0.4,0.7,0.2,1.6-0.5,2l-29.8,17.7l-3.4,13.9C191.2,354.2,190.6,354.7,189.9,354.7z"/>
</g>
<g>
	<path class="st16" d="M161.2,361.7c-2.9,15-1.6,23.3,10.7,16.6l9.6-7.3l7.8-0.1c11.2,9.5,20.9,15.8,22.1,2.3
		c0.2-3.5-0.1-6.9-1-10.4c2-10.4,3-19.7-6.3-18.4c-5.7,2.2-10.7,5.6-15.3,10.4l-7.8-1c-10.1-7.9-20.3-16.4-21-1.3L161.2,361.7z"/>
</g>
<g>
	<path d="M165.2,382.4c-2.2,0-4-0.8-5.2-2.4c-2.4-3.1-2.5-8.8-0.3-17.1c0-0.1,0.1-0.3,0.2-0.4c-0.1-0.1-0.1-0.3-0.2-0.4
		c-2.2-8.3-2.1-14,0.3-17.1c1.2-1.6,3-2.4,5.2-2.4c5.3,0,12.8,4.8,20.6,13.3c7.8-8.5,15.3-13.3,20.6-13.3c2.2,0,4,0.8,5.2,2.4
		c2.4,3.1,2.5,8.8,0.3,17.1c0,0.1-0.1,0.3-0.2,0.4c0.1,0.1,0.1,0.3,0.2,0.4c2.2,8.3,2.1,14-0.3,17.1c-1.2,1.6-3,2.4-5.2,2.4
		c-5.3,0-12.8-4.8-20.6-13.3C178,377.6,170.5,382.4,165.2,382.4z M162.5,362.5C162.5,362.5,162.5,362.5,162.5,362.5
		c0.2,0.4,0.3,0.8,0.2,1.2c-2.5,9.5-1.2,13.1-0.2,14.4c0.6,0.8,1.5,1.2,2.8,1.2c4.3,0,11.4-4.8,18.4-12.5c0.3-0.3,0.7-0.5,1.1-0.5
		c0.4,0,0.7,0.1,1,0.3c0.3-0.2,0.6-0.3,1-0.3c0.4,0,0.8,0.2,1.1,0.5c7.1,7.7,14.2,12.5,18.4,12.5c1.2,0,2.1-0.4,2.8-1.2
		c1-1.3,2.3-4.9-0.2-14.4c-0.1-0.4,0-0.8,0.2-1.2c0,0,0,0,0,0c-0.2-0.3-0.3-0.8-0.2-1.2c2.5-9.5,1.2-13.1,0.2-14.4
		c-0.6-0.8-1.5-1.2-2.8-1.2c-4.3,0-11.4,4.8-18.4,12.5c-0.3,0.3-0.7,0.5-1.1,0.5c-0.4,0-0.7-0.1-1-0.3c-0.3,0.2-0.6,0.3-1,0.3
		c-0.4,0-0.8-0.2-1.1-0.5c-7.1-7.7-14.1-12.5-18.4-12.5c-1.2,0-2.1,0.4-2.8,1.2c-1,1.3-2.3,4.9,0.2,14.4
		C162.8,361.7,162.7,362.1,162.5,362.5C162.5,362.5,162.5,362.5,162.5,362.5z"/>
</g>
<g>
	<path class="st16" d="M182.6,353.2c4.3-1.9,8.9,0.9,10.4,6.2c1.5,5.3-0.7,11.1-5,13c-4.3,1.9-8.9-0.9-10.4-6.2
		C176.1,360.9,178.3,355.1,182.6,353.2z"/>
</g>
<g>
	<path d="M185.3,374.4c-4.2,0-7.8-3.2-9.2-7.9c-1.7-6,0.9-12.6,5.8-14.8c1.1-0.5,2.2-0.7,3.3-0.7c4.2,0,7.8,3.2,9.2,7.9
		c1.7,6-0.9,12.6-5.8,14.8C187.6,374.2,186.5,374.4,185.3,374.4z M185.3,354.1c-0.7,0-1.4,0.2-2.1,0.5c-3.6,1.6-5.4,6.6-4.1,11.1
		c1,3.4,3.5,5.7,6.3,5.7c0.7,0,1.4-0.2,2.1-0.5c3.6-1.6,5.4-6.6,4.1-11.1C190.6,356.4,188.1,354.1,185.3,354.1z"/>
</g>
<g>
	<path d="M186.1,447.5c-0.8,0-1.5-0.7-1.5-1.5l-1.1-71.4c0-0.8,0.7-1.5,1.5-1.5c0,0,0,0,0,0c0.8,0,1.5,0.7,1.5,1.5l1.1,71.4
		C187.6,446.8,186.9,447.5,186.1,447.5C186.1,447.5,186.1,447.5,186.1,447.5z"/>
</g>
<g>
	<path d="M145.4,372.7c-0.3,0-0.5-0.1-0.8-0.2c-0.7-0.4-1-1.3-0.6-2.1l19.9-35c0.4-0.7,1.3-1,2.1-0.6c0.7,0.4,1,1.3,0.6,2.1
		l-19.9,35C146.4,372.5,145.9,372.7,145.4,372.7z"/>
</g>
<g>
	<path d="M220.9,362.4c-0.5,0-1-0.2-1.3-0.7l-18.3-26.9c-0.5-0.7-0.3-1.6,0.4-2.1c0.7-0.5,1.6-0.3,2.1,0.4l18.3,26.9
		c0.5,0.7,0.3,1.6-0.4,2.1C221.5,362.3,221.2,362.4,220.9,362.4z"/>
</g>
<g>
	<path d="M67.2,501.3c-0.8,0-1.5-0.7-1.5-1.5c-0.9-58.3-8.7-103.5-24.5-142.3c-0.3-0.8,0.1-1.7,0.8-2c0.8-0.3,1.7,0.1,2,0.8
		c15.9,39.2,23.7,84.8,24.7,143.4C68.7,500.6,68,501.2,67.2,501.3C67.2,501.3,67.2,501.3,67.2,501.3z"/>
</g>
<g>
	<path d="M51.3,571c-5.5,0-11.1-0.6-17-1.8c-0.5-0.1-1-0.5-1.1-1c-22.3-61.6-26-119.3-25.3-156.9c0.9-43.6,7.8-73.7,11-81.4
		c0.2-0.5,0.7-0.9,1.2-0.9l24.5-3.4L88.4,312c0.8-0.3,1.7,0.2,1.9,1s-0.2,1.7-1,1.9l-44,13.7c-0.1,0-0.2,0-0.2,0.1l-23.7,3.3
		c-3.2,8.5-9.6,38.2-10.5,79.5c-0.8,37.1,2.9,94.1,24.8,155c11.1,2.1,21.1,2,31.1-0.2c0.8-0.2,1.6,0.3,1.8,1.2s-0.3,1.6-1.2,1.8
		C62.1,570.4,56.8,571,51.3,571z"/>
</g>
<g>
	<path d="M65.3,462.3c0,0-0.1,0-0.1,0c-0.8-0.1-1.5-0.8-1.4-1.6c3.8-46.7-3.1-90.7-20.5-130.7c-0.3-0.8,0-1.7,0.8-2
		c0.8-0.3,1.7,0,2,0.8c17.6,40.5,24.5,84.9,20.7,132.2C66.7,461.7,66.1,462.3,65.3,462.3z"/>
</g>
<g>
	<path d="M194.1,506.4c-0.6,0-1.1-0.3-1.4-0.9c-0.4-0.8,0-1.7,0.7-2c14.2-6.8,18-14.7,18-18c0-0.7-0.2-1.7-1-2.1
		c-1.1-0.5-3.5-0.1-6.8,2.6c-0.1,0.1-0.2,0.1-0.3,0.2L177,498.8c-0.8,0.4-1.7,0-2-0.7c-0.4-0.8,0-1.7,0.7-2l26.1-12.5
		c3.8-3,7.3-4.1,9.9-2.9c1.7,0.8,2.7,2.6,2.7,4.8c0,5.6-6.1,14.2-19.7,20.7C194.5,506.4,194.3,506.4,194.1,506.4z"/>
</g>
<g>
	<path d="M248.7,530.4c-0.3,0-0.6,0-1,0l-45.8-4.6c-0.8-0.1-1.4-0.8-1.4-1.7c0.1-0.8,0.8-1.4,1.7-1.4l45.7,4.6
		c4.8,0.2,7.9-1.3,8.1-3.9c0.1-2.5-2.5-5.3-6.6-5.6c-0.1,0-0.1,0-0.2,0l-63.4-12c-0.8-0.2-1.4-1-1.2-1.8s0.9-1.4,1.8-1.2l63.4,12
		c6.1,0.5,9.6,5,9.3,8.9C258.8,527,256,530.4,248.7,530.4z"/>
</g>
<g>
	<path d="M250.6,551.7c-0.9,0-1.9,0-2.9-0.1c0,0-0.1,0-0.1,0l-46.3-8c-0.8-0.1-1.4-0.9-1.2-1.8c0.1-0.8,0.9-1.4,1.8-1.2l46.2,8
		c5.6,0.5,7.9-0.6,8.3-1.7c0.5-1.4-1.3-4.2-4.6-6.2l-56.4-15.9c-0.8-0.2-1.3-1.1-1.1-1.9c0.2-0.8,1.1-1.3,1.9-1.1l56.6,16
		c0.1,0,0.3,0.1,0.4,0.2c3.7,2.3,7.2,6.3,6.1,9.9C258.3,550.4,255.5,551.7,250.6,551.7z"/>
</g>
<g>
	<path d="M242.3,574.8c-1,0-2.2-0.1-3.4-0.4c-0.1,0-0.1,0-0.2,0l-45.2-15.4c-0.8-0.3-1.2-1.1-0.9-1.9c0.3-0.8,1.1-1.2,1.9-0.9
		l45.1,15.4c4.3,0.9,6.8-0.3,7.4-1.8c0.6-1.5-0.4-4-3.9-6.2l-46.2-20.5c-0.8-0.3-1.1-1.2-0.8-2c0.3-0.8,1.2-1.1,2-0.8l46.3,20.6
		c0.1,0,0.1,0.1,0.2,0.1c4.5,2.7,6.6,6.6,5.3,10C249,572.7,246.6,574.8,242.3,574.8z"/>
</g>
<g>
	<path d="M225.5,590.4c-1.3,0-2.8-0.2-4.4-0.6c-0.1,0-0.2-0.1-0.3-0.1l-46.3-23.4c-0.8-0.4-1.1-1.3-0.7-2s1.3-1.1,2-0.7l46.2,23.4
		c4.6,1.2,7.3,0,7.9-1.7c0.7-2-1-5-5.6-6.9c-0.1,0-0.2-0.1-0.2-0.1l-32-20.6c-0.7-0.5-0.9-1.4-0.5-2.1c0.5-0.7,1.4-0.9,2.1-0.5
		l31.9,20.5c6.5,2.8,8.3,7.4,7.2,10.6C232,588.3,229.7,590.4,225.5,590.4z"/>
</g>
<g>
	<path d="M267.1,679.6c-0.8,0-1.5-0.6-1.5-1.5c-4.7-105.2,3.8-197.9,26.2-283.4c0.2-0.8,1-1.3,1.9-1.1c0.8,0.2,1.3,1,1.1,1.9
		c-22.3,85.2-30.8,177.7-26.1,282.5C268.6,678.9,268,679.6,267.1,679.6C267.1,679.6,267.1,679.6,267.1,679.6z"/>
</g>
<g>
	<path d="M335.2,456.1c-0.6,0-1.2-0.4-1.4-1c-14.9-40.1-27.8-84.8-39.3-136.5l-28.4-10c-0.8-0.3-1.2-1.1-0.9-1.9s1.1-1.2,1.9-0.9
		l29.1,10.3c0.5,0.2,0.9,0.6,1,1.1c11.6,52,24.5,96.8,39.4,137c0.3,0.8-0.1,1.7-0.9,2C335.6,456.1,335.4,456.1,335.2,456.1z"/>
</g>
<g>
	<path d="M322.7,529.8c-0.6,0-1.2-0.4-1.4-1l-36-100.6c-0.3-0.8,0.1-1.7,0.9-1.9c0.8-0.3,1.7,0.1,1.9,0.9l36,100.6
		c0.3,0.8-0.1,1.7-0.9,1.9C323,529.8,322.8,529.8,322.7,529.8z"/>
</g>
<g>
	<path d="M347.7,571.7c-3.1,0-6-0.4-8.8-1.3c-10.2-3.2-20.1-13.5-17.2-32.6c6.4-64.7,20.2-121.9,32.6-170.5c0.2-0.8,1-1.3,1.9-1.1
		c0.8,0.2,1.3,1,1.1,1.9c-12.4,48.4-26.1,105.5-32.5,170.1c-2.3,14.7,3.4,25.6,15.1,29.3c11.5,3.6,27.5-1,34.6-15.1
		c15.5-57.2,27.6-116.7,35.9-176.8c0.1-0.8,0.9-1.4,1.7-1.3c0.8,0.1,1.4,0.9,1.3,1.7c-8.4,60.4-20.5,120-36,177.4
		c0,0.1-0.1,0.2-0.1,0.3C371.1,565.8,358.8,571.7,347.7,571.7z"/>
</g>
<g>
	<path d="M412,373.4c-0.1,0-0.1,0-0.2,0l-56.9-7.2c-0.8-0.1-1.4-0.9-1.3-1.7c0.1-0.8,0.9-1.4,1.7-1.3l56.9,7.2
		c0.8,0.1,1.4,0.9,1.3,1.7C413.5,372.8,412.8,373.4,412,373.4z"/>
</g>
<g>
	<path d="M404.6,415c-0.1,0-0.1,0-0.2,0l-56.9-7.2c-0.8-0.1-1.4-0.9-1.3-1.7s0.9-1.4,1.7-1.3l56.9,7.2c0.8,0.1,1.4,0.9,1.3,1.7
		C406,414.4,405.4,415,404.6,415z"/>
</g>
<g>
	<path d="M353.6,369.2c-0.5,0-0.9-0.2-1.2-0.6l-10.9-15.7l-29.7-15.2c-0.3-0.2-0.6-0.5-0.7-0.8c-0.6-1.8-0.1-3,0.5-3.7
		c2.7-3.5,12.4-3,29.4-1.7c0.5,0,0.9,0.3,1.2,0.8c5,9.1,13.5,14.1,38.4,9.1l47.7-11.4c0.8-0.2,1.6,0.3,1.8,1.1
		c0.2,0.8-0.3,1.6-1.1,1.8l-47.8,11.4c-22.4,4.5-34.4,1.6-41.2-9.9c-11-0.8-24.2-1.7-26,0.7c0,0.1-0.1,0.2-0.1,0.4l29.4,15.1
		c0.2,0.1,0.4,0.3,0.5,0.5l11.1,16c0.5,0.7,0.3,1.6-0.4,2.1C354.2,369.1,353.9,369.2,353.6,369.2z"/>
</g>
<g>
	<path d="M532.2,332.1H297.7v-9.3h234.6V332.1z M300.7,329h228.5v-3.2H300.7V329z"/>
</g>
<g>
	<path d="M412.7,371.7c-0.4,0-0.7-0.1-1-0.4c-0.6-0.6-0.7-1.5-0.1-2.2c15.7-17.1,40.4-29.8,69.4-35.9l2.6-0.5
		c5.5-1.1,10.3-2.1,10.8-3.4c0.1-0.2,0.2-1-1.2-2.8c-0.5-0.7-0.3-1.6,0.4-2.1c0.7-0.5,1.6-0.3,2.1,0.4c1,1.5,2.3,3.7,1.5,5.7
		c-1.1,2.9-5.4,3.7-13.1,5.3l-2.5,0.5c-28.4,5.9-52.5,18.3-67.8,35C413.5,371.5,413.1,371.7,412.7,371.7z"/>
</g>
<g>
	<path d="M420.1,345.4c-0.5,0-1-0.2-1.3-0.7c-0.5-0.7-0.3-1.6,0.4-2.1c17.3-11.4,32.2-15.3,53.8-18.5c0.8-0.1,1.6,0.4,1.7,1.3
		c0.1,0.8-0.4,1.6-1.3,1.7c-21.6,3.2-35.7,6.9-52.5,18.1C420.7,345.3,420.4,345.4,420.1,345.4z"/>
</g>
<g>
	<path d="M412.1,339.7c-0.6,0-1.1-0.3-1.4-0.9c-0.3-0.8,0-1.7,0.8-2c18.3-8,30.1-10.9,45.2-11c0.9,0,1.5,0.7,1.5,1.5
		c0,0.8-0.7,1.5-1.5,1.5c-14.6,0.1-26.1,2.9-44,10.7C412.5,339.7,412.3,339.7,412.1,339.7z"/>
</g>
<g>
	<path d="M427,351.1c-0.4,0-0.7-0.1-1-0.4c-9.8-9.2-18.6-14.2-26-15c-0.8-0.1-1.4-0.8-1.4-1.7c0.1-0.8,0.9-1.4,1.7-1.4
		c8.2,0.9,17.3,6.1,27.7,15.8c0.6,0.6,0.6,1.5,0.1,2.2C427.8,351,427.4,351.1,427,351.1z"/>
</g>
<g>
	<path d="M383.8,360.2c-0.2,0-0.3,0-0.5-0.1c-0.8-0.3-1.2-1.1-1-1.9c1.7-4.9,1.6-8.5-0.1-10.9c-3.3-4.5-12.5-4.9-20.1-4.8
		c0,0,0,0,0,0c-0.8,0-1.5-0.7-1.5-1.5c0-0.8,0.7-1.5,1.5-1.5c8.9-0.1,18.6,0.5,22.6,6.1c2.4,3.3,2.6,7.8,0.6,13.7
		C385,359.8,384.4,360.2,383.8,360.2z"/>
</g>
<g>
	<path d="M406.2,178.5h-46.9c-0.8,0-1.5-0.7-1.5-1.5s0.7-1.5,1.5-1.5h46.9c0.8,0,1.5,0.7,1.5,1.5S407.1,178.5,406.2,178.5z"/>
</g>
<g>
	<path d="M380.3,277.1c-0.3,0-0.5-0.1-0.8-0.2c-0.7-0.4-1-1.4-0.5-2.1c16-26.8,23.4-58.3,22.6-96.2c0-0.8,0.7-1.5,1.5-1.6
		c0.9,0,1.5,0.7,1.6,1.5c0.8,38.5-6.7,70.5-23,97.8C381.3,276.9,380.8,277.1,380.3,277.1z"/>
</g>
<g>
	<path d="M378.8,277.1c-0.5,0-1-0.3-1.3-0.7c-16.3-27.3-23.8-59.3-23-97.8c0-0.8,0.7-1.5,1.6-1.5c0.8,0,1.5,0.7,1.5,1.6
		c-0.8,37.9,6.6,69.4,22.6,96.2c0.4,0.7,0.2,1.7-0.5,2.1C379.3,277.1,379,277.1,378.8,277.1z"/>
</g>
<g>
	<path d="M398.5,226.6h-37.7c-0.8,0-1.5-0.7-1.5-1.5s0.7-1.5,1.5-1.5h37.7c0.8,0,1.5,0.7,1.5,1.5S399.4,226.6,398.5,226.6z"/>
</g>
<g>
	<path d="M379.7,313.7c-0.8,0-1.5-0.7-1.5-1.5v-35.5c0-0.8,0.7-1.5,1.5-1.5s1.5,0.7,1.5,1.5v35.5C381.2,313,380.5,313.7,379.7,313.7
		z"/>
</g>
<g>
	<path d="M395.2,322.5c-0.2,0-0.5-0.1-0.7-0.2l-14.8-7.7l-15.9,6.7c-0.8,0.3-1.7,0-2-0.8c-0.3-0.8,0-1.7,0.8-2l16.6-6.9
		c0.4-0.2,0.9-0.2,1.3,0.1l15.4,8.1c0.7,0.4,1,1.3,0.6,2.1C396.3,322.2,395.8,322.5,395.2,322.5z"/>
</g>
<g>
	<path d="M448,281.1c-0.2,0-0.4,0-0.6-0.1L392.9,257c-0.8-0.3-1.1-1.2-0.8-2c0.3-0.8,1.2-1.1,2-0.8l53.8,23.6l55.9-27.6
		c0.8-0.4,1.7-0.1,2,0.7c0.4,0.8,0.1,1.7-0.7,2l-56.6,27.9C448.4,281,448.2,281.1,448,281.1z"/>
</g>
<g>
	<path d="M504,252.9H394.8c-0.8,0-1.5-0.7-1.5-1.5s0.7-1.5,1.5-1.5H504c0.8,0,1.5,0.7,1.5,1.5S504.8,252.9,504,252.9z"/>
</g>
<g>
	<path d="M481.1,264.9h-69.7c-0.8,0-1.5-0.7-1.5-1.5s0.7-1.5,1.5-1.5h69.7c0.8,0,1.5,0.7,1.5,1.5S481.9,264.9,481.1,264.9z"/>
</g>
<g>
	<path d="M448,312.6c-0.8,0-1.5-0.7-1.5-1.5v-31.5c0-0.8,0.7-1.5,1.5-1.5s1.5,0.7,1.5,1.5V311C449.6,311.9,448.9,312.6,448,312.6z"
		/>
</g>
<g>
	<path d="M463.6,320.4c-0.2,0-0.5,0-0.7-0.2l-14.8-7.3l-15.9,7.2c-0.8,0.3-1.7,0-2-0.8s0-1.7,0.8-2l16.6-7.5c0.4-0.2,0.9-0.2,1.3,0
		l15.4,7.6c0.8,0.4,1.1,1.3,0.7,2C464.7,320,464.2,320.4,463.6,320.4z"/>
</g>
<g>
	<path d="M326.8,324c-0.7,0-1.4-0.6-1.5-1.3l-5.2-37.4c-0.1-0.8,0.5-1.6,1.3-1.7c0.8-0.1,1.6,0.5,1.7,1.3l5.2,37.4
		c0.1,0.8-0.5,1.6-1.3,1.7C327,324,326.9,324,326.8,324z"/>
</g>
<g>
	<path d="M348.6,324c-0.1,0-0.1,0-0.2,0c-0.8-0.1-1.4-0.9-1.3-1.7l5.2-37.4c0.1-0.8,0.9-1.4,1.7-1.3c0.8,0.1,1.4,0.9,1.3,1.7
		l-5.2,37.4C350,323.5,349.3,324,348.6,324z"/>
</g>
<g>
	<path d="M353.4,286.5h-30.9c-0.8,0-1.5-0.7-1.5-1.5s0.7-1.5,1.5-1.5h30.9c0.8,0,1.5,0.7,1.5,1.5S354.2,286.5,353.4,286.5z"/>
</g>
<g>
	<path d="M350.5,299.6h-26.9c-0.8,0-1.5-0.7-1.5-1.5s0.7-1.5,1.5-1.5h26.9c0.8,0,1.5,0.7,1.5,1.5S351.4,299.6,350.5,299.6z"/>
</g>
<g>
	<path d="M458.4,260.3c-3.2,0-6.2-1.5-8.1-4c-1.6-2.2-2.3-4.8-1.9-7.5c0.4-2.7,1.8-5,3.9-6.6c1.8-1.3,3.9-2,6.1-2
		c3.2,0,6.2,1.5,8.1,4c1.6,2.2,2.3,4.8,1.9,7.5c-0.4,2.7-1.8,5-3.9,6.6C462.7,259.6,460.6,260.3,458.4,260.3z M458.4,243.1
		c-1.5,0-3,0.5-4.2,1.4c-1.5,1.1-2.5,2.8-2.8,4.6c-0.3,1.9,0.2,3.7,1.3,5.2c1.3,1.8,3.4,2.8,5.6,2.8c1.5,0,3-0.5,4.2-1.4
		c1.5-1.1,2.5-2.8,2.7-4.6c0.3-1.9-0.2-3.7-1.3-5.2C462.7,244.1,460.6,243.1,458.4,243.1z"/>
</g>
<g>
	<path d="M461.2,243.7C461.2,243.7,461.2,243.7,461.2,243.7c-0.8,0-1.5-0.7-1.5-1.5c0-5.7,1.1-13.7,10.6-18.5c0.8-0.4,1.7-0.1,2,0.7
		s0.1,1.7-0.7,2c-6.2,3.1-8.9,7.9-8.9,15.8C462.8,243,462.1,243.7,461.2,243.7z"/>
</g>
<g>
	<circle class="st5" cx="364.1" cy="385.9" r="6.4"/>
</g>
<g>
	<path d="M364.1,393.4c-2.4,0-4.6-1.1-6-3c-1.2-1.6-1.7-3.6-1.4-5.6c0.3-2,1.3-3.7,2.9-5c1.3-1,2.9-1.5,4.5-1.5c2.4,0,4.6,1.1,6,3
		c1.2,1.6,1.7,3.6,1.4,5.6c-0.3,2-1.3,3.7-2.9,5C367.3,392.9,365.7,393.4,364.1,393.4z M364.1,380.6c-1.1,0-2.2,0.4-3.1,1
		c-1.1,0.8-1.9,2.1-2,3.5c-0.2,1.4,0.2,2.8,1,3.9c1,1.3,2.5,2.1,4.2,2.1c1.1,0,2.2-0.4,3.1-1.1c1.1-0.8,1.9-2.1,2-3.5
		c0.2-1.4-0.2-2.8-1-3.9C367.3,381.4,365.8,380.6,364.1,380.6z"/>
</g>
<g>
	<path d="M56.6,679.8c-0.4,0-0.8-0.2-1.1-0.5c-0.3-0.3-0.4-0.7-0.4-1.1c1.3-42.8-4.1-74-12.5-107.8c-0.2-0.8,0.3-1.6,1.1-1.8
		c0.8-0.2,1.6,0.3,1.8,1.1c8.4,33.6,13.8,64.8,12.7,107.1l7.7,0c0.8,0,1.5,0.7,1.5,1.5s-0.7,1.5-1.5,1.5H56.6z"/>
</g>
<g>
	<path d="M277.2,466.4c-0.7,0-1.4-0.5-1.5-1.3c-6.4-43-1.9-113.7,15-150.6c0.4-0.8,1.3-1.1,2-0.8c0.8,0.4,1.1,1.3,0.8,2
		c-16.7,36.4-21.1,106.3-14.7,148.9c0.1,0.8-0.5,1.6-1.3,1.7C277.3,466.4,277.3,466.4,277.2,466.4z"/>
</g>
<g>
	<rect x="299.2" y="324.3" class="st17" width="231.5" height="6.3"/>
</g>
<g>
	<path d="M193.4,361.2c-0.7,0-1.4-0.5-1.5-1.3c-0.1-0.8,0.4-1.6,1.2-1.8l8.4-1.4c0.8-0.1,1.6,0.4,1.8,1.2s-0.4,1.6-1.2,1.8l-8.4,1.4
		C193.5,361.2,193.4,361.2,193.4,361.2z"/>
</g>
<g>
	<path d="M202,369.6c-0.1,0-0.2,0-0.2,0l-8.4-1.4c-0.8-0.1-1.4-0.9-1.3-1.8c0.1-0.8,0.9-1.4,1.8-1.3l8.4,1.4
		c0.8,0.1,1.4,0.9,1.3,1.8C203.4,369.1,202.8,369.6,202,369.6z"/>
</g>
<g>
	<path d="M177,361.2c-0.1,0-0.2,0-0.3,0l-8.4-1.4c-0.8-0.1-1.4-0.9-1.2-1.8c0.1-0.8,0.9-1.4,1.8-1.2l8.4,1.4
		c0.8,0.1,1.4,0.9,1.2,1.8C178.4,360.7,177.7,361.2,177,361.2z"/>
</g>
<g>
	<path d="M168.3,369.6c-0.7,0-1.4-0.5-1.5-1.3c-0.1-0.8,0.4-1.6,1.3-1.8l8.4-1.4c0.8-0.1,1.6,0.4,1.8,1.3c0.1,0.8-0.4,1.6-1.3,1.8
		l-8.4,1.4C168.5,369.6,168.4,369.6,168.3,369.6z"/>
</g>
<g>
	<circle class="st5" cx="194" cy="384" r="3.7"/>
</g>
<g>
	<path d="M194,388.5c-2,0-3.8-1.4-4.3-3.3c-0.6-2.4,0.8-4.8,3.1-5.4c0.4-0.1,0.8-0.2,1.1-0.2c2,0,3.8,1.4,4.3,3.3
		c0.6,2.4-0.8,4.8-3.1,5.4C194.7,388.4,194.3,388.5,194,388.5z M194,381.1c-0.3,0-0.5,0-0.8,0.1c-1.6,0.4-2.5,2-2.1,3.6
		c0.4,1.5,2,2.5,3.6,2.1c1.6-0.4,2.5-2,2.1-3.6C196.5,382,195.3,381.1,194,381.1z"/>
</g>
<g>
	<circle class="st5" cx="194" cy="406.9" r="3.7"/>
</g>
<g>
	<path d="M194,411.4c-2,0-3.8-1.4-4.3-3.3c-0.6-2.4,0.8-4.8,3.1-5.4c0.4-0.1,0.8-0.2,1.1-0.2c2,0,3.8,1.4,4.3,3.3
		c0.6,2.4-0.8,4.8-3.1,5.4C194.7,411.3,194.3,411.4,194,411.4z M194,404c-0.3,0-0.5,0-0.8,0.1c-1.6,0.4-2.5,2-2.1,3.6
		c0.4,1.5,2.1,2.5,3.6,2.1c1.6-0.4,2.5-2,2.1-3.6C196.5,404.9,195.3,404,194,404z"/>
</g>
<g>
	<circle class="st5" cx="194" cy="431" r="3.7"/>
</g>
<g>
	<path d="M194,435.4c-2,0-3.8-1.4-4.3-3.3c-0.6-2.4,0.8-4.8,3.1-5.4c0.4-0.1,0.8-0.2,1.1-0.2c2,0,3.8,1.4,4.3,3.3
		c0.6,2.4-0.8,4.8-3.1,5.4C194.7,435.4,194.3,435.4,194,435.4z M194,428.1c-0.3,0-0.5,0-0.8,0.1c-1.6,0.4-2.5,2-2.1,3.6
		c0.4,1.5,2,2.5,3.6,2.1c1.6-0.4,2.5-2,2.1-3.6C196.5,429,195.3,428.1,194,428.1z"/>
</g>
<g>
	<rect x="87.1" y="381.6" class="st10" width="8.7" height="42.7"/>
</g>
<g>
	<path d="M96.8,425.4H86v-44.8h10.8V425.4z M88.1,423.3h6.6v-40.6h-6.6V423.3z"/>
</g>
<g>
	<circle class="st5" cx="91.4" cy="381.5" r="4.3"/>
</g>
<g>
	<path d="M91.4,386.8c-2.4,0-4.5-1.6-5.1-3.8c-0.4-1.4-0.3-2.8,0.4-4.1c0.7-1.3,1.8-2.2,3.2-2.6c0.5-0.1,1-0.2,1.5-0.2
		c2.4,0,4.5,1.6,5.1,3.8c0.8,2.8-0.8,5.8-3.6,6.7C92.4,386.7,91.9,386.8,91.4,386.8z M91.4,378.2c-0.3,0-0.6,0-0.9,0.1
		c-0.8,0.2-1.5,0.8-1.9,1.6c-0.4,0.8-0.5,1.6-0.3,2.5c0.5,1.7,2.3,2.7,4,2.2c0.8-0.2,1.5-0.8,1.9-1.6s0.5-1.6,0.3-2.5
		C94.1,379.2,92.8,378.2,91.4,378.2z"/>
</g>
<g>
	<circle cx="91.4" cy="381.5" r="1.5"/>
</g>
<g>
	<rect x="95.9" y="392" class="st0" width="8.7" height="32.5"/>
</g>
<g>
	<path d="M105.6,425.5H94.8v-34.6h10.8V425.5z M96.9,423.4h6.6V393h-6.6V423.4z"/>
</g>
<g>
	<circle class="st5" cx="100.2" cy="391.8" r="4.3"/>
</g>
<g>
	<path d="M100.2,397.2c-2.4,0-4.5-1.6-5.1-3.8c-0.8-2.8,0.8-5.8,3.6-6.7c0.5-0.1,1-0.2,1.5-0.2c2.4,0,4.5,1.6,5.1,3.8
		c0.8,2.8-0.8,5.8-3.6,6.7C101.2,397.1,100.7,397.2,100.2,397.2z M100.2,388.6c-0.3,0-0.6,0-0.9,0.1c-1.7,0.5-2.7,2.3-2.2,4
		c0.5,1.7,2.3,2.7,4,2.2c1.7-0.5,2.7-2.3,2.2-4C102.9,389.5,101.6,388.6,100.2,388.6z"/>
</g>
<g>
	<circle cx="100.2" cy="391.8" r="1.5"/>
</g>
<g>
	<rect x="104.7" y="400.8" class="st11" width="8.7" height="23.6"/>
</g>
<g>
	<path d="M114.5,425.5h-10.8v-25.8h10.8V425.5z M105.8,423.4h6.6v-21.5h-6.6V423.4z"/>
</g>
<g>
	<circle class="st5" cx="109.1" cy="400.7" r="4.3"/>
</g>
<g>
	<path d="M109.1,406c-2.4,0-4.5-1.6-5.1-3.8c-0.4-1.4-0.3-2.8,0.4-4.1c0.7-1.3,1.8-2.2,3.2-2.6c0.5-0.1,1-0.2,1.5-0.2
		c2.4,0,4.5,1.6,5.1,3.8c0.8,2.8-0.8,5.8-3.6,6.7C110.1,405.9,109.6,406,109.1,406z M109.1,397.4c-0.3,0-0.6,0-0.9,0.1
		c-0.8,0.2-1.5,0.8-1.9,1.6c-0.4,0.8-0.5,1.6-0.3,2.5c0.5,1.7,2.3,2.7,4,2.2c1.7-0.5,2.7-2.3,2.2-4
		C111.8,398.4,110.5,397.4,109.1,397.4z"/>
</g>
<g>
	<circle cx="109.1" cy="400.7" r="1.5"/>
</g>
<g>
	<rect x="113.4" y="389.2" class="st7" width="8.7" height="35.3"/>
</g>
<g>
	<path d="M123.2,425.5h-10.8v-37.4h10.8V425.5z M114.4,423.4h6.6v-33.2h-6.6V423.4z"/>
</g>
<g>
	<circle class="st5" cx="117.7" cy="388.6" r="4.3"/>
</g>
<g>
	<path d="M117.7,394c-2.4,0-4.5-1.6-5.1-3.8c-0.4-1.4-0.3-2.8,0.4-4.1c0.7-1.3,1.8-2.2,3.2-2.6c0.5-0.1,1-0.2,1.5-0.2
		c2.4,0,4.5,1.6,5.1,3.8c0.8,2.8-0.8,5.8-3.6,6.7C118.8,393.9,118.2,394,117.7,394z M117.7,385.4c-0.3,0-0.6,0-0.9,0.1
		c-0.8,0.2-1.5,0.8-1.9,1.6c-0.4,0.8-0.5,1.6-0.3,2.5c0.4,1.4,1.7,2.3,3.1,2.3c0.3,0,0.6,0,0.9-0.1c1.7-0.5,2.7-2.3,2.2-4
		C120.4,386.3,119.2,385.4,117.7,385.4z"/>
</g>
<g>
	<circle cx="117.7" cy="388.6" r="1.5"/>
</g>
<g>
	<rect x="122" y="404.7" class="st16" width="8.7" height="19.7"/>
</g>
<g>
	<path d="M131.8,425.5h-10.8v-21.8h10.8V425.5z M123,423.4h6.6v-17.6H123V423.4z"/>
</g>
<g>
	<circle class="st5" cx="126.3" cy="404.6" r="4.3"/>
</g>
<g>
	<path d="M126.3,409.9c-2.4,0-4.5-1.6-5.1-3.8c-0.4-1.4-0.3-2.8,0.4-4.1c0.7-1.3,1.8-2.2,3.2-2.6c0.5-0.1,1-0.2,1.5-0.2
		c2.4,0,4.5,1.6,5.1,3.8c0.8,2.8-0.8,5.8-3.6,6.7C127.4,409.9,126.9,409.9,126.3,409.9z M126.4,401.3c-0.3,0-0.6,0-0.9,0.1
		c-0.8,0.2-1.5,0.8-1.9,1.6c-0.4,0.8-0.5,1.6-0.3,2.5c0.5,1.7,2.3,2.7,4,2.2c1.7-0.5,2.7-2.3,2.2-4
		C129.1,402.3,127.8,401.3,126.4,401.3z"/>
</g>
<g>
	<circle cx="126.3" cy="404.6" r="1.5"/>
</g>
<g>
	<path d="M140.7,427H79.5c-1,0-1.9-0.8-1.9-1.9s0.8-1.9,1.9-1.9h61.3c1,0,1.9,0.8,1.9,1.9S141.8,427,140.7,427z"/>
</g>
<g>
	<path d="M427.5,132.7C427.5,132.7,427.4,132.7,427.5,132.7c-5.8-0.3-18.7-3.9-22.8-11.2c-1.7-3-1.7-6.2,0.1-9.5
		c0.5-1,1.2-1.8,2.1-2.6c-0.2-0.2-0.3-0.4-0.5-0.5c-2.3-2.7-2.9-5.6-1.7-8.3c1.1-2.4,2.7-4.4,4.8-5.9c-2.5-2.3-4.2-5.1-4.9-8.3
		c-1-4.6,1.9-9,7.7-11.4c6.4-2.7,15.4-2.4,19.3,3.5c0.3,0.5,0.2,1.1-0.3,1.4c-0.5,0.3-1.1,0.2-1.4-0.3c-3.2-4.9-11.1-5.2-16.8-2.8
		c-3.8,1.6-7.5,4.8-6.5,9.2c0.6,2.9,2.3,5.5,4.7,7.6c1.6-0.8,3.5-1.4,5.5-1.8c7.4-1.2,15.6,1.6,20.3,6.9c0.2,0.3,0.3,0.6,0.2,0.9
		s-0.3,0.6-0.7,0.7c-7.2,2.2-16.8,0.9-23.5-3c-0.7-0.4-1.4-0.9-2-1.3c-2.1,1.3-3.6,3.2-4.6,5.4c-0.9,2-0.4,4.1,1.4,6.3
		c0.2,0.2,0.4,0.4,0.6,0.7c2.7-1.6,6.4-2.3,10.3-1.8c5,0.6,10.9,3.5,12.4,9.6c0.1,0.3,0,0.5-0.1,0.8c-0.1,0.2-0.4,0.4-0.6,0.4
		c-6.2,1.5-16.5-1.7-22.1-6.5c-0.8,0.6-1.4,1.3-1.8,2.2c-1.5,2.7-1.5,5.2-0.1,7.6c3.5,6.3,15.4,9.9,21.1,10.2c0.5,0,1,0.5,0.9,1
		C428.4,132.3,428,132.7,427.5,132.7z M410.1,109.7c4.9,3.9,13.4,6.6,18.9,5.9c-1.7-4.4-6.4-6.6-10.4-7.1
		C415.4,108.1,412.4,108.6,410.1,109.7z M413.2,94.9c0.3,0.2,0.7,0.5,1.1,0.7c5.7,3.4,13.8,4.6,20.3,3.2c-4.4-4-11.1-6-17.3-5
		C415.7,94,414.4,94.4,413.2,94.9z"/>
</g>
<path d="M194.9,679.8V575.7c0-0.8-0.7-1.5-1.5-1.5s-1.5,0.7-1.5,1.5v104.1H194.9z"/>
<polygon class="st18" points="193,679.8 192.7,573.4 174.3,564.8 174.3,679.8 "/>
<path d="M175.7,679.8V498c0-0.8-0.7-1.5-1.5-1.5s-1.5,0.7-1.5,1.5v181.8H175.7z"/>
<path d="M68.4,679.8V498c0-0.8-0.7-1.5-1.5-1.5s-1.5,0.7-1.5,1.5v181.8H68.4z"/>
</svg>
