<?xml version="1.0" encoding="utf-8"?>
<!-- Generator: Adobe Illustrator 21.0.0, SVG Export Plug-In . SVG Version: 6.00 Build 0)  -->
<svg version="1.1" id="Слой_1" xmlns="http://www.w3.org/2000/svg" xmlns:xlink="http://www.w3.org/1999/xlink" x="0px" y="0px"
	 viewBox="0 0 240 160" enable-background="new 0 0 240 160" xml:space="preserve">
<path fill-rule="evenodd" clip-rule="evenodd" fill="#4E87BC" d="M54.4,80.4l13.4,20.3l1-10.5l17,21.3l22.5-0.2l13.2-28.5l1.4,8.9
	l6.2-23l6,2.9L125,107.2c2,14.4-3.3,23.5-15.6,27.3l-0.5,8.9l-16.8-1l-0.2-7.9c-12.3-2.8-18.2-10-20.3-19.9L49.1,85.2L54.4,80.4z"/>
<path fill-rule="evenodd" clip-rule="evenodd" fill="#F3D433" d="M53.9,80.4c5-9.9,7.2-16.3,1.2-15.3c-1.9,0.9-3.1,3.7-4.3,6.5
	L45.3,57c-3.3-3.4-5.5-4.1-5,1.4l3.1,11.2l-10.3-8.4c-5.2-0.6-6.2,0.9-3.8,4.1l8.6,7.4l-11.2-3.4c-4.5,0.4-4.4,2.5-0.7,6l10.8,4.1
	c3.6,4.7,7.6,7.7,12.4,6L53.9,80.4z"/>
<path fill-rule="evenodd" clip-rule="evenodd" fill="#F3D433" d="M128.7,67.9c-8.2-7.4-12.6-12.6-6.7-13.8c2.1,0.1,4.2,2.3,6.4,4.4
	L128.2,43c1.9-4.4,3.6-5.8,5.2-0.5l1.2,11.6l6.5-11.6c4.6-2.4,6.1-1.4,5.1,2.4L140.9,55l9.2-7.2c4.3-1.3,5,0.7,2.9,5.3l-8.5,7.7
	c-1.6,5.7-4.2,9.9-9.4,10.1L128.7,67.9z"/>
<path fill-rule="evenodd" clip-rule="evenodd" fill="#F3D433" d="M69,90.9c1.5-26,10.9-40.7,34-35.7c10.3,5.5,15.7,15.5,18.4,28
	L108.9,111H85.7L69,90.9z"/>
<path fill="none" stroke="#000000" stroke-width="3.428" stroke-linecap="round" stroke-linejoin="round" stroke-miterlimit="10" d="
	M34.3,50.8c2.3-2.1,5.5-3.6,10.7-3"/>
<path fill="none" stroke="#000000" stroke-width="3.428" stroke-linecap="round" stroke-linejoin="round" stroke-miterlimit="10" d="
	M33.1,45.5c2.3-2.1,5.5-3.6,10.7-3"/>
<path fill="none" stroke="#000000" stroke-width="3.428" stroke-linecap="round" stroke-linejoin="round" stroke-miterlimit="10" d="
	M205,50c-2.3-2.1-5.5-3.6-10.7-3"/>
<path fill="none" stroke="#000000" stroke-width="3.428" stroke-linecap="round" stroke-linejoin="round" stroke-miterlimit="10" d="
	M206.2,44.7c-2.3-2.1-5.5-3.6-10.7-3"/>
<path fill-rule="evenodd" clip-rule="evenodd" fill="#F2F1CC" d="M97.8,57.6c5.9-0.8,11.9,3.1,17.8,10.3
	c-5.1-8.5-11.4-12.9-18.7-13.7L97.8,57.6z"/>
<path fill-rule="evenodd" clip-rule="evenodd" fill="#F2F1CC" d="M45.3,71.4c-4.4-9.2-6.1-15.5-3.4-17.1c-0.6,1.6-0.2,4.9,5.3,16.3
	L45.3,71.4z"/>
<path fill-rule="evenodd" clip-rule="evenodd" fill="#F2F1CC" d="M139.4,58.3l10.2-9.8c3.3-1.8,4.5-0.9,4.6,1.4
	c-1.7-1.2-6.5,2.5-13.6,9.3L139.4,58.3z"/>
<path fill-rule="evenodd" clip-rule="evenodd" fill="#F2F1CC" d="M49.7,85.1c-5,1.5-8.8-1.1-12-5.9c-11.3-2.8-16.1-5.8-13.6-9
	c-0.3,2,7.2,5,14.6,7.5c3.7,3.7,6.1,7.7,13.1,5.9L49.7,85.1z"/>
<path fill-rule="evenodd" clip-rule="evenodd" fill="#F2F1CC" d="M39.8,74.1c-11.7-7-13.7-11.1-10.5-13.6
	c-0.2,2.8,4.1,6.7,12.4,11.7L39.8,74.1z"/>
<polygon fill-rule="evenodd" clip-rule="evenodd" fill="#97C6D4" points="69,95.6 83.9,115 82.7,116.8 68.7,98.7 "/>
<path fill-rule="evenodd" clip-rule="evenodd" fill="#97C6D4" d="M108,111.9c2.7-7.4,8.6-18.7,13.1-28.2l0.5,3.2l-11,25.1L108,111.9
	z"/>
<polygon fill-rule="evenodd" clip-rule="evenodd" fill="#97C6D4" points="101.2,136 100.9,143.1 108.7,143.3 103.1,141.4 
	102.9,135.8 "/>
<path fill-rule="evenodd" clip-rule="evenodd" fill="#97C6D4" d="M54.8,82.3l-2.6,4.1l21.7,28.4c4.9,12.3,12,18.5,27.3,20.5
	c-14.2-0.6-25.2-5.5-29.4-19.5L49.1,85.4l4.8-4.7L54.8,82.3z"/>
<polygon fill-rule="evenodd" clip-rule="evenodd" fill="#97C6D4" points="94.6,135.8 94.6,141.6 100.6,142.8 91.7,143.5 92.4,135.2 
	"/>
<path fill-rule="evenodd" clip-rule="evenodd" fill="#F3D433" d="M93.7,37c-4.2-10.2-4.6-20.9-4-31.8l5.5,13.8l2.3-9.3l6,9.8l4-13
	l6.3,11.5l0.5-9.3l5.5,8.8l2.5-9l3.5,5.3l3.8-6.3l3.3,6l2-4.5l5.3,13.8c2.5,5.7,5.3,11,5.6,18.9l-12.8,18.6l-4,8.3l-6.9,27.8
	c0.3-33.9-19.8-43.2-28.7-44.1L93.7,37z"/>
<polygon fill-rule="evenodd" clip-rule="evenodd" fill="#97C6D4" points="123,92.4 129.4,69.2 134.7,71.5 130.4,71.4 123.5,97.3 "/>
<path fill-rule="evenodd" clip-rule="evenodd" fill="#F2F1CC" d="M134.8,53.9c3.7-6.8,7.5-14.8,11.2-12.4c-2,0.7-6.1,7.2-11.5,16.5
	L134.8,53.9z"/>
<path fill-rule="evenodd" clip-rule="evenodd" fill="#F2F1CC" d="M127.9,68c-8.2-8.7-11.5-14.3-3.9-13.1l4.6,3.7
	c-1-10-1.3-18.6,1.5-19.7l0.5,22.1l-7.5-5.4c-3.3-0.4-2.3,2.3,11.2,14.6L127.9,68z"/>
<path fill="none" stroke="#F2F1CC" stroke-width="4" stroke-linecap="round" stroke-linejoin="round" stroke-miterlimit="10" d="
	M128.1,49c-7.2,4.3-14.9,4.5-22.8,2.8"/>
<ellipse transform="matrix(0.8964 -0.4432 0.4432 0.8964 1.1702 60.5436)" fill-rule="evenodd" clip-rule="evenodd" fill="#906F61" cx="130.1" cy="27.8" rx="11.4" ry="11.4"/>
<ellipse transform="matrix(0.8964 -0.4432 0.4432 0.8964 -3.7866 50.5978)" fill-rule="evenodd" clip-rule="evenodd" fill="#906F61" cx="106.4" cy="33.4" rx="11.4" ry="11.4"/>
<path fill-rule="evenodd" clip-rule="evenodd" fill="#F2F1CC" d="M91.9,13c0.5,7.8,1.2,15.1,3.7,18.2l-1.3,6.1
	c-3.5-8.3-5.8-17.8-4.8-30.5l2.4,5.2V13z"/>
<path fill-rule="evenodd" clip-rule="evenodd" fill="#F3D433" d="M183.6,83c-3.3-4.8-5-9.6,0.9-14.3l3.6,0.9l6.9-14.1
	c3.3-4.1,5-3.1,5.4,2.2l-4.7,10.1l12.5-6.5c3.5,0.2,4.5,1.6,2,4.7l-10.5,7.2c6.3,3.1,5.8,9.4,0,12.8c-3.3,2-6.9,2.6-10.8,2.2
	L183.6,83z"/>
<path fill-rule="evenodd" clip-rule="evenodd" fill="#F2F1CC" d="M188.8,79.7c4.2-0.9,8.1-2.8,11.9-5.9c1.8,0.8,3.3,2,3.7,4.6
	c-1.9-1.8-4.1-1.6-6.4,0.2C190.1,83.4,189.3,81.7,188.8,79.7z"/>
<path fill-rule="evenodd" clip-rule="evenodd" fill="#F2F1CC" d="M194.6,69c7.7-5.2,15.7-10.6,16.8-6.1c-5.7,0.8-11.2,5.4-17,8.7
	L194.6,69z"/>
<path fill-rule="evenodd" clip-rule="evenodd" fill="#F2F1CC" d="M189.8,70.5c5.2-10.2,8.9-17.7,10-15.6c-1.3-4.1-4.4-2.3-12,15.1
	L189.8,70.5z"/>
<path fill-rule="evenodd" clip-rule="evenodd" fill="#F2F1CC" d="M185.9,83.7c-4.3-6.5-2.9-10.7,0.5-14.1l-2.7-0.7
	C180.8,74.5,180.2,79.6,185.9,83.7z"/>
<polygon fill-rule="evenodd" clip-rule="evenodd" fill="#D46888" points="130.9,148 141,143.2 157.1,143.2 166.1,148.4 "/>
<path fill-rule="evenodd" clip-rule="evenodd" fill="#4D86BC" d="M124.6,107.4l44.6-0.4l15.2-23.1l5.2,4.3L170.1,120
	c-1.7,8.5-5.7,14-12.1,16.6l-0.2,7.2h-17l0.2-5.4c-10.4-2.8-16.7-7.1-17.7-14.6C125.5,119.5,125.9,114,124.6,107.4z"/>
<polygon fill-rule="evenodd" clip-rule="evenodd" fill="#97C6D4" points="189,88.3 184.5,83.4 169.6,110 185.1,87.6 "/>
<path fill-rule="evenodd" clip-rule="evenodd" fill="#97C6D4" d="M125,120.4c2.5,10,10.7,16.4,26.5,17.6c-15.1-0.1-25-4.5-28.5-14.4
	L125,120.4z"/>
<path fill-rule="evenodd" clip-rule="evenodd" fill="#97C6D4" d="M135,113.4c0.8,13.2,5.2,20.1,14.9,18.2
	c-8.6-1.3-11.9-7.4-12.4-15.9l20.4-1.7L135,113.4z"/>
<path fill-rule="evenodd" clip-rule="evenodd" fill="#F3D433" d="M124.9,107.6l45-0.4c7.8-19.5,11-37.6-3.1-50.4
	c-5.3-2.2-10-4-13.4-4.9l-18.6,19.5L124.9,107.6z"/>
<path fill-rule="evenodd" clip-rule="evenodd" fill="#FFFFFF" d="M147.3,101.5c-3.2-1.2-2.5-3.7-4.1-6.7l22.8-0.3
	C163.1,100.6,153.4,103.8,147.3,101.5z"/>
<polygon fill-rule="evenodd" clip-rule="evenodd" fill="#D46888" points="81.7,148.2 92.1,143.7 108.8,143.5 117.8,148.2 "/>
<path fill-rule="evenodd" clip-rule="evenodd" fill="#FFFFFF" d="M85.2,98.6l20.9-2.3c-0.9,4.2-3.1,7.3-8.8,7.7
	C91.6,104.4,87.5,102.7,85.2,98.6z"/>
<path fill-rule="evenodd" clip-rule="evenodd" fill="#F2F1CC" d="M88.9,58.1c-8.5-0.1-16,14.8-17.2,35.9l-3.1-3.8
	c0.6-12.3,3.8-23.2,12.7-31.4L88.9,58.1z"/>
<path fill="none" stroke="#000000" stroke-width="4" stroke-linecap="round" stroke-linejoin="round" stroke-miterlimit="10" d="
	M69,104.9c-6.8-64.6,53.1-69.7,53.9-7"/>
<polyline fill="none" stroke="#000000" stroke-width="4" stroke-linecap="round" stroke-linejoin="round" stroke-miterlimit="10" points="
	68.8,101.6 54,80.9 49.1,85.8 71.6,115.5 "/>
<polyline fill="none" stroke="#000000" stroke-width="4" stroke-linecap="round" stroke-linejoin="round" stroke-miterlimit="10" points="
	122.7,93.2 128.7,68.5 135.1,71.3 125.1,107.2 "/>
<path fill="none" stroke="#000000" stroke-width="4" stroke-linecap="round" stroke-linejoin="round" stroke-miterlimit="10" d="
	M54.2,80.3l3.7-9.2c2.6-7.7-3.1-10-8.2,3.3"/>
<path fill="none" stroke="#000000" stroke-width="4" stroke-linecap="round" stroke-linejoin="round" stroke-miterlimit="10" d="
	M50.7,71l-5.1-13.9c-2.7-5.1-7.4-4.3-4.3,4.9l3.3,9.2"/>
<path fill="none" stroke="#000000" stroke-width="4" stroke-linecap="round" stroke-linejoin="round" stroke-miterlimit="10" d="
	M43.3,69.2l-9-6.8c-5-4.5-9.2,0.1-3.3,4.7l8.8,6.8"/>
<path fill="none" stroke="#000000" stroke-width="4" stroke-linecap="round" stroke-linejoin="round" stroke-miterlimit="10" d="
	M39.7,74.2l-10.5-4c-6-2.9-8.8,2.6-1.8,5.4l10.4,4.1c2.2,3.2,6.1,7.3,11.2,5.7"/>
<path fill="none" stroke="#000000" stroke-width="4" stroke-linecap="round" stroke-linejoin="round" stroke-miterlimit="10" d="
	M128.4,68.2l-6.8-7.2c-5.3-6.2-0.8-10.4,8.8,0.1"/>
<path fill="none" stroke="#000000" stroke-width="4" stroke-linecap="round" stroke-linejoin="round" stroke-miterlimit="10" d="
	M128.3,58.4L128,43.5c0.6-5.8,5.3-6.7,5.8,3l0.3,9.8"/>
<path fill="none" stroke="#000000" stroke-width="4" stroke-linecap="round" stroke-linejoin="round" stroke-miterlimit="10" d="
	M134.5,53.9l5.9-9.6c3-6,8.6-3.3,4.8,3.2l-5.7,9.5"/>
<path fill="none" stroke="#000000" stroke-width="4" stroke-linecap="round" stroke-linejoin="round" stroke-miterlimit="10" d="
	M139.7,57.2l8.4-7.6c4.5-4.9,9.2-0.8,3.7,4.4l-8.1,7.6c-0.9,3.8-3,9-8.4,9.4"/>
<polygon fill-rule="evenodd" clip-rule="evenodd" points="71.5,87.7 71.3,85.5 68.7,85.7 68.5,83.3 66.3,83.5 66.1,81.1 63.6,81.4 
	63.2,76.7 124.7,71 125.2,75.7 122.7,75.9 122.9,78.3 120.7,78.5 120.9,80.9 118.4,81.1 118.6,83.3 102.1,84.9 101.9,82.6 
	99.3,82.9 99.1,80.5 96.9,80.7 96.6,78.3 92.1,78.7 92.4,81.1 90.1,81.3 90.3,83.7 87.8,83.9 88,86.2 "/>
<path fill-rule="evenodd" clip-rule="evenodd" fill="#FFFFFF" d="M75.3,82.4l-0.2-2.3l-2.3,0.2l0.2,2.3L75.3,82.4z M73.2,85L73,82.7
	l-2.4,0.2l-0.2-2.3l-2.3,0.2l-0.2-2.4l2.4-0.2l0.2,2.3l2.3-0.2L72.5,78l2.4-0.2l0.2,2.3l2.3-0.2l0.2,2.3L80,82l0.2,2.4l-2.4,0.2
	l-0.2-2.3l-2.3,0.2l0.2,2.3L73.2,85z"/>
<path fill-rule="evenodd" clip-rule="evenodd" fill="#FFFFFF" d="M106,79.7l-0.2-2.3l-2.3,0.2l0.2,2.3L106,79.7z M103.9,82.3
	l-0.2-2.3l-2.4,0.2l-0.2-2.3L98.7,78l-0.2-2.4l2.4-0.2l0.2,2.3l2.3-0.2l-0.2-2.3l2.4-0.2l0.2,2.3l2.3-0.2l0.2,2.3l2.4-0.2l0.2,2.4
	l-2.4,0.2l-0.2-2.3l-2.3,0.2l0.2,2.3L103.9,82.3z"/>
<path fill="none" stroke="#000000" stroke-width="4" stroke-linecap="round" stroke-linejoin="round" stroke-miterlimit="10" d="
	M68.8,90.5l18.9,23.6c2.8,5-1.9,7.5-5.9,1.6L68.5,98.5"/>
<path fill="none" stroke="#000000" stroke-width="4" stroke-linecap="round" stroke-linejoin="round" stroke-miterlimit="10" d="
	M121.1,83.1l-13,29.3c-1.5,5.5,3.6,6.8,6.2,0.1l8.4-20"/>
<line fill="none" stroke="#000000" stroke-width="4" stroke-linecap="round" stroke-linejoin="round" stroke-miterlimit="10" x1="85.2" y1="111" x2="108.4" y2="111"/>
<path fill="none" stroke="#000000" stroke-width="4" stroke-linecap="round" stroke-miterlimit="10" d="M92.3,104.3
	c-3.3-0.9-6-3.1-7.9-5.9l22.7-2.6C104.8,102.3,98.6,106,92.3,104.3z"/>
<path fill="none" stroke="#000000" stroke-width="4" stroke-linecap="round" stroke-linejoin="round" stroke-miterlimit="10" d="
	M71.8,116.2c10.5,31.2,61.2,23.4,53.1-8.8"/>
<line fill="none" stroke="#000000" stroke-width="4" stroke-linecap="round" stroke-linejoin="round" stroke-miterlimit="10" x1="92.3" y1="143.6" x2="108.6" y2="143.6"/>
<line fill="none" stroke="#000000" stroke-width="4" stroke-linecap="round" stroke-linejoin="round" stroke-miterlimit="10" x1="92.2" y1="143.6" x2="92.2" y2="136.6"/>
<line fill="none" stroke="#000000" stroke-width="4" stroke-linecap="round" stroke-linejoin="round" stroke-miterlimit="10" x1="108.7" y1="143.6" x2="108.7" y2="135.1"/>
<line fill="none" stroke="#000000" stroke-width="4" stroke-linecap="round" stroke-linejoin="round" stroke-miterlimit="10" x1="100.9" y1="147.3" x2="100.9" y2="136.6"/>
<line fill="none" stroke="#000000" stroke-width="4" stroke-linecap="round" stroke-linejoin="round" stroke-miterlimit="10" x1="81.5" y1="148.6" x2="118.6" y2="148.6"/>
<line fill="none" stroke="#000000" stroke-width="4" stroke-linecap="round" stroke-linejoin="round" stroke-miterlimit="10" x1="81.8" y1="148.2" x2="91.6" y2="143.9"/>
<line fill="none" stroke="#000000" stroke-width="4" stroke-linecap="round" stroke-linejoin="round" stroke-miterlimit="10" x1="118.8" y1="148.2" x2="109" y2="143.9"/>
<path fill="none" stroke="#000000" stroke-width="4" stroke-linecap="round" stroke-linejoin="round" stroke-miterlimit="10" d="
	M153.8,52.4c27.1,4.2,26.7,31.5,15.1,57.9"/>
<path fill="none" stroke="#000000" stroke-width="4" stroke-linecap="round" stroke-linejoin="round" stroke-miterlimit="10" d="
	M170.9,105.1l13.4-21.6l5.2,4.6l-19.3,32.2c-4.2,25.7-41.9,21.3-47,4.2"/>
<line fill="none" stroke="#000000" stroke-width="4" stroke-linecap="round" stroke-linejoin="round" stroke-miterlimit="10" x1="124.9" y1="107.4" x2="169.8" y2="107"/>
<path fill="none" stroke="#000000" stroke-width="4" stroke-linecap="round" stroke-linejoin="round" stroke-miterlimit="10" d="
	M188.2,68.7l6.8-13.2c3.3-4.8,7.8-3.4,3.7,5.4l-4.4,8.8"/>
<path fill="none" stroke="#000000" stroke-width="4" stroke-linecap="round" stroke-linejoin="round" stroke-miterlimit="10" d="
	M195.6,68.2l9.8-5.6c5.5-3.8,9.1,1.2,2.7,5.1l-9.6,5.7"/>
<path fill="none" stroke="#000000" stroke-width="4" stroke-linecap="round" stroke-linejoin="round" stroke-miterlimit="10" d="
	M184.6,83.7c-4-2.5-5.6-8.9-0.9-15.1l13.7,5.2c-1.3,4.1-4.2,5.6-11.4,1.9"/>
<path fill="none" stroke="#000000" stroke-width="4" stroke-linecap="round" stroke-linejoin="round" stroke-miterlimit="10" d="
	M199.9,81c-12,5.4-12.5-1.4-9.2-1.6c3-1.1,6-2.8,9.4-5.3c4.2-0.3,5.5,6.9,1.2,10.8c-2.4,2.2-6.3,3.6-11.1,3.2"/>
<path fill-rule="evenodd" clip-rule="evenodd" d="M167.2,89.3L139.7,87l0.3-3.7l-4.2-0.4l0.3-4l-3.4-0.3l2.1-7.1
	c2.6-0.8,4.9-1.9,6.3-3.9L181,71l-0.7,7.7l-4.3-0.4l-0.3,3.9L172,82l-0.3,4l-4.2-0.4L167.2,89.3z"/>
<path fill-rule="evenodd" clip-rule="evenodd" fill="#FFFFFF" d="M147.5,79.5l0.3-3.8l-3.8-0.3l-0.3,3.8L147.5,79.5z M143.3,83.1
	l0.3-3.9l-3.9-0.3l0.3-3.9l-3.9-0.3l0.3-3.9l3.9,0.3l-0.3,3.9l3.8,0.3l0.3-3.9l3.9,0.3l-0.3,3.9l3.9,0.3l-0.3,3.9l3.9,0.3l-0.3,3.9
	l-3.9-0.3l0.3-3.9l-3.8-0.3l-0.3,3.9L143.3,83.1z"/>
<path fill="none" stroke="#000000" stroke-width="4" stroke-linecap="round" stroke-miterlimit="10" d="M147.3,101.5
	c-3.2-1.2-2.5-3.7-4.1-6.7l22.8-0.3C163.1,100.6,153.4,103.8,147.3,101.5z"/>
<line fill="none" stroke="#000000" stroke-width="4" stroke-linecap="round" stroke-linejoin="round" stroke-miterlimit="10" x1="141.2" y1="143.6" x2="157.4" y2="143.6"/>
<line fill="none" stroke="#000000" stroke-width="4" stroke-linecap="round" stroke-linejoin="round" stroke-miterlimit="10" x1="141.1" y1="143.6" x2="141.1" y2="138.2"/>
<line fill="none" stroke="#000000" stroke-width="4" stroke-linecap="round" stroke-linejoin="round" stroke-miterlimit="10" x1="157.6" y1="143.6" x2="157.6" y2="137.2"/>
<line fill="none" stroke="#000000" stroke-width="4" stroke-linecap="round" stroke-linejoin="round" stroke-miterlimit="10" x1="149.8" y1="147.3" x2="149.8" y2="139.9"/>
<line fill="none" stroke="#000000" stroke-width="4" stroke-linecap="round" stroke-linejoin="round" stroke-miterlimit="10" x1="130.3" y1="148.6" x2="167.5" y2="148.6"/>
<line fill="none" stroke="#000000" stroke-width="4" stroke-linecap="round" stroke-linejoin="round" stroke-miterlimit="10" x1="130.7" y1="148.2" x2="140.5" y2="143.9"/>
<line fill="none" stroke="#000000" stroke-width="4" stroke-linecap="round" stroke-linejoin="round" stroke-miterlimit="10" x1="167.7" y1="148.2" x2="157.9" y2="143.9"/>
<path fill="none" stroke="#000000" stroke-width="3" stroke-linecap="round" stroke-miterlimit="10" d="M140,129
	c-4.5-4.8-5.4-11-5.1-15.5l23.7,0c0.2,6.2-1.4,11.8-3.9,14.8C150.4,133.3,143.7,132.9,140,129z"/>
<ellipse transform="matrix(0.8964 -0.4432 0.4432 0.8964 -3.7866 50.5978)" fill="none" stroke="#000000" stroke-width="4" stroke-linecap="round" stroke-miterlimit="10" cx="106.4" cy="33.4" rx="11.4" ry="11.4"/>
<ellipse transform="matrix(0.8964 -0.4432 0.4432 0.8964 -3.7869 50.5958)" fill-rule="evenodd" clip-rule="evenodd" fill="#FFFFFF" cx="106.4" cy="33.4" rx="6.4" ry="6.4"/>
<ellipse transform="matrix(0.8964 -0.4432 0.4432 0.8964 -3.7869 50.5958)" fill="none" stroke="#000000" stroke-width="2.249" stroke-linecap="round" stroke-miterlimit="10" cx="106.4" cy="33.4" rx="6.4" ry="6.4"/>
<ellipse transform="matrix(0.8964 -0.4432 0.4432 0.8964 1.1702 60.5436)" fill="none" stroke="#000000" stroke-width="4" stroke-linecap="round" stroke-miterlimit="10" cx="130.1" cy="27.8" rx="11.4" ry="11.4"/>
<ellipse transform="matrix(0.8964 -0.4432 0.4432 0.8964 1.1696 60.5414)" fill-rule="evenodd" clip-rule="evenodd" fill="#FFFFFF" cx="130.1" cy="27.8" rx="6.4" ry="6.4"/>
<ellipse transform="matrix(0.8964 -0.4432 0.4432 0.8964 1.1696 60.5414)" fill="none" stroke="#000000" stroke-width="2.249" stroke-linecap="round" stroke-miterlimit="10" cx="130.1" cy="27.8" rx="6.4" ry="6.4"/>
<path fill="none" stroke="#000000" stroke-width="4" stroke-linecap="round" stroke-linejoin="round" stroke-miterlimit="10" d="
	M141.5,25.9c2.3,4.7,3.8,9.7,4.1,15"/>
<path fill="none" stroke="#000000" stroke-width="4" stroke-linecap="round" stroke-linejoin="round" stroke-miterlimit="10" d="
	M93.7,37c-4.2-10.2-4.6-20.9-4-31.8l5.5,13.8l2.3-9.3l6,9.8l4-13l6.3,11.5l0.5-9.3l5.5,8.8l2.5-9l3.5,5.3l3.8-6.3l3.3,6l2-4.5
	l5.3,13.8"/>
<ellipse transform="matrix(0.8964 -0.4432 0.4432 0.8964 -3.4429 51.5644)" fill-rule="evenodd" clip-rule="evenodd" cx="108.6" cy="33.1" rx="2.3" ry="2.3"/>
<ellipse transform="matrix(0.8964 -0.4432 0.4432 0.8964 0.5559 59.6519)" fill-rule="evenodd" clip-rule="evenodd" cx="127.9" cy="28.6" rx="2.3" ry="2.3"/>
<path fill="none" stroke="#000000" stroke-width="4" stroke-linecap="round" stroke-linejoin="round" stroke-miterlimit="10" d="
	M127.8,47.5c-7.2,4.3-14.9,4.5-22.8,2.8"/>
<path fill-rule="evenodd" clip-rule="evenodd" fill="#D46888" d="M96.8,59.6c-6.8-3.5-13.1-4.2-18.7,0.5l-4.8-11l7.2,3.4l-1.7-10.3
	l6.2,8.1l1.7-12l4.8,9.8L94,35.7L96.8,59.6z"/>
<path fill="none" stroke="#000000" stroke-width="4" stroke-linecap="round" stroke-linejoin="round" stroke-miterlimit="10" d="
	M81.4,59.1c6.1-2.2,11.5-1.9,16.2,1.2l-2.9-26.3l-3.1,15.8l-4.7-13.1l-1.2,15l-7.2-10.5l2.7,11.9l-8-3.5l5.7,11.5"/>
<ellipse transform="matrix(0.9282 -0.3721 0.3721 0.9282 -37.5757 40.7607)" fill-rule="evenodd" clip-rule="evenodd" fill="#D46888" cx="86.8" cy="117.7" rx="3.8" ry="3.8"/>
<ellipse transform="matrix(0.9282 -0.3721 0.3721 0.9282 -37.5757 40.7607)" fill="none" stroke="#000000" stroke-width="3" stroke-linecap="round" stroke-miterlimit="10" cx="86.8" cy="117.7" rx="3.8" ry="3.8"/>
<ellipse transform="matrix(0.9282 -0.3721 0.3721 0.9282 -35.2399 49.1289)" fill-rule="evenodd" clip-rule="evenodd" fill="#D46888" cx="109.7" cy="115.9" rx="3.8" ry="3.8"/>
<ellipse transform="matrix(0.9282 -0.3721 0.3721 0.9282 -35.2399 49.1289)" fill="none" stroke="#000000" stroke-width="3" stroke-linecap="round" stroke-miterlimit="10" cx="109.7" cy="115.9" rx="3.8" ry="3.8"/>
<line fill="none" stroke="#000000" stroke-width="1.5" stroke-linecap="round" stroke-linejoin="round" stroke-miterlimit="10" x1="86.9" y1="116.3" x2="86.5" y2="119"/>
<line fill="none" stroke="#000000" stroke-width="1.5" stroke-linecap="round" stroke-linejoin="round" stroke-miterlimit="10" x1="85.4" y1="117.4" x2="88.1" y2="117.8"/>
<line fill="none" stroke="#000000" stroke-width="1.5" stroke-linecap="round" stroke-linejoin="round" stroke-miterlimit="10" x1="109.8" y1="114.5" x2="109.4" y2="117.1"/>
<line fill="none" stroke="#000000" stroke-width="1.5" stroke-linecap="round" stroke-linejoin="round" stroke-miterlimit="10" x1="108.3" y1="115.6" x2="111" y2="115.9"/>
<path fill="none" stroke="#000000" stroke-width="1.5" stroke-linecap="round" stroke-linejoin="round" stroke-miterlimit="10" d="
	M94.3,110.6c-2,11.9,0.6,22.2,6.7,25.4"/>
<path fill="none" stroke="#000000" stroke-width="3" stroke-linecap="round" stroke-linejoin="round" stroke-miterlimit="10" d="
	M39.1,77c1.8-3.1,4.2-5.3,7.8-5.3"/>
<path fill="none" stroke="#000000" stroke-width="3" stroke-linecap="round" stroke-linejoin="round" stroke-miterlimit="10" d="
	M131.9,57.4c3.6-0.5,6.8,0,8.9,2.9"/>
</svg>
