<?xml version="1.0" encoding="utf-8"?>
<!-- Generator: Adobe Illustrator 21.0.0, SVG Export Plug-In . SVG Version: 6.00 Build 0)  -->
<svg version="1.1" id="Слой_1" xmlns="http://www.w3.org/2000/svg" xmlns:xlink="http://www.w3.org/1999/xlink" x="0px" y="0px"
	 viewBox="0 0 240 160" enable-background="new 0 0 240 160" xml:space="preserve">
<path fill="none" stroke="#000000" stroke-width="3" stroke-linecap="round" stroke-linejoin="round" stroke-miterlimit="10" d="
	M36.6,108.4c4.7,1.1,10.6,1.6,18.4,0.1"/>
<path fill="none" stroke="#000000" stroke-width="3" stroke-linecap="round" stroke-linejoin="round" stroke-miterlimit="10" d="
	M38.7,114.4c3.8,0.9,8.6,1.3,15,0.1"/>
<path fill="none" stroke="#000000" stroke-width="3" stroke-linecap="round" stroke-linejoin="round" stroke-miterlimit="10" d="
	M186.1,23.4c4.7-1.1,10.6-1.6,18.4-0.1"/>
<path fill="none" stroke="#000000" stroke-width="3" stroke-linecap="round" stroke-linejoin="round" stroke-miterlimit="10" d="
	M188.2,17.5c3.8-0.9,8.6-1.3,15-0.1"/>
<path fill-rule="evenodd" clip-rule="evenodd" fill="#8C98A1" d="M101.2,132.2c1.7,2.3,3.9,2.3,6.5-0.3l-3.5-5.7L101.2,132.2z"/>
<path fill-rule="evenodd" clip-rule="evenodd" fill="#8C98A1" d="M133.4,132l3.4-5.3l3.5,6C137.8,135.2,135.5,134.7,133.4,132z"/>
<path fill-rule="evenodd" clip-rule="evenodd" fill="#906F61" d="M114.4,137.7l-0.2,5.2l-7.1,6.3l26.3,0.1l-6.7-6.4l0.1-5.3
	C122.4,139.5,118.2,139.7,114.4,137.7z"/>
<polygon fill-rule="evenodd" clip-rule="evenodd" fill="#D46888" points="106.2,149.7 115.5,143.6 127.1,143.7 134.3,149.2 "/>
<path fill-rule="evenodd" clip-rule="evenodd" fill="#906F61" d="M135.6,111.7c11.9,2.8,8.9,12.5,2.4,15l2.8,6.1
	c6.6-3.7,10.2-8.8,9.5-16c-1.2-4.8-4.1-8.2-9.9-9.2l-6.1,2.2L135.6,111.7z"/>
<path fill-rule="evenodd" clip-rule="evenodd" fill="#D3A08B" d="M136.1,111.1c11.7,6,8.3,11,2.5,15.9l3.2,4.9l-0.2-4
	c8.3-7.5,5.8-14.7-4.5-18.6L136.1,111.1z"/>
<path fill-rule="evenodd" clip-rule="evenodd" fill="#906F61" d="M105.3,111.7c-11.9,2.8-8.9,12.5-2.4,15l-2.8,6.1
	c-6.6-3.7-10.2-8.8-9.5-16c1.2-4.8,4.1-8.2,9.9-9.2l6.1,2.2L105.3,111.7z"/>
<path fill-rule="evenodd" clip-rule="evenodd" fill="#D3A08B" d="M101,107.9c-14.1,3.3-14.3,17.5-1.9,24.4l4.2-5.1l-4.2,2.1
	c-7.6-6.4-9-16.3,3-20.8L101,107.9z"/>
<path fill-rule="evenodd" clip-rule="evenodd" fill="#906F61" d="M105,113.5c3.3-9.7,12.9-14.6,21.5-10.9
	c8.6,3.7,12.9,14.6,9.6,24.3c-3.3,9.7-12.9,14.6-21.5,10.9C106.1,134.1,101.7,123.2,105,113.5z"/>
<path fill-rule="evenodd" clip-rule="evenodd" fill="#D3A08B" d="M106.9,109.8c-7,8.1-3.7,27.8,13.6,29c-12.5-3.8-18-17-11.2-29
	H106.9z"/>
<path fill-rule="evenodd" clip-rule="evenodd" fill="#8C98A1" d="M109.9,113.1c2.3-6.7,8.9-10,14.9-7.5c5.9,2.6,8.9,10,6.6,16.7
	c-2.3,6.7-8.9,10-14.9,7.5C110.6,127.3,107.6,119.8,109.9,113.1z"/>
<path fill="none" stroke="#000000" stroke-width="4.001" stroke-linecap="round" stroke-miterlimit="10" d="M105,113.5
	c3.3-9.7,12.9-14.6,21.5-10.9c8.6,3.7,12.9,14.6,9.6,24.3c-3.3,9.7-12.9,14.6-21.5,10.9C106.1,134.1,101.7,123.2,105,113.5z"/>
<path fill="none" stroke="#000000" stroke-width="2.761" stroke-linecap="round" stroke-miterlimit="10" d="M109.9,113.1
	c2.3-6.7,8.9-10,14.9-7.5c5.9,2.6,8.9,10,6.6,16.7c-2.3,6.7-8.9,10-14.9,7.5C110.6,127.3,107.6,119.8,109.9,113.1z"/>
<line fill="none" stroke="#000000" stroke-width="4" stroke-linecap="round" stroke-linejoin="round" stroke-miterlimit="10" x1="114.6" y1="143.9" x2="126.9" y2="143.9"/>
<line fill="none" stroke="#000000" stroke-width="4" stroke-linecap="round" stroke-linejoin="round" stroke-miterlimit="10" x1="114.5" y1="143.8" x2="114.5" y2="138.8"/>
<line fill="none" stroke="#000000" stroke-width="4" stroke-linecap="round" stroke-linejoin="round" stroke-miterlimit="10" x1="127" y1="143.8" x2="127" y2="138.3"/>
<line fill="none" stroke="#000000" stroke-width="4" stroke-linecap="round" stroke-linejoin="round" stroke-miterlimit="10" x1="120.6" y1="148.3" x2="120.6" y2="140.5"/>
<line fill="none" stroke="#000000" stroke-width="4" stroke-linecap="round" stroke-linejoin="round" stroke-miterlimit="10" x1="106.1" y1="147.7" x2="134.3" y2="147.7"/>
<line fill="none" stroke="#000000" stroke-width="4" stroke-linecap="round" stroke-linejoin="round" stroke-miterlimit="10" x1="106.6" y1="149.3" x2="114" y2="144.1"/>
<line fill="none" stroke="#000000" stroke-width="4" stroke-linecap="round" stroke-linejoin="round" stroke-miterlimit="10" x1="134.7" y1="149.3" x2="127.2" y2="144.1"/>
<path fill="none" stroke="#000000" stroke-width="4" stroke-linecap="round" stroke-linejoin="round" stroke-miterlimit="10" d="
	M104.8,111.9c-10,2.6-9.9,11.9-1.6,15.2"/>
<path fill="none" stroke="#000000" stroke-width="4" stroke-linecap="round" stroke-linejoin="round" stroke-miterlimit="10" d="
	M99.9,107.9c-12.4,3.7-12.7,17.4,0.3,25.3l3-5.8"/>
<path fill="none" stroke="#000000" stroke-width="4" stroke-linecap="round" stroke-linejoin="round" stroke-miterlimit="10" d="
	M136.3,111.9c10,2.6,9.9,11.9,1.6,15.2"/>
<path fill="none" stroke="#000000" stroke-width="4" stroke-linecap="round" stroke-linejoin="round" stroke-miterlimit="10" d="
	M141.6,107.9c12.4,3.7,12.7,17.4-0.3,25.3l-3-5.8"/>
<path fill="none" stroke="#000000" stroke-width="4" stroke-linecap="round" stroke-linejoin="round" stroke-miterlimit="10" d="
	M100.7,133.3c2.8,1.3,5,1.3,7-1.2"/>
<path fill="none" stroke="#000000" stroke-width="4" stroke-linecap="round" stroke-linejoin="round" stroke-miterlimit="10" d="
	M140.5,133.6c-2.8,1.3-5,1.3-7-1.2"/>
<path fill-rule="evenodd" clip-rule="evenodd" fill="#F3D433" d="M158.9,54c7.8-18.4,30.8-27.6,51.4-20.6c20.5,7,30.8,27.7,23,46.1
	c-7.8,18.4-30.8,27.6-51.4,20.6C161.3,93,151,72.4,158.9,54z"/>
<path fill-rule="evenodd" clip-rule="evenodd" fill="#FCF6CF" d="M182.7,100.1c-20.5-7-30.8-27.7-23-46.1
	c7.3-17.1,27.6-26.2,46.8-21.9c-17.4-2-34.7,6.9-41.2,22.2c-7.7,18,2.4,38.2,22.5,45c6.2,2.1,12.6,2.7,18.7,2
	C198.9,103.1,190.6,102.8,182.7,100.1z"/>
<path fill="none" stroke="#000000" stroke-width="4" stroke-linecap="round" stroke-miterlimit="10" d="M158.9,54
	c7.8-18.4,30.8-27.6,51.4-20.6c20.5,7,30.8,27.7,23,46.1c-7.8,18.4-30.8,27.6-51.4,20.6C161.3,93,151,72.4,158.9,54z"/>
<rect x="38.4" y="23" fill-rule="evenodd" clip-rule="evenodd" fill="#F3D433" width="13.7" height="11.4"/>
<rect x="38.4" y="23" fill="none" stroke="#000000" stroke-width="2.89" stroke-linecap="round" stroke-miterlimit="10" width="13.7" height="11.4"/>
<line fill="none" stroke="#000000" stroke-width="2" stroke-linecap="round" stroke-linejoin="round" stroke-miterlimit="10" x1="41.3" y1="23.1" x2="41.3" y2="34"/>
<line fill="none" stroke="#000000" stroke-width="2" stroke-linecap="round" stroke-linejoin="round" stroke-miterlimit="10" x1="44.1" y1="23.1" x2="44.1" y2="34"/>
<line fill="none" stroke="#000000" stroke-width="2" stroke-linecap="round" stroke-linejoin="round" stroke-miterlimit="10" x1="46.8" y1="23.1" x2="46.8" y2="34"/>
<line fill="none" stroke="#000000" stroke-width="2" stroke-linecap="round" stroke-linejoin="round" stroke-miterlimit="10" x1="49.1" y1="23.1" x2="49.1" y2="34"/>
<path fill-rule="evenodd" clip-rule="evenodd" fill="#F3D433" d="M8,54c7.8-18.4,30.8-27.6,51.4-20.6c20.5,7,30.8,27.7,23,46.1
	c-7.8,18.4-30.8,27.6-51.4,20.6C10.5,93,0.2,72.4,8,54z"/>
<path fill-rule="evenodd" clip-rule="evenodd" fill="#FCF6CF" d="M31,100.1C10.5,93,0.2,72.4,8,54c7.3-17.1,27.6-26.2,46.8-21.9
	c-17.4-2-34.7,6.9-41.2,22.2c-7.7,18,2.4,38.2,22.5,45c6.2,2.1,12.6,2.7,18.7,2C47.2,103.1,38.9,102.8,31,100.1z"/>
<path fill-rule="evenodd" clip-rule="evenodd" fill="#FFFFFF" d="M18.3,55.8c5.7-13.3,22.3-20,37.1-14.9c14.8,5.1,22.3,20,16.6,33.3
	c-5.7,13.3-22.3,20-37.1,14.9C20.1,84,12.7,69.1,18.3,55.8z"/>
<path fill-rule="evenodd" clip-rule="evenodd" fill="#8C98A1" d="M34.9,89.1c-4.6-1.6-8.6-4.1-11.6-7.3c2.6,2.4,5.9,4.4,9.7,5.7
	c13.8,4.7,29.4-1.5,34.7-13.9C73,61.1,66,47.2,52.2,42.5c-10.3-3.5-21.6-1-28.8,5.7c7.7-8,20.4-11.3,32.1-7.3
	c14.8,5.1,22.3,20,16.6,33.3C66.4,87.5,49.8,94.1,34.9,89.1z"/>
<path fill="none" stroke="#000000" stroke-width="4" stroke-linecap="round" stroke-miterlimit="10" d="M8,54
	c7.8-18.4,30.8-27.6,51.4-20.6c20.5,7,30.8,27.7,23,46.1c-7.8,18.4-30.8,27.6-51.4,20.6C10.5,93,0.2,72.4,8,54z"/>
<path fill="none" stroke="#000000" stroke-width="2.89" stroke-linecap="round" stroke-miterlimit="10" d="M18.3,55.8
	c5.7-13.3,22.3-20,37.1-14.9c14.8,5.1,22.3,20,16.6,33.3c-5.7,13.3-22.3,20-37.1,14.9C20.1,84,12.7,69.1,18.3,55.8z"/>
<polyline fill="none" stroke="#000000" stroke-width="4" stroke-linecap="round" stroke-linejoin="round" stroke-miterlimit="10" points="
	24.5,61.2 43.5,67.3 64.1,52.5 "/>
<path fill-rule="evenodd" clip-rule="evenodd" fill="#906F61" d="M73.9,50.8c9.8-23,38.6-34.6,64.3-25.8
	c25.7,8.8,38.6,34.6,28.8,57.6c-9.8,23-38.6,34.6-64.3,25.8C76.9,99.7,64.1,73.8,73.9,50.8z"/>
<path fill-rule="evenodd" clip-rule="evenodd" fill="#D3A08B" d="M101.8,108.4c-25.5-8.9-38.3-34.9-28.6-58.1
	c9-21.5,34.2-33.1,58.2-27.6c-21.6-2.5-45.2,8.9-53.3,28.2c-9.5,22.7,5.1,47.9,30.1,56.6c7.7,2.7,15.6,3.4,23.2,2.6
	C121.9,112.2,111.6,111.8,101.8,108.4z"/>
<path fill-rule="evenodd" clip-rule="evenodd" fill="#8C98A1" d="M80.7,51.8c8.4-14.3,32.9-21.5,54.8-16.1
	c21.9,5.5,32.9,21.5,24.5,35.9c-8.4,14.3-32.9,21.5-54.8,16.1C83.3,82.2,72.3,66.2,80.7,51.8z"/>
<ellipse transform="matrix(0.9568 -0.2909 0.2909 0.9568 -10.8559 45.5705)" fill-rule="evenodd" clip-rule="evenodd" fill="#FFFFFF" cx="147.9" cy="59.3" rx="8.1" ry="8.1"/>
<ellipse transform="matrix(0.9568 -0.2909 0.2909 0.9568 -13.2285 29.6105)" fill-rule="evenodd" clip-rule="evenodd" fill="#FFFFFF" cx="93" cy="59.3" rx="8.1" ry="8.1"/>
<path fill="none" stroke="#000000" stroke-width="4" stroke-linecap="round" stroke-miterlimit="10" d="M73.9,50.8
	c9.8-23,38.6-34.6,64.3-25.8c25.7,8.8,38.6,34.6,28.8,57.6c-9.8,23-38.6,34.6-64.3,25.8C76.9,99.7,64.1,73.8,73.9,50.8z"/>
<path fill-rule="evenodd" clip-rule="evenodd" fill="#D46888" d="M114.7,77.1c-3.8-1.6-6.8-4.6-8.5-8.4l27.8,0.5
	C130,76.6,122,80.1,114.7,77.1z"/>
<path fill="none" stroke="#000000" stroke-width="4" stroke-linecap="round" stroke-miterlimit="10" d="M80.7,51.8
	c8.4-14.3,32.9-21.5,54.8-16.1c21.9,5.5,32.9,21.5,24.5,35.9c-8.4,14.3-32.9,21.5-54.8,16.1C83.3,82.2,72.3,66.2,80.7,51.8z"/>
<ellipse transform="matrix(0.9568 -0.2909 0.2909 0.9568 -13.2285 29.6105)" fill="none" stroke="#000000" stroke-width="4" stroke-linecap="round" stroke-miterlimit="10" cx="93" cy="59.3" rx="8.1" ry="8.1"/>
<ellipse transform="matrix(0.9568 -0.2909 0.2909 0.9568 -10.8559 45.5705)" fill="none" stroke="#000000" stroke-width="4" stroke-linecap="round" stroke-miterlimit="10" cx="147.9" cy="59.3" rx="8.1" ry="8.1"/>
<path fill="none" stroke="#000000" stroke-width="4" stroke-linecap="round" stroke-miterlimit="10" d="M114.7,77.1
	c-3.8-1.6-6.8-4.6-8.5-8.4l27.8,0.5C130,76.6,122,80.1,114.7,77.1z"/>
<path fill-rule="evenodd" clip-rule="evenodd" fill="#B8A126" d="M209.8,59.4c1.5-1.4,2.3-3.3,2.3-5.7c0-1.8-0.5-3.3-1.4-4.6
	c-0.9-1.3-2.1-2.1-3.6-2.5c-1-0.3-2.7-0.4-5.3-0.4H191v15.3h11C205.7,61.5,208.2,60.8,209.8,59.4z M185.3,83.9v-7.7h-11v-4.8h11
	V41.2h16.1c2.8,0,5,0.1,6.5,0.4c2.1,0.4,3.9,1,5.3,2c1.4,1,2.6,2.4,3.4,4.1c0.9,1.8,1.3,3.7,1.3,5.8c0,3.6-1.2,6.7-3.5,9.2
	c-2.3,2.5-6.5,3.8-12.5,3.8h-11v4.9h11.9v4.8H191v7.7H185.3z"/>
<ellipse transform="matrix(0.9568 -0.2909 0.2909 0.9568 -12.8591 29.5552)" fill-rule="evenodd" clip-rule="evenodd" cx="93" cy="58" rx="4.1" ry="4.1"/>
<ellipse transform="matrix(0.9568 -0.2909 0.2909 0.9568 -10.4894 45.4971)" fill-rule="evenodd" clip-rule="evenodd" cx="147.8" cy="58" rx="4.1" ry="4.1"/>
<ellipse transform="matrix(0.9567 -0.291 0.291 0.9567 -10.1495 45.2859)" fill-rule="evenodd" clip-rule="evenodd" fill="#FFFFFF" cx="147.2" cy="56.8" rx="1.6" ry="1.6"/>
<ellipse transform="matrix(0.9567 -0.291 0.291 0.9567 -12.6454 29.3525)" fill-rule="evenodd" clip-rule="evenodd" fill="#FFFFFF" cx="92.3" cy="57.2" rx="1.6" ry="1.6"/>
</svg>
