<?xml version="1.0" encoding="utf-8"?>
<!-- Generator: Adobe Illustrator 21.0.0, SVG Export Plug-In . SVG Version: 6.00 Build 0)  -->
<svg version="1.1" id="Слой_1" xmlns="http://www.w3.org/2000/svg" xmlns:xlink="http://www.w3.org/1999/xlink" x="0px" y="0px"
	 viewBox="0 0 240 160" enable-background="new 0 0 240 160" xml:space="preserve">
<path fill-rule="evenodd" clip-rule="evenodd" d="M80.7,25.5v2.1c0,0.3,0.3,0.6,0.6,0.6h0c0.3,0,0.6-0.3,0.6-0.6v-2.1
	c0-0.3-0.3-0.6-0.6-0.6h0C81,24.9,80.7,25.1,80.7,25.5z"/>
<path fill-rule="evenodd" clip-rule="evenodd" d="M80.7,33v2.1c0,0.3,0.3,0.6,0.6,0.6h0c0.3,0,0.6-0.3,0.6-0.6V33
	c0-0.3-0.3-0.6-0.6-0.6h0C81,32.4,80.7,32.7,80.7,33z"/>
<path fill-rule="evenodd" clip-rule="evenodd" d="M76.5,30.9h2.1c0.3,0,0.6-0.3,0.6-0.6v0c0-0.3-0.3-0.6-0.6-0.6h-2.1
	c-0.3,0-0.6,0.3-0.6,0.6v0C75.9,30.7,76.2,30.9,76.5,30.9z"/>
<path fill-rule="evenodd" clip-rule="evenodd" d="M84.1,30.9h2.1c0.3,0,0.6-0.3,0.6-0.6v0c0-0.3-0.3-0.6-0.6-0.6h-2.1
	c-0.3,0-0.6,0.3-0.6,0.6v0C83.4,30.7,83.7,30.9,84.1,30.9z"/>
<path fill-rule="evenodd" clip-rule="evenodd" d="M77.5,27.3l1.5,1.5c0.2,0.2,0.6,0.2,0.9,0l0,0c0.2-0.2,0.2-0.6,0-0.9l-1.5-1.5
	c-0.2-0.2-0.6-0.2-0.9,0l0,0C77.2,26.7,77.2,27.1,77.5,27.3z"/>
<path fill-rule="evenodd" clip-rule="evenodd" d="M82.8,32.7l1.5,1.5c0.2,0.2,0.6,0.2,0.9,0l0,0c0.2-0.2,0.2-0.6,0-0.9l-1.5-1.5
	c-0.2-0.2-0.6-0.2-0.9,0l0,0C82.6,32.1,82.6,32.4,82.8,32.7z"/>
<path fill-rule="evenodd" clip-rule="evenodd" d="M78.3,34.2l1.5-1.5c0.2-0.2,0.2-0.6,0-0.9l0,0c-0.2-0.2-0.6-0.2-0.9,0l-1.5,1.5
	c-0.2,0.2-0.2,0.6,0,0.9l0,0C77.7,34.4,78.1,34.4,78.3,34.2z"/>
<path fill-rule="evenodd" clip-rule="evenodd" d="M83.7,28.8l1.5-1.5c0.2-0.2,0.2-0.6,0-0.9l0,0c-0.2-0.2-0.6-0.2-0.9,0L82.8,28
	c-0.2,0.2-0.2,0.6,0,0.9l0,0C83.1,29.1,83.5,29.1,83.7,28.8z"/>
<path fill-rule="evenodd" clip-rule="evenodd" d="M181.9,20.8v2.8c0,0.4,0.4,0.8,0.8,0.8h0c0.4,0,0.8-0.4,0.8-0.8v-2.8
	c0-0.4-0.4-0.8-0.8-0.8h0C182.3,20,181.9,20.4,181.9,20.8z"/>
<path fill-rule="evenodd" clip-rule="evenodd" d="M181.9,30.9v2.8c0,0.4,0.4,0.8,0.8,0.8h0c0.4,0,0.8-0.4,0.8-0.8v-2.8
	c0-0.4-0.4-0.8-0.8-0.8h0C182.3,30.1,181.9,30.4,181.9,30.9z"/>
<path fill-rule="evenodd" clip-rule="evenodd" d="M176.3,28.1h2.8c0.4,0,0.8-0.4,0.8-0.8v0c0-0.4-0.4-0.8-0.8-0.8h-2.8
	c-0.4,0-0.8,0.4-0.8,0.8v0C175.5,27.7,175.9,28.1,176.3,28.1z"/>
<path fill-rule="evenodd" clip-rule="evenodd" d="M186.4,28.1h2.8c0.4,0,0.8-0.4,0.8-0.8v0c0-0.4-0.4-0.8-0.8-0.8h-2.8
	c-0.4,0-0.8,0.4-0.8,0.8v0C185.6,27.7,185.9,28.1,186.4,28.1z"/>
<path fill-rule="evenodd" clip-rule="evenodd" d="M177.6,23.3l2,2c0.3,0.3,0.8,0.3,1.1,0l0,0c0.3-0.3,0.3-0.8,0-1.1l-2-2
	c-0.3-0.3-0.8-0.3-1.1,0l0,0C177.3,22.5,177.3,23,177.6,23.3z"/>
<path fill-rule="evenodd" clip-rule="evenodd" d="M184.7,30.4l2,2c0.3,0.3,0.8,0.3,1.1,0l0,0c0.3-0.3,0.3-0.8,0-1.1l-2-2
	c-0.3-0.3-0.8-0.3-1.1,0l0,0C184.4,29.6,184.4,30.1,184.7,30.4z"/>
<path fill-rule="evenodd" clip-rule="evenodd" d="M178.8,32.4l2-2c0.3-0.3,0.3-0.8,0-1.1l0,0c-0.3-0.3-0.8-0.3-1.1,0l-2,2
	c-0.3,0.3-0.3,0.8,0,1.1l0,0C178,32.7,178.5,32.7,178.8,32.4z"/>
<path fill-rule="evenodd" clip-rule="evenodd" d="M185.9,25.3l2-2c0.3-0.3,0.3-0.8,0-1.1l0,0c-0.3-0.3-0.8-0.3-1.1,0l-2,2
	c-0.3,0.3-0.3,0.8,0,1.1l0,0C185.1,25.6,185.6,25.6,185.9,25.3z"/>
<path fill-rule="evenodd" clip-rule="evenodd" d="M130.6,4.9v1.7c0,0.3,0.2,0.5,0.5,0.5h0c0.3,0,0.5-0.2,0.5-0.5V4.9
	c0-0.3-0.2-0.5-0.5-0.5h0C130.8,4.4,130.6,4.7,130.6,4.9z"/>
<path fill-rule="evenodd" clip-rule="evenodd" d="M130.6,10.9v1.7c0,0.3,0.2,0.5,0.5,0.5h0c0.3,0,0.5-0.2,0.5-0.5v-1.7
	c0-0.3-0.2-0.5-0.5-0.5h0C130.8,10.5,130.6,10.7,130.6,10.9z"/>
<path fill-rule="evenodd" clip-rule="evenodd" d="M127.3,9.3h1.7c0.3,0,0.5-0.2,0.5-0.5v0c0-0.3-0.2-0.5-0.5-0.5h-1.7
	c-0.3,0-0.5,0.2-0.5,0.5v0C126.8,9,127,9.3,127.3,9.3z"/>
<path fill-rule="evenodd" clip-rule="evenodd" d="M133.3,9.3h1.7c0.3,0,0.5-0.2,0.5-0.5v0c0-0.3-0.2-0.5-0.5-0.5h-1.7
	c-0.3,0-0.5,0.2-0.5,0.5v0C132.8,9,133,9.3,133.3,9.3z"/>
<path fill-rule="evenodd" clip-rule="evenodd" d="M128.1,6.4l1.2,1.2c0.2,0.2,0.5,0.2,0.7,0l0,0c0.2-0.2,0.2-0.5,0-0.7l-1.2-1.2
	c-0.2-0.2-0.5-0.2-0.7,0l0,0C127.9,5.9,127.9,6.2,128.1,6.4z"/>
<path fill-rule="evenodd" clip-rule="evenodd" d="M132.3,10.6l1.2,1.2c0.2,0.2,0.5,0.2,0.7,0l0,0c0.2-0.2,0.2-0.5,0-0.7L133,10
	c-0.2-0.2-0.5-0.2-0.7,0l0,0C132.1,10.1,132.1,10.5,132.3,10.6z"/>
<path fill-rule="evenodd" clip-rule="evenodd" d="M128.7,11.8l1.2-1.2c0.2-0.2,0.2-0.5,0-0.7l0,0c-0.2-0.2-0.5-0.2-0.7,0l-1.2,1.2
	c-0.2,0.2-0.2,0.5,0,0.7l0,0C128.2,12,128.6,12,128.7,11.8z"/>
<path fill-rule="evenodd" clip-rule="evenodd" d="M133,7.6l1.2-1.2c0.2-0.2,0.2-0.5,0-0.7l0,0c-0.2-0.2-0.5-0.2-0.7,0l-1.2,1.2
	c-0.2,0.2-0.2,0.5,0,0.7l0,0C132.5,7.8,132.8,7.8,133,7.6z"/>
<polygon fill-rule="evenodd" clip-rule="evenodd" fill="#65B1FB" points="111.1,17.3 112,20.1 110.2,22.4 113.1,22.5 114.8,24.9 
	115.7,22.1 118.5,21.3 116.1,19.6 116.3,16.7 113.9,18.3 "/>
<polygon fill="none" stroke="#000000" stroke-width="2.303" stroke-linecap="round" stroke-linejoin="round" stroke-miterlimit="10" points="
	111.1,17.3 112,20.1 110.2,22.4 113.1,22.5 114.8,24.9 115.7,22.1 118.5,21.3 116.1,19.6 116.3,16.7 113.9,18.3 "/>
<polygon fill-rule="evenodd" clip-rule="evenodd" fill="#F2F1CC" points="173.7,116.7 175,120.8 172.3,124.2 176.6,124.3 179,127.9 
	180.4,123.8 184.6,122.6 181.1,120 181.3,115.7 177.7,118.2 "/>
<polygon fill="none" stroke="#000000" stroke-width="3.412" stroke-linecap="round" stroke-linejoin="round" stroke-miterlimit="10" points="
	173.7,116.7 175,120.8 172.3,124.2 176.6,124.3 179,127.9 180.4,123.8 184.6,122.6 181.1,120 181.3,115.7 177.7,118.2 "/>
<polygon fill-rule="evenodd" clip-rule="evenodd" fill="#E6A330" points="52,59.8 53.6,64.8 50.4,69 55.6,69 58.6,73.4 60.2,68.4 
	65.3,67 61.1,63.8 61.3,58.6 57,61.6 "/>
<polygon fill="none" stroke="#000000" stroke-width="4.151" stroke-linecap="round" stroke-linejoin="round" stroke-miterlimit="10" points="
	52,59.8 53.6,64.8 50.4,69 55.6,69 58.6,73.4 60.2,68.4 65.3,67 61.1,63.8 61.3,58.6 57,61.6 "/>
<polygon fill-rule="evenodd" clip-rule="evenodd" fill="#D56B7A" points="65.1,135.6 66.4,139.7 63.7,143.1 68.1,143.1 70.5,146.7 
	71.9,142.6 76,141.4 72.6,138.9 72.7,134.5 69.2,137 "/>
<polygon fill="none" stroke="#000000" stroke-width="3.412" stroke-linecap="round" stroke-linejoin="round" stroke-miterlimit="10" points="
	65.1,135.6 66.4,139.7 63.7,143.1 68.1,143.1 70.5,146.7 71.9,142.6 76,141.4 72.6,138.9 72.7,134.5 69.2,137 "/>
<path fill-rule="evenodd" clip-rule="evenodd" fill="#979797" d="M117.9,122.4c-3.5,3.2-4.7,6.6,2.6,10.5c-2.3,3.2-2.9,6.3,3,8.9
	c-2.1,3.9-0.8,6.5,3.3,7.9c5.1,6.9,10.6,7.4,16.3,0.2c5.7-2.5,5.8-5.3,2.8-8.4c4.7-1.9,6-4.6,2.1-8.4c4.6-2.8,6.6-6,1.9-10
	L117.9,122.4z"/>
<path fill="none" stroke="#000000" stroke-width="1.5" stroke-linecap="round" stroke-miterlimit="10" d="M117.9,122.4
	c-3.5,3.2-4.7,6.6,2.6,10.5c-2.3,3.2-2.9,6.3,3,8.9c-2.1,3.9-0.8,6.5,3.3,7.9c5.1,6.9,10.6,7.4,16.3,0.2c5.7-2.5,5.8-5.3,2.8-8.4
	c4.7-1.9,6-4.6,2.1-8.4c4.6-2.8,6.6-6,1.9-10L117.9,122.4z"/>
<path fill-rule="evenodd" clip-rule="evenodd" fill="#FFFFFF" d="M120.9,124c-4.1,5.1-0.6,8.7,13.3,10.4c-3.3,0.4-6.7,0.4-10.4-0.3
	c-3.2,3.8,0.3,6.8,11.6,8.9l-8.4-0.3c-3.3,2.9-1.3,5.4,7.5,7.6c-10.8-0.4-13.8-3.4-10.8-8.3c-5.2-2.7-6.2-5.6-3.4-8.7
	c-3.9-2.4-6.8-5.3-2.6-12.1L120.9,124z"/>
<path fill-rule="evenodd" clip-rule="evenodd" fill="#363636" d="M126.8,152.5c5.3,0.4,10.3,0.3,15.2-0.3c-1.9,2.9-4.7,4.8-8.7,5.3
	L126.8,152.5z"/>
<polygon fill-rule="evenodd" clip-rule="evenodd" fill="#F3D433" points="171.9,106 166.4,105.9 106.2,115.2 102.1,117.7 83,129.4 
	94.7,109.5 78.7,114.5 90.8,100.9 65.4,96.2 87.7,84.1 65,75.5 88.8,72 61.1,44.3 98.2,59.9 89.6,37.7 109.1,52.1 109.9,38.1 
	118.9,49 126.7,30.3 132.9,49 145,35.4 145,52.5 173.1,35.4 160.6,61.5 191.4,57.6 170.7,75.9 191,75.9 172.3,84.1 193.4,91.9 
	173.5,93.5 185.6,106 "/>
<path fill="none" stroke="#FFFFFF" stroke-width="12" stroke-linecap="round" stroke-miterlimit="10" d="M94.7,78.6
	c5.2-18,25.5-27.1,45.4-20.2c19.9,6.9,31.8,27.1,26.6,45.1c-5.2,18-25.5,27.1-45.4,20.2C101.4,116.9,89.5,96.7,94.7,78.6z"/>
<path fill-rule="evenodd" clip-rule="evenodd" fill="#F8E677" d="M93.7,94.7c-2.6-23.3,10.6-38.6,35.9-38.9
	c27,4.7,39,22.2,38.2,42.4c-3.4,17.1-14,27-34,27.5C116.4,124.6,101.6,117.7,93.7,94.7z"/>
<path fill-rule="evenodd" clip-rule="evenodd" fill="#FFFFFF" d="M93.7,94.7c-2.6-23.3,10.6-38.6,35.9-38.9
	c19.2,3.3,30.9,13.2,35.7,26c-4.9-7.6-13.4-13.3-26.1-15.5c-20.4,0.2-31.1,12.6-29,31.4c6.4,18.6,18.4,24.2,32.4,25
	c3.6-0.1,6.8-0.6,9.7-1.4c-4.9,2.7-11.1,4.2-18.5,4.3C116.4,124.6,101.6,117.7,93.7,94.7z"/>
<path fill-rule="evenodd" clip-rule="evenodd" fill="#AC2626" d="M141.7,101.4c-17.7,3.5-24.7-0.3-34-2.6
	C122.3,121.9,144.7,111.1,141.7,101.4z"/>
<path fill-rule="evenodd" clip-rule="evenodd" fill="#FFFFFF" d="M136.8,102.4l-1.2,4.7c-8.6,1.7-16.1,0.2-23.5-2.8l-4.2-4.7
	C117,102.3,126.4,104,136.8,102.4z"/>
<ellipse transform="matrix(0.9568 -0.2909 0.2909 0.9568 -15.469 47.1654)" fill-rule="evenodd" clip-rule="evenodd" fill="#FFFFFF" cx="150.9" cy="75.6" rx="6.2" ry="6.2"/>
<path fill="none" stroke="#000000" stroke-width="4.244" stroke-linecap="round" stroke-miterlimit="10" d="M94.7,78.6
	c5.2-18,25.5-27.1,45.4-20.2c19.9,6.9,31.8,27.1,26.6,45.1c-5.2,18-25.5,27.1-45.4,20.2C101.4,116.9,89.5,96.7,94.7,78.6z"/>
<ellipse transform="matrix(0.9568 -0.2909 0.2909 0.9568 -19.0116 36.1509)" fill-rule="evenodd" clip-rule="evenodd" fill="#FFFFFF" cx="112.1" cy="82" rx="8.5" ry="8.5"/>
<ellipse transform="matrix(0.9568 -0.2909 0.2909 0.9568 -19.0116 36.1509)" fill="none" stroke="#000000" stroke-width="4" stroke-linecap="round" stroke-miterlimit="10" cx="112.1" cy="82" rx="8.5" ry="8.5"/>
<ellipse transform="matrix(0.9568 -0.2909 0.2909 0.9568 -19.2345 35.7357)" fill-rule="evenodd" clip-rule="evenodd" cx="110.6" cy="82.6" rx="4.3" ry="4.3"/>
<ellipse transform="matrix(0.9568 -0.2908 0.2908 0.9568 -19.0007 35.4945)" fill-rule="evenodd" clip-rule="evenodd" fill="#FFFFFF" cx="109.9" cy="81.7" rx="1.6" ry="1.6"/>
<ellipse transform="matrix(0.9568 -0.2909 0.2909 0.9568 -15.469 47.1654)" fill="none" stroke="#000000" stroke-width="4" stroke-linecap="round" stroke-miterlimit="10" cx="150.9" cy="75.6" rx="6.2" ry="6.2"/>
<ellipse transform="matrix(0.9568 -0.2908 0.2908 0.9568 -15.6286 46.8538)" fill-rule="evenodd" clip-rule="evenodd" cx="149.8" cy="76" rx="3.1" ry="3.1"/>
<ellipse transform="matrix(0.9568 -0.2908 0.2908 0.9568 -15.4607 46.6823)" fill-rule="evenodd" clip-rule="evenodd" fill="#FFFFFF" cx="149.3" cy="75.4" rx="1.2" ry="1.2"/>
<path fill="none" stroke="#000000" stroke-width="4" stroke-linecap="round" stroke-linejoin="round" stroke-miterlimit="10" d="
	M133.8,90c9.2,5.6,16.7-3.3,0-17.3"/>
<polyline fill="none" stroke="#000000" stroke-width="4" stroke-linecap="round" stroke-linejoin="round" stroke-miterlimit="10" points="
	102.1,117.7 83,129.4 94.7,109.5 78.7,114.5 90.8,100.9 65.4,96.2 87.7,84.1 65,75.5 88.8,72 61.1,44.3 98.2,59.9 89.6,37.7 
	109.1,52.1 109.9,38.1 118.9,49 126.7,30.3 132.9,49 145,35.4 145,52.5 173.1,35.4 160.6,61.5 191.4,57.6 170.7,75.9 191,75.9 
	172.3,84.1 193.4,91.9 173.5,93.5 185.6,106 171.9,106 "/>
<path fill="none" stroke="#000000" stroke-width="4" stroke-linecap="round" stroke-linejoin="round" stroke-miterlimit="10" d="
	M106.3,98.3c11.6,6.7,36.3,8,51.3-5.3"/>
<path fill="none" stroke="#000000" stroke-width="4" stroke-linecap="round" stroke-linejoin="round" stroke-miterlimit="10" d="
	M106.3,98.4c16.5,20.4,34.2,15.9,35.4,4.3"/>
<path fill="none" stroke="#000000" stroke-width="4" stroke-linecap="round" stroke-linejoin="round" stroke-miterlimit="10" d="
	M117.6,122.8c-14.1,17.7,48.6,14.5,32.4,0.4"/>
<path fill="none" stroke="#000000" stroke-width="4" stroke-linecap="round" stroke-linejoin="round" stroke-miterlimit="10" d="
	M120.9,133.2c-11.8,14.8,40.8,12.2,27.2,0.3"/>
<path fill="none" stroke="#000000" stroke-width="4" stroke-linecap="round" stroke-linejoin="round" stroke-miterlimit="10" d="
	M123.8,142.5c-9.7,12.1,33.3,9.9,22.2,0.3"/>
<path fill="none" stroke="#000000" stroke-width="4" stroke-linecap="round" stroke-linejoin="round" stroke-miterlimit="10" d="
	M127.4,150.3c3.2,4.9,9.6,9,15.9-0.4"/>
<polyline fill="none" stroke="#000000" stroke-width="3" stroke-linecap="round" stroke-linejoin="round" stroke-miterlimit="10" points="
	59.4,49 53.4,39.6 65.5,41.8 "/>
<polyline fill="none" stroke="#000000" stroke-width="3" stroke-linecap="round" stroke-linejoin="round" stroke-miterlimit="10" points="
	68,101.2 56.4,98.5 66.1,91 "/>
<polyline fill="none" stroke="#000000" stroke-width="3" stroke-linecap="round" stroke-linejoin="round" stroke-miterlimit="10" points="
	87.8,131.7 76.6,135.4 80.9,124 "/>
<polyline fill="none" stroke="#000000" stroke-width="3" stroke-linecap="round" stroke-linejoin="round" stroke-miterlimit="10" points="
	105.9,42 107.3,30.2 115.8,39 "/>
<polyline fill="none" stroke="#000000" stroke-width="3" stroke-linecap="round" stroke-linejoin="round" stroke-miterlimit="10" points="
	139.5,35.9 147.7,27.3 149.2,39.5 "/>
<polyline fill="none" stroke="#000000" stroke-width="3" stroke-linecap="round" stroke-linejoin="round" stroke-miterlimit="10" points="
	186.7,54.2 198.6,54.2 190.8,63.7 "/>
<polyline fill="none" stroke="#000000" stroke-width="3" stroke-linecap="round" stroke-linejoin="round" stroke-miterlimit="10" points="
	191.4,86.8 201.3,93.3 189.6,97 "/>
</svg>
