<?xml version="1.0" encoding="utf-8"?>
<!-- Generator: Adobe Illustrator 17.0.0, SVG Export Plug-In . SVG Version: 6.00 Build 0)  -->
<!DOCTYPE svg PUBLIC "-//W3C//DTD SVG 1.1//EN" "http://www.w3.org/Graphics/SVG/1.1/DTD/svg11.dtd">
<svg version="1.1" id="Слой_1" xmlns="http://www.w3.org/2000/svg" xmlns:xlink="http://www.w3.org/1999/xlink" x="0px" y="0px"
	 width="737px" height="652px" viewBox="0 0 737 652" enable-background="new 0 0 737 652" xml:space="preserve">
<g>
	<g>
		<rect x="209.241" y="391.167" fill="#FFFEE8" width="8.236" height="8.236"/>
		<rect x="141.305" y="407.47" fill="#FFFEE8" width="15.03" height="15.03"/>
		<rect x="313.86" y="544.699" fill="#FFFEE8" width="23.182" height="23.182"/>
		<path fill="#FFFEE8" d="M290.848,437.361h-31.25v-29.892H221.47v21.74h-58.424v63.859h-39.402v20.38H67.935v67.935H0V652h126.443
			v-17.543h71.592v7.819h8.236v-8.236h-7.816v-24.04h70.653v-54.348h1.358v-16.304h38.044v-42.205h-17.663V437.361z
			 M125.001,633.014H70.737v-48.829h54.264V633.014z M163.045,561.002h-24.373v-25.73h24.373V561.002z"/>
		<rect x="29.89" y="475.406" fill="#FFFEE8" width="31.335" height="31.335"/>
	</g>
	<g>
		<path fill-rule="evenodd" clip-rule="evenodd" fill="#D5D6D8" d="M410.479,174.452c1.182-3.869,3.808-6.762,9.401-7.651
			l-3.395-4.937c-6.479,1.556-10.044,5.083-12.12,9.616L410.479,174.452z"/>
	</g>
	<g>
		<path d="M410.479,175.728c-0.191,0-0.382-0.043-0.558-0.128l-6.113-2.971c-0.623-0.303-0.891-1.048-0.602-1.679
			c2.495-5.45,6.741-8.827,12.982-10.326c0.512-0.123,1.05,0.082,1.349,0.518l3.395,4.937c0.248,0.361,0.294,0.824,0.121,1.227
			c-0.173,0.402-0.54,0.688-0.972,0.757c-4.529,0.719-7.192,2.868-8.381,6.763c-0.109,0.357-0.368,0.648-0.711,0.797
			C410.826,175.692,410.653,175.728,410.479,175.728z M406.081,170.896l3.68,1.788c1.456-3.466,4.087-5.686,7.985-6.735
			l-1.806-2.626C411.341,164.607,408.169,167.04,406.081,170.896z"/>
	</g>
	<g>
		<path fill-rule="evenodd" clip-rule="evenodd" fill="#FCC2AE" d="M551.081,71.87c-14.74-8.709-20.34-14.926-13.784-17.827
			l10.659,3.308c-7.7-11.081-14.411-21.648-7.902-25.363c4.254,2.713,8.673,7.721,13.416,17.276
			c-2.418-10.774-5.643-22.543-0.551-24.076c4.866,2.366,7.888,10.273,9.373,22.79l7.903-19.114
			c5.192-5.672,6.802-1.891,6.616,6.616l-5.329,14.887l11.394-15.438c7.09-5.025,7.078-0.574,5.146,6.432l-9.557,13.601
			c0.011,6.631-1.281,12.252-5.698,15.438L551.081,71.87z"/>
	</g>
	<g>
		<path fill-rule="evenodd" clip-rule="evenodd" fill="#4B5974" d="M533.254,111.016l19.666,0.92l-3.124-40.066l26.098-1.838
			c4.743,30.339,6.324,54.236-2.389,57.159c-7.171,0.744-14.081,0.706-20.768,0l-21.871-11.946L533.254,111.016z"/>
	</g>
	<g>
		<path fill-rule="evenodd" clip-rule="evenodd" fill="#494949" d="M554.547,127.596c20.424,2.328,27.482,10.077,14.648,25.888
			C567.159,144.381,561.971,135.801,554.547,127.596z"/>
	</g>
	<g>
		<path fill-rule="evenodd" clip-rule="evenodd" fill="#D5D6D8" d="M455.47,150.015c13.859-2.723,24.552-10.198,32.192-22.251
			c19.324,2.503,37.495-0.673,42.608-12.072c18.69,5.161,32.656,18.26,39.531,38.347c-12.446,23.127-43.05,38.256-77.405,49.473
			l-8.522-0.71c3.75-16.504,4.053-32.921-17.989-48.763L455.47,150.015z"/>
	</g>
	<g>
		<path fill-rule="evenodd" clip-rule="evenodd" fill="#F26B7B" d="M504.293,128.34c19.744,13.071,34.238,28.767,38.687,49.484
			l8.277-5.218c-11.606-26.484-25.996-36.734-40.667-45.345L504.293,128.34z"/>
	</g>
	<g>
		<path fill-rule="evenodd" clip-rule="evenodd" fill="#FCA61A" d="M320.467,163.918c12.435,2.38,24.703-4.348,33.948-23.036
			c3.744-6.694,6.509-13.6,9.457-19.399c4.957-12.076,14.344-21.7,32.978-24.249c3.534,6.888,7.275,13.621,13.579,18.429
			c-13.442,3.39-25.041,8.956-31.281,20.854c-4.963,11.946-10.607,23.553-18.186,34.191c-7.229,9.757-16.478,13.452-26.916,13.579
			L320.467,163.918z"/>
	</g>
	<g>
		<path fill-rule="evenodd" clip-rule="evenodd" fill="#C84D5B" d="M395.267,111.749l6.801-3.562l-5.092-4.684l-6.795,3.561
			L395.267,111.749z M400.476,116.625l-5.167-4.753l-6.92,3.627l-5.187-4.777l-6.873,3.604l-5.141-4.734
			c0.106-0.117,0.213-0.234,0.321-0.35l0.006-0.003l6.526-3.422l5.185,4.775l6.797-3.559l-5.185-4.779l6.981-3.659l5.187,4.775
			l2.433-1.273c1.108,1.975,2.282,3.901,3.583,5.732l-0.73,0.383l4.137,3.808l-0.056-0.051c0.327,0.351,0.663,0.698,1.006,1.037
			L400.476,116.625z"/>
	</g>
	<g>
		<path fill-rule="evenodd" clip-rule="evenodd" fill="#C84D5B" d="M380.594,128.336l6.801-3.562l-5.092-4.684l-6.795,3.561
			L380.594,128.336z M373.716,132.086l-5.187-4.777l-6.873,3.604l-1.574-1.449c1.129-2.444,2.212-4.811,3.313-7.032l5.157,4.748
			l6.797-3.559l-5.185-4.779l6.981-3.659l5.187,4.775l6.876-3.602l5.163,4.755l6.922-3.627l0.773,0.713l-0.009-0.009
			c-2.596,0.939-5.081,2.011-7.421,3.253l0.008,0.008l-0.231-0.214l-6.795,3.565l0.749,0.691l-0.003-0.003
			c-1.945,1.528-3.732,3.243-5.333,5.178l0.007,0.005l-2.404-2.212L373.716,132.086z"/>
	</g>
	<g>
		<path fill-rule="evenodd" clip-rule="evenodd" fill="#C84D5B" d="M364.007,144.923l6.801-3.562l-5.092-4.684l-6.795,3.561
			L364.007,144.923z M369.215,149.8l-5.167-4.753l-6.92,3.627l-4.593-4.229c0.252-0.447,0.502-0.903,0.75-1.368l-0.008,0.004
			l5.483-2.872l-2.668-2.458c0.846-1.64,1.643-3.281,2.412-4.903l-0.004,0.003l2.058-1.079l5.187,4.775l6.876-3.602l5.163,4.755
			l1.114-0.584c-0.17,0.407-0.342,0.815-0.514,1.222l-0.007-0.007l-0.552-0.509l-6.795,3.565l4.281,3.941
			c-0.257,0.562-0.517,1.124-0.779,1.684L369.215,149.8z"/>
	</g>
	<g>
		<path fill-rule="evenodd" clip-rule="evenodd" fill="#C84D5B" d="M363.856,121.526l-0.004-0.003
			c0.007-0.014,0.014-0.026,0.02-0.04c0.977-2.379,2.125-4.663,3.482-6.817l3.478,3.202L363.856,121.526z"/>
	</g>
	<g>
		<path fill-rule="evenodd" clip-rule="evenodd" fill="#C84D5B" d="M329.119,164.088l-0.028-0.025
			c0.037-0.006,0.074-0.013,0.111-0.019L329.119,164.088z M353.266,166.387l-5.167-4.753l-6.92,3.627l-4.27-3.932
			c2.093-1.145,4.139-2.622,6.122-4.448l5.026,4.629l6.801-3.562l-5.092-4.684l-6.539,3.427l0.02-0.011
			c1.615-1.511,3.188-3.254,4.71-5.238l1.839,1.692l6.876-3.602l5.163,4.755l6.922-3.627l2.741,2.525l0.009,0.008
			c-0.871,1.698-1.77,3.383-2.701,5.051l-1.76,0.923l-5.169-4.756l-6.795,3.565l5.164,4.753L353.266,166.387z"/>
	</g>
	<g>
		<path fill-rule="evenodd" clip-rule="evenodd" fill="#C84D5B" d="M344.23,178.736l6.801-3.562l-5.092-4.684l-6.795,3.561
			L344.23,178.736z M337.351,182.486l-5.187-4.777l-1.855,0.973l-3.759-5.64l0.453-0.237l5.185,4.775l6.797-3.559l-5.185-4.779
			l6.981-3.659l5.187,4.775l6.876-3.602l5.163,4.755l3.783-1.981c-0.273,0.393-0.55,0.786-0.828,1.176
			c-0.541,0.73-1.092,1.425-1.654,2.087l-0.007-0.007l-1.252-1.153l-6.795,3.565l2.819,2.596l0.01,0.009
			c-2.128,1.634-4.371,2.921-6.716,3.904l-0.008-0.008l-3.089-2.842L337.351,182.486z"/>
	</g>
	<g>
		<path fill-rule="evenodd" clip-rule="evenodd" fill="#FCC2AE" d="M457.653,121.637c19.388,5.584,38.943,10.551,61.937,2.91
			c12.968-7.384,22.322-17.483,2.494-49.467l-16.628-20.368l-48.219,29.929l-6.651,4.157v25.772L457.653,121.637z"/>
	</g>
	<g>
		<path fill-rule="evenodd" clip-rule="evenodd" fill="#FFFEE8" d="M524.578,75.08c0.832-10.281-2.749-17.915-12.886-21.615
			l-2.079,5.403L524.578,75.08z"/>
	</g>
	<g>
		<path fill-rule="evenodd" clip-rule="evenodd" fill="#FCA61A" d="M663.002,194.822l-21.924,34.941l5.481,25.35
			C657.741,238.896,666.293,218.278,663.002,194.822z"/>
	</g>
	<g>
		<path fill-rule="evenodd" clip-rule="evenodd" fill="#FFFEE8" d="M422.232,122.827c-30.764-13.931-41.827-53.006-0.847-86.981
			c36.909-26.814,76.574-19.378,93.599,4.456l-63.788,48.869l-0.638,26.157L422.232,122.827z"/>
	</g>
	<g>
		<path fill-rule="evenodd" clip-rule="evenodd" fill="#C84D5B" d="M472.02,109.843c17.676,3.336,42.371,0.437,41.466-13.337
			c-3.277-1.967-6.745-2.976-10.669-1.697C494.272,102.404,483.296,106.351,472.02,109.843z"/>
	</g>
	<g>
		<path fill-rule="evenodd" clip-rule="evenodd" d="M421.92,122.685c0.246-1.165,0.51-2.366,0.791-3.601
			c0.993-2.975-3.976-4.464-4.467-1.489c-0.347,0.896-0.681,1.78-1,2.655c-13.1-7.669-21.637-20.31-22.458-34.968
			c0.409-0.492,0.784-0.972,1.121-1.435c1.489-1.983,6.454-19.85,10.92-11.908c0.993,1.985-4.965,6.948,0.496,7.941
			c2.482,0.496,5.459-6.949,6.948-7.941c2.479-1.492,5.461,0,7.943-0.498c3.967-0.994,6.945-10.919,6.449-12.903
			c-0.497-0.993-1.986-3.471-1.986-3.967c0.497-1.985,2.978-3.479,4.467-2.983c0.993,0.496,1.987,1.489,1.987,1.99
			c-3.476,5.953-6.454,14.888,0.494,20.346c1.489,0.993,1.988,1.489,3.477,1.985c1.985-2.481,2.48-4.963,4.962-7.444
			c1.985-1.988,8.434-6.454,8.931-8.438c0.501-0.993-1.983-8.936,2.983-7.944c0.495,0.502,0.495,0.993,0.992,1.495
			c1.489,3.967-1.985,7.937-4.965,11.907c-2.978,3.475-9.429,7.446-9.429,11.418c0,0.992,0,0.992,0.497,1.488
			c2.48,0.993,4.467-7.943,7.94-4.467c-0.993,1.985-5.955,3.474-2.977,5.459c6.454-0.496,9.928-5.459,14.888-10.424
			c1.489-1.489,7.942-13.892,8.935-4.963c-0.993,0.992-2.98,1.488-3.972,2.48c-5.955,4.963-9.923,10.425-12.404,16.38
			c0.497,0.493,0.497,0.493,0.992,0.99c0.482,0.482,3.311-2.316,3.924-0.193l-7.201,5.517l-0.638,26.157l-15.142,4.009l0.057-0.015
			c-1.837-1.54-4.024-1.248-5.208,1.379l-8.032,2.127C422.128,122.781,422.024,122.733,421.92,122.685z"/>
	</g>
	<g>
		<path fill-rule="evenodd" clip-rule="evenodd" d="M430.152,41.665c0.497-0.993,1.489-1.489,2.482-1.489
			c5.461,0.496,3.972,5.955-1.489,8.437C428.664,48.613,429.159,44.146,430.152,41.665z"/>
	</g>
	<g>
		<path fill-rule="evenodd" clip-rule="evenodd" fill="#A69D8C" d="M491.181,203.791c43.568-15.407,75.483-33.995,83.009-59.233
			c2.915-8.226,0.072-12.998-7.788-14.757c6.184-0.925,11.056-2.77,11.682-7.584c11.563,8.219,16.108,18.654,6.969,33.408
			c-13.501,19.55-34.649,35.916-67.637,47.346L491.181,203.791z"/>
	</g>
	<g>
		<path fill-rule="evenodd" clip-rule="evenodd" fill="#F26B7B" d="M314.159,373.528c-21.33,3.791-40.94,10.451-51.676,31.899
			c-3.511,8.505-8.605,13.839-17.225,12.121c7.868,0.479,15.737,1.773,23.605-5.742c-7.387,9.999-16.919,17.138-29.347,20.415
			c4.428,2.664,9.103,4.589,15.311,1.914c-20.178,10.502-36.738,24.291-37.64,52.314c9.149-7.861,18.431-15.544,33.174-15.949
			c-20.43,8.646-36.436,23.129-41.468,52.314c35.076-2.946,64.497-16.496,86.126-44.658c0.264,9.028-5.17,16.915-13.397,24.243
			c17.662-6.58,32.919-15.566,49.124-40.83c-0.293,5.569-2.093,11.893-5.742,19.139c-5.223,11.393-5.031,18.381,1.276,22.967
			c-1.956-10.29,0.125-21.663,15.311-29.985c14.867-8.099,24.306-21.627,27.433-41.468c-13.226-3.635-18.087-10.618-21.429-18.206
			l-16.378-20.65C321.131,388.954,316.59,381.767,314.159,373.528z"/>
	</g>
	<g>
		<path fill-rule="evenodd" clip-rule="evenodd" fill="#FCDC1A" d="M313.521,375.442c-7.873,4.836-21.118,15.289-20.415,35.726
			c-0.034,6.642-1.915,12.051-7.018,15.311c5.981-3.092,11.767-5.521,15.949-20.415c-1.592,14.108-1.662,28.892-30.623,38.916
			c26.26,9.531,55.243,6.758,58.693-13.397c0.679,2.562,4.211,13.181-7.018,21.053c11.686,1.723,28.585-4.021,44.02-19.139
			L313.521,375.442z"/>
	</g>
	<g>
		<path fill-rule="evenodd" clip-rule="evenodd" fill="#AF2C3B" d="M328.803,369.676c-5.54-0.037-10.482,0.722-13.737,3.195
			c1.841,10.086,5.753,18.1,15.334,20.446l16.612,20.766c4.095,10.043,9.243,18.507,20.446,17.89
			c3.239-4.06,4.913-8.515,4.792-13.417L328.803,369.676z"/>
	</g>
	<g>
		<polygon fill-rule="evenodd" clip-rule="evenodd" fill="#FCA61A" points="497.895,363.32 481.307,443.705 374.128,469.224 
			379.87,420.1 		"/>
	</g>
	<g>
		<polygon fill-rule="evenodd" clip-rule="evenodd" fill="#F4F2CD" points="383.137,416.908 380.094,462.404 482.955,439.864 
			482.025,443.947 375.429,468.663 381.808,418.261 		"/>
	</g>
	<g>
		<polygon fill-rule="evenodd" clip-rule="evenodd" fill="#FCA61A" points="397.268,251.596 315.486,258.565 277.477,361.977 
			326.937,362.083 		"/>
	</g>
	<g>
		<polygon fill-rule="evenodd" clip-rule="evenodd" fill="#F4F2CD" points="329.663,360.44 284.168,357.407 320.185,258.456 
			316.014,258.835 277.344,361.198 328.147,361.577 		"/>
	</g>
	<g>
		<path fill-rule="evenodd" clip-rule="evenodd" fill="#F4F2CD" d="M328.594,361.878c34.624-70.916,75.737-125.976,123.195-165.525
			c1.831,11.798,4.643,23.353,12.482,33.648l52.642-25.508c57.932-22.473,94.191-64.945,61.325-81.406l2.171-8.683
			c38.389-15.68,80.35-29.775,131.878-39.617c-19.812,70.093-53.698,135.263-102.029,195.374
			c-61.376,67.058-138.982,116.414-231.735,149.244C355.514,414.121,335.026,403.332,328.594,361.878z"/>
	</g>
	<g>
		<path fill-rule="evenodd" clip-rule="evenodd" fill="#F4F2CD" d="M641.8,229.151l6.805,12.41
			c7.696-13.851,12.082-27.229,14.41-39.229c0.259,20.847-5.102,37.607-16.412,50.037L641.8,229.151z"/>
	</g>
	<g>
		<path fill-rule="evenodd" clip-rule="evenodd" fill="#F26B7B" d="M600.533,105.795c0.828,33.32,27.105,65.19,69.831,75.621
			c18.371-33.722,33.863-68.646,41.217-106.96C673.321,81.999,636.092,91.95,600.533,105.795z"/>
	</g>
	<g>
		<path fill-rule="evenodd" clip-rule="evenodd" fill="#FCC2AE" d="M588.207,111.568c-1.029,37.112,40.803,75.935,74.435,82.154
			l7.351-11.762c-39.364-11.063-63.271-35.476-70.759-74.068L588.207,111.568z"/>
	</g>
	<g>
		<polygon fill-rule="evenodd" clip-rule="evenodd" fill="#F26B7B" points="643.278,188.544 652.763,176.304 666.533,181.505 
			659.19,194.051 		"/>
	</g>
	<g>
		<path fill-rule="evenodd" clip-rule="evenodd" fill="#FCC2AE" d="M543.069,203.928c8.961-7.642,19.763-19.654,21.825-10.912
			c-1.544,4.604-4.061,8.886-7.518,12.852l23.764-6.79c6.96,0.741,8.223,3.192,2.425,7.759l-16.247,6.547l19.157,1.212
			c5.338,3.276,6.291,6.343-1.94,8.972l-17.702,0.485l15.519,11.397c3.817,7.529-1.331,6.654-8.244,4.122l-12.852-7.275
			l11.882,14.064c3.096,8.95-1.051,8.245-7.759,4.122l-10.669-13.094c-5.942-0.956-11.228-3.72-14.549-11.882L543.069,203.928z"/>
	</g>
	<g>
		<path fill-rule="evenodd" clip-rule="evenodd" fill="#FFFFFF" d="M330.62,379.448c32.348-62.837,72.315-117.916,125.042-162.045
			l4.466,10.208c-51.702,36.249-95.811,94.561-128.232,156.303L330.62,379.448z"/>
	</g>
	<g>
		<path d="M328.372,364.897c-0.372,0-0.75-0.081-1.107-0.254c-1.269-0.612-1.802-2.138-1.189-3.407
			c31.444-65.161,73.086-121.03,123.769-166.056c1.054-0.936,2.666-0.841,3.603,0.213c0.936,1.054,0.841,2.667-0.213,3.603
			c-50.177,44.576-91.413,99.908-122.563,164.459C330.232,364.366,329.321,364.897,328.372,364.897z M580.488,117.065
			c-0.98,0-1.914-0.567-2.335-1.521c-0.569-1.289,0.014-2.796,1.303-3.366c41.317-18.254,86.281-31.624,133.642-39.736
			c1.388-0.241,2.708,0.695,2.946,2.085c0.238,1.389-0.695,2.708-2.085,2.946c-46.948,8.042-91.508,21.289-132.441,39.374
			C581.183,116.995,580.833,117.065,580.488,117.065z"/>
	</g>
	<g>
		<path fill-rule="evenodd" clip-rule="evenodd" fill="#D5D6D8" d="M418.644,165.862l11.496,43.904
			c3.092,11.812,14.02,19.195,24.39,16.481v-0.001c10.37-2.714,16.277-14.503,13.185-26.315l-11.497-43.904
			c-3.092-11.812-14.02-19.195-24.389-16.482l-0.002,0.001C421.458,142.261,415.551,154.051,418.644,165.862z"/>
	</g>
	<g>
		<path d="M450.17,228.723c-0.001,0-0.001,0-0.002,0c-10.036-0.001-19.033-7.597-21.88-18.472l-11.496-43.904
			c-1.614-6.162-1.016-12.523,1.684-17.912c2.735-5.46,7.291-9.27,12.83-10.731c0.012-0.004,0.025-0.007,0.037-0.01
			c1.582-0.414,3.212-0.624,4.845-0.624c10.036,0,19.033,7.596,21.88,18.473l11.497,43.904c1.613,6.162,1.015,12.524-1.685,17.911
			c-2.742,5.472-7.311,9.286-12.867,10.74C453.435,228.513,451.804,228.723,450.17,228.723z M432.346,141.389
			c-0.011,0.003-0.022,0.006-0.034,0.009c-4.475,1.171-8.173,4.279-10.414,8.752c-2.283,4.557-2.781,9.965-1.403,15.228
			l11.496,43.904c2.368,9.046,10.013,15.613,18.177,15.614c0,0,0.001,0,0.002,0c1.305,0,2.609-0.168,3.876-0.5
			c4.475-1.171,8.173-4.279,10.414-8.752c2.283-4.556,2.782-9.965,1.404-15.227l-11.497-43.904
			c-2.368-9.047-10.013-15.614-18.177-15.614C434.895,140.898,433.601,141.063,432.346,141.389z"/>
	</g>
	<g>
		<path fill-rule="evenodd" clip-rule="evenodd" fill="#CECDB9" d="M358.351,406.542c104.449-42.679,208-105.094,285.512-218.485
			c9.705,6.664,7.833,4.282,19.348,7.326C596.002,310.633,495.796,377.288,378.78,419.179c-8.625,0.216-15.863-2.805-21.801-8.856
			L358.351,406.542z"/>
	</g>
	<g>
		<path fill-rule="evenodd" clip-rule="evenodd" fill="#D5D6D8" d="M402.738,176.577l5.777-3.954
			c-2.542,28.885,13.401,30.722,23.414,26.151c3.442,0.791,4.523,5.918,0.608,6.993
			C413.714,210.947,401.276,203.687,402.738,176.577z"/>
	</g>
	<g>
		<path d="M422.229,208.599c-5.989,0-10.789-1.861-14.267-5.532c-4.978-5.254-7.165-14.189-6.498-26.558
			c0.022-0.397,0.226-0.76,0.554-0.984l5.777-3.954c0.408-0.279,0.939-0.298,1.365-0.049c0.426,0.249,0.67,0.722,0.627,1.213
			c-0.934,10.619,0.656,18.507,4.6,22.813c2.918,3.186,6.607,3.855,9.189,3.855c2.554,0,5.26-0.619,7.824-1.79
			c0.256-0.116,0.542-0.144,0.816-0.083c2.318,0.532,4.038,2.653,4.088,5.042c0.045,2.136-1.268,3.832-3.427,4.424
			C429.012,208.06,425.43,208.599,422.229,208.599z M403.981,177.272c-0.525,11.313,1.436,19.399,5.833,24.039
			c4.659,4.918,12.296,6,22.384,3.225c1.309-0.359,1.567-1.237,1.553-1.91c-0.02-0.935-0.631-2.059-1.737-2.494
			c-2.763,1.193-5.671,1.823-8.439,1.823c-4.437,0-8.265-1.619-11.071-4.683c-4.149-4.531-5.978-11.959-5.447-22.104
			L403.981,177.272z"/>
	</g>
	<g>
		<path d="M433.288,168.518c-5.2,0-10.493-0.941-14.888-2.816c-0.648-0.276-0.949-1.026-0.672-1.674
			c0.277-0.649,1.025-0.95,1.674-0.672c7.922,3.381,19.433,3.462,26.775,0.189c3.943-1.758,6.498-4.277,7.594-7.489
			c0.227-0.667,0.952-1.024,1.619-0.795c0.667,0.227,1.023,0.952,0.795,1.619c-1.315,3.856-4.417,6.966-8.969,8.995
			C443.257,167.639,438.316,168.518,433.288,168.518z"/>
	</g>
	<g>
		<path fill-rule="evenodd" clip-rule="evenodd" fill="#D5D6D8" d="M398.481,152.555l5.777-3.954
			c-2.542,28.885,13.401,30.722,23.414,26.151c3.442,0.791,4.523,5.918,0.608,6.993
			C409.457,186.925,397.019,179.665,398.481,152.555z"/>
	</g>
	<g>
		<path d="M417.972,184.578c-5.989,0-10.789-1.862-14.268-5.533c-4.978-5.254-7.164-14.189-6.497-26.558
			c0.022-0.397,0.226-0.76,0.554-0.984l5.777-3.954c0.407-0.279,0.939-0.298,1.365-0.049c0.426,0.249,0.67,0.722,0.627,1.213
			c-0.934,10.619,0.656,18.507,4.6,22.813c2.918,3.186,6.608,3.855,9.189,3.855c2.554,0,5.26-0.619,7.824-1.79
			c0.256-0.115,0.542-0.145,0.816-0.083c2.318,0.533,4.037,2.654,4.087,5.042c0.045,2.136-1.268,3.832-3.427,4.425
			C424.755,184.038,421.173,184.578,417.972,184.578z M399.724,153.251c-0.525,11.312,1.436,19.399,5.833,24.039
			c4.661,4.918,12.298,6.002,22.384,3.225c1.309-0.36,1.567-1.237,1.553-1.91c-0.02-0.935-0.631-2.059-1.737-2.495
			c-2.763,1.194-5.671,1.823-8.439,1.823c-4.436,0-8.265-1.619-11.071-4.683c-4.149-4.53-5.978-11.959-5.447-22.104L399.724,153.251
			z"/>
	</g>
	<g>
		<path fill-rule="evenodd" clip-rule="evenodd" fill="#FCA61A" d="M430.799,131.91c-17.822-0.836-31.776,3.161-41.95,11.882
			c-8.648,6.668-15.546,15.964-20.369,28.371c-7.045,16.223-16.039,23.686-25.703,28.129l8.488,17.944
			c14.515-4.785,26.567-16.967,34.675-40.98c8.92-15.611,22.16-27.101,45.345-29.098c19.83,3.023,37.759,1.924,49.709-12.125
			l7.032-6.305l-28.855-8.002L430.799,131.91z"/>
	</g>
	<g>
		<path fill-rule="evenodd" clip-rule="evenodd" fill="#C84D5B" d="M403.561,153.855l6.801-3.562l-5.092-4.684l-6.795,3.561
			L403.561,153.855z M396.683,157.605l-5.187-4.777l-6.873,3.604l-4.574-4.212c0.536-0.635,1.082-1.254,1.638-1.859l0.021-0.011
			l4.626-2.426l5.185,4.775l6.797-3.559l-5.185-4.779l6.981-3.659l5.187,4.775l6.876-3.602l5.163,4.755l6.922-3.627l5.265,4.848
			l-1.188,0.624l0.019-0.01c-2.669,0.335-5.202,0.802-7.605,1.392l0.004,0.003l-3.376-3.106l-6.795,3.565l2.276,2.096l-0.005-0.005
			c-2.525,1.033-4.882,2.225-7.087,3.562l0.004,0.003l-2.172-1.998L396.683,157.605z"/>
	</g>
	<g>
		<path fill-rule="evenodd" clip-rule="evenodd" fill="#C84D5B" d="M382.009,174.193l-5.187-4.777l-6.873,3.604l-1.328-1.221
			c0.986-2.503,2.057-4.878,3.21-7.128l5.014,4.617l6.797-3.559l-5.185-4.779l6.981-3.659l5.187,4.775l6.876-3.602l2.117,1.95
			l-0.018-0.017c-1.908,1.601-3.682,3.329-5.339,5.172l0.015,0.014l-3.682-3.387l-6.795,3.561l5.086,4.685l2.359-1.236
			c-0.522,0.683-1.032,1.377-1.529,2.084l0.006,0.006l-0.794-0.731L382.009,174.193z"/>
	</g>
	<g>
		<path fill-rule="evenodd" clip-rule="evenodd" fill="#C84D5B" d="M372.3,187.029l6.801-3.562l-5.092-4.684l-6.795,3.561
			L372.3,187.029z M377.509,191.906l-5.167-4.753l-6.92,3.627l-4.98-4.585c0.172-0.225,0.343-0.454,0.515-0.686l-0.025,0.012
			l6.123-3.206l-2.506-2.309c0.959-1.655,1.89-3.431,2.793-5.338l-0.005,0.003l1.514-0.794l5.187,4.775l6.876-3.602l4.385,4.039
			l0.003,0.003c-0.187,0.527-0.376,1.048-0.568,1.564l-5.409,2.838l3.107,2.861l0.004,0.004c-0.593,1.353-1.201,2.66-1.825,3.921
			L377.509,191.906z"/>
	</g>
	<g>
		<path fill-rule="evenodd" clip-rule="evenodd" fill="#C84D5B" d="M376.204,157.284l2.923,2.69l-6.666,3.495
			C373.63,161.288,374.879,159.227,376.204,157.284z"/>
	</g>
	<g>
		<path fill-rule="evenodd" clip-rule="evenodd" fill="#C84D5B" d="M356.351,203.617l6.801-3.562l-5.092-4.684l-6.795,3.561
			L356.351,203.617z M361.559,208.493l-5.167-4.753l-6.92,3.627l-5.187-4.777l-0.339,0.178l-0.536-1.133l0.898,0.827l6.797-3.559
			l-2.154-1.985c2.033-1.314,4.02-2.832,5.949-4.611l3.188,2.934l6.876-3.602l5.163,4.755l6.922-3.627l1.508,1.389l0.004,0.004
			c-1.29,2.29-2.639,4.407-4.041,6.361l-0.004-0.003l-4.348-4.001l-6.795,3.565l5.164,4.753L361.559,208.493z"/>
	</g>
	<g>
		<path fill-rule="evenodd" clip-rule="evenodd" fill="#C84D5B" d="M357.502,215.605l-3.27-3.009l-4.517,2.367l-2.884-6.097
			l2.243-1.176l5.187,4.775l6.876-3.602l2.877,2.65l0.001,0.002c-2.089,1.594-4.257,2.957-6.495,4.106L357.502,215.605z"/>
	</g>
	<g>
		<path fill-rule="evenodd" clip-rule="evenodd" fill="#C84D5B" d="M437.861,135.561l-4.838-4.45l7.881-2.829l3.933,3.62
			L437.861,135.561z M424.081,142.782l-5.167-4.753l-6.92,3.627l-5.187-4.777l-6.873,3.604l-2.618-2.412
			c2.362-1.233,4.869-2.286,7.521-3.157l1.994,1.836l6.797-3.559l-0.375-0.345c0.589-0.101,1.184-0.195,1.785-0.282l-1.251,0.656
			l5.086,4.685l6.801-3.562l-2.698-2.481c2.458-0.092,5.002-0.079,7.629,0.039l-4.707,2.469l5.164,4.753L424.081,142.782z"/>
	</g>
	<g>
		<polygon fill-rule="evenodd" clip-rule="evenodd" fill="#C84D5B" points="475.756,130.023 470.59,125.27 463.67,128.897 
			458.483,124.119 451.61,127.724 449.043,125.361 456.922,122.532 458.506,123.991 461.565,122.389 470.135,124.766 
			470.548,125.146 470.88,124.973 480.37,127.604 		"/>
	</g>
	<g>
		<path fill-rule="evenodd" clip-rule="evenodd" fill="#C84D5B" d="M454.599,141.733l6.801-3.562l-5.092-4.684l-6.795,3.561
			L454.599,141.733z M459.807,146.61l-5.167-4.753l-6.92,3.627l-5.187-4.777l-6.873,3.604l-5.265-4.849l6.977-3.659l5.185,4.775
			l6.797-3.559l-5.185-4.779l6.981-3.659l5.187,4.775l6.876-3.602l5.163,4.755l6.922-3.627l5.265,4.848l-6.977,3.659l-5.169-4.756
			l-6.795,3.565l5.164,4.753L459.807,146.61z"/>
	</g>
	<g>
		<path fill-rule="evenodd" clip-rule="evenodd" fill="#C84D5B" d="M455.403,149.067l3.982-2.087l1.282,1.182
			c-1.723,0.398-3.49,0.702-5.295,0.92L455.403,149.067z M440.73,149.262l0.025-0.014l6.568-3.442l3.92,3.609l0.021,0.02
			C447.862,149.616,444.342,149.538,440.73,149.262z"/>
	</g>
	<g>
		<path fill-rule="evenodd" clip-rule="evenodd" fill="#4B5974" d="M453.119,148.573c-6.138,31.817-1.717,58.354,11.499,80.492
			c24.684,4.861,49.369,6.745,74.052,0.46l4.6-27.138c-20.965,2.949-41.318,4.058-59.795-0.46
			C488.112,179.226,486.736,158.526,453.119,148.573z"/>
	</g>
	<g>
		<path fill-rule="evenodd" clip-rule="evenodd" fill="#E4E2C0" d="M359.328,408.157c5.806,5.156,10.846,9.57,28.071,3.19
			c130.02-52.366,220.764-125.274,270.5-217.548h4.466c-64.033,113.611-163.148,182.27-281.345,226.48
			C357.949,420.502,354.107,408.714,359.328,408.157z"/>
	</g>
	<g>
		<polygon fill-rule="evenodd" clip-rule="evenodd" fill="#FFFFFF" points="596.767,145.092 608.089,136.83 602.581,122.448 
			591.259,130.404 		"/>
	</g>
	<g>
		<path fill-rule="evenodd" clip-rule="evenodd" fill="#C84D5B" d="M651.519,176.573c23.909-32.151,44.459-64.572,60.607-100.161
			c-10.134,34.45-22.916,70.177-44.02,104.627C662.577,179.551,657.048,178.062,651.519,176.573z"/>
	</g>
	<g>
		<path fill-rule="evenodd" clip-rule="evenodd" fill="#FFFFFF" d="M609.311,135.787c30.919-24.974,65.389-42.993,101.506-58.702
			c-36.559,9.807-72.933,20.91-107.53,44.523L609.311,135.787z"/>
	</g>
	<g>
		<path fill-rule="evenodd" clip-rule="evenodd" d="M422.531,372.847l30.305-22.851l-22.688-30.037l-30.282,22.839L422.531,372.847z
			 M391.877,396.908l-23.117-30.642l-30.631,23.118l-5.8-7.686c-3.188-7.429-4.585-14.66-3.232-21.586l10.407-20.583l6.254-4.72
			l23.105,30.631l30.294-22.827l-23.107-30.654l31.107-23.467l23.119,30.631l30.642-23.107l23.014,30.503l30.851-23.271
			l23.468,31.096l-31.096,23.468l-23.037-30.503l-30.282,22.861l20.543,27.218l0.064,0.084
			c-11.375,6.351-23.241,12.21-35.424,17.752l-0.034-0.045l-16.266-21.542L391.877,396.908z"/>
	</g>
	<g>
		<path fill-rule="evenodd" clip-rule="evenodd" fill="#FFFEE8" d="M420.614,110.075c4.441-11.588,42.616,6.575,38.151,18.279
			c-3.514,7.412-14.911,9.337-25.44,4.293C422.795,127.6,417.103,117.488,420.614,110.075z"/>
	</g>
	<g>
		<path d="M451.2,115.145c-0.922,0-1.679-0.737-1.7-1.663L448.952,88.8c-0.012-0.547,0.24-1.067,0.677-1.397l63.341-47.716
			c0.751-0.565,1.817-0.415,2.383,0.335c0.565,0.751,0.415,1.817-0.335,2.383l-62.645,47.191l0.529,23.81
			c0.021,0.94-0.724,1.718-1.663,1.739C451.226,115.145,451.213,115.145,451.2,115.145z"/>
	</g>
	<g>
		<polygon fill-rule="evenodd" clip-rule="evenodd" points="469.907,93.652 468.305,91.528 465.875,93.361 464.127,91.042 
			461.975,92.666 460.265,90.399 457.919,92.169 454.539,87.689 513.582,43.14 516.963,47.62 514.621,49.388 516.33,51.654 
			514.179,53.277 515.927,55.596 513.528,57.407 515.129,59.531 499.24,71.52 497.637,69.395 495.209,71.227 493.461,68.91 
			491.307,70.532 489.598,68.266 485.287,71.518 486.997,73.785 484.845,75.41 486.594,77.728 484.194,79.539 485.796,81.664 		"/>
	</g>
	<g>
		<path fill-rule="evenodd" clip-rule="evenodd" fill="#FFFFFF" d="M470.487,85.871l-1.66-2.197l-2.215,1.671l1.658,2.198
			L470.487,85.871z M469.968,89.831l-1.684-2.23l-2.256,1.702l-1.691-2.241l-2.241,1.691l-1.717-2.275l2.275-1.717l1.69,2.241
			l2.216-1.67l-1.69-2.242l2.275-1.717l1.691,2.241l2.241-1.69l1.683,2.231l2.257-1.702l1.717,2.275l-2.275,1.717l-1.685-2.231
			l-2.215,1.672l1.683,2.23L469.968,89.831z"/>
	</g>
	<g>
		<path fill-rule="evenodd" clip-rule="evenodd" fill="#FFFFFF" d="M500.148,63.49l-1.657-2.199l-2.216,1.673l1.658,2.197
			L500.148,63.49z M499.631,67.451l-1.683-2.231l-2.257,1.703l-1.69-2.242l-2.242,1.692l-1.717-2.275l2.275-1.717l1.69,2.241
			l2.216-1.671l-1.691-2.241l2.275-1.717l1.69,2.241l2.241-1.69l1.684,2.231l2.257-1.703l1.717,2.275l-2.275,1.717l-1.683-2.232
			l-2.216,1.671l1.683,2.232L499.631,67.451z"/>
	</g>
	<g>
		<path d="M445.135,137.161c-4.138,0-8.476-1.03-12.545-2.98c-11.333-5.431-17.393-16.533-13.54-24.777
			c0.859-2.18,3.094-4.746,8.851-4.746c10.076,0,25.32,7.775,30.776,15.696c2.638,3.831,2.368,6.795,1.677,8.607l-0.052,0.123
			C457.904,134.141,452.234,137.161,445.135,137.161z M427.902,108.06c-3.114,0-5.031,0.883-5.699,2.624l-0.051,0.119
			c-3.108,6.562,2.234,15.673,11.908,20.31c3.613,1.731,7.442,2.646,11.074,2.646c5.72,0,10.223-2.268,12.063-6.07
			c0.549-1.516,0.105-3.333-1.322-5.404C451.114,115.371,436.736,108.06,427.902,108.06z"/>
	</g>
	<g>
		<path fill-rule="evenodd" clip-rule="evenodd" fill="#F26B7B" d="M426.12,118.32c1.776-4.798,23.87,6.299,22.09,11.147
			c-1.506,3.017-7.674,2.969-13.772-0.106C428.341,126.283,424.615,121.336,426.12,118.32z"/>
	</g>
	<g>
		<path d="M443.141,132.974c-2.818,0-6.112-0.879-9.277-2.475c-6.795-3.428-10.692-8.987-8.914-12.69
			c0.359-0.903,1.287-1.943,3.652-1.943c5.612,0,16.833,5.814,20.012,10.368c0.932,1.335,1.199,2.571,0.795,3.672l-0.056,0.13
			C448.406,131.931,446.2,132.974,443.141,132.974z M428.602,118.418c-0.692,0-1.208,0.139-1.285,0.345l-0.055,0.127
			c-1.023,2.048,1.909,6.384,7.751,9.331c2.774,1.399,5.736,2.201,8.127,2.201c1.956,0,3.364-0.526,3.886-1.446
			c0.043-0.22-0.068-0.655-0.505-1.282C443.859,123.88,433.308,118.418,428.602,118.418z"/>
	</g>
	<g>
		<path d="M422.231,124.529c-0.235,0-0.473-0.049-0.701-0.152c-15.557-7.045-26.073-20.391-28.129-35.702
			c-2.481-18.474,7.071-37.701,26.898-54.138c0.028-0.023,0.056-0.046,0.086-0.067c19.049-13.838,40.372-19.699,60.048-16.5
			c15.094,2.453,27.856,10.034,35.935,21.344c0.546,0.765,0.369,1.827-0.395,2.373c-0.766,0.546-1.828,0.368-2.373-0.395
			c-7.548-10.567-19.52-17.657-33.712-19.964c-18.758-3.047-39.16,2.584-57.458,15.863c-18.863,15.654-27.974,33.775-25.656,51.031
			c1.899,14.14,11.679,26.497,26.161,33.055c0.856,0.388,1.235,1.396,0.848,2.252C423.497,124.157,422.878,124.529,422.231,124.529z
			"/>
	</g>
	<g>
		<path d="M498.281,92.767c-1.256,0-2.361-0.236-3.268-0.787c-0.916-0.556-2.053-1.696-2.274-3.971
			c-0.091-0.935,0.594-1.767,1.529-1.857c0.937-0.091,1.767,0.594,1.857,1.529c0.102,1.056,0.503,1.3,0.653,1.391
			c2.055,1.246,8.854-1.489,12.123-2.805c4.462-1.975,5.106-3.366,5.088-4.018c-0.032-1.187-1.893-4.624-18.428-10.889
			c-0.879-0.333-1.321-1.315-0.988-2.193c0.332-0.879,1.314-1.322,2.193-0.988c14.337,5.431,20.504,9.612,20.624,13.978
			c0.097,3.568-3.778,5.746-7.166,7.245C505.765,91.198,501.519,92.767,498.281,92.767z"/>
	</g>
	<g>
		<path fill-rule="evenodd" clip-rule="evenodd" fill="#FCA61A" d="M529.88,119.218l26.366,13.447
			c-5.786-7.273-13.091-13.704-25.311-17.402L529.88,119.218z"/>
	</g>
	<g>
		<path d="M497.888,130.611c-11.682,0-25.494-2.384-40.622-7.222c-0.895-0.286-1.388-1.244-1.102-2.139
			c0.286-0.894,1.244-1.389,2.139-1.102c34.083,10.9,61.899,8.94,70.865-4.993c7.547-11.729,0.564-30.923-19.158-52.662
			c-0.631-0.696-0.579-1.772,0.117-2.403c0.696-0.63,1.771-0.579,2.403,0.117c21.143,23.305,28.067,43.473,19.499,56.789
			C526.23,126.01,514.115,130.61,497.888,130.611z"/>
	</g>
	<g>
		<path d="M515.373,82.788c-0.245,0-0.492-0.07-0.711-0.217c-0.584-0.393-0.74-1.186-0.346-1.771
			c1.025-1.525,1.683-3.329,1.955-5.362c0.093-0.699,0.735-1.187,1.433-1.096c0.699,0.093,1.189,0.735,1.096,1.433
			c-0.324,2.426-1.12,4.596-2.367,6.449C516.187,82.591,515.783,82.788,515.373,82.788z"/>
	</g>
	<g>
		<path d="M504.912,115.788c-0.555,0-1.065-0.364-1.226-0.923c-0.195-0.677,0.196-1.384,0.873-1.579
			c9.79-2.82,16.603-7.544,16.954-11.754c0.28-3.366-3.622-5.969-6.944-7.56c-0.635-0.304-0.904-1.066-0.6-1.702
			c0.305-0.635,1.066-0.904,1.702-0.6c7.331,3.51,8.606,7.416,8.385,10.073c-0.451,5.424-7.651,10.786-18.791,13.995
			C505.148,115.772,505.029,115.788,504.912,115.788z"/>
	</g>
	<g>
		<path d="M504.99,206.53c-8.619,0-17.037-0.674-25.557-2.262c-0.924-0.172-1.533-1.061-1.361-1.985
			c0.172-0.924,1.057-1.534,1.985-1.361c20.175,3.761,39.901,2.258,63.309-1.156c0.924-0.135,1.793,0.508,1.929,1.438
			c0.136,0.93-0.508,1.793-1.438,1.929C529.915,205.167,517.249,206.53,504.99,206.53z"/>
	</g>
	<g>
		<path fill-rule="evenodd" clip-rule="evenodd" fill="#FCA61A" d="M455.794,149.275c10.902,4.001,18.282,9.57,22.937,16.347
			c6.641,8.838,9.231,18.612,6.855,29.53c4.975-4.291,8.066-11.275,2.9-30.057c-5.291-8.326-12.337-14.548-21.091-18.72
			L455.794,149.275z"/>
	</g>
	<g>
		<path d="M484.499,202.977c-0.12,0-0.242-0.013-0.365-0.039c-0.918-0.201-1.499-1.107-1.299-2.025
			c2.386-10.924,1.586-21.034-2.377-30.054c-7.873-11.108-16.476-17.518-26.297-19.594c-0.919-0.194-1.507-1.097-1.313-2.016
			c0.194-0.92,1.097-1.508,2.016-1.312c10.74,2.27,20.053,9.172,28.471,21.098c0.065,0.091,0.12,0.189,0.165,0.291
			c4.321,9.734,5.216,20.606,2.659,32.314C485.986,202.435,485.282,202.977,484.499,202.977z"/>
	</g>
	<g>
		<path d="M351.232,219.459c-0.527,0-1.019-0.329-1.204-0.854c-0.234-0.665,0.116-1.393,0.781-1.626
			c16.259-5.711,22.536-14.332,30.424-31.485c10.422-31.098,39.916-40.819,57.546-37.79c22.888,2.787,35.598-2.587,48.509-20.541
			c0.411-0.572,1.208-0.702,1.781-0.291c0.572,0.412,0.702,1.209,0.291,1.781c-13.391,18.619-27.2,24.468-50.952,21.574
			c-16.806-2.888-44.854,6.422-54.777,36.14c-0.015,0.044-0.032,0.087-0.051,0.129c-8.215,17.874-14.774,26.865-31.926,32.889
			C351.515,219.436,351.372,219.459,351.232,219.459z"/>
	</g>
	<g>
		<path d="M342.868,201.276c-0.53,0-1.025-0.333-1.207-0.863c-0.228-0.667,0.127-1.392,0.793-1.621
			c10.417-3.569,19.098-13.891,27.317-32.483c12.987-25.865,32.053-36.91,61.82-35.848c0.704,0.025,1.255,0.616,1.23,1.32
			c-0.025,0.704-0.624,1.249-1.32,1.23c-28.64-1.016-46.97,9.59-59.422,34.386c-8.501,19.232-17.66,29.993-28.797,33.809
			C343.145,201.254,343.005,201.276,342.868,201.276z"/>
	</g>
	<g>
		<path d="M344.759,204.472c-0.557,0-1.069-0.368-1.227-0.93c-0.191-0.678,0.204-1.383,0.882-1.575
			c2.315-0.653,4.422-1.629,6.631-3.075c0.589-0.386,1.38-0.221,1.766,0.369c0.386,0.59,0.221,1.381-0.369,1.766
			c-2.433,1.592-4.764,2.671-7.336,3.396C344.99,204.456,344.874,204.472,344.759,204.472z"/>
	</g>
	<g>
		<path d="M346.462,208.389c-0.557,0-1.069-0.368-1.227-0.93c-0.191-0.678,0.204-1.383,0.882-1.575
			c2.315-0.652,4.422-1.629,6.631-3.075c0.589-0.385,1.38-0.221,1.766,0.369c0.386,0.59,0.221,1.381-0.369,1.766
			c-2.433,1.592-4.764,2.671-7.336,3.396C346.693,208.373,346.576,208.389,346.462,208.389z"/>
	</g>
	<g>
		<path d="M348.165,211.966c-0.557,0-1.069-0.368-1.227-0.93c-0.191-0.678,0.203-1.383,0.882-1.575
			c2.315-0.653,4.422-1.629,6.631-3.075c0.589-0.385,1.38-0.221,1.766,0.369c0.386,0.59,0.221,1.381-0.369,1.766
			c-2.433,1.592-4.764,2.671-7.336,3.396C348.396,211.95,348.279,211.966,348.165,211.966z"/>
	</g>
	<g>
		<path d="M350.038,215.713c-0.557,0-1.069-0.368-1.227-0.93c-0.191-0.678,0.204-1.383,0.882-1.574
			c2.314-0.652,4.421-1.629,6.631-3.076c0.589-0.386,1.38-0.221,1.766,0.369c0.386,0.59,0.221,1.381-0.369,1.766
			c-2.434,1.592-4.765,2.671-7.337,3.396C350.27,215.697,350.153,215.713,350.038,215.713z"/>
	</g>
	<g>
		<path d="M334.182,185.759c-0.696-0.003-1.309-0.56-1.308-1.277c0.001-0.704,0.572-1.275,1.276-1.275c0.017,0,0.021,0,0.032,0
			c16.488,0,28.716-11.967,40.881-40.007c5.103-15.489,16.147-24.46,34.753-28.23c0.691-0.142,1.364,0.307,1.504,0.997
			c0.14,0.691-0.307,1.364-0.997,1.504c-17.636,3.573-28.075,12.02-32.853,26.581c-0.012,0.037-0.026,0.074-0.042,0.11
			C364.789,173.315,351.852,185.759,334.182,185.759z"/>
	</g>
	<g>
		<path d="M324.537,166.548c-1.374,0-2.779-0.123-4.223-0.382c-0.694-0.124-1.155-0.787-1.031-1.481
			c0.124-0.694,0.788-1.158,1.481-1.031c14.905,2.669,27.831-10.051,40.687-40.025c5.103-15.489,16.148-24.461,34.754-28.233
			c0.693-0.14,1.364,0.307,1.504,0.997c0.14,0.691-0.307,1.364-0.997,1.504c-17.635,3.574-28.074,12.021-32.853,26.581
			c-0.012,0.035-0.025,0.071-0.039,0.105C355.951,142.938,343.515,166.548,324.537,166.548z"/>
	</g>
	<g>
		<path d="M326.728,170.499c-0.957,0-1.908-0.056-2.871-0.167c-0.7-0.081-1.202-0.714-1.122-1.413
			c0.081-0.7,0.721-1.199,1.413-1.122c2.393,0.276,4.713,0.171,7.303-0.327c0.692-0.131,1.361,0.32,1.494,1.012
			c0.133,0.692-0.32,1.361-1.012,1.494C330.115,170.326,328.412,170.499,326.728,170.499z"/>
	</g>
	<g>
		<path d="M327.913,174.478c-0.476,0-0.954-0.014-1.435-0.041c-0.704-0.039-1.242-0.642-1.202-1.345
			c0.04-0.704,0.655-1.231,1.345-1.202c2.405,0.135,4.714-0.104,7.271-0.753c0.685-0.173,1.378,0.24,1.551,0.923
			c0.173,0.683-0.24,1.377-0.923,1.551C332.212,174.196,330.079,174.478,327.913,174.478z"/>
	</g>
	<g>
		<path d="M330.358,178.323c-0.475,0-0.952-0.013-1.432-0.04c-0.704-0.039-1.242-0.642-1.202-1.345
			c0.039-0.703,0.648-1.237,1.345-1.202c2.405,0.137,4.716-0.104,7.271-0.753c0.685-0.174,1.378,0.24,1.551,0.923
			s-0.24,1.377-0.923,1.551C334.66,178.041,332.525,178.323,330.358,178.323z"/>
	</g>
	<g>
		<path d="M333.294,182.168c-0.476,0-0.954-0.014-1.435-0.041c-0.704-0.039-1.242-0.642-1.202-1.345
			c0.04-0.704,0.649-1.232,1.345-1.202c2.404,0.135,4.714-0.104,7.271-0.753c0.684-0.172,1.377,0.24,1.551,0.923
			c0.173,0.683-0.24,1.377-0.923,1.551C337.593,181.885,335.459,182.168,333.294,182.168z"/>
	</g>
	<g>
		<path d="M490.876,205.529c-0.733,0-1.41-0.478-1.63-1.217c-0.268-0.9,0.245-1.847,1.146-2.115
			c54.79-16.277,83.661-46.308,83.437-61.728c-0.071-4.872-3.013-8.116-8.747-9.639c-0.908-0.241-1.449-1.173-1.207-2.081
			c0.242-0.908,1.177-1.446,2.081-1.207c7.178,1.908,11.182,6.481,11.275,12.879c0.137,9.449-8.08,21.607-22.544,33.357
			c-11.394,9.256-31.629,22.266-63.326,31.682C491.2,205.506,491.037,205.529,490.876,205.529z"/>
	</g>
	<g>
		<path d="M569.25,155.954c-0.767,0-1.462-0.521-1.652-1.299c-3.899-16.013-15.75-28.633-35.225-37.507
			c-0.855-0.39-1.232-1.398-0.842-2.254c0.39-0.856,1.398-1.232,2.254-0.842c20.472,9.329,32.961,22.719,37.119,39.798
			c0.222,0.913-0.338,1.833-1.251,2.056C569.519,155.939,569.383,155.954,569.25,155.954z"/>
	</g>
	<g>
		<path d="M544.466,179.191c-0.726,0-1.398-0.468-1.624-1.197c-5.693-18.325-18.408-33.827-38.869-47.391
			c-0.783-0.519-0.997-1.575-0.478-2.358c0.52-0.783,1.575-0.998,2.358-0.478c21.142,14.015,34.304,30.114,40.239,49.218
			c0.279,0.897-0.223,1.85-1.12,2.129C544.804,179.166,544.633,179.191,544.466,179.191z"/>
	</g>
	<g>
		<path d="M557.865,114.299c-0.015,0-0.029,0-0.044,0l-24.881-0.638c-0.939-0.024-1.681-0.805-1.657-1.744
			c0.024-0.94,0.824-1.69,1.744-1.657l24.881,0.638c0.939,0.024,1.681,0.805,1.657,1.744
			C559.541,113.566,558.784,114.299,557.865,114.299z"/>
	</g>
	<g>
		<path d="M566.942,130.679c-1.73,0-3.471-0.157-5.142-0.309c-2.635-0.238-5.123-0.464-7.362-0.145
			c-0.931,0.133-1.791-0.515-1.923-1.445c-0.132-0.93,0.515-1.791,1.445-1.923c2.63-0.373,5.434-0.119,8.146,0.125
			c4.89,0.442,9.508,0.86,12.444-2.362c5.323-5.844,5.215-23.241-0.333-53.186c-0.172-0.924,0.439-1.811,1.363-1.982
			c0.923-0.173,1.811,0.439,1.982,1.363c5.915,31.926,5.761,49.227-0.498,56.097C574.289,129.957,570.643,130.678,566.942,130.679z"
			/>
	</g>
	<g>
		<path d="M553.404,112.454c-0.861,0-1.6-0.651-1.69-1.526l-3.911-37.783c-0.097-0.935,0.582-1.771,1.517-1.867
			c0.935-0.096,1.771,0.582,1.867,1.517l3.911,37.783c0.097,0.935-0.582,1.771-1.517,1.867
			C553.522,112.451,553.462,112.454,553.404,112.454z"/>
	</g>
	<g>
		<path d="M549.444,73.887c-0.883,0-1.63-0.683-1.695-1.578c-0.068-0.937,0.636-1.752,1.573-1.819l26.09-1.893
			c0.934-0.067,1.752,0.637,1.819,1.573c0.068,0.937-0.636,1.752-1.573,1.819l-26.09,1.893
			C549.527,73.886,549.485,73.887,549.444,73.887z"/>
	</g>
	<g>
		<path d="M538.896,232.017c-0.083,0-0.168-0.006-0.253-0.019c-0.93-0.138-1.57-1.004-1.432-1.933l4.035-27.062
			c0.139-0.93,1.006-1.569,1.933-1.432c0.93,0.138,1.57,1.004,1.432,1.933l-4.036,27.062
			C540.451,231.411,539.725,232.017,538.896,232.017z"/>
	</g>
	<g>
		<path d="M380.508,422.015c-1.045,0-2.026-0.648-2.401-1.688c-0.478-1.326,0.21-2.788,1.536-3.265
			c172.89-62.287,284.185-177.406,330.792-342.16c0.383-1.357,1.795-2.145,3.15-1.761c1.357,0.384,2.145,1.794,1.761,3.15
			c-23.851,84.31-64.531,156.28-120.913,213.909c-55.045,56.263-126.729,100.561-213.061,131.664
			C381.088,421.966,380.796,422.015,380.508,422.015z"/>
	</g>
	<g>
		<path d="M670.149,183.2c-0.083,0-0.168-0.006-0.253-0.019c-36.211-5.407-70.351-42.061-71.626-76.901
			c-0.034-0.939,0.699-1.728,1.638-1.762c0.927-0.043,1.727,0.698,1.762,1.638c1.221,33.362,33.979,68.471,68.728,73.66
			c0.929,0.139,1.57,1.005,1.431,1.934C671.704,182.594,670.978,183.2,670.149,183.2z"/>
	</g>
	<g>
		<path d="M663.769,195.96c-0.083,0-0.168-0.006-0.253-0.019c-36.328-5.425-76.096-47.905-77.367-82.643
			c-0.034-0.939,0.699-1.728,1.638-1.762c0.932-0.043,1.728,0.698,1.762,1.638c0.578,15.795,9.609,34.102,24.776,50.226
			c14.909,15.849,33.486,26.756,49.694,29.176c0.929,0.139,1.57,1.005,1.431,1.934C665.324,195.353,664.598,195.96,663.769,195.96z"
			/>
	</g>
	<g>
		<path d="M372.853,473.051c-0.618,0-1.223-0.225-1.695-0.645c-0.623-0.554-0.936-1.376-0.839-2.203l5.742-49.124
			c0.164-1.4,1.43-2.405,2.831-2.238c1.4,0.163,2.402,1.431,2.238,2.831l-5.318,45.5l102.05-24.297l16.259-78.794
			c0.285-1.38,1.631-2.273,3.015-1.983c1.38,0.285,2.268,1.634,1.983,3.015l-16.587,80.384c-0.2,0.97-0.944,1.737-1.908,1.967
			l-107.179,25.519C373.248,473.029,373.049,473.051,372.853,473.051z"/>
	</g>
	<g>
		<path d="M325.661,364.635c-0.002,0-0.004,0-0.005,0l-49.46-0.105c-0.833-0.002-1.613-0.41-2.089-1.094s-0.589-1.557-0.301-2.339
			l38.009-103.412c0.342-0.93,1.191-1.578,2.178-1.662l81.782-6.969c1.404-0.118,2.64,0.922,2.76,2.326
			c0.12,1.404-0.922,2.64-2.326,2.76l-80.164,6.831l-36.19,98.463l45.811,0.098c1.409,0.003,2.549,1.148,2.546,2.557
			C328.21,363.496,327.068,364.635,325.661,364.635z"/>
	</g>
	<g>
		<path d="M377.992,421.172c-7.096,0-15.433-3.294-23.564-9.326c-0.755-0.56-0.913-1.625-0.353-2.38
			c0.561-0.754,1.627-0.912,2.38-0.353c7.772,5.765,15.605,8.84,22.091,8.649c0.968-0.014,1.722,0.712,1.75,1.651
			c0.027,0.94-0.712,1.723-1.651,1.75C378.428,421.168,378.21,421.172,377.992,421.172z M335.978,390.313
			c-0.588,0-1.16-0.305-1.475-0.851c-5.563-9.631-8.11-19.383-7.365-28.199c0.078-0.937,0.902-1.631,1.838-1.552
			c0.936,0.079,1.631,0.902,1.552,1.838c-0.686,8.12,1.707,17.184,6.922,26.21c0.47,0.814,0.191,1.854-0.622,2.324
			C336.559,390.239,336.266,390.313,335.978,390.313z"/>
	</g>
	<g>
		<path d="M518.948,204.891c-0.685,0-1.33-0.417-1.59-1.094c-0.336-0.878,0.104-1.861,0.981-2.197
			c39.155-14.967,69.476-40.684,70.53-59.818c0.39-7.083-3.435-12.744-11.369-16.826c-0.835-0.43-1.164-1.455-0.734-2.291
			c0.43-0.836,1.454-1.166,2.291-0.734c9.106,4.684,13.674,11.613,13.21,20.039c-1.123,20.391-32.382,47.393-72.712,62.809
			C519.355,204.855,519.15,204.891,518.948,204.891z"/>
	</g>
	<g>
		<path d="M551.016,73.107c-0.324,0-0.65-0.092-0.94-0.285l-11.937-7.936c-0.026-0.017-0.052-0.035-0.076-0.054
			c-4.745-3.545-6.6-7.534-4.724-10.159c2.519-3.526,9.838-1.79,19.099,4.531c0.776,0.53,0.976,1.588,0.446,2.364
			c-0.53,0.776-1.587,0.976-2.364,0.446c-9.246-6.31-13.862-6.135-14.412-5.364c-0.338,0.473,0.324,2.704,3.955,5.429l11.897,7.91
			c0.783,0.52,0.995,1.576,0.475,2.359C552.107,72.84,551.567,73.107,551.016,73.107z"/>
	</g>
	<g>
		<path d="M555.703,55.166c-0.757,0-1.448-0.509-1.646-1.277l-5.372-20.821c-0.018-0.07-0.032-0.142-0.041-0.213
			c-0.591-4.717,0.897-8.279,3.702-8.862c1.611-0.334,5.683,0.017,8.75,10.476l3.697,13.722c0.244,0.907-0.293,1.841-1.2,2.085
			c-0.905,0.245-1.841-0.293-2.085-1.2l-3.687-13.686c-1.908-6.504-4.176-8.197-4.782-8.066c-0.456,0.095-1.419,1.721-1.032,5.003
			l5.344,20.712c0.235,0.91-0.312,1.837-1.222,2.072C555.987,55.149,555.844,55.166,555.703,55.166z"/>
	</g>
	<g>
		<path d="M571.823,52.342c-0.171,0-0.345-0.026-0.517-0.081c-0.895-0.285-1.39-1.243-1.104-2.138l4.884-15.323
			c1.074-3.478,0.574-5.628-0.182-6.408c-0.326-0.337-0.711-0.44-1.169-0.312c-0.988,0.272-2.4,1.672-3.124,4.723
			c-0.011,0.048-0.024,0.095-0.04,0.142l-5.126,15.492c-0.296,0.892-1.258,1.375-2.15,1.081c-0.892-0.295-1.376-1.258-1.081-2.15
			l5.104-15.424c0.915-3.777,2.973-6.445,5.515-7.144c1.67-0.459,3.314-0.012,4.514,1.224c1.933,1.994,2.292,5.564,0.986,9.795
			l-4.889,15.338C573.213,51.881,572.544,52.342,571.823,52.342z"/>
	</g>
	<g>
		<path d="M570.224,72.653c-0.72,0-1.389-0.461-1.62-1.184c-0.286-0.895,0.208-1.852,1.103-2.138
			c4.899-1.565,7.399-6.376,7.431-14.302c0.001-0.336,0.102-0.664,0.29-0.943l8.917-13.246c1.976-2.995,2.094-5.17,1.593-6.118
			c-0.221-0.417-0.563-0.624-1.047-0.631c-1.03,0.022-2.767,0.925-4.303,3.63c-0.024,0.043-0.051,0.085-0.079,0.126l-9.196,13.34
			c-0.532,0.773-1.592,0.969-2.366,0.435c-0.773-0.533-0.968-1.592-0.435-2.366l9.155-13.28c1.923-3.351,4.622-5.328,7.275-5.286
			c1.738,0.026,3.197,0.917,4.004,2.443c1.289,2.439,0.645,5.937-1.769,9.596l-8.642,12.837c-0.159,9.135-3.539,15.011-9.793,17.008
			C570.57,72.627,570.396,72.653,570.224,72.653z"/>
	</g>
	<g>
		<path d="M549.747,60.775c-0.579,0-1.142-0.295-1.461-0.827l-11.037-18.426c-0.037-0.062-0.071-0.127-0.1-0.194
			c-1.902-4.358-1.481-8.197,1.048-9.553c1.449-0.776,5.455-1.595,11.349,7.55l7.424,12.099c0.491,0.801,0.24,1.848-0.56,2.34
			c-0.801,0.492-1.849,0.24-2.34-0.56l-7.404-12.067c-3.951-6.128-6.453-6.577-6.862-6.362c-0.426,0.228-0.898,2.014,0.42,5.095
			l10.98,18.33c0.483,0.806,0.221,1.851-0.585,2.334C550.346,60.697,550.044,60.775,549.747,60.775z"/>
	</g>
	<g>
		<path d="M554.917,209.102c-0.471,0-0.94-0.194-1.276-0.576c-0.622-0.704-0.555-1.78,0.15-2.401
			c9.788-8.636,10.739-13.791,9.978-14.692c-0.533-0.631-3.327-0.454-7.374,2.808l-12.031,10.879
			c-0.697,0.63-1.772,0.576-2.403-0.121c-0.63-0.697-0.576-1.773,0.121-2.403l12.067-10.911c0.023-0.021,0.047-0.041,0.071-0.061
			c5.11-4.134,9.879-5.072,12.148-2.388c2.417,2.86,0.974,9.469-10.326,19.439C555.718,208.961,555.317,209.102,554.917,209.102z"/>
	</g>
	<g>
		<path d="M566.919,225.731c-0.927,0-1.686-0.744-1.701-1.675c-0.014-0.94,0.736-1.713,1.675-1.727l13.925-0.214
			c6.309-0.258,8.767-2.102,8.824-3.204c0.044-0.848-1.354-2.311-4.489-2.799l-20.993,0.062c-0.002,0-0.003,0-0.005,0
			c-0.937,0-1.698-0.758-1.701-1.696c-0.003-0.94,0.757-1.703,1.696-1.706l21.123-0.062c0.084,0.006,0.167,0.005,0.25,0.018
			c4.586,0.667,7.677,3.283,7.517,6.36c-0.073,1.395-1.161,5.981-12.126,6.429l-13.968,0.216
			C566.937,225.731,566.928,225.731,566.919,225.731z"/>
	</g>
	<g>
		<path d="M580.462,243.59c-2.025,0-4.381-0.773-6.831-2.281l-13.981-8.791c-0.795-0.5-1.035-1.55-0.535-2.345
			c0.499-0.796,1.55-1.035,2.345-0.535l13.967,8.782c3.186,1.962,5.464,2.01,6.445,1.453c0.442-0.251,0.652-0.626,0.644-1.143
			c-0.017-1.07-1.052-2.855-3.912-4.363c-0.044-0.023-0.086-0.048-0.128-0.075l-14.073-9.067c-0.79-0.509-1.017-1.562-0.508-2.352
			c0.509-0.79,1.561-1.018,2.352-0.508l14.012,9.028c3.502,1.867,5.616,4.585,5.659,7.282c0.028,1.77-0.833,3.285-2.363,4.156
			C582.663,243.339,581.616,243.59,580.462,243.59z"/>
	</g>
	<g>
		<path d="M571.643,255.069c-2.463,0-5.239-1.534-7.811-4.362l-10.657-11.942c-9.096-2.501-14.108-7.372-14.504-14.107
			c-0.055-0.938,0.66-1.743,1.599-1.798c0.926-0.061,1.743,0.66,1.798,1.599c0.313,5.318,4.508,9.069,12.468,11.148
			c0.324,0.085,0.616,0.263,0.839,0.513l10.984,12.309c2.517,2.767,4.693,3.446,5.787,3.18c0.494-0.119,0.801-0.42,0.936-0.921
			c0.28-1.033-0.219-3.034-2.549-5.276c-0.036-0.034-0.07-0.07-0.102-0.107l-11.007-12.612c-0.618-0.708-0.545-1.783,0.163-2.4
			c0.707-0.618,1.783-0.545,2.4,0.163l10.96,12.558c2.847,2.765,4.125,5.962,3.419,8.565c-0.464,1.709-1.711,2.925-3.423,3.338
			C572.523,255.019,572.088,255.068,571.643,255.069z"/>
	</g>
	<g>
		<path d="M562.146,216.435c-0.726,0-1.397-0.467-1.624-1.197c-0.279-0.897,0.222-1.851,1.119-2.129l15.311-4.761
			c7.361-2.47,9.29-5.145,9.065-6.051c-0.169-0.678-2.146-1.732-5.958-1.131l-23.197,6.939c-0.899,0.27-1.848-0.241-2.117-1.142
			c-0.269-0.9,0.242-1.848,1.142-2.117l23.304-6.971c0.07-0.021,0.14-0.037,0.212-0.049c5.181-0.849,9.164,0.618,9.916,3.652
			c0.434,1.751,0.201,6.242-11.321,10.107l-15.347,4.772C562.483,216.41,562.312,216.435,562.146,216.435z"/>
	</g>
	<g>
		<path d="M646.559,256.814c-0.11,0-0.221-0.01-0.331-0.032c-0.666-0.132-1.189-0.646-1.332-1.309l-5.481-25.349
			c-0.199-0.918,0.385-1.824,1.303-2.022c0.918-0.202,1.823,0.385,2.023,1.303l4.631,21.418
			c11.857-18.475,16.548-37.217,13.946-55.763c-0.131-0.93,0.518-1.791,1.448-1.921c0.934-0.13,1.791,0.518,1.921,1.448
			c2.88,20.531-2.747,41.22-16.728,61.493C647.637,256.545,647.111,256.814,646.559,256.814z"/>
	</g>
	<g>
		<path fill="#CB0018" d="M208.894,524.514c-0.475,0-0.93-0.199-1.254-0.552c-0.356-0.388-0.512-0.92-0.422-1.439
			c3.832-22.222,14.119-37.845,32.07-48.394c-8.431,2.817-14.787,8.277-20.992,13.609c-0.511,0.439-1.234,0.537-1.843,0.244
			c-0.608-0.291-0.987-0.915-0.966-1.589c0.839-26.037,15.122-39.978,30.91-49.503c-2.836-0.506-5.375-1.778-7.757-3.211
			c-0.586-0.353-0.904-1.021-0.807-1.698c0.097-0.677,0.589-1.23,1.251-1.405c8.235-2.171,15.33-6.093,21.476-11.898
			c-3.717,1.082-7.404,1.066-11.039,0.856c-1.451,0.11-2.982,0.003-4.593-0.318c-0.878-0.175-1.47-0.999-1.355-1.887
			c0.115-0.887,0.883-1.541,1.791-1.479c0.671,0.041,1.342,0.087,2.014,0.134c0.689,0.048,1.374,0.096,2.057,0.137
			c4.856-0.454,8.486-4.093,11.479-11.344c0.016-0.038,0.033-0.076,0.051-0.112c11.304-22.583,32.105-29.116,52.899-32.812
			c0.927-0.162,1.808,0.452,1.973,1.377c0.164,0.925-0.452,1.808-1.377,1.973c-19.904,3.537-39.786,9.734-50.425,30.93
			c-1.755,4.236-3.82,7.46-6.217,9.687c3.318-0.634,6.592-2.111,9.874-5.245c0.639-0.61,1.638-0.629,2.3-0.046
			c0.662,0.584,0.768,1.577,0.243,2.287c-7.055,9.55-15.869,16.201-26.242,19.816c3.216,1.343,6.341,1.587,10.165-0.061
			c0.842-0.361,1.818,0.006,2.21,0.833c0.392,0.827,0.061,1.816-0.751,2.239c-17.653,9.188-34.166,21.269-36.486,46.915
			c7.982-6.705,17.294-13.378,31.188-13.76c0.816-0.029,1.536,0.54,1.709,1.34c0.174,0.799-0.246,1.609-1,1.928
			c-22.609,9.568-35.383,25.124-40.051,48.85c35.673-3.475,62.743-17.816,82.697-43.797c0.438-0.57,1.189-0.803,1.873-0.582
			c0.684,0.221,1.156,0.85,1.177,1.569c0.193,6.602-2.45,13.06-8.047,19.589c14.802-6.62,27.316-16.27,40.641-37.045
			c0.417-0.65,1.218-0.937,1.953-0.701c0.735,0.236,1.218,0.938,1.178,1.709c-0.314,5.968-2.306,12.634-5.921,19.815
			c-3.609,7.874-4.47,13.224-2.537,17.091c-0.382-11.19,5.247-20.042,16.787-26.366c14.891-8.112,23.58-21.274,26.57-40.241
			c0.146-0.928,1.016-1.562,1.945-1.415c0.928,0.146,1.562,1.017,1.415,1.945c-3.121,19.803-12.642,34.168-28.3,42.697
			c-12.071,6.615-16.8,15.831-14.454,28.173c0.13,0.685-0.171,1.381-0.76,1.754c-0.589,0.374-1.347,0.35-1.911-0.061
			c-8.846-6.431-5.62-16.767-1.822-25.052c1.95-3.874,3.396-7.555,4.334-11.019c-14.452,20.258-28.375,28.606-45.576,35.013
			c-0.768,0.285-1.629-0.015-2.051-0.716c-0.422-0.701-0.285-1.604,0.326-2.148c6.79-6.049,10.777-11.69,12.218-17.389
			c-20.608,24.425-48.042,37.778-83.673,40.77C208.989,524.512,208.941,524.514,208.894,524.514z"/>
	</g>
	<g>
		<path fill="#CB0018" d="M327.358,454.642c-1.544,0-3.05-0.106-4.515-0.322c-0.689-0.102-1.246-0.613-1.407-1.291
			c-0.16-0.678,0.108-1.385,0.679-1.785c5.724-4.013,7.236-8.777,7.342-12.628c-1.886,3.433-4.737,6.3-8.454,8.46
			c-11.572,6.726-30.795,6.536-50.168-0.496c-0.677-0.246-1.126-0.891-1.121-1.612c0.005-0.72,0.464-1.359,1.145-1.595
			c19.331-6.691,25.26-15.277,27.614-24.664c-3.358,5.051-7.159,7.001-10.879,8.91l-0.724,0.372
			c-0.809,0.418-1.801,0.126-2.255-0.662c-0.454-0.788-0.208-1.793,0.558-2.283c4.159-2.657,6.198-7.2,6.232-13.886
			c-0.54-15.658,6.602-28.185,21.226-37.167c0.802-0.492,1.849-0.242,2.34,0.559c0.492,0.801,0.241,1.848-0.559,2.34
			c-13.505,8.294-20.101,19.807-19.605,34.218c-0.016,3.184-0.43,5.969-1.251,8.377c2.549-2.685,4.845-6.761,6.844-13.882
			c0.24-0.853,1.093-1.379,1.964-1.21c0.87,0.17,1.464,0.98,1.364,1.86c-0.081,0.723-0.159,1.447-0.237,2.173
			c-1.341,12.523-2.85,26.623-26.989,36.459c16.677,5.094,33.103,4.878,42.79-0.753c5.115-2.973,8.189-7.292,9.139-12.837
			c0.135-0.789,0.801-1.377,1.601-1.413c0.797-0.037,1.516,0.49,1.72,1.264l0.098,0.361c2.193,7.959,0.705,14.572-4.422,19.716
			c9.973-0.064,24.251-4.995,38.491-18.943c0.67-0.658,1.748-0.647,2.406,0.025c0.657,0.671,0.646,1.748-0.025,2.406
			C355.447,447.302,340.186,454.64,327.358,454.642z"/>
	</g>
	<g>
		<path d="M550.682,175.413c-0.733,0-1.409-0.477-1.629-1.215c-5.081-17.03-17.269-31.723-37.259-44.92
			c-0.784-0.518-1-1.573-0.482-2.357c0.518-0.784,1.573-1,2.357-0.482c20.685,13.655,33.325,28.959,38.645,46.786
			c0.269,0.9-0.243,1.848-1.144,2.117C551.008,175.39,550.844,175.413,550.682,175.413z"/>
	</g>
	<g>
		<path d="M524.324,77.903c-0.157,0-0.317-0.022-0.475-0.068c-0.902-0.262-1.421-1.206-1.16-2.108
			c2.383-8.208-2.07-17.182-9.723-19.594c-0.896-0.282-1.394-1.238-1.111-2.134c0.282-0.896,1.24-1.396,2.134-1.111
			c9.372,2.954,14.853,13.848,11.968,23.788C525.741,77.419,525.061,77.903,524.324,77.903z"/>
	</g>
	<g>
		<path d="M712.961,77.903c-0.68,0-1.357-0.27-1.859-0.804c-0.966-1.026-0.916-2.642,0.11-3.607l14.495-13.633
			c1.026-0.966,2.642-0.917,3.607,0.11c0.966,1.026,0.916,2.642-0.11,3.607L714.709,77.21
			C714.216,77.673,713.588,77.903,712.961,77.903z"/>
	</g>
	<g>
		<path d="M330.434,395.732c-0.205,0-0.41-0.037-0.604-0.111c-8.194-3.111-13.745-10.68-16.499-22.494
			c-0.15-0.643,0.086-1.314,0.604-1.722c3.449-2.721,10.359-3.801,14.171-4.203c0.931-0.103,1.772,0.579,1.87,1.513
			c0.099,0.935-0.579,1.772-1.513,1.87c-5.049,0.532-9.231,1.596-11.54,2.907c2.476,9.679,7.009,15.962,13.488,18.696
			c2.056-0.982,2.632-2.345,3.29-3.903c0.174-0.412,0.344-0.811,0.531-1.19c0.417-0.843,1.439-1.187,2.279-0.77
			c0.842,0.417,1.187,1.438,0.77,2.279c-0.158,0.319-0.3,0.657-0.447,1.005c-0.8,1.894-1.897,4.488-5.782,6.005
			C330.854,395.693,330.644,395.732,330.434,395.732z"/>
	</g>
	<g>
		<path d="M367.897,434.148c-0.085,0-0.17-0.006-0.255-0.019c-8.928-1.357-16.216-7.234-21.662-17.47
			c-0.248-0.467-0.265-1.022-0.047-1.504c1.726-3.795,4.375-4.748,6.31-5.444c0.355-0.128,0.701-0.251,1.029-0.392
			c0.863-0.37,1.864,0.029,2.234,0.893c0.37,0.863-0.029,1.864-0.893,2.234c-0.388,0.167-0.797,0.315-1.219,0.466
			c-1.55,0.558-2.912,1.048-3.991,2.921c4.71,8.508,10.549,13.352,17.805,14.767c1.694-2.242,2.834-5.286,3.474-9.27
			c0.149-0.927,1.021-1.556,1.95-1.41c0.928,0.149,1.559,1.022,1.41,1.95c-0.817,5.082-2.409,8.909-4.869,11.7
			C368.848,433.941,368.382,434.148,367.897,434.148z"/>
	</g>
	<g>
		<polygon fill-rule="evenodd" clip-rule="evenodd" fill="#FCA61A" points="314.39,427.292 337.294,388.143 455.687,303.49 
			355.129,410.612 		"/>
	</g>
	<g>
		<polygon fill-rule="evenodd" clip-rule="evenodd" fill="#F4F2CD" points="340.883,385.596 329.888,409.101 438.101,316.752 
			320.031,420.854 		"/>
	</g>
	<g>
		<polygon fill-rule="evenodd" clip-rule="evenodd" fill="#9E6200" points="318.668,426.029 355.443,411.243 446.813,312.67 		"/>
	</g>
	<g>
		<path d="M314.501,429.954c-0.47,0-0.938-0.194-1.274-0.574c-0.623-0.703-0.557-1.779,0.146-2.402l140.809-124.678
			c0.703-0.623,1.778-0.558,2.402,0.146c0.623,0.703,0.557,1.779-0.146,2.402L315.628,429.527
			C315.304,429.813,314.902,429.954,314.501,429.954z"/>
	</g>
	<g>
		<path d="M313.454,430.542c-0.441,0-0.887-0.114-1.295-0.355c-1.214-0.716-1.617-2.281-0.9-3.495l22.742-38.532
			c0.177-0.301,0.415-0.562,0.698-0.768l122.951-89.327c1.141-0.828,2.736-0.575,3.564,0.565c0.828,1.14,0.575,2.736-0.565,3.565
			l-122.523,89.016l-22.473,38.076C315.178,430.094,314.327,430.542,313.454,430.542z"/>
	</g>
	<g>
		<path d="M314.001,431.267c-0.997,0-1.944-0.588-2.354-1.565c-0.545-1.3,0.066-2.795,1.365-3.341l40.755-17.103l103.107-109.995
			c0.964-1.028,2.579-1.08,3.607-0.117c1.028,0.964,1.08,2.579,0.117,3.607l-103.48,110.392c-0.245,0.262-0.544,0.469-0.874,0.608
			l-41.256,17.314C314.665,431.202,314.33,431.267,314.001,431.267z"/>
	</g>
	<g>
		<path d="M502.9,235.141c-12.625,0-25.481-1.161-38.479-3.482c-0.445-0.079-0.839-0.332-1.097-0.703
			c-15.654-22.501-16.301-57.679-12.1-80.966c0.167-0.925,1.052-1.537,1.976-1.372c0.925,0.167,1.539,1.052,1.372,1.976
			c-4.05,22.447-3.525,56.169,11.147,77.84c24.103,4.228,47.705,4.401,70.164,0.513c0.929-0.161,1.806,0.461,1.967,1.386
			c0.16,0.926-0.46,1.806-1.386,1.967C525.517,234.194,514.302,235.141,502.9,235.141z"/>
	</g>
	<g>
		
			<ellipse transform="matrix(-0.9832 0.1824 -0.1824 -0.9832 1064.0032 294.227)" fill-rule="evenodd" clip-rule="evenodd" fill="#A69D8C" cx="518.471" cy="196.045" rx="5.116" ry="3.325"/>
	</g>
	<g>
		<path d="M517.67,200.403c-2.733,0-4.81-1.306-5.17-3.251c-0.22-1.184,0.263-2.443,1.326-3.452c0.968-0.92,2.34-1.582,3.864-1.864
			c0.527-0.098,1.059-0.147,1.58-0.147c2.733,0,4.811,1.306,5.172,3.249c0.437,2.362-1.842,4.698-5.19,5.318
			C518.724,200.353,518.192,200.403,517.67,200.403z M519.269,193.602c-0.405,0-0.819,0.039-1.231,0.115
			c-1.147,0.213-2.202,0.712-2.895,1.371c-0.343,0.326-0.899,0.983-0.763,1.716c0.181,0.977,1.564,1.685,3.288,1.685
			c0.405,0,0.82-0.039,1.233-0.115c2.409-0.446,3.861-1.985,3.657-3.087C522.378,194.31,520.995,193.602,519.269,193.602z"/>
	</g>
	<g>
		
			<ellipse transform="matrix(-0.9544 0.2986 -0.2986 -0.9544 1113.8479 198.6224)" fill-rule="evenodd" clip-rule="evenodd" fill="#A69D8C" cx="541.75" cy="184.406" rx="5.116" ry="3.325"/>
	</g>
	<g>
		<path d="M540.529,188.886c-2.308,0-4.061-1.022-4.575-2.667c-0.365-1.167-0.044-2.441,0.904-3.587
			c0.851-1.029,2.134-1.851,3.613-2.313c0.834-0.26,1.674-0.393,2.498-0.393c2.308,0,4.062,1.021,4.577,2.666
			c0.716,2.293-1.268,4.885-4.518,5.9C542.194,188.754,541.353,188.886,540.529,188.886z M542.969,181.84
			c-0.63,0-1.278,0.103-1.926,0.305c-1.114,0.348-2.101,0.97-2.711,1.707c-0.302,0.365-0.775,1.083-0.552,1.796
			c0.251,0.805,1.33,1.325,2.748,1.325c0.63,0,1.279-0.103,1.928-0.306c2.339-0.731,3.597-2.433,3.263-3.503
			C545.467,182.36,544.388,181.84,542.969,181.84z"/>
	</g>
	<g>
		
			<ellipse transform="matrix(-0.8653 0.5012 -0.5012 -0.8653 1135.1643 31.3917)" fill-rule="evenodd" clip-rule="evenodd" fill="#A69D8C" cx="563.365" cy="168.194" rx="5.116" ry="3.326"/>
	</g>
	<g>
		<path d="M561.666,173.006c-1.609,0-2.906-0.645-3.556-1.769c-0.613-1.058-0.581-2.371,0.092-3.698
			c0.604-1.191,1.675-2.274,3.016-3.051c1.231-0.712,2.596-1.105,3.845-1.105c1.609,0,2.905,0.644,3.556,1.766
			c1.204,2.08-0.162,5.044-3.108,6.75C564.281,172.613,562.915,173.006,561.666,173.006z M565.063,165.297
			c-0.917,0-1.942,0.301-2.886,0.847c-1.009,0.584-1.836,1.408-2.268,2.261c-0.214,0.422-0.517,1.227-0.143,1.872
			c0.299,0.518,0.992,0.814,1.9,0.814c0.917,0,1.942-0.301,2.886-0.848c2.121-1.228,2.973-3.164,2.411-4.134
			C566.664,165.593,565.972,165.297,565.063,165.297z"/>
	</g>
	<g>
		
			<ellipse transform="matrix(-0.8653 0.5012 -0.5012 -0.8653 1152.6624 -14.8799)" fill-rule="evenodd" clip-rule="evenodd" fill="#A69D8C" cx="578.33" cy="147.409" rx="5.116" ry="3.326"/>
	</g>
	<g>
		<path d="M576.632,152.22c-1.609,0-2.906-0.645-3.556-1.769c-0.613-1.058-0.581-2.371,0.092-3.698
			c0.604-1.191,1.675-2.274,3.016-3.051c1.231-0.712,2.596-1.105,3.845-1.105c1.609,0,2.905,0.644,3.556,1.767
			c0.613,1.059,0.581,2.372-0.092,3.699c-0.604,1.191-1.675,2.275-3.016,3.051C579.246,151.828,577.88,152.22,576.632,152.22z
			 M580.028,144.512c-0.917,0-1.942,0.301-2.886,0.847c-1.009,0.584-1.836,1.408-2.268,2.261c-0.214,0.422-0.517,1.227-0.143,1.872
			c0.299,0.518,0.992,0.814,1.9,0.814c0.917,0,1.942-0.301,2.886-0.848c1.009-0.584,1.836-1.408,2.268-2.26
			c0.214-0.422,0.517-1.227,0.143-1.874C581.629,144.808,580.937,144.512,580.028,144.512z"/>
	</g>
	<g>
		
			<ellipse transform="matrix(-0.8653 0.5012 -0.5012 -0.8653 1142.3623 -47.0295)" fill-rule="evenodd" clip-rule="evenodd" fill="#A69D8C" cx="577.499" cy="129.95" rx="5.116" ry="3.326"/>
	</g>
	<g>
		<path d="M575.8,134.761c-1.609,0-2.905-0.644-3.556-1.768c-0.613-1.058-0.581-2.371,0.092-3.698
			c0.604-1.191,1.675-2.274,3.016-3.051c1.231-0.712,2.596-1.105,3.845-1.105c1.609,0,2.905,0.644,3.556,1.766
			c1.203,2.08-0.162,5.044-3.108,6.75C578.415,134.368,577.049,134.761,575.8,134.761z M579.198,127.053
			c-0.917,0-1.942,0.301-2.886,0.847c-1.009,0.584-1.836,1.408-2.268,2.261c-0.214,0.422-0.517,1.227-0.143,1.872
			c0.299,0.518,0.992,0.814,1.9,0.814c0.917,0,1.943-0.301,2.887-0.848c2.12-1.228,2.972-3.164,2.411-4.134
			C580.799,127.349,580.106,127.053,579.198,127.053z"/>
	</g>
	<g>
		<path d="M483.702,112.916c-4.399,0-9.051-0.466-13.817-1.541c-0.687-0.155-1.119-0.838-0.964-1.526
			c0.155-0.687,0.838-1.12,1.526-0.964c19.356,4.366,36.519-1.571,41.468-7.534c0.711-0.858,1.465-2.1,1.013-3.148
			c-0.66-1.529-3.716-2.612-8.177-2.895c-0.703-0.045-1.237-0.651-1.192-1.354c0.045-0.703,0.657-1.234,1.354-1.192
			c5.763,0.367,9.248,1.857,10.358,4.431c0.753,1.744,0.258,3.8-1.393,5.789C509.767,107.935,498.087,112.916,483.702,112.916z"/>
	</g>
	<g>
		<path fill-rule="evenodd" clip-rule="evenodd" fill="#FFFEE8" d="M509.606,90.445c2.173,5.52-14.85,16.372-30.068,19.883
			l-6.306-1.212C486.786,104.8,500.366,100.513,509.606,90.445z"/>
	</g>
	<g>
		<path d="M471.403,111.159c-0.537,0-1.038-0.343-1.213-0.881c-0.218-0.67,0.148-1.39,0.818-1.608
			c15.548-5.061,31.122-11.357,39.728-23.066c0.417-0.568,1.216-0.69,1.783-0.272c0.568,0.417,0.69,1.216,0.272,1.783
			c-9.033,12.29-25.041,18.789-40.994,23.981C471.667,111.139,471.534,111.159,471.403,111.159z"/>
	</g>
	<g>
		<path d="M554.393,57.342c-0.346,0-0.691-0.14-0.943-0.416c-0.475-0.52-0.438-1.327,0.082-1.803
			c6.769-6.178,13.898-7.151,21.191-2.892c0.609,0.356,0.814,1.137,0.459,1.745c-0.356,0.608-1.137,0.813-1.745,0.459
			c-6.305-3.682-12.254-2.84-18.184,2.573C555.008,57.232,554.7,57.342,554.393,57.342z"/>
	</g>
	<g>
		<path d="M486.611,196.428c-0.334,0-0.667-0.13-0.917-0.389c-0.49-0.506-0.476-1.314,0.03-1.804
			c3.892-3.766,5.655-11.342,4.388-18.853c-1.147-6.798-5.733-19.437-23.564-27.716c-0.639-0.297-0.917-1.055-0.62-1.695
			c0.297-0.639,1.055-0.918,1.695-0.62c18.89,8.771,23.775,22.313,25.005,29.605c1.423,8.433-0.591,16.72-5.13,21.112
			C487.251,196.309,486.931,196.428,486.611,196.428z"/>
	</g>
	<g>
		<path d="M556.245,133.941c-0.195,0-0.393-0.045-0.579-0.14L529.3,120.355c-0.628-0.32-0.877-1.089-0.557-1.717
			c0.321-0.628,1.089-0.877,1.717-0.557l26.366,13.446c0.628,0.32,0.877,1.089,0.557,1.717
			C557.157,133.687,556.709,133.941,556.245,133.941z"/>
	</g>
	<g>
		<polygon fill-rule="evenodd" clip-rule="evenodd" fill="#FCA61A" points="222.371,241.498 225.037,250.005 219.542,257.023 
			228.456,257.117 233.432,264.513 236.276,256.064 244.848,253.616 237.691,248.301 238.012,239.392 230.746,244.556 		"/>
	</g>
	<g>
		<path d="M233.431,266.279c-0.582,0-1.134-0.289-1.465-0.78l-4.457-6.626l-7.986-0.084c-0.672-0.007-1.281-0.395-1.572-1.001
			c-0.291-0.606-0.213-1.324,0.201-1.853l4.923-6.288l-2.389-7.622c-0.201-0.641-0.02-1.341,0.466-1.805
			c0.486-0.464,1.194-0.612,1.825-0.381l7.503,2.74l6.51-4.626c0.548-0.389,1.27-0.433,1.86-0.115
			c0.591,0.319,0.951,0.946,0.927,1.617l-0.287,7.981l6.412,4.761c0.54,0.401,0.805,1.073,0.684,1.734
			c-0.12,0.661-0.606,1.197-1.252,1.381l-7.679,2.194l-2.549,7.569c-0.214,0.637-0.772,1.097-1.438,1.187
			C233.588,266.273,233.509,266.279,233.431,266.279z M223.137,255.296l5.337,0.056c0.581,0.006,1.122,0.297,1.446,0.78l2.979,4.428
			l1.703-5.059c0.185-0.551,0.63-0.975,1.188-1.134l5.132-1.466l-4.285-3.182c-0.466-0.346-0.733-0.9-0.712-1.481l0.192-5.334
			l-4.35,3.091c-0.473,0.336-1.082,0.419-1.628,0.219l-5.015-1.831l1.597,5.094c0.174,0.554,0.064,1.159-0.294,1.616
			L223.137,255.296z"/>
	</g>
	<g>
		<polygon fill-rule="evenodd" clip-rule="evenodd" fill="#F26B7B" points="267.205,88.562 265.883,94.137 260.543,96.209 
			265.436,99.188 265.756,104.908 270.102,101.175 275.64,102.638 273.433,97.352 276.535,92.536 270.826,93.002 		"/>
	</g>
	<g>
		<path d="M265.756,106.043c-0.15,0-0.302-0.03-0.444-0.091c-0.397-0.169-0.665-0.549-0.689-0.981l-0.287-5.125l-4.383-2.669
			c-0.369-0.225-0.578-0.639-0.54-1.07c0.038-0.43,0.317-0.802,0.72-0.958l4.784-1.857l1.184-4.993c0.1-0.42,0.429-0.748,0.85-0.844
			c0.421-0.096,0.86,0.054,1.133,0.389l3.244,3.977l5.114-0.417c0.426-0.035,0.843,0.177,1.065,0.548
			c0.222,0.37,0.215,0.834-0.019,1.198l-2.78,4.314l1.907,4.567c0.111,0.175,0.175,0.383,0.175,0.606
			c0,0.627-0.508,1.135-1.135,1.135c-0.006,0-0.011,0-0.017,0c-0.096,0-0.194-0.012-0.29-0.038l-4.961-1.311l-3.894,3.345
			C266.286,105.949,266.022,106.043,265.756,106.043z M263.097,96.435l2.929,1.783c0.319,0.194,0.522,0.533,0.543,0.906l0.191,3.425
			l2.602-2.235c0.283-0.244,0.667-0.331,1.029-0.236l3.315,0.876l-1.321-3.164c-0.144-0.345-0.109-0.738,0.093-1.052l1.857-2.883
			l-3.417,0.279c-0.374,0.032-0.736-0.125-0.971-0.414l-2.169-2.658l-0.791,3.337c-0.086,0.363-0.346,0.661-0.694,0.796
			L263.097,96.435z"/>
	</g>
	<g>
		<polygon fill-rule="evenodd" clip-rule="evenodd" fill="#F4F2CD" points="629.871,41.762 632.062,48.753 627.546,54.521 
			634.871,54.598 638.961,60.677 641.299,53.733 648.344,51.721 642.461,47.353 642.725,40.031 636.753,44.274 		"/>
	</g>
	<g>
		<path d="M638.961,62.128c-0.479,0-0.932-0.237-1.204-0.641l-3.664-5.446l-6.562-0.069c-0.552-0.006-1.054-0.325-1.293-0.822
			c-0.239-0.498-0.175-1.089,0.165-1.523l4.046-5.168l-1.963-6.263c-0.165-0.527-0.017-1.102,0.383-1.484
			c0.4-0.381,0.982-0.503,1.5-0.314l6.166,2.251l5.35-3.802c0.451-0.321,1.044-0.356,1.529-0.094
			c0.486,0.262,0.782,0.778,0.762,1.33l-0.236,6.56l5.269,3.913c0.444,0.329,0.662,0.882,0.562,1.425
			c-0.099,0.543-0.498,0.983-1.029,1.135l-6.311,1.802l-2.094,6.222c-0.176,0.523-0.634,0.901-1.182,0.975
			C639.09,62.124,639.025,62.128,638.961,62.128z M630.501,53.101l4.385,0.046c0.478,0.005,0.922,0.245,1.189,0.641l2.448,3.64
			l1.4-4.158c0.152-0.452,0.518-0.801,0.977-0.932l4.217-1.204l-3.521-2.615c-0.383-0.285-0.602-0.74-0.585-1.217l0.158-4.384
			l-3.576,2.541c-0.39,0.277-0.89,0.344-1.338,0.18l-4.121-1.504l1.312,4.186c0.143,0.456,0.052,0.952-0.242,1.329L630.501,53.101z"
			/>
	</g>
	<g>
		<polygon fill-rule="evenodd" clip-rule="evenodd" fill="#F26B7B" points="594.128,374.783 596.319,381.774 591.802,387.542 
			599.129,387.619 603.219,393.698 605.556,386.753 612.601,384.742 606.719,380.373 606.983,373.052 601.01,377.295 		"/>
	</g>
	<g>
		<path d="M603.218,395.149c-0.478,0-0.932-0.237-1.204-0.641l-3.664-5.446l-6.563-0.069c-0.552-0.006-1.054-0.325-1.293-0.822
			c-0.239-0.498-0.175-1.089,0.165-1.523l4.047-5.168l-1.963-6.263c-0.165-0.527-0.017-1.102,0.383-1.484
			c0.401-0.381,0.982-0.503,1.5-0.314l6.166,2.251l5.351-3.802c0.451-0.319,1.045-0.357,1.529-0.094
			c0.486,0.262,0.781,0.778,0.762,1.329l-0.236,6.559l5.269,3.914c0.444,0.329,0.662,0.882,0.562,1.425
			c-0.099,0.543-0.498,0.983-1.029,1.135l-6.312,1.802l-2.094,6.222c-0.176,0.523-0.634,0.901-1.182,0.975
			C603.347,395.145,603.283,395.149,603.218,395.149z M594.758,386.122l4.386,0.046c0.478,0.005,0.922,0.245,1.189,0.641l2.448,3.64
			l1.4-4.158c0.152-0.452,0.518-0.801,0.977-0.932l4.218-1.204l-3.522-2.616c-0.383-0.285-0.602-0.74-0.585-1.217l0.158-4.383
			l-3.576,2.541c-0.39,0.277-0.89,0.345-1.338,0.18l-4.121-1.504l1.312,4.185c0.143,0.456,0.052,0.953-0.242,1.329L594.758,386.122z
			"/>
	</g>
	<g>
		<polygon fill-rule="evenodd" clip-rule="evenodd" fill="#00B4FF" points="688.595,192.564 690.075,197.283 687.027,201.176 
			691.971,201.227 694.731,205.331 696.309,200.644 701.063,199.285 697.093,196.338 697.271,191.396 693.241,194.261 		"/>
	</g>
	<g>
		<path d="M694.731,206.31c-0.323,0-0.629-0.16-0.813-0.433l-2.473-3.676l-4.428-0.046c-0.373-0.004-0.711-0.219-0.873-0.555
			c-0.162-0.336-0.118-0.735,0.111-1.028l2.73-3.488l-1.325-4.228c-0.112-0.356-0.012-0.744,0.258-1.001
			c0.27-0.258,0.662-0.339,1.012-0.211l4.161,1.52l3.611-2.566c0.303-0.216,0.703-0.241,1.032-0.064
			c0.328,0.177,0.527,0.525,0.514,0.898l-0.16,4.428l3.557,2.641c0.299,0.222,0.446,0.595,0.38,0.962
			c-0.067,0.367-0.336,0.664-0.694,0.766l-4.259,1.217l-1.414,4.199c-0.119,0.353-0.428,0.609-0.798,0.658
			C694.818,206.307,694.774,206.31,694.731,206.31z M689.022,200.217l2.959,0.031c0.323,0.003,0.623,0.165,0.803,0.433l1.653,2.457
			l0.944-2.806c0.103-0.306,0.349-0.541,0.659-0.63l2.846-0.813l-2.377-1.765c-0.259-0.192-0.407-0.499-0.395-0.822l0.106-2.959
			l-2.412,1.715c-0.263,0.187-0.601,0.232-0.903,0.122l-2.781-1.016l0.886,2.826c0.096,0.307,0.035,0.643-0.163,0.897
			L689.022,200.217z"/>
	</g>
	<g>
		<path d="M606.509,33.373c-0.598,0-1.159-0.371-1.372-0.967c-2.146-5.987-5.474-9.734-10.473-11.792
			c-0.745-0.307-1.1-1.158-0.793-1.903c0.307-0.745,1.158-1.099,1.903-0.793c5.737,2.361,9.698,6.778,12.108,13.505
			c0.272,0.758-0.122,1.592-0.88,1.864C606.838,33.346,606.672,33.373,606.509,33.373z"/>
	</g>
	<g>
		<path d="M612.848,28.117c-0.599,0-1.16-0.371-1.373-0.967c-2.142-5.986-5.47-9.732-10.473-11.791
			c-0.744-0.306-1.1-1.158-0.793-1.903c0.307-0.744,1.158-1.1,1.903-0.793c5.741,2.362,9.701,6.779,12.108,13.505
			c0.271,0.758-0.123,1.593-0.881,1.864C613.177,28.089,613.011,28.117,612.848,28.117z"/>
	</g>
	<g>
		<path d="M435.851,208.542c-1.525,0-3.19-0.488-4.762-1.46c-0.599-0.371-0.785-1.157-0.414-1.756
			c0.37-0.599,1.156-0.784,1.757-0.414c2.033,1.258,4.342,1.423,5.49,0.396c1.038-0.931,1.001-2.802-0.102-5.139
			c-2.279-3.932-4.746-4.548-5.85-4.001c-0.799,0.396-1.021,1.352-0.567,2.434c0.272,0.65-0.033,1.398-0.683,1.671
			c-0.647,0.273-1.397-0.033-1.671-0.683c-0.971-2.314-0.22-4.715,1.787-5.709c2.442-1.211,6.241-0.115,9.219,5.058
			c0.017,0.029,0.032,0.058,0.046,0.088c2.337,4.904,0.445,7.355-0.477,8.182C438.631,208.098,437.305,208.542,435.851,208.542z"/>
	</g>
	<g>
		<path d="M431.54,185.139c-1.552,0-3.243-0.534-4.808-1.59c-0.584-0.394-0.738-1.187-0.343-1.771
			c0.394-0.584,1.187-0.738,1.771-0.343c1.93,1.302,4.099,1.529,5.274,0.55c1.21-1.008,1.228-3.229,0.051-5.947
			c-2.066-3.892-4.401-5.03-5.699-4.442c-0.903,0.41-1.183,1.606-0.683,2.907c0.253,0.658-0.075,1.396-0.733,1.649
			c-0.659,0.255-1.396-0.076-1.649-0.733c-0.993-2.582-0.148-5.167,2.009-6.147c2.259-1.026,5.981-0.17,9.033,5.616
			c0.015,0.028,0.028,0.056,0.041,0.085c2.416,5.532,0.289,8.118-0.738,8.973C434.108,184.744,432.876,185.139,431.54,185.139z"/>
	</g>
	<g>
		<path d="M510.435,133.792c-0.483,0-0.946-0.276-1.161-0.745c-0.294-0.64-0.012-1.398,0.628-1.692l4.642-2.127
			c0.642-0.292,1.398-0.012,1.692,0.628c0.294,0.64,0.012,1.398-0.628,1.692l-4.642,2.127
			C510.794,133.754,510.613,133.792,510.435,133.792z"/>
	</g>
	<g>
		<path d="M514.497,137.08c-0.483,0-0.946-0.276-1.161-0.745c-0.294-0.64-0.012-1.398,0.628-1.692l4.642-2.127
			c0.641-0.293,1.398-0.012,1.692,0.628c0.294,0.64,0.012,1.398-0.628,1.692l-4.642,2.127
			C514.856,137.042,514.675,137.08,514.497,137.08z"/>
	</g>
	<g>
		<path d="M518.365,140.562c-0.483,0-0.946-0.276-1.161-0.745c-0.294-0.64-0.012-1.398,0.628-1.692l4.642-2.127
			c0.642-0.293,1.398-0.012,1.692,0.628c0.294,0.64,0.012,1.398-0.628,1.692l-4.642,2.127
			C518.724,140.524,518.543,140.562,518.365,140.562z"/>
	</g>
	<g>
		<path d="M522.427,143.849c-0.483,0-0.946-0.276-1.161-0.745c-0.294-0.64-0.012-1.398,0.628-1.692l4.642-2.127
			c0.642-0.292,1.398-0.012,1.692,0.628c0.294,0.64,0.012,1.398-0.628,1.692l-4.642,2.127
			C522.785,143.812,522.605,143.849,522.427,143.849z"/>
	</g>
	<g>
		<path d="M526.295,147.331c-0.483,0-0.946-0.276-1.161-0.745c-0.294-0.64-0.012-1.398,0.628-1.692l4.642-2.127
			c0.642-0.294,1.398-0.012,1.692,0.628c0.294,0.64,0.012,1.398-0.628,1.692l-4.642,2.127
			C526.654,147.294,526.473,147.331,526.295,147.331z"/>
	</g>
	<g>
		<path d="M529.97,151.393c-0.483,0-0.946-0.276-1.161-0.745c-0.294-0.64-0.012-1.398,0.628-1.692l4.642-2.127
			c0.643-0.294,1.398-0.012,1.692,0.628c0.294,0.64,0.012,1.398-0.628,1.692l-4.642,2.127
			C530.329,151.355,530.148,151.393,529.97,151.393z"/>
	</g>
	<g>
		<path d="M532.871,155.454c-0.483,0-0.946-0.276-1.161-0.745c-0.294-0.64-0.012-1.398,0.628-1.692l4.642-2.127
			c0.642-0.292,1.398-0.012,1.692,0.628c0.294,0.64,0.012,1.398-0.628,1.692l-4.642,2.127
			C533.229,155.417,533.048,155.454,532.871,155.454z"/>
	</g>
	<g>
		<path d="M536.74,159.903c-0.483,0-0.946-0.276-1.161-0.745c-0.294-0.64-0.012-1.398,0.628-1.692l4.642-2.127
			c0.641-0.293,1.398-0.012,1.692,0.628c0.294,0.64,0.012,1.398-0.628,1.692l-4.642,2.127
			C537.098,159.866,536.917,159.903,536.74,159.903z"/>
	</g>
	<g>
		<path d="M539.447,164.545c-0.483,0-0.946-0.276-1.161-0.745c-0.294-0.64-0.012-1.398,0.628-1.692l4.642-2.127
			c0.643-0.292,1.398-0.012,1.692,0.628c0.294,0.64,0.012,1.398-0.628,1.692l-4.642,2.127
			C539.805,164.508,539.625,164.545,539.447,164.545z"/>
	</g>
	<g>
		<path d="M541.575,169.574c-0.483,0-0.946-0.276-1.161-0.745c-0.294-0.64-0.012-1.398,0.628-1.692l4.642-2.127
			c0.643-0.293,1.398-0.012,1.692,0.628c0.294,0.64,0.012,1.398-0.628,1.692l-4.641,2.127
			C541.933,169.537,541.752,169.574,541.575,169.574z"/>
	</g>
	<g>
		<path d="M543.509,174.216c-0.483,0-0.946-0.276-1.161-0.745c-0.294-0.64-0.012-1.398,0.628-1.692l4.642-2.127
			c0.642-0.294,1.398-0.012,1.692,0.628c0.294,0.64,0.012,1.398-0.628,1.692l-4.642,2.127
			C543.867,174.179,543.687,174.216,543.509,174.216z"/>
	</g>
	<g>
		<path d="M334.212,390.646c-0.155,0-0.312-0.028-0.464-0.088c-7.307-2.856-12.346-9.613-14.977-20.083
			c-0.172-0.684,0.243-1.377,0.926-1.548c0.689-0.172,1.377,0.244,1.548,0.926c2.452,9.759,6.845,15.754,13.431,18.328
			c0.657,0.256,0.981,0.996,0.724,1.653C335.204,390.338,334.722,390.646,334.212,390.646z"/>
	</g>
	<g>
		<path d="M370.951,428.285c-0.036,0-0.071-0.001-0.108-0.005c-7.818-0.655-14.574-5.695-20.081-14.981
			c-0.36-0.606-0.16-1.389,0.447-1.748c0.606-0.359,1.388-0.16,1.748,0.447c5.133,8.655,11.053,13.149,18.099,13.74
			c0.702,0.059,1.224,0.676,1.165,1.378C372.166,427.782,371.608,428.285,370.951,428.285z"/>
	</g>
	<g>
		<path d="M287.875,363.499c-0.175,0-0.353-0.036-0.523-0.113c-0.643-0.289-0.929-1.044-0.64-1.687l5.742-12.759
			c0.202-0.45,0.646-0.743,1.139-0.752l33.812-0.638c0.411-0.016,0.807,0.186,1.052,0.52c0.245,0.334,0.314,0.766,0.182,1.159
			l-3.828,11.483c-0.223,0.669-0.944,1.031-1.614,0.807c-0.669-0.223-1.03-0.945-0.807-1.614l3.257-9.771l-31.199,0.589
			l-5.41,12.023C288.826,363.219,288.362,363.499,287.875,363.499z"/>
	</g>
	<g>
		<path d="M373.603,462.551c-0.535,0-1.033-0.339-1.211-0.875c-0.222-0.669,0.141-1.391,0.81-1.613l12.514-4.148l3.785-30.974
			l-10.053,2.238c-0.685,0.155-1.369-0.28-1.523-0.969c-0.153-0.688,0.28-1.369,0.969-1.523l11.815-2.63
			c0.404-0.09,0.827,0.022,1.134,0.301c0.307,0.278,0.459,0.688,0.409,1.1l-4.102,33.569c-0.06,0.49-0.397,0.901-0.865,1.056
			l-13.281,4.403C373.872,462.529,373.736,462.551,373.603,462.551z"/>
	</g>
	<g opacity="0.1451">
		<path fill-rule="evenodd" clip-rule="evenodd" d="M452.04,110.714c15.214-3.773,29.994-8.996,43.311-19.095
			c16.754-2.998,25.313-7.258,17.93-13.972l3.027-9.781c14.419,17.903,21.663,34.411,13.739,47.97
			c-14.227,18.724-41.682,14.699-71.955,5.822l-5.589-6.521L452.04,110.714z"/>
	</g>
</g>
</svg>
