<?xml version="1.0" encoding="utf-8"?>
<!-- Generator: Adobe Illustrator 17.0.0, SVG Export Plug-In . SVG Version: 6.00 Build 0)  -->
<!DOCTYPE svg PUBLIC "-//W3C//DTD SVG 1.1//EN" "http://www.w3.org/Graphics/SVG/1.1/DTD/svg11.dtd">
<svg version="1.1" id="Слой_1" xmlns="http://www.w3.org/2000/svg" xmlns:xlink="http://www.w3.org/1999/xlink" x="0px" y="0px"
	 width="686.402px" height="319.333px" viewBox="0 0 686.402 319.333" enable-background="new 0 0 686.402 319.333"
	 xml:space="preserve">
<g>
	<path fill-rule="evenodd" clip-rule="evenodd" fill="#FFD604" d="M16.321,79.64v153.945c0,16.757,13.6,30.357,30.357,30.357
		h153.945c16.757,0,30.357-13.6,30.357-30.357V79.64c0-16.757-13.6-30.357-30.357-30.357H46.678
		C29.921,49.283,16.321,62.883,16.321,79.64z"/>
</g>
<g>
	<path d="M200.623,266.942H46.678c-18.393,0-33.357-14.964-33.357-33.357V79.64c0-18.393,14.964-33.357,33.357-33.357h153.945
		c18.394,0,33.357,14.964,33.357,33.357v153.945C233.98,251.979,219.017,266.942,200.623,266.942z M46.678,52.283
		c-15.084,0-27.357,12.272-27.357,27.357v153.945c0,15.085,12.272,27.357,27.357,27.357h153.945
		c15.085,0,27.357-12.272,27.357-27.357V79.64c0-15.084-12.272-27.357-27.357-27.357H46.678z"/>
</g>
<g>
	<path fill-rule="evenodd" clip-rule="evenodd" fill="#A69D8C" d="M332.745,135.839l-0.001,0.001
		c-1.278,3.719,0.702,7.775,4.421,9.054l51.776,17.802c3.718,1.278,7.775-0.702,9.053-4.421v-0.001
		c1.279-3.718-0.702-7.774-4.42-9.053l-51.776-17.802C338.08,130.14,334.023,132.121,332.745,135.839z"/>
</g>
<g>
	<path d="M391.256,165.084L391.256,165.084c-1.008,0-2.006-0.167-2.965-0.498l-51.776-17.802c-4.756-1.635-7.296-6.837-5.662-11.595
		c1.268-3.685,4.736-6.16,8.632-6.16c1.008,0,2.005,0.167,2.965,0.498l51.775,17.802c2.304,0.792,4.161,2.435,5.23,4.625
		c1.07,2.191,1.223,4.666,0.431,6.969C398.621,162.608,395.152,165.084,391.256,165.084z M339.484,133.03
		c-2.188,0-4.137,1.39-4.848,3.459c-0.919,2.673,0.508,5.595,3.179,6.514l51.776,17.802c0.54,0.186,1.1,0.28,1.664,0.28
		c2.188,0,4.136-1.39,4.847-3.459c0.445-1.294,0.359-2.684-0.241-3.915c-0.602-1.23-1.645-2.153-2.938-2.598l-51.775-17.802
		C340.608,133.125,340.049,133.03,339.484,133.03z"/>
</g>
<g>
	<path fill-rule="evenodd" clip-rule="evenodd" fill="#A69D8C" d="M310.245,186.089l-0.001,0.001
		c-1.278,3.719,0.702,7.775,4.421,9.054l51.776,17.802c3.718,1.278,7.775-0.702,9.053-4.421v-0.001
		c1.279-3.718-0.702-7.774-4.42-9.053l-51.776-17.802C315.58,180.39,311.523,182.371,310.245,186.089z"/>
</g>
<g>
	<path d="M368.756,215.334C368.755,215.334,368.755,215.334,368.756,215.334c-1.009,0-2.006-0.167-2.964-0.496l-51.777-17.803
		c-4.756-1.635-7.296-6.837-5.662-11.595c1.268-3.685,4.736-6.16,8.632-6.16c1.008,0,2.005,0.167,2.965,0.498l51.775,17.802
		c2.304,0.792,4.161,2.435,5.23,4.625c1.07,2.191,1.223,4.666,0.431,6.97C376.12,212.858,372.652,215.334,368.756,215.334z
		 M316.984,183.28c-2.188,0-4.137,1.39-4.848,3.459c-0.919,2.673,0.508,5.595,3.179,6.514l51.776,17.802
		c0.539,0.186,1.099,0.279,1.663,0.279c0,0,0,0,0.001,0c2.188,0,4.136-1.39,4.847-3.458c0.919-2.673-0.507-5.594-3.179-6.514
		l-51.775-17.802C318.108,183.375,317.548,183.28,316.984,183.28z"/>
</g>
<g>
	<path fill-rule="evenodd" clip-rule="evenodd" fill="#F26791" d="M365.343,141.034c23.02-21.372,54.948-18.978,71.312,5.347
		c16.363,24.326,10.966,61.371-12.054,82.743c-23.021,21.373-54.949,18.979-71.312-5.347
		C336.925,199.452,342.322,162.407,365.343,141.034z"/>
</g>
<g>
	<path fill-rule="evenodd" clip-rule="evenodd" fill="#FFA2BE" d="M353.289,223.777c-16.355-24.313-10.955-61.383,12.054-82.743
		c15.851-14.716,35.946-18.157,52.262-10.923c-14.178-3.588-30.284,0.502-43.36,12.642c-21.933,20.362-27.081,55.697-11.49,78.873
		c11.387,16.928,30.703,22.71,48.837,16.663C390.704,248.937,366.73,243.76,353.289,223.777z"/>
</g>
<g>
	<circle fill-rule="evenodd" clip-rule="evenodd" fill="#FFD604" cx="126.471" cy="154.908" r="86.257"/>
</g>
<g>
	<path fill-rule="evenodd" clip-rule="evenodd" fill="#FFFFFF" d="M204.933,118.621l-33.191,12.449
		c4.125,8.715,7.746,17.867,4.625,32.89l34.627,8.094C215.296,150.529,213.009,132.876,204.933,118.621z"/>
</g>
<g>
	<path fill-rule="evenodd" clip-rule="evenodd" fill="#FFFFFF" d="M42.041,141.181l35.25,3.75c-1.813,9.469-3.029,19.236,3.75,33
		l-31.5,16.5C39.991,174.667,37.789,157.003,42.041,141.181z"/>
</g>
<g>
	<circle fill-rule="evenodd" clip-rule="evenodd" fill="#BF6200" cx="126.471" cy="154.907" r="51.067"/>
</g>
<g>
	<circle fill-rule="evenodd" clip-rule="evenodd" fill="#FFFE80" cx="121.971" cy="154.907" r="45.292"/>
</g>
<g>
	<path d="M126.39,244.176c-17.247,0-34.04-4.989-48.563-14.43c-19.99-12.993-33.724-32.994-38.671-56.316
		c-4.947-23.322-0.516-47.176,12.478-67.166c16.534-25.437,44.54-40.623,74.917-40.623c17.247,0,34.04,4.989,48.563,14.43
		c41.266,26.823,53.016,82.217,26.193,123.481C184.774,228.989,156.768,244.176,126.39,244.176z M126.552,71.641
		c-28.338,0-54.464,14.166-69.887,37.893c-12.12,18.646-16.253,40.896-11.639,62.651c4.615,21.754,17.425,40.411,36.071,52.53
		c13.548,8.807,29.21,13.461,45.293,13.461c28.338,0,54.464-14.166,69.887-37.894c25.02-38.491,14.06-90.161-24.432-115.181
		C158.298,76.295,142.635,71.641,126.552,71.641z"/>
</g>
<g>
	<path d="M126.423,207.98c-10.254,0-20.238-2.967-28.873-8.58c-11.885-7.725-20.05-19.615-22.992-33.481s-0.307-28.048,7.419-39.933
		c9.83-15.124,26.481-24.152,44.542-24.152c10.254,0,20.239,2.966,28.874,8.579c24.533,15.947,31.519,48.881,15.572,73.415
		C161.135,198.951,144.483,207.98,126.423,207.98z M126.519,105.834c-16.702,0-32.099,8.348-41.188,22.332
		c-7.143,10.989-9.579,24.103-6.859,36.923c2.719,12.821,10.269,23.815,21.258,30.958c7.984,5.19,17.215,7.933,26.693,7.933
		c16.701,0,32.098-8.349,41.188-22.333c14.744-22.685,8.285-53.136-14.398-67.881C145.228,108.577,135.997,105.834,126.519,105.834z
		"/>
</g>
<g>
	<path d="M121.929,202.205c-9.139,0-18.037-2.644-25.732-7.646c-10.592-6.884-17.868-17.48-20.49-29.838
		c-2.621-12.357-0.273-24.996,6.612-35.587c8.76-13.478,23.599-21.524,39.694-21.524c9.138,0,18.037,2.644,25.732,7.646
		c21.863,14.212,28.089,43.562,13.878,65.425C152.863,194.159,138.024,202.205,121.929,202.205z M122.013,111.609
		c-14.736,0-28.321,7.366-36.34,19.704c-6.302,9.696-8.452,21.266-6.052,32.578s9.061,21.013,18.756,27.314
		c7.045,4.579,15.189,7,23.552,7c14.736,0,28.321-7.366,36.34-19.704c13.009-20.015,7.31-46.882-12.704-59.892
		C138.52,114.03,130.376,111.609,122.013,111.609z"/>
</g>
<g>
	<circle fill-rule="evenodd" clip-rule="evenodd" fill="#BF6200" cx="99.673" cy="154.509" r="7.784"/>
</g>
<g>
	<path d="M99.665,164.294c-1.892,0-3.733-0.547-5.324-1.582c-2.191-1.424-3.697-3.616-4.24-6.173
		c-0.542-2.557-0.057-5.171,1.368-7.363c1.812-2.788,4.881-4.453,8.211-4.453c1.891,0,3.732,0.547,5.324,1.581
		c4.523,2.941,5.812,9.013,2.872,13.536C106.065,162.629,102.995,164.294,99.665,164.294z M99.681,148.724
		c-1.971,0-3.787,0.984-4.857,2.633c-0.842,1.296-1.13,2.842-0.809,4.353c0.321,1.512,1.211,2.808,2.506,3.649
		c0.941,0.612,2.029,0.936,3.145,0.936c1.97,0,3.786-0.984,4.858-2.633c1.738-2.674,0.976-6.264-1.698-8.002
		C101.885,149.047,100.797,148.724,99.681,148.724z"/>
</g>
<g>
	<circle fill-rule="evenodd" clip-rule="evenodd" fill="#BF6200" cx="146.828" cy="154.509" r="7.784"/>
</g>
<g>
	<path d="M146.821,164.294c-1.892,0-3.733-0.547-5.325-1.582c-2.191-1.424-3.697-3.616-4.24-6.173
		c-0.542-2.557-0.057-5.171,1.368-7.363c1.812-2.788,4.881-4.453,8.211-4.453c1.891,0,3.732,0.547,5.324,1.581
		c4.522,2.941,5.812,9.013,2.872,13.536C153.22,162.629,150.15,164.294,146.821,164.294z M146.836,148.724
		c-1.971,0-3.786,0.984-4.858,2.633c-0.842,1.295-1.129,2.842-0.808,4.353s1.211,2.808,2.506,3.649
		c0.941,0.612,2.029,0.936,3.145,0.936c1.97,0,3.786-0.984,4.857-2.633c1.737-2.674,0.976-6.264-1.698-8.002
		C149.039,149.047,147.952,148.724,146.836,148.724z"/>
</g>
<g>
	<path d="M389.738,245.71c-15.319,0-29.21-7.587-38.108-20.816c-16.863-25.068-11.322-63.345,12.354-85.325
		c10.502-9.75,23.365-15.12,36.223-15.12c15.319,0,29.209,7.587,38.108,20.816c16.863,25.069,11.322,63.346-12.353,85.325
		C415.46,240.341,402.595,245.71,389.738,245.71z M400.206,128.448c-11.844,0-23.742,4.99-33.502,14.052
		c-22.293,20.697-27.566,56.657-11.756,80.161c8.144,12.106,20.824,19.049,34.79,19.049c11.844,0,23.742-4.99,33.503-14.052
		c22.292-20.696,27.565-56.657,11.755-80.161C426.852,135.392,414.171,128.448,400.206,128.448z"/>
</g>
<g>
	<path fill-rule="evenodd" clip-rule="evenodd" fill="#F26791" d="M393.836,163.477c14.609-13.568,56.4-3.739,66.784,11.704
		c10.384,15.443,6.955,38.989-7.654,52.557c-14.609,13.568-56.4,3.739-66.784-11.704
		C375.798,200.591,379.227,177.045,393.836,163.477z"/>
</g>
<g>
	<path d="M431.589,236.166c-18.901,0-40.016-8.53-47.066-19.016c-10.898-16.209-7.331-40.944,7.952-55.139
		c4.904-4.555,12.768-6.962,22.74-6.962c18.901,0,40.015,8.53,47.065,19.016c10.898,16.208,7.331,40.943-7.952,55.139
		C449.424,233.758,441.56,236.166,431.589,236.166z M415.215,159.049c-8.944,0-15.866,2.038-20.018,5.893
		c-13.902,12.912-17.202,35.331-7.354,49.976c6.286,9.35,26.319,17.248,43.746,17.248c8.944,0,15.866-2.038,20.017-5.894
		c13.902-12.912,17.202-35.331,7.354-49.975C452.674,166.948,432.641,159.049,415.215,159.049z"/>
</g>
<g>
	<path fill-rule="evenodd" clip-rule="evenodd" fill="#FFFFFF" d="M446.118,194.832c3.715-3.455,8.867-3.068,11.508,0.865
		c2.64,3.934,1.769,9.924-1.946,13.379c-3.716,3.456-8.868,3.069-11.508-0.865C441.531,204.278,442.402,198.288,446.118,194.832z"/>
</g>
<g>
	<path d="M450.055,213.435c-3.041,0-5.79-1.498-7.543-4.109c-3.215-4.787-2.229-11.797,2.244-15.958
		c2.006-1.866,4.488-2.894,6.988-2.894c3.04,0,5.789,1.497,7.542,4.108c3.215,4.789,2.229,11.799-2.243,15.959
		C455.036,212.407,452.555,213.435,450.055,213.435z M451.744,194.474c-1.486,0-3,0.647-4.264,1.822
		c-2.97,2.762-3.725,7.708-1.648,10.799c1.013,1.509,2.512,2.339,4.223,2.339c1.485,0,3-0.647,4.264-1.823
		c2.969-2.761,3.724-7.707,1.647-10.8C454.953,195.304,453.454,194.474,451.744,194.474z"/>
</g>
<g>
	<path fill="#FFFFFF" d="M521.665,233.245c-0.341,0-0.684-0.115-0.965-0.353c-11.387-9.591-25.16-20.327-44.559-26.362
		c-0.791-0.246-1.233-1.087-0.987-1.878c0.246-0.791,1.087-1.233,1.878-0.987c19.933,6.201,33.989,17.154,45.6,26.932
		c0.634,0.534,0.715,1.48,0.182,2.113C522.517,233.063,522.093,233.245,521.665,233.245z"/>
</g>
<g>
	<path d="M438.602,228.938c-0.396,0-0.798-0.079-1.185-0.245c-12.891-5.543-17.155-18.416-12.674-38.262
		c0.366-1.616,1.968-2.632,3.588-2.266c1.616,0.365,2.63,1.971,2.266,3.587c-3.806,16.853-0.8,27.133,9.191,31.429
		c1.521,0.654,2.225,2.419,1.57,3.941C440.87,228.258,439.764,228.938,438.602,228.938z"/>
</g>
<g>
	<path d="M420.837,226.205c-0.396,0-0.798-0.079-1.185-0.245c-12.891-5.543-17.154-18.416-12.673-38.263
		c0.365-1.616,1.97-2.631,3.588-2.266c1.616,0.365,2.63,1.971,2.266,3.587c-3.807,16.854-0.8,27.134,9.19,31.43
		c1.521,0.654,2.225,2.419,1.57,3.941C423.105,225.524,421.999,226.205,420.837,226.205z"/>
</g>
<g>
	<path d="M402.389,220.739c-0.396,0-0.798-0.079-1.185-0.245c-12.891-5.544-17.155-18.417-12.674-38.263
		c0.365-1.616,1.969-2.634,3.588-2.266c1.616,0.365,2.63,1.971,2.266,3.587c-3.806,16.853-0.8,27.133,9.191,31.43
		c1.521,0.654,2.225,2.419,1.57,3.941C404.657,220.06,403.551,220.739,402.389,220.739z"/>
</g>
<g>
	<path d="M263.069,242.801c-0.673,0-1.342-0.284-1.813-0.837c-0.853-1-0.732-2.502,0.269-3.354l24.097-20.526
		c0.647-0.553,1.543-0.717,2.343-0.43c0.802,0.285,1.39,0.978,1.542,1.815l1.059,5.822l17.396-14.37
		c1.013-0.836,2.514-0.695,3.351,0.319c0.837,1.014,0.694,2.514-0.319,3.351l-20.526,16.956c-0.65,0.538-1.538,0.693-2.332,0.4
		c-0.794-0.29-1.374-0.979-1.525-1.81l-1.046-5.752l-20.951,17.847C264.164,242.614,263.615,242.801,263.069,242.801z"/>
</g>
<g>
	<path d="M292.682,110.097c-0.546,0-1.095-0.187-1.542-0.568l-20.951-17.846l-1.045,5.751c-0.151,0.831-0.731,1.52-1.525,1.81
		c-0.793,0.29-1.682,0.137-2.332-0.4L244.76,81.886c-1.014-0.837-1.156-2.337-0.319-3.351c0.838-1.015,2.339-1.156,3.351-0.319
		l17.396,14.371l1.058-5.821c0.152-0.837,0.74-1.53,1.542-1.816c0.801-0.285,1.695-0.122,2.343,0.43l24.097,20.526
		c1.001,0.853,1.121,2.354,0.269,3.355C294.023,109.813,293.354,110.097,292.682,110.097z"/>
</g>
<g>
	<path fill-rule="evenodd" clip-rule="evenodd" d="M272.828,140.996v5.597c0,0.887,0.72,1.606,1.607,1.606h0.033
		c0.886,0,1.606-0.719,1.606-1.606v-5.597c0-0.886-0.72-1.606-1.606-1.606h-0.033C273.548,139.39,272.828,140.11,272.828,140.996z"
		/>
</g>
<g>
	<path fill-rule="evenodd" clip-rule="evenodd" d="M272.829,160.999v5.597c0,0.886,0.719,1.606,1.606,1.606h0.033
		c0.886,0,1.606-0.72,1.606-1.606v-5.597c0-0.886-0.72-1.606-1.606-1.606h-0.033C273.548,159.393,272.829,160.113,272.829,160.999z"
		/>
</g>
<g>
	<path fill-rule="evenodd" clip-rule="evenodd" d="M261.652,155.419h5.596c0.887,0,1.606-0.72,1.606-1.606v-0.033
		c0-0.887-0.719-1.606-1.606-1.606h-5.596c-0.887,0-1.607,0.719-1.607,1.606v0.033C260.045,154.699,260.765,155.419,261.652,155.419
		z"/>
</g>
<g>
	<path fill-rule="evenodd" clip-rule="evenodd" d="M281.654,155.419h5.597c0.887,0,1.606-0.72,1.606-1.607v-0.032
		c0-0.887-0.719-1.607-1.606-1.607h-5.597c-0.886,0-1.606,0.72-1.606,1.607v0.032C280.048,154.699,280.768,155.419,281.654,155.419z
		"/>
</g>
<g>
	<path fill-rule="evenodd" clip-rule="evenodd" d="M264.253,145.893l3.957,3.957c0.627,0.627,1.645,0.627,2.272,0l0.023-0.023
		c0.627-0.627,0.627-1.645,0-2.272l-3.957-3.957c-0.627-0.627-1.645-0.627-2.272,0l-0.023,0.023
		C263.626,144.248,263.626,145.266,264.253,145.893z"/>
</g>
<g>
	<path fill-rule="evenodd" clip-rule="evenodd" d="M278.397,160.037l3.958,3.957c0.626,0.627,1.644,0.627,2.271,0l0.023-0.023
		c0.627-0.627,0.627-1.645,0-2.272l-3.957-3.957c-0.627-0.627-1.645-0.627-2.272,0l-0.023,0.023
		C277.77,158.392,277.77,159.41,278.397,160.037z"/>
</g>
<g>
	<path fill-rule="evenodd" clip-rule="evenodd" d="M266.548,163.994l3.957-3.957c0.627-0.627,0.627-1.645,0-2.272l-0.023-0.023
		c-0.627-0.627-1.645-0.627-2.272,0l-3.957,3.957c-0.627,0.627-0.627,1.645,0,2.272l0.023,0.023
		C264.903,164.621,265.921,164.621,266.548,163.994z"/>
</g>
<g>
	<path fill-rule="evenodd" clip-rule="evenodd" d="M280.692,149.85l3.957-3.957c0.627-0.627,0.627-1.645,0-2.272l-0.023-0.023
		c-0.627-0.627-1.645-0.627-2.272,0l-3.957,3.957c-0.627,0.627-0.627,1.645,0,2.272l0.023,0.023
		C279.047,150.477,280.065,150.477,280.692,149.85z"/>
</g>
<g>
	<path fill-rule="evenodd" clip-rule="evenodd" d="M308.706,77.882v3.343c0,0.529,0.429,0.959,0.959,0.959h0.02
		c0.529,0,0.959-0.43,0.959-0.959v-3.343c0-0.53-0.43-0.96-0.959-0.96h-0.02C309.135,76.922,308.706,77.352,308.706,77.882z"/>
</g>
<g>
	<path fill-rule="evenodd" clip-rule="evenodd" d="M308.706,89.83v3.343c0,0.529,0.43,0.959,0.959,0.959h0.02
		c0.529,0,0.959-0.43,0.959-0.959V89.83c0-0.53-0.43-0.96-0.959-0.96h-0.02C309.136,88.87,308.706,89.3,308.706,89.83z"/>
</g>
<g>
	<path fill-rule="evenodd" clip-rule="evenodd" d="M302.029,86.497h3.343c0.53,0,0.96-0.43,0.96-0.96v-0.019
		c0-0.53-0.43-0.96-0.96-0.96h-3.343c-0.529,0-0.959,0.43-0.959,0.96v0.019C301.07,86.067,301.5,86.497,302.029,86.497z"/>
</g>
<g>
	<path fill-rule="evenodd" clip-rule="evenodd" d="M313.977,86.497h3.343c0.53,0,0.96-0.43,0.96-0.96v-0.019
		c0-0.53-0.43-0.96-0.96-0.96h-3.343c-0.529,0-0.959,0.43-0.959,0.96v0.019C313.018,86.067,313.448,86.497,313.977,86.497z"/>
</g>
<g>
	<path fill-rule="evenodd" clip-rule="evenodd" d="M303.583,80.806l2.364,2.364c0.374,0.375,0.982,0.375,1.357,0l0.014-0.014
		c0.374-0.374,0.374-0.982,0-1.357l-2.364-2.363c-0.375-0.375-0.983-0.375-1.357,0l-0.014,0.013
		C303.209,79.824,303.209,80.432,303.583,80.806z"/>
</g>
<g>
	<path fill-rule="evenodd" clip-rule="evenodd" d="M312.032,89.255l2.364,2.364c0.374,0.374,0.982,0.374,1.357,0l0.013-0.014
		c0.375-0.375,0.375-0.983,0-1.357l-2.363-2.364c-0.375-0.374-0.983-0.374-1.357,0l-0.014,0.014
		C311.657,88.272,311.657,88.88,312.032,89.255z"/>
</g>
<g>
	<path fill-rule="evenodd" clip-rule="evenodd" d="M304.954,91.619l2.364-2.364c0.374-0.374,0.374-0.982,0-1.357l-0.014-0.014
		c-0.374-0.374-0.982-0.374-1.357,0l-2.364,2.364c-0.374,0.375-0.374,0.983,0,1.357l0.014,0.014
		C303.972,91.993,304.58,91.993,304.954,91.619z"/>
</g>
<g>
	<path fill-rule="evenodd" clip-rule="evenodd" d="M313.403,83.17l2.363-2.364c0.375-0.374,0.375-0.982,0-1.357l-0.013-0.013
		c-0.375-0.375-0.983-0.375-1.357,0l-2.364,2.363c-0.375,0.375-0.375,0.983,0,1.357l0.014,0.014
		C312.42,83.545,313.028,83.545,313.403,83.17z"/>
</g>
<g>
	<path fill-rule="evenodd" clip-rule="evenodd" d="M314.401,238.777v4.209c0,0.667,0.542,1.209,1.209,1.209h0.024
		c0.667,0,1.209-0.542,1.209-1.209v-4.209c0-0.667-0.542-1.209-1.209-1.209h-0.024C314.943,237.568,314.401,238.11,314.401,238.777z
		"/>
</g>
<g>
	<path fill-rule="evenodd" clip-rule="evenodd" d="M314.402,253.823v4.21c0,0.666,0.541,1.208,1.208,1.208h0.024
		c0.667,0,1.209-0.542,1.209-1.208v-4.21c0-0.667-0.542-1.208-1.209-1.208h-0.024C314.943,252.615,314.402,253.156,314.402,253.823z
		"/>
</g>
<g>
	<path fill-rule="evenodd" clip-rule="evenodd" d="M305.994,249.625h4.21c0.667,0,1.208-0.541,1.208-1.208v-0.025
		c0-0.666-0.541-1.208-1.208-1.208h-4.21c-0.667,0-1.208,0.542-1.208,1.208v0.025C304.786,249.084,305.327,249.625,305.994,249.625z
		"/>
</g>
<g>
	<path fill-rule="evenodd" clip-rule="evenodd" d="M321.04,249.625h4.21c0.667,0,1.208-0.541,1.208-1.208v-0.025
		c0-0.667-0.541-1.208-1.208-1.208h-4.21c-0.667,0-1.208,0.541-1.208,1.208v0.025C319.832,249.084,320.373,249.625,321.04,249.625z"
		/>
</g>
<g>
	<path fill-rule="evenodd" clip-rule="evenodd" d="M307.951,242.46l2.977,2.976c0.471,0.472,1.237,0.472,1.708,0l0.018-0.017
		c0.471-0.472,0.471-1.237,0-1.709l-2.977-2.976c-0.471-0.472-1.237-0.472-1.709,0l-0.017,0.017
		C307.479,241.223,307.479,241.988,307.951,242.46z"/>
</g>
<g>
	<path fill-rule="evenodd" clip-rule="evenodd" d="M318.59,253.099l2.977,2.977c0.472,0.471,1.237,0.471,1.709,0l0.017-0.018
		c0.472-0.471,0.472-1.237,0-1.709l-2.977-2.976c-0.471-0.472-1.237-0.472-1.708,0l-0.018,0.017
		C318.119,251.862,318.119,252.627,318.59,253.099z"/>
</g>
<g>
	<path fill-rule="evenodd" clip-rule="evenodd" d="M309.677,256.076l2.977-2.977c0.471-0.472,0.471-1.237,0-1.709l-0.017-0.017
		c-0.472-0.472-1.238-0.472-1.709,0l-2.977,2.977c-0.472,0.471-0.472,1.237,0,1.708l0.017,0.018
		C308.44,256.547,309.206,256.547,309.677,256.076z"/>
</g>
<g>
	<path fill-rule="evenodd" clip-rule="evenodd" d="M320.316,245.436l2.977-2.976c0.472-0.472,0.472-1.237,0-1.709l-0.017-0.017
		c-0.472-0.472-1.238-0.472-1.709,0l-2.977,2.976c-0.471,0.472-0.471,1.237,0,1.709l0.018,0.017
		C319.079,245.908,319.845,245.908,320.316,245.436z"/>
</g>
<g>
	<polygon fill-rule="evenodd" clip-rule="evenodd" fill="#FCA61A" points="384.815,31.107 387.949,41.108 381.489,49.359 
		391.968,49.469 397.818,58.164 401.162,48.231 411.239,45.353 402.825,39.105 403.202,28.632 394.66,34.702 	"/>
</g>
<g>
	<path d="M397.818,60.24c-0.685,0-1.333-0.339-1.722-0.917l-5.241-7.79l-9.388-0.099c-0.79-0.008-1.507-0.464-1.85-1.176
		c-0.342-0.712-0.25-1.556,0.237-2.178l5.787-7.392l-2.808-8.96c-0.236-0.754-0.024-1.577,0.548-2.122
		c0.572-0.546,1.402-0.719,2.145-0.448l8.82,3.221L402,26.94c0.646-0.458,1.493-0.509,2.188-0.135
		c0.695,0.375,1.117,1.112,1.089,1.901l-0.338,9.383l7.538,5.597c0.635,0.471,0.946,1.261,0.805,2.039s-0.712,1.407-1.472,1.624
		l-9.028,2.579l-2.996,8.899c-0.252,0.749-0.907,1.29-1.69,1.395C398.003,60.233,397.91,60.24,397.818,60.24z M385.716,47.328
		l6.274,0.066c0.684,0.007,1.319,0.35,1.7,0.917l3.503,5.206l2.002-5.947c0.218-0.647,0.74-1.146,1.396-1.333l6.034-1.723
		l-5.038-3.741c-0.549-0.407-0.861-1.059-0.837-1.741l0.226-6.271l-5.114,3.635c-0.557,0.396-1.273,0.492-1.914,0.258l-5.895-2.153
		l1.876,5.988c0.204,0.652,0.075,1.362-0.347,1.9L385.716,47.328z"/>
</g>
<g>
	<polygon fill-rule="evenodd" clip-rule="evenodd" fill="#F26B7B" points="239.853,12.297 242.429,20.516 237.119,27.297 
		245.732,27.387 250.54,34.534 253.288,26.37 261.57,24.005 254.655,18.869 254.965,10.262 247.944,15.251 	"/>
</g>
<g>
	<path d="M250.54,36.24c-0.563,0-1.096-0.279-1.416-0.754l-4.307-6.403l-7.716-0.081c-0.649-0.007-1.239-0.382-1.521-0.967
		c-0.281-0.585-0.205-1.279,0.195-1.791l4.757-6.075l-2.308-7.363c-0.194-0.62-0.02-1.296,0.45-1.744
		c0.469-0.448,1.154-0.591,1.763-0.369l7.249,2.646l6.289-4.469c0.53-0.375,1.226-0.418,1.798-0.111
		c0.571,0.308,0.919,0.914,0.896,1.563l-0.277,7.71l6.195,4.601c0.521,0.387,0.777,1.037,0.661,1.676
		c-0.117,0.639-0.586,1.156-1.21,1.334l-7.42,2.119l-2.462,7.314c-0.207,0.615-0.746,1.06-1.39,1.146
		C250.691,36.235,250.615,36.24,250.54,36.24z M240.594,25.627l5.156,0.054c0.562,0.006,1.085,0.288,1.398,0.754l2.878,4.278
		l1.645-4.888c0.18-0.532,0.608-0.942,1.148-1.096l4.959-1.416l-4.141-3.075c-0.45-0.335-0.707-0.87-0.688-1.431l0.186-5.153
		l-4.203,2.987c-0.458,0.326-1.048,0.405-1.573,0.212l-4.844-1.769l1.542,4.921c0.168,0.536,0.062,1.12-0.285,1.562L240.594,25.627z
		"/>
</g>
<g>
	<polygon fill-rule="evenodd" clip-rule="evenodd" fill="#00B4FF" points="271.409,279.58 273.148,285.128 269.565,289.705 
		275.377,289.765 278.622,294.589 280.477,289.079 286.066,287.482 281.399,284.017 281.608,278.207 276.87,281.575 	"/>
</g>
<g>
	<path d="M278.622,295.74c-0.38,0-0.74-0.188-0.955-0.509l-2.907-4.321l-5.206-0.054c-0.438-0.005-0.836-0.258-1.026-0.652
		c-0.189-0.396-0.139-0.863,0.132-1.209l3.209-4.101l-1.558-4.97c-0.131-0.419-0.014-0.875,0.304-1.178
		c0.316-0.304,0.777-0.398,1.19-0.249l4.892,1.788l4.245-3.018c0.357-0.254,0.828-0.281,1.213-0.075
		c0.387,0.208,0.621,0.617,0.604,1.055l-0.187,5.205l4.181,3.104c0.352,0.262,0.524,0.7,0.446,1.131
		c-0.078,0.432-0.396,0.78-0.816,0.901l-5.007,1.431l-1.663,4.936c-0.14,0.416-0.503,0.716-0.938,0.774
		C278.725,295.737,278.673,295.74,278.622,295.74z M271.91,288.577l3.479,0.036c0.379,0.004,0.732,0.194,0.943,0.509l1.943,2.889
		l1.111-3.299c0.12-0.359,0.41-0.636,0.774-0.74l3.346-0.956l-2.794-2.074c-0.305-0.227-0.478-0.588-0.464-0.966l0.125-3.479
		l-2.837,2.017c-0.309,0.22-0.705,0.272-1.063,0.144l-3.269-1.194l1.041,3.32c0.113,0.362,0.042,0.756-0.192,1.055L271.91,288.577z"
		/>
</g>
<g>
	<polygon fill-rule="evenodd" clip-rule="evenodd" fill="#F4F2CD" points="167.872,288.297 170.448,296.516 165.139,303.297 
		173.751,303.387 178.559,310.534 181.307,302.37 189.589,300.005 182.674,294.87 182.984,286.262 175.963,291.251 	"/>
</g>
<g>
	<path d="M178.56,312.24c-0.563,0-1.096-0.278-1.415-0.754l-4.309-6.403l-7.714-0.08c-0.649-0.007-1.238-0.382-1.52-0.967
		c-0.282-0.585-0.206-1.279,0.193-1.791l4.756-6.075l-2.308-7.362c-0.194-0.62-0.02-1.296,0.45-1.745
		c0.469-0.447,1.153-0.589,1.763-0.368l7.249,2.646l6.29-4.47c0.53-0.375,1.226-0.419,1.798-0.111
		c0.571,0.309,0.919,0.914,0.896,1.563l-0.278,7.712l6.195,4.6c0.521,0.388,0.778,1.037,0.662,1.676
		c-0.117,0.639-0.586,1.156-1.21,1.335l-7.42,2.119l-2.462,7.313c-0.207,0.616-0.746,1.061-1.39,1.146
		C178.711,312.235,178.635,312.24,178.56,312.24z M168.613,301.627l5.155,0.054c0.562,0.006,1.084,0.288,1.397,0.754l2.88,4.279
		l1.645-4.888c0.18-0.532,0.608-0.942,1.148-1.097l4.958-1.416l-4.14-3.073c-0.451-0.335-0.709-0.87-0.688-1.432l0.187-5.154
		l-4.204,2.987c-0.458,0.325-1.044,0.405-1.573,0.212l-4.844-1.769l1.542,4.92c0.168,0.536,0.062,1.12-0.284,1.563L168.613,301.627z
		"/>
</g>
<path d="M686.402,257.618c-62.254,16.897-111.633,10.425-150.799-19.733c-28.341-24.247-50.739-38.757-81.243-41.166
	c-3.301-0.262-6.193,2.205-6.454,5.509s2.206,6.193,5.509,6.454c27.292,2.155,47.984,15.72,74.503,38.419
	c0.077,0.066,0.155,0.131,0.236,0.192c22.842,17.626,49.459,27.949,79.11,30.683c5.392,0.497,10.923,0.745,16.586,0.745
	c19.388,0,40.334-2.91,62.552-8.689V257.618z"/>
</svg>
