<?xml version="1.0" encoding="utf-8"?>
<!-- Generator: Adobe Illustrator 17.0.0, SVG Export Plug-In . SVG Version: 6.00 Build 0)  -->
<!DOCTYPE svg PUBLIC "-//W3C//DTD SVG 1.1//EN" "http://www.w3.org/Graphics/SVG/1.1/DTD/svg11.dtd">
<svg version="1.1" id="Режим_изоляции"
	 xmlns="http://www.w3.org/2000/svg" xmlns:xlink="http://www.w3.org/1999/xlink" x="0px" y="0px" width="1400px" height="1400px"
	 viewBox="0 0 1400 1400" enable-background="new 0 0 1400 1400" xml:space="preserve">
<g>
	<circle fill="#111C24" cx="700.045" cy="703.509" r="683.97"/>
	<circle fill="#13212B" cx="700.045" cy="703.509" r="605.97"/>
	<circle fill="#1A2934" cx="700.045" cy="703.509" r="511.474"/>
	<circle fill="#223544" cx="700.045" cy="703.509" r="422.979"/>
	<circle fill="#263B4A" cx="700.045" cy="703.509" r="335.983"/>
	<circle fill="#2C4353" cx="700.045" cy="703.509" r="254.987"/>
	<g>
		<g>
			<circle fill-rule="evenodd" clip-rule="evenodd" fill="#FFCD01" cx="700.046" cy="701.571" r="174.959"/>
		</g>
		<g>
			<path fill-rule="evenodd" clip-rule="evenodd" fill="#FFFDE8" d="M671.633,874.786l0.006-0.029l23.602-100.68
				c3.761,8.262,9.225,15.553,19.055,20.346l7.751,18.731l11.627,0.322l10.334-22.929c14.084-10.443,26.024-22.558,32.94-37.785
				c-3.672,40.39-7.994,80.371-18.306,114.186C730.006,877.188,700.12,879.481,671.633,874.786z"/>
		</g>
		<g>
			<path fill-rule="evenodd" clip-rule="evenodd" fill="#FFBFD0" d="M772.019,761.854v7.675h-5.512
				C768.49,767.065,770.335,764.511,772.019,761.854z"/>
		</g>
		<g>
			<path fill-rule="evenodd" clip-rule="evenodd" fill="#FFBFD0" d="M692.102,787.47l3.031-12.932h0.319
				c2.115,4.549,4.767,8.792,8.405,12.47v0.461H692.102z"/>
		</g>
		<g>
			<path fill-rule="evenodd" clip-rule="evenodd" fill="#FFBFD0" d="M755.116,781.493v5.977h-7.086
				C750.475,785.539,752.842,783.55,755.116,781.493z"/>
		</g>
		<g>
			<path fill-rule="evenodd" clip-rule="evenodd" fill="#FFBFD0" d="M759.088,787.47v-9.741c1.054-1.046,2.082-2.11,3.083-3.191
				h9.85v12.932H759.088z"/>
		</g>
		<g>
			<polygon fill-rule="evenodd" clip-rule="evenodd" fill="#FFBFD0" points="690.925,804.431 690.925,792.491 691.157,791.498 
				703.857,791.498 703.857,804.431 			"/>
		</g>
		<g>
			<path fill-rule="evenodd" clip-rule="evenodd" fill="#FFBFD0" d="M707.829,804.431v-12.932h1.416
				c1.544,1.056,3.221,2.034,5.05,2.925l4.14,10.007H707.829z"/>
		</g>
		<g>
			<polygon fill-rule="evenodd" clip-rule="evenodd" fill="#FFBFD0" points="737.75,804.431 738.153,803.537 738.153,804.431 			"/>
		</g>
		<g>
			<polygon fill-rule="evenodd" clip-rule="evenodd" fill="#FFBFD0" points="742.184,804.431 742.184,794.595 743.578,791.498 
				755.116,791.498 755.116,804.431 			"/>
		</g>
		<g>
			<path fill-rule="evenodd" clip-rule="evenodd" fill="#FFBFD0" d="M759.088,804.431v-12.932h12.932v8.142
				c-0.205,1.599-0.414,3.197-0.628,4.79H759.088z"/>
		</g>
		<g>
			<polygon fill-rule="evenodd" clip-rule="evenodd" fill="#FFBFD0" points="683.919,822.372 686.894,809.681 686.894,822.372 			
				"/>
		</g>
		<g>
			<rect x="690.925" y="809.441" fill-rule="evenodd" clip-rule="evenodd" fill="#FFBFD0" width="12.932" height="12.932"/>
		</g>
		<g>
			<polygon fill-rule="evenodd" clip-rule="evenodd" fill="#FFBFD0" points="707.829,822.372 707.829,809.441 720.509,809.441 
				720.761,810.05 720.761,822.372 			"/>
		</g>
		<g>
			<polygon fill-rule="evenodd" clip-rule="evenodd" fill="#FFBFD0" points="725.221,822.372 725.221,813.244 733.673,813.477 
				735.492,809.441 738.154,809.441 738.154,822.372 			"/>
		</g>
		<g>
			<rect x="742.184" y="809.441" fill-rule="evenodd" clip-rule="evenodd" fill="#FFBFD0" width="12.932" height="12.932"/>
		</g>
		<g>
			<path fill-rule="evenodd" clip-rule="evenodd" fill="#FFBFD0" d="M759.089,822.372v-12.932h11.612
				c-0.618,4.352-1.276,8.666-1.983,12.932H759.089z"/>
		</g>
		<g>
			<polygon fill-rule="evenodd" clip-rule="evenodd" fill="#FFBFD0" points="679.451,841.43 682.482,828.499 686.894,828.499 
				686.894,841.43 			"/>
		</g>
		<g>
			<rect x="690.924" y="828.499" fill-rule="evenodd" clip-rule="evenodd" fill="#FFBFD0" width="12.932" height="12.931"/>
		</g>
		<g>
			<rect x="707.829" y="828.499" fill-rule="evenodd" clip-rule="evenodd" fill="#FFBFD0" width="12.932" height="12.931"/>
		</g>
		<g>
			<rect x="725.221" y="828.499" fill-rule="evenodd" clip-rule="evenodd" fill="#FFBFD0" width="12.932" height="12.931"/>
		</g>
		<g>
			<rect x="742.184" y="828.499" fill-rule="evenodd" clip-rule="evenodd" fill="#FFBFD0" width="12.932" height="12.931"/>
		</g>
		<g>
			<path fill-rule="evenodd" clip-rule="evenodd" fill="#FFBFD0" d="M759.088,841.43v-12.931h8.575
				c-0.781,4.369-1.618,8.683-2.518,12.931H759.088z"/>
		</g>
		<g>
			<polygon fill-rule="evenodd" clip-rule="evenodd" fill="#FFBFD0" points="675.246,859.372 678.277,846.442 686.894,846.442 
				686.894,859.372 			"/>
		</g>
		<g>
			<rect x="690.925" y="846.442" fill-rule="evenodd" clip-rule="evenodd" fill="#FFBFD0" width="12.932" height="12.931"/>
		</g>
		<g>
			<rect x="707.829" y="846.442" fill-rule="evenodd" clip-rule="evenodd" fill="#FFBFD0" width="12.932" height="12.931"/>
		</g>
		<g>
			<rect x="725.221" y="846.442" fill-rule="evenodd" clip-rule="evenodd" fill="#FFBFD0" width="12.932" height="12.931"/>
		</g>
		<g>
			<rect x="742.184" y="846.442" fill-rule="evenodd" clip-rule="evenodd" fill="#FFBFD0" width="12.932" height="12.931"/>
		</g>
		<g>
			<path fill-rule="evenodd" clip-rule="evenodd" fill="#FFBFD0" d="M759.089,859.372v-12.931h4.957
				c-0.997,4.39-2.066,8.704-3.218,12.931H759.089z"/>
		</g>
		<g>
			<path fill-rule="evenodd" clip-rule="evenodd" fill="#FFBFD0" d="M673.963,875.154v-0.009v-10.299l0.337-1.444h12.593v12.932
				h-3.339C680.341,876.028,677.143,875.634,673.963,875.154z"/>
		</g>
		<g>
			<rect x="690.925" y="863.402" fill-rule="evenodd" clip-rule="evenodd" fill="#FFBFD0" width="12.932" height="12.932"/>
		</g>
		<g>
			<path fill-rule="evenodd" clip-rule="evenodd" fill="#FFBFD0" d="M707.829,876.333v-12.932h12.932v12.47v0.01
				c-1.402,0.168-2.804,0.319-4.202,0.451H707.829z"/>
		</g>
		<g>
			<path fill-rule="evenodd" clip-rule="evenodd" fill="#FFBFD0" d="M725.221,875.276v-11.875h12.932v9.478v0.013
				c-4.298,0.966-8.612,1.764-12.932,2.396V875.276z"/>
		</g>
		<g>
			<path fill-rule="evenodd" clip-rule="evenodd" fill="#FFBFD0" d="M742.184,871.924v-8.522h12.932v4.752v0.014
				c-4.286,1.43-8.598,2.685-12.932,3.768V871.924z"/>
		</g>
		<g>
			<path fill-rule="evenodd" clip-rule="evenodd" fill="#FFBFD0" d="M759.089,865.472v-2.07h0.607
				C759.496,864.095,759.292,864.785,759.089,865.472z"/>
		</g>
		<g>
			<polygon fill-rule="evenodd" clip-rule="evenodd" fill="#B10000" points="762.648,828.939 736.386,823.458 735.24,813.641 
				758.313,801.403 764.432,807.267 			"/>
		</g>
		<g>
			<path fill-rule="evenodd" clip-rule="evenodd" fill="#445663" d="M778.204,686.632l18.313,27.704l34.748,31.93
				c-0.317,10.988-0.421,22.122-0.347,33.39c0.08,12.332,0.373,24.824,0.834,37.46v0.067
				c-15.468,17.756-34.788,32.657-57.457,43.306c-5.359,2.518-10.782,4.74-16.251,6.673
				C771.67,824.854,778.9,766.049,778.204,686.632z"/>
		</g>
		<g>
			<path fill-rule="evenodd" clip-rule="evenodd" fill="#445663" d="M583.957,833.197l0.01-0.028l24.256-65.304l23.478-51.182
				c19.108,0.941,36.731-4.551,52.121-19.722c-0.321,9.086-0.519,18.049,1.878,24.417c1.731,9.722,6.823,16.643,15.964,20.19
				L670.73,874.593l-0.009,0.04C638.732,869.187,608.553,854.921,583.957,833.197z"/>
		</g>
		<g>
			<polygon fill-rule="evenodd" clip-rule="evenodd" fill="#B10000" points="690.866,835.482 694.154,812.004 698.848,808.248 
				720.449,816.23 719.51,823.743 			"/>
		</g>
		<g>
			<path fill-rule="evenodd" clip-rule="evenodd" fill="#EDB8A4" d="M616.676,837.83l6.105-32.4
				c-8.246-2.375-9.553-8.535-4.226-18.313c-17.89,4.312-17.659-12.357,2.348-21.131c-19.093,7.695-37.192-6.184-15.966-17.843
				c-14.401-5.559-15.393-13.45,0-22.538c10.331-4.525,20.661-8.069,30.991-4.696l31.46-11.739
				c9.496,1.174,18.103,3.015,16.904,12.209c-1.076,28.605-5.227,63.357-11.269,101.894
				C652.269,836.579,634.428,841.806,616.676,837.83z"/>
		</g>
		<g>
			<path fill-rule="evenodd" clip-rule="evenodd" d="M577.204,667.971l116.395-37.331l3.478,13.217
				c3.32,39.449-14.621,60.091-43.359,71.182C612.528,720.795,588.47,703.127,577.204,667.971z"/>
		</g>
		<g>
			<path fill-rule="evenodd" clip-rule="evenodd" fill="#EDB8A4" d="M732.672,811.839l-11.559-1.156l-6.935-16.759
				c-8.567-3.41-15.063-9.582-19.071-19.072l6.357-34.097c-15.219-7.661-20.705-22.808-16.181-45.655
				c9.029-15.15,14.311-34.516,10.98-63.571l88.999-19.072l1.734,9.826c2.311-3.714,5.201-4.319,8.091-2.312
				c8.031,12.746,1.736,33.226-6.936,38.72c1.071,10.662-3.772,12.452-9.247,13.292l-1.734,81.485
				c-9.28,15.73-20.59,27.403-32.941,36.988L732.672,811.839z"/>
		</g>
		<g opacity="0.2275">
			<path fill-rule="evenodd" clip-rule="evenodd" fill="#445663" d="M777.338,751.661l-75.13-10.017
				c-16.311-10.323-20.754-26.125-15.651-46.33l8.765-13.774l84.52-13.774L777.338,751.661z"/>
		</g>
		<g>
			<path fill-rule="evenodd" clip-rule="evenodd" fill="#FFE0D4" d="M702.605,676.302c-3.64-12.869-1.562-29.31,4.696-48.365
				l4.696-1.408c-6.707,29.237-12.747,57.574,7.982,49.774C713.712,678.679,707.518,680.691,702.605,676.302z"/>
		</g>
		<g>
			<path fill-rule="evenodd" clip-rule="evenodd" fill="#FFFFFF" d="M698.848,694.145l68.087-11.739
				c-4.021,11.837-9.889,19.981-16.435,26.764l-33.339,3.287C706.761,708.932,702.547,701.692,698.848,694.145z"/>
		</g>
		<g>
			<polygon fill-rule="evenodd" clip-rule="evenodd" fill="#666666" points="702.178,648.958 696.846,630.409 707.048,629.018 			
				"/>
		</g>
		<g>
			<path fill-rule="evenodd" clip-rule="evenodd" fill="#292929" d="M700.323,642.698l-5.101-12.058l6.029,0.001
				C702.314,635.004,701.727,638.954,700.323,642.698z"/>
		</g>
		<g>
			<path fill-rule="evenodd" clip-rule="evenodd" fill="#445663" d="M576.055,667.359l-1.733-9.826l77.44-62.415l16.182,5.78
				l-4.623-34.676c-4.366-36.847,10.608-32.438,30.051-18.493c1.905-23.341,8.165-30.785,16.76-29.474
				c23.052,8.989,43.2,41.224,62.993,76.285l57.792,7.512l-137.545,27.741L576.055,667.359z"/>
		</g>
		<g>
			<path d="M575.932,667.563l-0.031-0.177l-1.749-9.916l77.58-62.528l16.023,5.723l-4.589-34.421
				c-1.622-13.691-0.685-22.287,2.866-26.284c1.512-1.702,3.538-2.565,6.021-2.565c4.86,0,11.596,3.193,21.186,10.047
				c1.774-21.244,7.286-30.813,16.916-29.341c23.646,9.216,44.12,42.735,63.068,76.295l58.65,7.624l-0.926,0.186l-137.544,27.741
				L575.932,667.563z M574.492,657.598l1.686,9.558l117.147-37.51l136.636-27.559l-56.932-7.401l-0.039-0.068
				c-18.931-33.533-39.381-67.04-62.915-76.216c-0.587-0.086-1.197-0.134-1.78-0.134c-8.317,0-13.148,9.641-14.766,29.475
				l-0.023,0.275l-0.224-0.161c-9.654-6.924-16.4-10.149-21.229-10.149c-2.424,0-4.317,0.804-5.787,2.46
				c-3.488,3.925-4.4,12.442-2.789,26.037l4.657,34.927l-16.341-5.837L574.492,657.598z"/>
		</g>
		<g>
			<polygon fill-rule="evenodd" clip-rule="evenodd" fill="#6E7E89" points="576.763,667.38 575.824,657.05 650.485,595.537 
				657.997,598.354 592.259,663.153 			"/>
		</g>
		<g>
			<path fill-rule="evenodd" clip-rule="evenodd" fill="#6E7E89" d="M671.615,599.294l-3.287-1.409
				c-7.614-37.379-7.82-58.884,1.879-59.164c-7.338,3.272-5.017,23.633,3.756,55.407l34.747-11.269L671.615,599.294z"/>
		</g>
		<g>
			<path fill-rule="evenodd" clip-rule="evenodd" fill="#364753" d="M691.878,565.518c-11.117-15.411-22.098-30.251-27.391-20.916
				c2.808-10.244,11.824-9.847,28.386,3.485L691.878,565.518z"/>
		</g>
		<g>
			<path fill-rule="evenodd" clip-rule="evenodd" fill="#364753" d="M742.675,569.751c-18.207-29.959-35.996-57.586-45.568-39.343
				c2.061-8.948,5.881-15.774,21.166-8.715c15.153,12.203,26.246,27.789,37.1,43.576L742.675,569.751z"/>
		</g>
		<g>
			<polygon fill-rule="evenodd" clip-rule="evenodd" fill="#364753" points="803.43,608.595 760.603,597.638 773.551,593.903 
				830.323,601.871 			"/>
		</g>
		<g>
			<polygon fill-rule="evenodd" clip-rule="evenodd" fill="#00D49A" points="685.283,616.502 668.522,600.32 754.632,564.49 
				773.126,594.541 			"/>
		</g>
		<g>
			<polygon fill-rule="evenodd" clip-rule="evenodd" fill="#00D298" points="684.762,616.667 668.327,600.702 724.675,579.102 
				686.641,598.824 690.397,614.789 			"/>
		</g>
		<g>
			<polygon fill-rule="evenodd" clip-rule="evenodd" fill="#008D66" points="761.848,596.394 743.671,570.249 754.876,564.771 
				772.803,593.903 			"/>
		</g>
		<g>
			<path d="M696.03,631.537c-0.582,0-1.104-0.409-1.225-1.002c-0.139-0.678,0.298-1.339,0.976-1.478l130.731-26.714l-54.333-6.587
				c-0.686-0.083-1.175-0.707-1.093-1.394c0.084-0.687,0.707-1.175,1.394-1.092l61.982,7.514c0.609,0.074,1.076,0.579,1.101,1.193
				c0.025,0.613-0.399,1.154-1.001,1.278l-138.281,28.256C696.197,631.529,696.113,631.537,696.03,631.537z"/>
		</g>
		<g>
			<path d="M773.583,595.141c-0.423,0-0.835-0.214-1.071-0.601c-32.289-53.008-54.659-78.172-66.488-74.792
				c-8.219,2.349-12.241,18.653-11.954,48.46c0.007,0.692-0.549,1.258-1.241,1.264c-0.688-0.009-1.257-0.549-1.264-1.24
				c-0.303-31.511,4.201-48.157,13.77-50.892c13.41-3.837,35.44,20.283,69.315,75.898c0.36,0.591,0.173,1.361-0.417,1.721
				C774.03,595.082,773.805,595.141,773.583,595.141z"/>
		</g>
		<g>
			<path d="M668.796,603.833c-0.584,0-1.107-0.411-1.227-1.006c-7.965-39.711-7.991-59.765-0.082-65.022
				c6.419-4.268,16.689,1.966,26.659,8.718c0.573,0.388,0.723,1.167,0.335,1.739c-0.388,0.573-1.166,0.723-1.739,0.335
				c-8.859-6-18.741-12.116-23.868-8.706c-6.753,4.49-6.376,24.915,1.152,62.444c0.135,0.678-0.304,1.338-0.982,1.474
				C668.961,603.825,668.878,603.833,668.796,603.833z"/>
		</g>
		<g>
			<path d="M685.701,617.92c-0.556,0-1.064-0.373-1.211-0.936c-0.174-0.669,0.226-1.353,0.896-1.528l87.254-22.779
				c0.668-0.175,1.353,0.226,1.528,0.895c0.174,0.669-0.226,1.353-0.896,1.528l-87.254,22.779
				C685.912,617.907,685.806,617.92,685.701,617.92z"/>
		</g>
		<g>
			<path d="M667.858,601.955c-0.497,0-0.966-0.297-1.162-0.785c-0.258-0.641,0.052-1.371,0.694-1.629l86.943-34.988
				c0.643-0.257,1.372,0.053,1.629,0.694c0.258,0.641-0.052,1.371-0.694,1.629l-86.943,34.988
				C668.172,601.926,668.013,601.955,667.858,601.955z"/>
		</g>
		<g>
			<path d="M714.701,744.36c-8.194,0-14.808-1.901-19.933-5.697c-9.826-7.275-13.692-21.694-11.491-42.853
				c0.072-0.688,0.684-1.186,1.375-1.116c0.688,0.072,1.188,0.687,1.116,1.375c-2.102,20.216,1.427,33.87,10.49,40.581
				c11.485,8.505,32.439,6.425,62.281-6.178c0.636-0.269,1.372,0.029,1.64,0.666c0.269,0.637-0.029,1.372-0.666,1.64
				C741.219,740.507,726.362,744.359,714.701,744.36z"/>
		</g>
		<g>
			<path d="M708.868,680.338c-2.05,0-3.769-0.631-5.136-1.89c-6.72-6.189-3.073-26.806,1.61-49.204
				c0.142-0.677,0.805-1.108,1.482-0.97c0.677,0.142,1.111,0.805,0.97,1.482c-4.159,19.89-8.114,41.554-2.365,46.849
				c1.468,1.353,3.607,1.59,6.531,0.722c0.046-0.014,0.093-0.025,0.141-0.033l25.015-4.365c1.951-1.003,2.523-3.247,1.567-6.188
				c-0.214-0.658,0.146-1.364,0.803-1.578c0.661-0.213,1.364,0.147,1.578,0.804c1.372,4.219,0.212,7.783-3.027,9.299
				c-0.1,0.047-0.207,0.08-0.316,0.099l-25.12,4.383C711.256,680.142,710.011,680.338,708.868,680.338z"/>
		</g>
		<g>
			<path d="M576.294,670.824c-1.061,0-2.046-0.68-2.385-1.745c-0.42-1.318,0.308-2.726,1.626-3.146l116.45-37.096
				c1.318-0.421,2.726,0.308,3.146,1.626c0.42,1.318-0.308,2.726-1.626,3.146l-116.45,37.096
				C576.802,670.786,576.546,670.824,576.294,670.824z"/>
		</g>
		<g>
			<path d="M576.296,659.554c-0.724,0-1.442-0.312-1.938-0.916c-0.877-1.069-0.721-2.647,0.348-3.524l73.25-60.105
				c1.069-0.878,2.646-0.721,3.525,0.347c0.877,1.069,0.721,2.647-0.348,3.524l-73.25,60.105
				C577.417,659.368,576.855,659.554,576.296,659.554z"/>
		</g>
		<g>
			<path d="M607.084,748.522c-7.045,0-13.032-4.304-13.925-10.01c-1.009-6.448,4.775-12.347,15.473-15.779
				c8.243-2.245,15.38-3.375,21.268-3.375c10.065,0,14.025,3.274,15.574,6.021c1.804,3.2,1.325,7.262-1.388,11.747l-0.122,0.168
				c-5.554,6.468-16.712,8.215-28.525,10.065c-2.193,0.343-4.425,0.693-6.669,1.078l-0.096,0.013
				C608.147,748.498,607.611,748.522,607.084,748.522z M629.9,721.861c-5.666,0-12.582,1.101-20.557,3.272
				c-9.366,3.007-14.511,7.869-13.71,12.991c0.693,4.426,5.723,7.893,11.451,7.893c0.435,0,0.876-0.02,1.312-0.059
				c2.242-0.384,4.485-0.736,6.655-1.076c11.294-1.769,21.964-3.44,26.946-9.145c1.526-2.552,2.961-6.176,1.295-9.131
				C641.566,723.547,636.81,721.861,629.9,721.861z"/>
		</g>
		<g>
			<path d="M607.737,769.306c-6.133,0-11.342-3.065-12.752-7.7c-1.625-5.342,2.119-11.055,10.014-15.281
				c0.609-0.324,1.369-0.097,1.695,0.513c0.326,0.61,0.097,1.369-0.513,1.695c-6.761,3.618-10.05,8.232-8.8,12.344
				c1.201,3.947,6.212,6.401,11.926,5.848c24.341-3.989,31.439-9.336,33.105-13.12c0.908-2.061,0.538-4.305-1.131-6.859
				c-0.027-0.042-0.052-0.084-0.074-0.129c-1.421-2.863-5.113-3.439-7.943-2.762c-0.675,0.164-1.348-0.254-1.509-0.926
				c-0.161-0.673,0.254-1.348,0.926-1.509c3.746-0.896,8.684-0.015,10.735,4.017c2.105,3.251,2.539,6.339,1.288,9.179
				c-2.827,6.422-14.287,11.193-35.032,14.589c-0.026,0.004-0.052,0.007-0.078,0.01
				C608.968,769.276,608.348,769.306,607.737,769.306z"/>
		</g>
		<g>
			<path d="M614.317,789.46c-5.177,0-8.639-2.549-9.035-6.652c-0.741-7.668,9.589-17.985,30.192-22.002l0.236-0.023
				c5.23,0,8.687,2.068,9.54,5.674c1.301,5.502-4.078,12.496-13.083,17.008c-1.67,0.854-3.471,1.597-5.213,2.317
				c-1.699,0.702-3.456,1.427-5.048,2.241l-0.172,0.073C619.037,789.001,616.542,789.46,614.317,789.46z M635.834,763.287
				c-20.252,3.98-28.602,13.663-28.059,19.281c0.265,2.747,2.711,4.387,6.542,4.387c1.93,0,4.128-0.405,6.534-1.205
				c1.658-0.842,3.432-1.574,5.147-2.283c1.696-0.7,3.449-1.424,5.038-2.236c8.886-4.452,12.648-10.511,11.776-14.197
				C642.252,764.666,639.711,763.303,635.834,763.287z"/>
		</g>
		<g>
			<path d="M624.588,806.395c-3.325,0-6.299-1.271-8.243-3.723c-2.498-3.15-3.292-8.796,1.972-15.191
				c0.439-0.533,1.227-0.611,1.763-0.171c0.534,0.439,0.611,1.228,0.171,1.763c-3.609,4.386-4.354,9.001-1.943,12.043
				c2.065,2.605,6.594,4.024,12.058,1.328c12.638-6.047,18.614-13.813,17.098-17.832c-1.168-3.098-6.9-3.694-14.604-1.519
				c-0.667,0.188-1.358-0.2-1.546-0.865c-0.187-0.666,0.2-1.358,0.865-1.546c9.328-2.63,15.917-1.493,17.629,3.046
				c1.876,4.974-3.065,13.658-18.346,20.969C629.147,805.837,626.791,806.395,624.588,806.395z"/>
		</g>
		<g>
			<path d="M656.881,744.859c-4.626,0-8.298-2.38-9.584-6.211c-1.7-5.064,1.109-10.98,7.513-15.826l0.398-0.301l0.496,0.055
				c4.69,0.519,8.347,2.444,10.574,5.566c2.282,3.199,2.964,7.516,1.92,12.155l-0.108,0.48l-0.405,0.278
				C664.062,743.543,660.326,744.859,656.881,744.859z M655.922,725.126c-6.132,4.807-7.265,9.705-6.252,12.725
				c0.933,2.777,3.695,4.502,7.21,4.502c2.811,0,5.905-1.065,8.974-3.087c0.737-3.747,0.169-7.166-1.617-9.671
				C662.512,727.176,659.644,725.637,655.922,725.126z"/>
		</g>
		<g>
			<path d="M626.953,739.078v-1.878c3.128,0,6.072-0.897,8.288-2.526c1.914-1.406,3.056-3.216,3.055-4.839
				c-0.001-2.825-3.528-4.579-9.205-4.579v-1.878c10.281,0,11.083,4.941,11.083,6.456c0,0.001,0,0.002,0,0.003
				c0,2.252-1.393,4.566-3.821,6.35C633.817,738.051,630.479,739.078,626.953,739.078z"/>
		</g>
		<g>
			<path d="M628.507,759.872l-0.393-0.383c-4.783-4.601-3.722-9.299-1.99-12.431l0.198-0.359l0.398-0.098
				c2.271-0.56,4.319-0.844,6.088-0.844c5.422,0,7.39,2.681,7.423,5.191c0.055,4.071-4.584,8.733-11.329,8.914L628.507,759.872z
				 M627.576,748.327c-2.625,5.138,0.384,8.391,1.665,9.64c5.711-0.32,9.15-4.237,9.113-6.995c-0.029-2.121-2.05-3.337-5.546-3.337
				C631.295,747.635,629.536,747.868,627.576,748.327z"/>
		</g>
		<g>
			<path d="M637.654,795.995l-0.456-0.22c-5.144-2.454-5.375-6.48-4.664-9.425l0.095-0.393l0.35-0.201
				c3.101-1.782,5.764-2.686,7.913-2.686c2.53,0,4.249,1.297,4.597,3.469c0.504,3.142-2.211,7.605-7.475,9.338L637.654,795.995z
				 M634.274,787.18c-0.87,4.404,2.172,6.137,3.505,6.789c4.317-1.572,6.179-5.112,5.855-7.134c-0.25-1.56-1.629-1.888-2.742-1.888
				C639.686,784.947,637.572,785.341,634.274,787.18z"/>
		</g>
		<g>
			<path d="M632.372,778.315l-0.459-0.266c-5.135-2.933-5.243-7.223-4.43-10.306l0.105-0.397l0.362-0.193
				c3.005-1.599,5.606-2.411,7.732-2.411c2.808,0,4.683,1.446,5.018,3.869c0.47,3.407-2.433,8.046-7.944,9.597L632.372,778.315z
				 M629.202,768.617c-1.068,4.783,2.053,6.875,3.415,7.671c4.53-1.441,6.527-5.19,6.219-7.42c-0.2-1.448-1.321-2.247-3.157-2.247
				C633.973,766.621,631.74,767.31,629.202,768.617z"/>
		</g>
		<g>
			<path d="M661.954,792.619c-0.24,0-0.483-0.069-0.698-0.214c-9.503-6.399-16.119-16.773-17.265-27.072
				c-0.799-7.177,1.125-13.634,5.417-18.183c0.476-0.502,1.267-0.526,1.771-0.051c0.503,0.474,0.526,1.268,0.051,1.771
				c-3.779,4.004-5.466,9.753-4.75,16.186c1.068,9.589,7.266,19.272,16.175,25.272c0.574,0.386,0.726,1.164,0.339,1.738
				C662.752,792.426,662.356,792.619,661.954,792.619z"/>
		</g>
		<g>
			<path d="M623.828,736.516c-0.179,0-0.357-0.077-0.482-0.226c-0.22-0.267-0.185-0.661,0.081-0.882
				c1.422-1.181,2.133-2.724,2.003-4.343c-0.119-1.473-0.956-2.804-2.239-3.56c-0.298-0.176-0.397-0.559-0.222-0.858
				c0.176-0.298,0.559-0.398,0.858-0.222c1.634,0.964,2.7,2.66,2.851,4.539c0.162,2.007-0.731,3.979-2.45,5.407
				C624.111,736.469,623.969,736.516,623.828,736.516z"/>
		</g>
		<g>
			<path d="M628.152,757.435c-0.148,0-0.296-0.052-0.415-0.157c-0.259-0.229-0.283-0.625-0.053-0.884
				c0.928-1.046,1.283-2.278,1.002-3.468c-0.255-1.079-1.027-1.971-2.064-2.387c-0.321-0.129-0.477-0.494-0.349-0.814
				c0.129-0.321,0.496-0.474,0.814-0.349c1.416,0.568,2.469,1.786,2.817,3.261c0.373,1.575-0.095,3.247-1.283,4.587
				C628.497,757.364,628.325,757.435,628.152,757.435z"/>
		</g>
		<g>
			<path d="M631.664,776.41c-0.089,0-0.18-0.019-0.267-0.06c-0.313-0.147-0.447-0.52-0.299-0.833
				c0.595-1.263,0.59-2.543-0.014-3.606c-0.549-0.964-1.541-1.604-2.655-1.711c-0.344-0.033-0.596-0.339-0.563-0.683
				c0.034-0.343,0.335-0.598,0.683-0.563c1.519,0.146,2.874,1.021,3.623,2.339c0.8,1.405,0.821,3.14,0.058,4.759
				C632.124,776.278,631.899,776.41,631.664,776.41z"/>
		</g>
		<g>
			<path d="M637.401,794.417c-0.089,0-0.18-0.019-0.266-0.06c-0.313-0.147-0.447-0.52-0.299-0.833
				c0.595-1.264,0.589-2.545-0.015-3.607c-0.549-0.964-1.541-1.604-2.654-1.711c-0.344-0.033-0.596-0.339-0.563-0.683
				c0.033-0.343,0.336-0.598,0.683-0.563c1.518,0.146,2.872,1.019,3.622,2.337c0.8,1.406,0.822,3.142,0.059,4.76
				C637.862,794.285,637.636,794.417,637.401,794.417z"/>
		</g>
		<g>
			<path d="M665.074,733.895c-1.717,0-3.358-0.757-4.463-2.079c-1.292-1.546-1.7-3.67-1.122-5.829
				c0.089-0.334,0.438-0.532,0.767-0.443c0.334,0.09,0.532,0.433,0.443,0.767c-0.479,1.785-0.168,3.455,0.873,4.701
				c0.947,1.134,2.398,1.733,3.883,1.614c0.338-0.029,0.647,0.228,0.676,0.572c0.029,0.345-0.228,0.647-0.572,0.676
				C665.398,733.889,665.235,733.895,665.074,733.895z"/>
		</g>
		<g>
			<path d="M676.185,722.306c-0.039,0-0.078-0.003-0.118-0.011c-0.34-0.064-0.562-0.393-0.498-0.732
				c0.283-1.488-0.264-3.004-1.463-4.057c-1.213-1.063-2.844-1.435-4.259-0.968c-0.327,0.109-0.682-0.07-0.791-0.399
				c-0.108-0.328,0.07-0.682,0.398-0.791c1.832-0.604,3.932-0.139,5.478,1.217c1.536,1.348,2.234,3.303,1.867,5.231
				C676.742,722.097,676.479,722.306,676.185,722.306z"/>
		</g>
		<g>
			<path d="M678.275,718.717c-0.242,0-0.447-0.183-0.471-0.429c-0.138-1.45-1.167-3.132-3.099-3.399
				c-0.259-0.036-0.44-0.275-0.404-0.535c0.036-0.259,0.281-0.437,0.535-0.404c2.441,0.338,3.74,2.439,3.912,4.248
				c0.025,0.261-0.166,0.492-0.427,0.517C678.306,718.717,678.29,718.717,678.275,718.717z"/>
		</g>
		<g>
			<path d="M649.916,812.555c-2.685,0-4.968-0.932-6.142-2.52c-0.156-0.211-0.242-0.466-0.245-0.728l-0.187-13.647
				c-0.01-0.691,0.543-1.26,1.235-1.269c0.006,0,0.012,0,0.017,0c0.684,0,1.243,0.549,1.252,1.235l0.18,13.193
				c0.808,0.795,2.384,1.269,4.101,1.229c2.863-0.066,5.511-1.426,7.16-3.658l-0.845-17.96c-0.033-0.691,0.501-1.277,1.192-1.309
				c0.693-0.018,1.277,0.502,1.309,1.192l0.866,18.389c0.012,0.268-0.062,0.533-0.211,0.756c-2.081,3.103-5.599,5.007-9.414,5.095
				C650.096,812.554,650.005,812.555,649.916,812.555z"/>
		</g>
		<g>
			<path d="M626.564,840.319c-3.486,0-6.999-0.26-10.54-0.781c-0.684-0.101-1.157-0.737-1.057-1.421
				c0.1-0.685,0.74-1.157,1.421-1.057c19.68,2.895,37.801-2.246,55.404-15.72c0.548-0.42,1.334-0.316,1.755,0.234
				c0.42,0.548,0.316,1.335-0.234,1.755C658.555,834.627,642.871,840.319,626.564,840.319z"/>
		</g>
		<g>
			<path d="M645.057,809.846c-0.106,0-0.215-0.014-0.322-0.042c-0.669-0.177-1.066-0.863-0.889-1.532
				c0.763-2.873,3.968-5.459,7.621-6.149c3.296-0.625,6.227,0.433,8.035,2.897c0.409,0.558,0.289,1.342-0.269,1.751
				c-0.559,0.407-1.342,0.288-1.751-0.269c-1.663-2.267-4.19-2.173-5.55-1.919c-2.666,0.504-5.154,2.406-5.665,4.332
				C646.118,809.476,645.611,809.846,645.057,809.846z"/>
		</g>
		<g>
			<path d="M733.921,814.067c-0.167,0-0.336-0.034-0.499-0.105c-0.634-0.276-0.924-1.014-0.648-1.648l9.669-22.205
				c0.1-0.228,0.264-0.42,0.473-0.554c13.022-8.337,24.085-20.716,32.882-36.791c0.332-0.606,1.09-0.831,1.7-0.497
				c0.606,0.332,0.83,1.093,0.497,1.7c-8.93,16.316-20.167,28.928-33.407,37.491l-9.518,21.857
				C734.865,813.785,734.404,814.066,733.921,814.067z"/>
		</g>
		<g>
			<path d="M770.807,813.708c-0.29,0-0.581-0.1-0.817-0.304l-26.143-22.563c-0.524-0.452-0.582-1.243-0.13-1.766
				c0.453-0.524,1.243-0.581,1.766-0.13l26.143,22.563c0.524,0.452,0.582,1.243,0.13,1.766
				C771.508,813.561,771.159,813.708,770.807,813.708z"/>
		</g>
		<g>
			<path d="M734.639,815.14c-0.451,0-0.887-0.245-1.11-0.672c-0.321-0.613-0.083-1.37,0.529-1.69l23.278-12.175
				c0.611-0.321,1.369-0.084,1.69,0.529c0.321,0.613,0.083,1.37-0.529,1.69l-23.278,12.175
				C735.033,815.095,734.835,815.14,734.639,815.14z"/>
		</g>
		<g>
			<path d="M762.931,829.968c-0.073,0-0.147-0.007-0.22-0.023l-25.65-5.601c-0.557-0.122-0.909-0.671-0.787-1.227
				c0.122-0.557,0.667-0.91,1.227-0.787l24.506,5.352l1.688-19.254c0.049-0.568,0.552-0.989,1.117-0.937
				c0.567,0.05,0.986,0.55,0.937,1.117l-1.79,20.42c-0.026,0.295-0.177,0.565-0.416,0.74
				C763.363,829.899,763.148,829.968,762.931,829.968z"/>
		</g>
		<g>
			<path d="M773.978,792.126c-0.311,0-0.621-0.114-0.863-0.345c-0.501-0.477-0.521-1.269-0.044-1.771l36.154-38.007
				c-5.153-20.803-15.77-42.388-31.564-64.167c-0.406-0.56-0.281-1.343,0.278-1.749c0.56-0.405,1.344-0.281,1.749,0.279
				c16.154,22.276,26.965,44.383,32.132,65.709c0.1,0.414-0.016,0.85-0.31,1.159l-36.625,38.503
				C774.64,791.996,774.309,792.126,773.978,792.126z"/>
		</g>
		<g>
			<path fill-rule="evenodd" clip-rule="evenodd" fill="#445663" d="M831.084,818.507c6.893-8.454,13.305-17.166,19.087-26.213
				l-18.435-46.028C827.896,755.509,830.303,790.338,831.084,818.507z"/>
		</g>
		<g>
			<path d="M849.434,793.65c-0.503,0-0.978-0.306-1.169-0.804l-17.588-45.845l-35.46-31.256c-0.518-0.457-0.568-1.249-0.111-1.768
				c0.457-0.518,1.248-0.569,1.768-0.111l35.691,31.459c0.152,0.134,0.269,0.302,0.341,0.491l17.698,46.132
				c0.247,0.646-0.075,1.37-0.721,1.618C849.735,793.623,849.584,793.65,849.434,793.65z"/>
		</g>
		<g>
			<path d="M687.111,805.275c-0.486,0-0.948-0.285-1.152-0.759l-8.452-19.721c-0.272-0.636,0.022-1.372,0.658-1.645
				c0.636-0.272,1.372,0.023,1.645,0.658l8.452,19.721c0.272,0.636-0.022,1.372-0.658,1.645
				C687.443,805.242,687.276,805.275,687.111,805.275z"/>
		</g>
		<g>
			<path d="M675.84,801.987c-0.275,0-0.551-0.089-0.781-0.275c-0.54-0.432-0.628-1.22-0.196-1.76l5.634-7.044
				c0.431-0.54,1.22-0.629,1.76-0.195c0.54,0.432,0.628,1.22,0.195,1.76l-5.634,7.044
				C676.572,801.826,676.208,801.987,675.84,801.987z"/>
		</g>
		<g>
			<path d="M733.222,757.745c-3.834,0-7.064-0.807-9.762-2.424c-3.886-2.329-6.572-6.379-7.982-12.038
				c-0.168-0.672,0.241-1.351,0.912-1.518c0.671-0.169,1.351,0.242,1.518,0.912c1.262,5.061,3.499,8.495,6.84,10.497
				c4.109,2.463,9.821,2.723,17.466,0.8c0.67-0.173,1.351,0.238,1.52,0.909c0.169,0.67-0.238,1.351-0.909,1.52
				C739.27,757.297,736.078,757.745,733.222,757.745z"/>
		</g>
		<g>
			<path d="M696.03,695.397c-0.599,0-1.128-0.431-1.233-1.042c-0.116-0.682,0.342-1.329,1.024-1.445l74.191-12.678
				c0.674-0.119,1.328,0.341,1.446,1.023c0.116,0.682-0.342,1.329-1.024,1.445l-74.191,12.678
				C696.171,695.391,696.1,695.397,696.03,695.397z"/>
		</g>
		<g>
			<path d="M781.766,672.893c-0.88,0-1.78-0.207-2.677-0.621c-0.628-0.29-0.902-1.034-0.613-1.662
				c0.29-0.628,1.033-0.903,1.662-0.613c1.144,0.528,2.177,0.522,3.161-0.015c2.315-1.264,4.114-5.357,4.935-11.229
				c0.043-0.306,0.197-0.585,0.434-0.784c8.673-7.309,10.678-24.51,8.248-33.139c-0.835-2.964-2.107-4.72-3.582-4.945
				c-1.199-0.18-3.815,0.469-7.975,6.856c-0.378,0.58-1.153,0.743-1.733,0.366c-0.58-0.378-0.743-1.153-0.366-1.733
				c3.757-5.77,7.28-8.449,10.451-7.966c1.772,0.271,4.185,1.66,5.616,6.742c2.574,9.142,0.439,27.307-8.679,35.417
				c-0.991,6.599-3.112,10.954-6.148,12.612C783.63,672.656,782.71,672.893,781.766,672.893z"/>
		</g>
		<g>
			<path d="M783.079,656.374c-0.009,0-0.018,0-0.026,0c-0.691-0.014-1.241-0.585-1.227-1.277
				c0.297-14.83,3.715-24.078,10.451-28.273c0.588-0.367,1.361-0.186,1.725,0.401c0.365,0.587,0.186,1.359-0.401,1.725
				c-5.877,3.66-8.997,12.474-9.271,26.196C784.316,655.829,783.758,656.374,783.079,656.374z"/>
		</g>
		<g>
			<path fill-rule="evenodd" clip-rule="evenodd" fill="#999999" d="M771.228,673.093l-1.896-2.189
				c6.099-3.532,12.278-6.837,15.318-19.112c-0.115-6.368,0.808-13.137,4.523-18.529c6.697,4.61,6.637,10.049,0.292,16.195
				C784.984,661.776,779.179,670.419,771.228,673.093z"/>
		</g>
		<g>
			<path d="M717.162,714.179c-0.155,0-0.31-0.029-0.456-0.086c-8.386-3.277-14.623-9.504-18.536-18.51
				c-0.276-0.634,0.015-1.372,0.649-1.648c0.636-0.276,1.373,0.016,1.648,0.65c3.645,8.385,9.163,13.97,16.864,17.062l32.181-3.678
				c7.45-6.355,12.749-14.756,15.752-24.977c0.195-0.665,0.893-1.044,1.555-0.848c0.664,0.195,1.044,0.891,0.849,1.554
				c-3.183,10.833-8.845,19.725-16.83,26.431c-0.188,0.158-0.419,0.257-0.663,0.285l-32.869,3.757
				C717.257,714.176,717.209,714.179,717.162,714.179z"/>
		</g>
		<g>
			<path d="M725.143,724.04c-0.632,0-1.175-0.477-1.243-1.12c-0.073-0.688,0.425-1.305,1.112-1.378l22.069-2.347
				c0.699-0.074,1.304,0.425,1.378,1.113c0.073,0.688-0.425,1.305-1.112,1.378l-22.069,2.347
				C725.231,724.038,725.187,724.04,725.143,724.04z"/>
		</g>
		<g>
			<path d="M704.014,704.162c-0.305,0-0.573-0.224-0.619-0.535c-0.051-0.342,0.186-0.661,0.528-0.711l57.285-8.452
				c0.347-0.046,0.661,0.187,0.711,0.528c0.051,0.342-0.186,0.661-0.528,0.711l-57.285,8.452
				C704.075,704.16,704.044,704.162,704.014,704.162z"/>
		</g>
		<g>
			<path d="M628.162,859.292c-1.717,0-3.349-0.65-4.595-1.83c-1.295-1.227-2.035-2.886-2.083-4.671
				c-0.048-1.785,0.601-3.482,1.828-4.778c1.255-1.325,3.024-2.086,4.852-2.086c1.717,0,3.35,0.65,4.595,1.831
				c1.295,1.227,2.035,2.886,2.083,4.671c0.048,1.785-0.6,3.482-1.828,4.777C631.76,858.532,629.99,859.292,628.162,859.292z
				 M628.164,847.808c-1.333,0-2.573,0.532-3.488,1.498c-0.882,0.932-1.349,2.151-1.315,3.435c0.034,1.283,0.567,2.476,1.498,3.358
				c0.896,0.848,2.069,1.315,3.303,1.315c1.333,0,2.573-0.532,3.489-1.499c0.882-0.931,1.348-2.15,1.314-3.434
				c-0.034-1.284-0.567-2.477-1.498-3.358C630.572,848.275,629.399,847.808,628.164,847.808z"/>
		</g>
		<g>
			<path d="M721.858,813.727c-0.505,0-0.982-0.309-1.171-0.81l-6.434-17.003c-0.774-0.521-1.547-1.031-2.318-1.54
				c-6.758-4.461-13.745-9.075-18.003-18.994c-0.273-0.636,0.021-1.372,0.656-1.645c0.636-0.275,1.372,0.021,1.645,0.656
				c3.962,9.231,10.335,13.438,17.082,17.892c0.888,0.586,1.779,1.175,2.671,1.778c0.214,0.145,0.378,0.352,0.469,0.594
				l6.575,17.375c0.245,0.647-0.081,1.369-0.728,1.614C722.155,813.7,722.005,813.727,721.858,813.727z"/>
		</g>
		<g>
			<path d="M684.763,821.239c-0.363,0-0.724-0.157-0.971-0.461c-0.437-0.536-0.357-1.325,0.179-1.762l30.521-24.888
				c0.537-0.437,1.325-0.357,1.762,0.179c0.437,0.536,0.357,1.325-0.179,1.762l-30.521,24.888
				C685.32,821.147,685.041,821.239,684.763,821.239z"/>
		</g>
		<g>
			<path d="M690.866,836.422c-0.205,0-0.409-0.067-0.576-0.198c-0.266-0.207-0.401-0.539-0.354-0.872l3.287-23.479
				c0.073-0.514,0.557-0.874,1.06-0.8c0.513,0.072,0.871,0.546,0.8,1.06l-3.06,21.859l26.623-10.911l0.778-6.23l-20.902-7.724
				c-0.486-0.179-0.735-0.72-0.555-1.207c0.179-0.486,0.721-0.734,1.207-0.555l21.601,7.982c0.409,0.151,0.661,0.565,0.606,0.997
				l-0.939,7.513c-0.042,0.336-0.262,0.624-0.576,0.753l-28.644,11.739C691.108,836.399,690.986,836.422,690.866,836.422z"/>
		</g>
		<g>
			<path fill-rule="evenodd" clip-rule="evenodd" fill="#B10000" d="M721.029,826.781c-3.756-3.558-3.916-9.494-0.358-13.25
				c3.557-3.756,9.494-3.916,13.25-0.358c3.755,3.558,3.916,9.495,0.358,13.251C730.721,830.178,724.785,830.339,721.029,826.781z"
				/>
		</g>
		<g>
			<path d="M700.323,643.325c-0.073,0-0.147-0.013-0.22-0.04c-0.324-0.121-0.488-0.482-0.367-0.806
				c1.552-4.14,1.84-7.854,0.906-11.689c-0.082-0.336,0.125-0.675,0.461-0.756c0.335-0.084,0.674,0.124,0.756,0.46
				c0.983,4.035,0.672,8.1-0.95,12.425C700.815,643.169,700.576,643.325,700.323,643.325z"/>
		</g>
		<g>
			<path d="M727.474,830.287c-2.65,0-5.168-1.003-7.091-2.824c-1.998-1.894-3.14-4.453-3.215-7.207
				c-0.074-2.754,0.928-5.372,2.822-7.371c1.965-2.075,4.624-3.218,7.487-3.218c2.649,0,5.168,1.003,7.091,2.824
				c4.127,3.91,4.304,10.45,0.393,14.579C732.995,829.145,730.336,830.287,727.474,830.287z M727.477,811.544
				c-2.341,0-4.516,0.935-6.123,2.632c-1.548,1.635-2.368,3.775-2.307,6.028c0.06,2.253,0.994,4.346,2.628,5.894
				c1.572,1.49,3.631,2.31,5.799,2.31c2.34,0,4.515-0.934,6.123-2.631c3.198-3.377,3.054-8.725-0.321-11.923
				C731.703,812.365,729.644,811.544,727.477,811.544z"/>
		</g>
		<g>
			<path d="M736.386,817.513c-0.423,0-0.808-0.289-0.912-0.718c-0.123-0.505,0.187-1.012,0.691-1.134l8.924-2.168
				c0.507-0.122,1.013,0.188,1.134,0.691c0.123,0.505-0.187,1.012-0.691,1.134l-8.924,2.168
				C736.534,817.505,736.459,817.513,736.386,817.513z"/>
		</g>
		<g>
			<path d="M742.123,820.7c-0.008,0-0.016-0.001-0.024-0.001l-5.098-0.127c-0.518-0.013-0.929-0.444-0.915-0.962
				c0.012-0.518,0.466-0.925,0.962-0.915l5.098,0.127c0.518,0.013,0.929,0.444,0.915,0.962
				C743.049,820.294,742.631,820.7,742.123,820.7z"/>
		</g>
		<g>
			<path d="M717.958,819.377c-0.024,0-0.048-0.001-0.073-0.003l-8.653-0.669c-0.517-0.04-0.904-0.492-0.864-1.009
				c0.04-0.516,0.486-0.898,1.009-0.864l8.653,0.669c0.517,0.04,0.904,0.492,0.864,1.009
				C718.856,819.002,718.445,819.377,717.958,819.377z"/>
		</g>
		<g>
			<path d="M712.291,823.122c-0.45,0-0.848-0.326-0.925-0.785c-0.086-0.512,0.26-0.996,0.772-1.081l5.354-0.893
				c0.499-0.087,0.996,0.259,1.081,0.772c0.086,0.512-0.26,0.996-0.772,1.081l-5.354,0.893
				C712.395,823.118,712.343,823.122,712.291,823.122z"/>
		</g>
		<g>
			<path d="M789.174,649.813c-0.352,0-0.69-0.199-0.85-0.538c-0.221-0.469-0.021-1.029,0.448-1.25
				c3.673-1.736,4.895-5.595,4.475-8.65c-0.312-2.27-1.625-4.862-4.377-5.331c-0.512-0.087-0.855-0.572-0.768-1.083
				c0.087-0.512,0.573-0.858,1.083-0.769c3.093,0.527,5.418,3.246,5.923,6.927c0.513,3.735-1,8.462-5.533,10.604
				C789.445,649.784,789.308,649.813,789.174,649.813z"/>
		</g>
		<g>
			<path d="M771.812,673.741c-0.347,0-0.68-0.193-0.844-0.525c-0.229-0.465-0.037-1.029,0.428-1.257
				c8.825-4.34,14.338-12.477,16.856-24.876c0.104-0.508,0.597-0.837,1.107-0.734c0.508,0.103,0.837,0.599,0.734,1.107
				c-2.641,13.009-8.486,21.575-17.868,26.188C772.093,673.71,771.951,673.741,771.812,673.741z"/>
		</g>
		<g>
			<path d="M769.478,671.843c-0.347,0-0.68-0.193-0.844-0.525c-0.229-0.465-0.037-1.029,0.428-1.257
				c8.824-4.339,14.338-12.476,16.857-24.875c0.015-0.075,0.04-0.149,0.073-0.219c0.596-1.242,1.951-1.848,3.075-1.386
				c0.983,0.404,1.76,1.626,0.994,3.848c-0.169,0.491-0.707,0.75-1.194,0.582c-0.491-0.169-0.751-0.704-0.581-1.194
				c0.347-1.008,0.169-1.456,0.068-1.498c-0.118-0.047-0.423,0.04-0.621,0.373c-2.655,12.933-8.492,21.457-17.842,26.055
				C769.758,671.812,769.617,671.843,769.478,671.843z"/>
		</g>
		<g>
			<path fill-rule="evenodd" clip-rule="evenodd" fill="#999999" d="M759.503,673.996c1.029-2.124,4.502-3.698,7.753-3.512
				c3.251,0.185,5.054,2.061,4.025,4.185c-1.029,2.124-4.502,3.698-7.753,3.512C760.278,677.995,758.475,676.12,759.503,673.996z"/>
		</g>
		<g>
			<path d="M764.053,679.136c-0.193,0-0.386-0.005-0.578-0.016c-2.228-0.127-3.961-0.976-4.756-2.328
				c-0.57-0.971-0.592-2.109-0.061-3.205c1.183-2.441,5.005-4.251,8.651-4.04c2.228,0.127,3.961,0.975,4.756,2.327
				c0.57,0.971,0.592,2.109,0.061,3.205C771.007,677.391,767.536,679.136,764.053,679.136z M766.73,671.408
				c-2.718,0-5.581,1.344-6.381,2.997c-0.256,0.528-0.259,1.011-0.009,1.435c0.457,0.778,1.7,1.316,3.243,1.404
				c2.866,0.159,6.008-1.236,6.855-2.984c0.256-0.528,0.259-1.011,0.01-1.434c-0.457-0.778-1.7-1.316-3.243-1.403
				C767.046,671.413,766.888,671.408,766.73,671.408z"/>
		</g>
		<g>
			<circle fill-rule="evenodd" clip-rule="evenodd" fill="#FFFFFF" cx="734.633" cy="839.43" r="3.613"/>
		</g>
		<g>
			<path d="M734.628,843.669c-0.786,0-1.555-0.22-2.226-0.635c-1.987-1.23-2.604-3.847-1.374-5.836
				c0.778-1.257,2.128-2.008,3.609-2.008c0.786,0,1.556,0.22,2.227,0.635c1.987,1.23,2.603,3.847,1.373,5.836
				C737.459,842.918,736.11,843.669,734.628,843.669z M734.638,836.443c-1.045,0-1.996,0.529-2.545,1.414
				c-0.866,1.401-0.432,3.246,0.968,4.112c0.472,0.292,1.014,0.447,1.567,0.447c1.045,0,1.996-0.529,2.545-1.414
				c0.866-1.401,0.433-3.246-0.967-4.112C735.733,836.598,735.191,836.443,734.638,836.443z"/>
		</g>
		<g>
			<circle fill-rule="evenodd" clip-rule="evenodd" fill="#FFFFFF" cx="734.633" cy="861.029" r="3.613"/>
		</g>
		<g>
			<path d="M734.628,865.268c-0.786,0-1.556-0.219-2.226-0.634c-1.987-1.23-2.603-3.847-1.374-5.836
				c0.779-1.257,2.128-2.007,3.609-2.007c0.786,0,1.556,0.22,2.227,0.635c1.987,1.23,2.603,3.847,1.373,5.835
				C737.459,864.517,736.11,865.268,734.628,865.268z M734.638,858.042c-1.045,0-1.996,0.529-2.545,1.414
				c-0.866,1.401-0.432,3.246,0.968,4.113c0.472,0.292,1.014,0.447,1.567,0.447c1.044,0,1.996-0.529,2.545-1.415
				c0.866-1.4,0.433-3.245-0.967-4.111C735.733,858.197,735.191,858.042,734.638,858.042z"/>
		</g>
		<g>
			<path fill-rule="evenodd" clip-rule="evenodd" d="M695.147,628.58l-0.049,0.01l96.927-19.49l2.166,10.773l-5.633,1.133
				l1.096,5.451l-5.176,1.041l1.12,5.575l-5.773,1.161l1.028,5.11l-38.212,7.683l-1.027-5.11l-5.841,1.174l-1.121-5.575
				l-5.176,1.041l-1.096-5.451l-10.369,2.085l1.096,5.451l-5.176,1.041l1.121,5.575l-5.773,1.161l1.027,5.11l-8.742,1.758
				l0.047-0.01C701.896,645.887,699.806,636.975,695.147,628.58z"/>
		</g>
		<g>
			<path fill-rule="evenodd" clip-rule="evenodd" fill="#FFFFFF" d="M745.727,634.694l5.328-1.072l-1.063-5.285l-5.329,1.072
				L745.727,634.694z M746.782,640.175l-1.08-5.368l-5.427,1.091l-1.084-5.39l-5.39,1.084l-1.1-5.472l5.471-1.1l1.084,5.389
				l5.329-1.071l-1.084-5.39l5.471-1.1l1.084,5.389l5.39-1.083l1.079,5.367l5.427-1.091l1.1,5.473l-5.471,1.099l-1.08-5.368
				l-5.328,1.072l1.078,5.367L746.782,640.175z"/>
		</g>
		<g>
			<path fill-rule="evenodd" clip-rule="evenodd" fill="#FFFFFF" d="M638.512,714.916l12.362-2.486
				c-4.173,1.21-8.43,2.076-12.687,2.551L638.512,714.916z M609.878,711.488l-0.004-0.02l-2.131-10.605l-11.136,2.241l-0.022,0.005
				c-5.116-4.639-9.471-10.705-12.725-18.391l20.133-4.048l3.991,19.833l19.609-3.941l-3.987-19.836l20.134-4.049l3.99,19.833
				l19.836-3.988l3.062,15.228v0.002c-5.95,3.608-12.48,6.517-19.237,8.526l-0.003-0.017l-3.897-19.388l-19.61,3.943l3.734,18.562
				l0.004,0.018C624.076,715.503,616.672,714.288,609.878,711.488z"/>
		</g>
		<g>
			<path d="M636.699,720.951c-24.26,0-46.513-13.221-58.076-34.503c-17.378-31.983-5.495-72.143,26.489-89.522
				c9.649-5.242,20.522-8.014,31.444-8.014c24.26,0,46.513,13.221,58.077,34.503c8.415,15.486,10.292,33.329,5.287,50.244
				c-5.005,16.915-16.29,30.863-31.776,39.278C658.495,718.18,647.621,720.951,636.699,720.951z M636.555,596.426
				c-9.673,0-19.306,2.456-27.857,7.102c-28.344,15.401-38.875,50.99-23.475,79.333c10.248,18.86,29.971,30.576,51.475,30.576
				c9.674,0,19.306-2.456,27.858-7.103c13.723-7.456,23.723-19.817,28.158-34.808c4.435-14.99,2.772-30.803-4.684-44.526
				C677.784,608.143,658.059,596.426,636.555,596.426z"/>
		</g>
		<path d="M684.702,716.093c-4.355-7.123-13.388-8.194-23.57-2.797c-12.213,6.473-22.223,20.158-17.66,30.211
			c0.03,0.066,0.065,0.129,0.106,0.189c3.229,4.723,7.3,7.152,12.098,7.22c0.066,0.001,0.131,0.001,0.197,0.001
			c7.946,0,17.662-6.851,26.036-18.374c0.407-0.56,0.283-1.342-0.277-1.749c-0.558-0.406-1.343-0.284-1.749,0.277
			c-7.904,10.875-16.861,17.342-24.003,17.342c-0.056,0-0.112,0-0.168-0.001c-3.907-0.056-7.272-2.088-10.004-6.039
			c-3.805-8.636,5.662-21.068,16.597-26.864c3.385-1.794,14.848-6.96,20.288,1.933c4.627,6.931-7.344,82.774-15.422,131.087
			c0.544-0.358,1.278-0.246,1.681,0.279c0.42,0.549,0.316,1.336-0.233,1.756c-0.679,0.52-1.361,1.027-2.044,1.524
			c-1.314,7.827-2.505,14.815-3.478,20.525c0.817,0.176,1.633,0.351,2.453,0.516C678.656,796.216,690.02,724.057,684.702,716.093z"
			/>
		<path d="M623.012,803.729c-0.679-0.127-1.333,0.32-1.462,1l-9.091,48.386c0.765,0.441,1.532,0.877,2.304,1.306l9.25-49.229
			C624.139,804.512,623.692,803.858,623.012,803.729z"/>
		<path d="M667.171,848.528c-0.025,0.016-0.051,0.028-0.075,0.046c-10.149,7.77-20.765,12.85-31.553,15.097
			c-0.243,0.051-0.453,0.171-0.618,0.333c1.277,0.511,2.56,1.006,3.849,1.487c9.495-2.388,18.825-6.882,27.801-13.404
			C666.771,850.92,666.97,849.732,667.171,848.528z"/>
		<path d="M668.619,850.563c0.548-0.42,0.653-1.207,0.233-1.756c-0.403-0.525-1.136-0.637-1.681-0.279
			c-0.201,1.203-0.4,2.391-0.596,3.559C667.258,851.591,667.94,851.083,668.619,850.563z"/>
		<path d="M779.736,653.383c-0.014-0.692-0.568-1.269-1.277-1.227c-0.691,0.014-1.24,0.585-1.227,1.277
			c1.837,92.814-4.602,162.526-19.681,213.12c-0.023,0.078-0.037,0.156-0.045,0.235c0.965-0.338,1.926-0.695,2.888-1.05
			C775.227,815.02,781.558,745.537,779.736,653.383z"/>
		<path d="M702.787,740.197c-0.674-0.154-1.347,0.263-1.503,0.937l-30.852,132.901c0.824,0.142,1.648,0.287,2.475,0.417
			L703.724,741.7C703.88,741.026,703.461,740.353,702.787,740.197z"/>
		<path d="M813.396,808.801l-27.234-29.113c-0.473-0.505-1.265-0.53-1.77-0.059c-0.505,0.472-0.532,1.265-0.059,1.77l26.67,28.51
			c-6.173,14.032-12.3,27.627-19.184,39.817c-0.143,0.254-0.183,0.536-0.142,0.804c1.321-0.812,2.628-1.639,3.921-2.481
			c6.414-11.749,12.201-24.626,18.03-37.888C813.83,809.702,813.738,809.167,813.396,808.801z"/>
		<path d="M609.395,770.187c0.245-0.647-0.081-1.369-0.727-1.615c-0.644-0.245-1.369,0.08-1.615,0.727l-23.787,62.735
			c0.664,0.593,1.336,1.177,2.008,1.759c0.002-0.006,0.007-0.01,0.009-0.016L609.395,770.187z"/>
		<path d="M726.78,828.584c-0.684-0.058-1.287,0.477-1.331,1.167l-2.986,45.353c0.844-0.11,1.688-0.225,2.532-0.348l2.952-44.842
			C727.992,829.226,727.47,828.63,726.78,828.584z"/>
		<path d="M832.987,746.322c0.031-0.691-0.503-1.276-1.194-1.307c-0.697-0.055-1.276,0.504-1.307,1.194l-3.401,75.287
			c-0.004,0.092,0.003,0.181,0.018,0.268c0.88-0.932,1.746-1.876,2.604-2.826L832.987,746.322z"/>
	</g>
</g>
</svg>
